G75*
%MOIN*%
%OFA0B0*%
%FSLAX25Y25*%
%IPPOS*%
%LPD*%
%AMOC8*
5,1,8,0,0,1.08239X$1,22.5*
%
%ADD10R,0.07400X0.07400*%
%ADD11C,0.07400*%
%ADD12C,0.07400*%
%ADD13R,0.11811X0.04724*%
%ADD14R,0.04724X0.11811*%
%ADD15C,0.01200*%
%ADD16C,0.03962*%
%ADD17C,0.03200*%
%ADD18C,0.02781*%
%ADD19C,0.32000*%
%ADD20C,0.01600*%
D10*
X0131800Y0191800D03*
D11*
X0131800Y0181800D03*
X0131800Y0171800D03*
X0131800Y0161800D03*
X0131800Y0151800D03*
X0131800Y0141800D03*
X0131800Y0116800D03*
X0141800Y0116800D03*
X0239300Y0224300D03*
X0232229Y0231371D03*
D12*
X0294613Y0291255D02*
X0299845Y0296487D01*
X0306916Y0289416D02*
X0301684Y0284184D01*
X0073987Y0291255D02*
X0068755Y0296487D01*
X0061684Y0289416D02*
X0066916Y0284184D01*
X0066916Y0064416D02*
X0061684Y0059184D01*
X0068755Y0052113D02*
X0073987Y0057345D01*
X0294613Y0057345D02*
X0299845Y0052113D01*
X0306916Y0059184D02*
X0301684Y0064416D01*
D13*
X0219477Y0129517D03*
X0219477Y0137391D03*
X0219477Y0145265D03*
X0219477Y0153139D03*
X0219477Y0161013D03*
X0219477Y0168887D03*
X0219477Y0176761D03*
X0219477Y0184635D03*
X0154910Y0184635D03*
X0154910Y0176761D03*
X0154910Y0168887D03*
X0154910Y0161013D03*
X0154910Y0153139D03*
X0154910Y0145265D03*
X0154910Y0137391D03*
X0154910Y0129517D03*
D14*
X0166328Y0121249D03*
X0174202Y0121249D03*
X0182076Y0121249D03*
X0189950Y0121249D03*
X0197824Y0121249D03*
X0205698Y0121249D03*
D15*
X0209083Y0129517D02*
X0206800Y0131800D01*
X0186800Y0131800D01*
X0181800Y0136800D01*
X0186800Y0141800D02*
X0191800Y0141800D01*
X0194300Y0139300D01*
X0191800Y0146800D02*
X0186800Y0151800D01*
X0181800Y0156800D01*
X0181800Y0186800D01*
X0186800Y0186800D02*
X0186800Y0161800D01*
X0189300Y0159300D01*
X0199300Y0159300D01*
X0209713Y0168887D02*
X0206800Y0171800D01*
X0186800Y0191800D01*
X0179300Y0191800D01*
X0161800Y0206800D01*
X0156800Y0206800D01*
X0161800Y0196800D02*
X0146800Y0196800D01*
X0106800Y0236800D01*
X0106800Y0249300D01*
X0099300Y0256800D01*
X0161800Y0196800D02*
X0166800Y0191800D01*
X0166800Y0171800D01*
X0163887Y0168887D01*
X0154910Y0168887D01*
X0171800Y0181800D02*
X0171800Y0151800D01*
X0165265Y0145265D01*
X0154910Y0145265D01*
X0154910Y0137391D02*
X0155501Y0136800D01*
X0166800Y0136800D01*
X0154910Y0129517D02*
X0154910Y0119910D01*
X0144300Y0109300D01*
X0139300Y0109300D01*
X0131800Y0116800D01*
X0176800Y0151800D02*
X0176800Y0156800D01*
X0176800Y0151800D02*
X0186800Y0141800D01*
X0191800Y0146800D02*
X0209300Y0146800D01*
X0210835Y0145265D01*
X0219477Y0145265D01*
X0219477Y0129517D02*
X0209083Y0129517D01*
X0209713Y0168887D02*
X0219477Y0168887D01*
X0219477Y0176761D02*
X0219517Y0176800D01*
X0231800Y0176800D01*
X0231800Y0186800D01*
X0226800Y0191800D01*
X0219477Y0184635D02*
X0219143Y0184300D01*
X0204300Y0184300D01*
X0176800Y0184300D02*
X0174300Y0184300D01*
X0171800Y0181800D01*
X0161800Y0191800D02*
X0131800Y0191800D01*
D16*
X0126800Y0231800D03*
X0101800Y0271800D03*
X0219300Y0219300D03*
X0261800Y0251800D03*
X0231800Y0141800D03*
X0261800Y0096800D03*
X0106800Y0096800D03*
D17*
X0106800Y0101800D01*
X0139300Y0136800D01*
X0139300Y0154300D01*
X0146013Y0161013D01*
X0154910Y0161013D01*
X0154910Y0153139D02*
X0145639Y0153139D01*
X0144300Y0151800D01*
X0144300Y0124300D01*
X0141800Y0121800D01*
X0141800Y0116800D01*
X0124300Y0126800D02*
X0124300Y0154300D01*
X0131800Y0161800D01*
X0131800Y0171800D02*
X0136761Y0176761D01*
X0154910Y0176761D01*
X0154910Y0184635D02*
X0134635Y0184635D01*
X0131800Y0181800D01*
X0146800Y0211800D02*
X0126800Y0231800D01*
X0116800Y0241800D01*
X0116800Y0256800D01*
X0101800Y0271800D01*
X0146800Y0211800D02*
X0191800Y0211800D01*
X0196800Y0206800D01*
X0221800Y0206800D01*
X0239300Y0224300D01*
X0236800Y0211800D02*
X0236800Y0161800D01*
X0228139Y0153139D01*
X0219477Y0153139D01*
X0231800Y0141800D02*
X0236800Y0136800D01*
X0236800Y0129300D01*
X0304300Y0061800D01*
X0261800Y0096800D02*
X0231800Y0126800D01*
X0231800Y0131800D01*
X0226209Y0137391D01*
X0219477Y0137391D01*
X0236800Y0211800D02*
X0251800Y0226800D01*
X0251800Y0241800D01*
X0261800Y0251800D01*
X0241800Y0241800D02*
X0231800Y0241800D01*
X0216800Y0226800D01*
X0216800Y0221800D01*
X0219300Y0219300D01*
X0241800Y0241800D02*
X0276800Y0276800D01*
X0294300Y0276800D01*
X0304300Y0286800D01*
X0124300Y0126800D02*
X0064300Y0066800D01*
X0064300Y0061800D01*
D18*
X0166800Y0136800D03*
X0181800Y0136800D03*
X0194300Y0139300D03*
X0186800Y0151800D03*
X0176800Y0156800D03*
X0171800Y0151800D03*
X0199300Y0159300D03*
X0206800Y0171800D03*
X0204300Y0184300D03*
X0186800Y0186800D03*
X0181800Y0186800D03*
X0176800Y0184300D03*
X0161800Y0191800D03*
X0156800Y0206800D03*
X0099300Y0256800D03*
X0226800Y0191800D03*
D19*
X0326800Y0316800D03*
X0041800Y0316800D03*
X0041800Y0031800D03*
X0326800Y0031800D03*
D20*
X0001800Y0001800D02*
X0001800Y0341800D01*
X0034589Y0341800D01*
X0030449Y0340352D01*
X0025481Y0337229D01*
X0023431Y0335179D01*
X0023406Y0335155D01*
X0021336Y0333084D01*
X0018220Y0328126D01*
X0016286Y0322599D01*
X0015631Y0316780D01*
X0016286Y0310961D01*
X0018220Y0305434D01*
X0021336Y0300476D01*
X0022808Y0299004D01*
X0022854Y0298905D01*
X0023480Y0298332D01*
X0024081Y0297731D01*
X0024182Y0297689D01*
X0098023Y0230048D01*
X0101005Y0226277D01*
X0106569Y0217817D01*
X0111113Y0208768D01*
X0114576Y0199253D01*
X0116912Y0189400D01*
X0118087Y0179343D01*
X0118087Y0169217D01*
X0116912Y0159160D01*
X0114576Y0149307D01*
X0111113Y0139792D01*
X0106569Y0130744D01*
X0101005Y0122284D01*
X0098024Y0118514D01*
X0024182Y0050911D01*
X0024081Y0050869D01*
X0023481Y0050269D01*
X0022855Y0049696D01*
X0022808Y0049596D01*
X0021333Y0048122D01*
X0021333Y0048122D01*
X0018215Y0043158D01*
X0016279Y0037625D01*
X0015622Y0031800D01*
X0016279Y0025975D01*
X0018215Y0020442D01*
X0021333Y0015478D01*
X0023406Y0013406D01*
X0023406Y0013406D01*
X0023422Y0013389D01*
X0025478Y0011333D01*
X0030442Y0008215D01*
X0035975Y0006279D01*
X0041800Y0005622D01*
X0047625Y0006279D01*
X0047625Y0006279D01*
X0053158Y0008215D01*
X0058122Y0011333D01*
X0059611Y0012823D01*
X0059728Y0012879D01*
X0060283Y0013495D01*
X0060869Y0014081D01*
X0060919Y0014201D01*
X0128529Y0089296D01*
X0132284Y0092264D01*
X0140744Y0097829D01*
X0149792Y0102373D01*
X0159307Y0105836D01*
X0169160Y0108171D01*
X0179217Y0109347D01*
X0189343Y0109347D01*
X0199400Y0108171D01*
X0209253Y0105836D01*
X0218768Y0102373D01*
X0227817Y0097829D01*
X0236277Y0092264D01*
X0240032Y0089295D01*
X0307681Y0014201D01*
X0307731Y0014081D01*
X0308317Y0013494D01*
X0308873Y0012878D01*
X0308990Y0012822D01*
X0310476Y0011336D01*
X0315434Y0008220D01*
X0315434Y0008220D01*
X0320961Y0006286D01*
X0320961Y0006286D01*
X0321383Y0006239D01*
X0001800Y0001800D01*
X0001800Y0002413D02*
X0045965Y0002413D01*
X0050284Y0007209D02*
X0318324Y0007209D01*
X0314500Y0008807D02*
X0054102Y0008807D01*
X0053158Y0008215D02*
X0053158Y0008215D01*
X0056646Y0010406D02*
X0311956Y0010406D01*
X0310476Y0011336D02*
X0310476Y0011336D01*
X0309807Y0012004D02*
X0058793Y0012004D01*
X0058122Y0011333D02*
X0058122Y0011333D01*
X0060391Y0013603D02*
X0308209Y0013603D01*
X0306780Y0015201D02*
X0061820Y0015201D01*
X0063259Y0016800D02*
X0305340Y0016800D01*
X0303900Y0018399D02*
X0064698Y0018399D01*
X0066137Y0019997D02*
X0302459Y0019997D01*
X0301019Y0021596D02*
X0067576Y0021596D01*
X0069016Y0023194D02*
X0299579Y0023194D01*
X0298139Y0024793D02*
X0070455Y0024793D01*
X0071894Y0026391D02*
X0296699Y0026391D01*
X0295259Y0027990D02*
X0073333Y0027990D01*
X0074772Y0029588D02*
X0293819Y0029588D01*
X0292379Y0031187D02*
X0076211Y0031187D01*
X0077651Y0032785D02*
X0290939Y0032785D01*
X0289499Y0034384D02*
X0079090Y0034384D01*
X0080529Y0035982D02*
X0288059Y0035982D01*
X0286619Y0037581D02*
X0081968Y0037581D01*
X0083407Y0039179D02*
X0285179Y0039179D01*
X0283739Y0040778D02*
X0084847Y0040778D01*
X0086286Y0042376D02*
X0282299Y0042376D01*
X0280859Y0043975D02*
X0087725Y0043975D01*
X0089164Y0045573D02*
X0279419Y0045573D01*
X0277979Y0047172D02*
X0090603Y0047172D01*
X0092043Y0048770D02*
X0276539Y0048770D01*
X0275099Y0050369D02*
X0093482Y0050369D01*
X0094921Y0051967D02*
X0273659Y0051967D01*
X0272219Y0053566D02*
X0096360Y0053566D01*
X0097799Y0055164D02*
X0270779Y0055164D01*
X0269339Y0056763D02*
X0099239Y0056763D01*
X0100678Y0058361D02*
X0267899Y0058361D01*
X0266459Y0059960D02*
X0102117Y0059960D01*
X0103556Y0061558D02*
X0265019Y0061558D01*
X0263579Y0063157D02*
X0104995Y0063157D01*
X0106434Y0064755D02*
X0262139Y0064755D01*
X0260699Y0066354D02*
X0107874Y0066354D01*
X0109313Y0067952D02*
X0259259Y0067952D01*
X0257819Y0069551D02*
X0110752Y0069551D01*
X0112191Y0071149D02*
X0256379Y0071149D01*
X0254939Y0072748D02*
X0113630Y0072748D01*
X0115070Y0074346D02*
X0253499Y0074346D01*
X0252059Y0075945D02*
X0116509Y0075945D01*
X0117948Y0077543D02*
X0250619Y0077543D01*
X0249179Y0079142D02*
X0119387Y0079142D01*
X0120826Y0080740D02*
X0247739Y0080740D01*
X0246299Y0082339D02*
X0122266Y0082339D01*
X0123705Y0083937D02*
X0244859Y0083937D01*
X0243419Y0085536D02*
X0125144Y0085536D01*
X0126583Y0087134D02*
X0241979Y0087134D01*
X0240539Y0088733D02*
X0128022Y0088733D01*
X0129839Y0090332D02*
X0238722Y0090332D01*
X0236700Y0091930D02*
X0131861Y0091930D01*
X0134206Y0093529D02*
X0234355Y0093529D01*
X0231925Y0095127D02*
X0136636Y0095127D01*
X0139066Y0096726D02*
X0229494Y0096726D01*
X0226831Y0098324D02*
X0141730Y0098324D01*
X0144913Y0099923D02*
X0223648Y0099923D01*
X0220465Y0101521D02*
X0148096Y0101521D01*
X0151843Y0103120D02*
X0216717Y0103120D01*
X0212325Y0104718D02*
X0156235Y0104718D01*
X0161334Y0106317D02*
X0207227Y0106317D01*
X0200482Y0107915D02*
X0168079Y0107915D01*
X0162365Y0116578D02*
X0156507Y0115190D01*
X0151467Y0113355D01*
X0157110Y0118999D01*
X0157110Y0120822D01*
X0157110Y0125554D01*
X0161478Y0125554D01*
X0162365Y0126441D01*
X0162365Y0116578D01*
X0162365Y0117506D02*
X0155617Y0117506D01*
X0157110Y0119105D02*
X0162365Y0119105D01*
X0162365Y0120703D02*
X0157110Y0120703D01*
X0157110Y0122302D02*
X0162365Y0122302D01*
X0162365Y0123900D02*
X0157110Y0123900D01*
X0157110Y0125499D02*
X0162365Y0125499D01*
X0162416Y0127867D02*
X0162416Y0132541D01*
X0161504Y0133454D01*
X0162416Y0134366D01*
X0162416Y0134600D01*
X0164771Y0134600D01*
X0165106Y0134265D01*
X0166205Y0133809D01*
X0167395Y0133809D01*
X0168494Y0134265D01*
X0169335Y0135106D01*
X0169791Y0136205D01*
X0169791Y0137395D01*
X0169335Y0138494D01*
X0168494Y0139335D01*
X0167395Y0139791D01*
X0166205Y0139791D01*
X0165106Y0139335D01*
X0164771Y0139000D01*
X0162416Y0139000D01*
X0162416Y0140415D01*
X0161504Y0141328D01*
X0162416Y0142240D01*
X0162416Y0143065D01*
X0166176Y0143065D01*
X0171921Y0148809D01*
X0172395Y0148809D01*
X0173494Y0149265D01*
X0174335Y0150106D01*
X0174642Y0150847D01*
X0184600Y0140889D01*
X0185889Y0139600D01*
X0190889Y0139600D01*
X0191309Y0139179D01*
X0191309Y0138705D01*
X0191765Y0137606D01*
X0192606Y0136765D01*
X0193705Y0136309D01*
X0194895Y0136309D01*
X0195994Y0136765D01*
X0196835Y0137606D01*
X0197291Y0138705D01*
X0197291Y0139895D01*
X0196835Y0140994D01*
X0195994Y0141835D01*
X0194895Y0142291D01*
X0194421Y0142291D01*
X0192711Y0144000D01*
X0187711Y0144000D01*
X0179000Y0152711D01*
X0179000Y0154771D01*
X0179335Y0155106D01*
X0179642Y0155847D01*
X0183809Y0151679D01*
X0183809Y0151205D01*
X0184265Y0150106D01*
X0185106Y0149265D01*
X0186205Y0148809D01*
X0186679Y0148809D01*
X0190889Y0144600D01*
X0208389Y0144600D01*
X0209924Y0143065D01*
X0211972Y0143065D01*
X0211972Y0142240D01*
X0212884Y0141328D01*
X0211972Y0140415D01*
X0211972Y0134366D01*
X0212884Y0133454D01*
X0211972Y0132541D01*
X0211972Y0131717D01*
X0209995Y0131717D01*
X0209000Y0132711D01*
X0207711Y0134000D01*
X0187711Y0134000D01*
X0184791Y0136921D01*
X0184791Y0137395D01*
X0184335Y0138494D01*
X0183494Y0139335D01*
X0182395Y0139791D01*
X0181205Y0139791D01*
X0180106Y0139335D01*
X0179265Y0138494D01*
X0178809Y0137395D01*
X0178809Y0136205D01*
X0179265Y0135106D01*
X0180106Y0134265D01*
X0181205Y0133809D01*
X0181679Y0133809D01*
X0185889Y0129600D01*
X0205889Y0129600D01*
X0206734Y0128754D01*
X0202673Y0128754D01*
X0201761Y0127842D01*
X0200849Y0128754D01*
X0194799Y0128754D01*
X0193887Y0127842D01*
X0192975Y0128754D01*
X0186925Y0128754D01*
X0186013Y0127842D01*
X0185101Y0128754D01*
X0179051Y0128754D01*
X0178139Y0127842D01*
X0177227Y0128754D01*
X0171177Y0128754D01*
X0170265Y0127842D01*
X0169352Y0128754D01*
X0163303Y0128754D01*
X0162416Y0127867D01*
X0162416Y0128696D02*
X0163244Y0128696D01*
X0162416Y0130294D02*
X0185194Y0130294D01*
X0185159Y0128696D02*
X0186866Y0128696D01*
X0183596Y0131893D02*
X0162416Y0131893D01*
X0161541Y0133491D02*
X0181997Y0133491D01*
X0179281Y0135090D02*
X0169319Y0135090D01*
X0169791Y0136688D02*
X0178809Y0136688D01*
X0179179Y0138287D02*
X0169421Y0138287D01*
X0166194Y0143082D02*
X0182406Y0143082D01*
X0184005Y0141484D02*
X0161660Y0141484D01*
X0162416Y0139885D02*
X0185603Y0139885D01*
X0184421Y0138287D02*
X0191483Y0138287D01*
X0192790Y0136688D02*
X0185023Y0136688D01*
X0186621Y0135090D02*
X0211972Y0135090D01*
X0211972Y0136688D02*
X0195810Y0136688D01*
X0197117Y0138287D02*
X0211972Y0138287D01*
X0211972Y0139885D02*
X0197291Y0139885D01*
X0196345Y0141484D02*
X0212727Y0141484D01*
X0209906Y0143082D02*
X0193629Y0143082D01*
X0190808Y0144681D02*
X0187030Y0144681D01*
X0185432Y0146279D02*
X0189209Y0146279D01*
X0187611Y0147878D02*
X0183833Y0147878D01*
X0184894Y0149476D02*
X0182235Y0149476D01*
X0180636Y0151075D02*
X0183863Y0151075D01*
X0182815Y0152673D02*
X0179038Y0152673D01*
X0179000Y0154272D02*
X0181217Y0154272D01*
X0179600Y0157855D02*
X0179335Y0158494D01*
X0178494Y0159335D01*
X0177395Y0159791D01*
X0176205Y0159791D01*
X0175106Y0159335D01*
X0174265Y0158494D01*
X0174000Y0157855D01*
X0174000Y0180889D01*
X0174991Y0181880D01*
X0175106Y0181765D01*
X0176205Y0181309D01*
X0177395Y0181309D01*
X0178494Y0181765D01*
X0179335Y0182606D01*
X0179600Y0183245D01*
X0179600Y0157855D01*
X0179600Y0159068D02*
X0178762Y0159068D01*
X0179600Y0160666D02*
X0174000Y0160666D01*
X0174000Y0159068D02*
X0174838Y0159068D01*
X0174000Y0162265D02*
X0179600Y0162265D01*
X0179600Y0163863D02*
X0174000Y0163863D01*
X0174000Y0165462D02*
X0179600Y0165462D01*
X0179600Y0167060D02*
X0174000Y0167060D01*
X0174000Y0168659D02*
X0179600Y0168659D01*
X0179600Y0170257D02*
X0174000Y0170257D01*
X0174000Y0171856D02*
X0179600Y0171856D01*
X0179600Y0173454D02*
X0174000Y0173454D01*
X0174000Y0175053D02*
X0179600Y0175053D01*
X0179600Y0176651D02*
X0174000Y0176651D01*
X0174000Y0178250D02*
X0179600Y0178250D01*
X0179600Y0179848D02*
X0174000Y0179848D01*
X0174558Y0181447D02*
X0175874Y0181447D01*
X0177726Y0181447D02*
X0179600Y0181447D01*
X0179600Y0183045D02*
X0179517Y0183045D01*
X0178809Y0186520D02*
X0178494Y0186835D01*
X0177395Y0187291D01*
X0176205Y0187291D01*
X0175106Y0186835D01*
X0174771Y0186500D01*
X0173389Y0186500D01*
X0170889Y0184000D01*
X0169600Y0182711D01*
X0169600Y0153829D01*
X0169265Y0153494D01*
X0168809Y0152395D01*
X0168809Y0151921D01*
X0164353Y0147465D01*
X0162416Y0147465D01*
X0162416Y0148290D01*
X0161504Y0149202D01*
X0162416Y0150114D01*
X0162416Y0156164D01*
X0161504Y0157076D01*
X0162416Y0157988D01*
X0162416Y0164038D01*
X0161504Y0164950D01*
X0162416Y0165862D01*
X0162416Y0166687D01*
X0164798Y0166687D01*
X0166087Y0167975D01*
X0169000Y0170889D01*
X0169000Y0172711D01*
X0169000Y0192711D01*
X0167711Y0194000D01*
X0162711Y0199000D01*
X0147711Y0199000D01*
X0109000Y0237711D01*
X0109000Y0250211D01*
X0107711Y0251500D01*
X0102291Y0256921D01*
X0102291Y0257395D01*
X0101835Y0258494D01*
X0100994Y0259335D01*
X0099895Y0259791D01*
X0098705Y0259791D01*
X0097606Y0259335D01*
X0096765Y0258494D01*
X0096309Y0257395D01*
X0096309Y0256205D01*
X0096765Y0255106D01*
X0097606Y0254265D01*
X0098705Y0253809D01*
X0099179Y0253809D01*
X0104600Y0248389D01*
X0104600Y0237154D01*
X0104317Y0237301D01*
X0035612Y0300237D01*
X0039483Y0299200D01*
X0044117Y0299200D01*
X0048593Y0300399D01*
X0052607Y0302716D01*
X0055883Y0305993D01*
X0058201Y0310007D01*
X0059400Y0314483D01*
X0059400Y0319117D01*
X0058364Y0322984D01*
X0101920Y0275381D01*
X0101088Y0275381D01*
X0099771Y0274836D01*
X0098764Y0273829D01*
X0098219Y0272512D01*
X0098219Y0271088D01*
X0098764Y0269771D01*
X0099771Y0268764D01*
X0100692Y0268383D01*
X0113600Y0255475D01*
X0113600Y0241163D01*
X0114087Y0239987D01*
X0123383Y0230692D01*
X0123764Y0229771D01*
X0124771Y0228764D01*
X0125692Y0228383D01*
X0144987Y0209087D01*
X0146163Y0208600D01*
X0154371Y0208600D01*
X0154265Y0208494D01*
X0153809Y0207395D01*
X0153809Y0206205D01*
X0154265Y0205106D01*
X0155106Y0204265D01*
X0156205Y0203809D01*
X0157395Y0203809D01*
X0158494Y0204265D01*
X0158829Y0204600D01*
X0160986Y0204600D01*
X0177804Y0190185D01*
X0178389Y0189600D01*
X0178486Y0189600D01*
X0178560Y0189537D01*
X0179384Y0189600D01*
X0180745Y0189600D01*
X0180106Y0189335D01*
X0179265Y0188494D01*
X0178809Y0187395D01*
X0178809Y0186520D01*
X0178994Y0187841D02*
X0169000Y0187841D01*
X0169000Y0189439D02*
X0180357Y0189439D01*
X0182855Y0189600D02*
X0185745Y0189600D01*
X0185106Y0189335D01*
X0184300Y0188529D01*
X0183494Y0189335D01*
X0182855Y0189600D01*
X0183243Y0189439D02*
X0185357Y0189439D01*
X0189000Y0192711D02*
X0187711Y0194000D01*
X0180114Y0194000D01*
X0163296Y0208415D01*
X0163111Y0208600D01*
X0190475Y0208600D01*
X0194087Y0204987D01*
X0194987Y0204087D01*
X0196163Y0203600D01*
X0222437Y0203600D01*
X0223613Y0204087D01*
X0238525Y0219000D01*
X0239475Y0219000D01*
X0234987Y0214513D01*
X0234087Y0213613D01*
X0233600Y0212437D01*
X0233600Y0188111D01*
X0229791Y0191921D01*
X0229791Y0192395D01*
X0229335Y0193494D01*
X0228494Y0194335D01*
X0227395Y0194791D01*
X0226205Y0194791D01*
X0225106Y0194335D01*
X0224265Y0193494D01*
X0223809Y0192395D01*
X0223809Y0191205D01*
X0224265Y0190106D01*
X0225106Y0189265D01*
X0226205Y0188809D01*
X0226679Y0188809D01*
X0229600Y0185889D01*
X0229600Y0179000D01*
X0226983Y0179000D01*
X0226983Y0179786D01*
X0226071Y0180698D01*
X0226983Y0181610D01*
X0226983Y0187660D01*
X0226045Y0188597D01*
X0212909Y0188597D01*
X0211972Y0187660D01*
X0211972Y0186500D01*
X0206329Y0186500D01*
X0205994Y0186835D01*
X0204895Y0187291D01*
X0203705Y0187291D01*
X0202606Y0186835D01*
X0201765Y0185994D01*
X0201309Y0184895D01*
X0201309Y0183705D01*
X0201765Y0182606D01*
X0202606Y0181765D01*
X0203705Y0181309D01*
X0204895Y0181309D01*
X0205994Y0181765D01*
X0206329Y0182100D01*
X0211972Y0182100D01*
X0211972Y0181610D01*
X0212884Y0180698D01*
X0211972Y0179786D01*
X0211972Y0173736D01*
X0212884Y0172824D01*
X0211972Y0171912D01*
X0211972Y0171087D01*
X0210625Y0171087D01*
X0209791Y0171921D01*
X0209791Y0172395D01*
X0209335Y0173494D01*
X0208494Y0174335D01*
X0207395Y0174791D01*
X0206921Y0174791D01*
X0189000Y0192711D01*
X0189075Y0192636D02*
X0223909Y0192636D01*
X0223879Y0191038D02*
X0190674Y0191038D01*
X0192272Y0189439D02*
X0224931Y0189439D01*
X0226802Y0187841D02*
X0227648Y0187841D01*
X0226983Y0186242D02*
X0229247Y0186242D01*
X0229600Y0184644D02*
X0226983Y0184644D01*
X0226983Y0183045D02*
X0229600Y0183045D01*
X0229600Y0181447D02*
X0226820Y0181447D01*
X0226920Y0179848D02*
X0229600Y0179848D01*
X0233600Y0175489D02*
X0233600Y0163125D01*
X0226813Y0156339D01*
X0226808Y0156339D01*
X0226071Y0157076D01*
X0226983Y0157988D01*
X0226983Y0164038D01*
X0226071Y0164950D01*
X0226983Y0165862D01*
X0226983Y0171912D01*
X0226071Y0172824D01*
X0226983Y0173736D01*
X0226983Y0174600D01*
X0232711Y0174600D01*
X0233600Y0175489D01*
X0233600Y0175053D02*
X0233164Y0175053D01*
X0233600Y0173454D02*
X0226701Y0173454D01*
X0226983Y0171856D02*
X0233600Y0171856D01*
X0233600Y0170257D02*
X0226983Y0170257D01*
X0226983Y0168659D02*
X0233600Y0168659D01*
X0233600Y0167060D02*
X0226983Y0167060D01*
X0226583Y0165462D02*
X0233600Y0165462D01*
X0233600Y0163863D02*
X0226983Y0163863D01*
X0226983Y0162265D02*
X0232739Y0162265D01*
X0231141Y0160666D02*
X0226983Y0160666D01*
X0226983Y0159068D02*
X0229542Y0159068D01*
X0227944Y0157469D02*
X0226464Y0157469D01*
X0232199Y0152673D02*
X0243169Y0152673D01*
X0243548Y0151075D02*
X0230600Y0151075D01*
X0230851Y0151326D02*
X0229951Y0150426D01*
X0228775Y0149939D01*
X0226808Y0149939D01*
X0226071Y0149202D01*
X0226983Y0148290D01*
X0226983Y0142240D01*
X0226071Y0141328D01*
X0226808Y0140591D01*
X0226846Y0140591D01*
X0228022Y0140103D01*
X0228922Y0139203D01*
X0233600Y0134525D01*
X0233600Y0135475D01*
X0230692Y0138383D01*
X0229771Y0138764D01*
X0228764Y0139771D01*
X0228219Y0141088D01*
X0228219Y0142512D01*
X0228764Y0143829D01*
X0229771Y0144836D01*
X0231088Y0145381D01*
X0232512Y0145381D01*
X0233829Y0144836D01*
X0234836Y0143829D01*
X0235217Y0142908D01*
X0239513Y0138613D01*
X0240000Y0137437D01*
X0240000Y0130625D01*
X0300909Y0069716D01*
X0302738Y0069716D01*
X0304686Y0068909D01*
X0311409Y0062186D01*
X0312216Y0060238D01*
X0312216Y0058129D01*
X0311409Y0056181D01*
X0309918Y0054691D01*
X0307971Y0053884D01*
X0305862Y0053884D01*
X0304638Y0054391D01*
X0305145Y0053167D01*
X0305145Y0051058D01*
X0304338Y0049110D01*
X0302847Y0047620D01*
X0300899Y0046813D01*
X0298791Y0046813D01*
X0296843Y0047620D01*
X0290120Y0054343D01*
X0289313Y0056291D01*
X0289313Y0058399D01*
X0290120Y0060347D01*
X0291610Y0061838D01*
X0293558Y0062645D01*
X0295667Y0062645D01*
X0296891Y0062138D01*
X0296384Y0063362D01*
X0296384Y0065191D01*
X0265381Y0096193D01*
X0265381Y0096088D01*
X0264836Y0094771D01*
X0263829Y0093764D01*
X0262512Y0093219D01*
X0261088Y0093219D01*
X0259771Y0093764D01*
X0258764Y0094771D01*
X0258383Y0095692D01*
X0229987Y0124087D01*
X0229087Y0124987D01*
X0228600Y0126163D01*
X0228600Y0130475D01*
X0226983Y0132092D01*
X0226983Y0126492D01*
X0226045Y0125554D01*
X0212909Y0125554D01*
X0211972Y0126492D01*
X0211972Y0127317D01*
X0209660Y0127317D01*
X0209660Y0115757D01*
X0212054Y0115190D01*
X0212054Y0115190D01*
X0222636Y0111338D01*
X0222636Y0111338D01*
X0232699Y0106284D01*
X0232699Y0106284D01*
X0242108Y0100096D01*
X0242108Y0100096D01*
X0245953Y0096870D01*
X0246263Y0096722D01*
X0246677Y0096262D01*
X0247152Y0095863D01*
X0247311Y0095559D01*
X0310201Y0025746D01*
X0309200Y0029483D01*
X0309200Y0034117D01*
X0310399Y0038593D01*
X0312716Y0042607D01*
X0315993Y0045883D01*
X0320007Y0048201D01*
X0324483Y0049400D01*
X0329117Y0049400D01*
X0332979Y0048365D01*
X0264245Y0111259D01*
X0263957Y0111408D01*
X0263547Y0111897D01*
X0263076Y0112328D01*
X0262938Y0112623D01*
X0259724Y0116453D01*
X0259724Y0116453D01*
X0253536Y0125862D01*
X0253536Y0125862D01*
X0248482Y0135925D01*
X0248482Y0135925D01*
X0244631Y0146507D01*
X0244631Y0146507D01*
X0242034Y0157465D01*
X0242034Y0157465D01*
X0240726Y0168650D01*
X0240726Y0179911D01*
X0242034Y0191096D01*
X0242034Y0191096D01*
X0244631Y0202054D01*
X0244631Y0202054D01*
X0248482Y0212636D01*
X0248482Y0212636D01*
X0253536Y0222699D01*
X0253536Y0222699D01*
X0259724Y0232108D01*
X0259724Y0232108D01*
X0262938Y0235938D01*
X0263075Y0236231D01*
X0263546Y0236663D01*
X0263957Y0237152D01*
X0264245Y0237302D01*
X0332988Y0300237D01*
X0329117Y0299200D01*
X0324483Y0299200D01*
X0320007Y0300399D01*
X0315993Y0302716D01*
X0312716Y0305993D01*
X0310399Y0310007D01*
X0309200Y0314483D01*
X0309200Y0319117D01*
X0310236Y0322984D01*
X0247302Y0254244D01*
X0247152Y0253957D01*
X0246663Y0253546D01*
X0246231Y0253075D01*
X0245937Y0252938D01*
X0242108Y0249724D01*
X0242108Y0249724D01*
X0234925Y0245000D01*
X0240475Y0245000D01*
X0274987Y0279513D01*
X0276163Y0280000D01*
X0292975Y0280000D01*
X0296384Y0283409D01*
X0296384Y0285238D01*
X0296891Y0286462D01*
X0295667Y0285955D01*
X0293558Y0285955D01*
X0291610Y0286762D01*
X0290120Y0288253D01*
X0289313Y0290201D01*
X0289313Y0292309D01*
X0290120Y0294257D01*
X0296843Y0300980D01*
X0298791Y0301787D01*
X0300899Y0301787D01*
X0302847Y0300980D01*
X0304338Y0299490D01*
X0305145Y0297542D01*
X0305145Y0295433D01*
X0304638Y0294209D01*
X0305862Y0294716D01*
X0307971Y0294716D01*
X0309918Y0293909D01*
X0311409Y0292418D01*
X0312216Y0290471D01*
X0312216Y0288362D01*
X0311409Y0286414D01*
X0304686Y0279691D01*
X0302738Y0278884D01*
X0300909Y0278884D01*
X0297013Y0274987D01*
X0296113Y0274087D01*
X0294937Y0273600D01*
X0278125Y0273600D01*
X0244513Y0239987D01*
X0243613Y0239087D01*
X0242437Y0238600D01*
X0233125Y0238600D01*
X0231197Y0236671D01*
X0233283Y0236671D01*
X0235231Y0235864D01*
X0236722Y0234373D01*
X0237529Y0232425D01*
X0237529Y0230317D01*
X0237022Y0229093D01*
X0238246Y0229600D01*
X0240354Y0229600D01*
X0242302Y0228793D01*
X0243793Y0227302D01*
X0244600Y0225354D01*
X0244600Y0224125D01*
X0248600Y0228125D01*
X0248600Y0242437D01*
X0249087Y0243613D01*
X0249987Y0244513D01*
X0258383Y0252908D01*
X0258764Y0253829D01*
X0259771Y0254836D01*
X0261088Y0255381D01*
X0262512Y0255381D01*
X0263829Y0254836D01*
X0264836Y0253829D01*
X0265381Y0252512D01*
X0265381Y0251088D01*
X0264836Y0249771D01*
X0263829Y0248764D01*
X0262908Y0248383D01*
X0255000Y0240475D01*
X0255000Y0226163D01*
X0254513Y0224987D01*
X0253613Y0224087D01*
X0253613Y0224087D01*
X0240000Y0210475D01*
X0240000Y0161163D01*
X0239513Y0159987D01*
X0230851Y0151326D01*
X0230851Y0151326D01*
X0233797Y0154272D02*
X0242790Y0154272D01*
X0242411Y0155870D02*
X0235396Y0155870D01*
X0236994Y0157469D02*
X0242033Y0157469D01*
X0241846Y0159068D02*
X0238593Y0159068D01*
X0239794Y0160666D02*
X0241659Y0160666D01*
X0241472Y0162265D02*
X0240000Y0162265D01*
X0240000Y0163863D02*
X0241286Y0163863D01*
X0241099Y0165462D02*
X0240000Y0165462D01*
X0240000Y0167060D02*
X0240912Y0167060D01*
X0240726Y0168659D02*
X0240000Y0168659D01*
X0240000Y0170257D02*
X0240726Y0170257D01*
X0240726Y0171856D02*
X0240000Y0171856D01*
X0240000Y0173454D02*
X0240726Y0173454D01*
X0240726Y0175053D02*
X0240000Y0175053D01*
X0240000Y0176651D02*
X0240726Y0176651D01*
X0240726Y0178250D02*
X0240000Y0178250D01*
X0240000Y0179848D02*
X0240726Y0179848D01*
X0240906Y0181447D02*
X0240000Y0181447D01*
X0240000Y0183045D02*
X0241093Y0183045D01*
X0241279Y0184644D02*
X0240000Y0184644D01*
X0240000Y0186242D02*
X0241466Y0186242D01*
X0241653Y0187841D02*
X0240000Y0187841D01*
X0240000Y0189439D02*
X0241840Y0189439D01*
X0242027Y0191038D02*
X0240000Y0191038D01*
X0240000Y0192636D02*
X0242399Y0192636D01*
X0242777Y0194235D02*
X0240000Y0194235D01*
X0240000Y0195833D02*
X0243156Y0195833D01*
X0243535Y0197432D02*
X0240000Y0197432D01*
X0240000Y0199030D02*
X0243914Y0199030D01*
X0244293Y0200629D02*
X0240000Y0200629D01*
X0240000Y0202227D02*
X0244694Y0202227D01*
X0245276Y0203826D02*
X0240000Y0203826D01*
X0240000Y0205424D02*
X0245857Y0205424D01*
X0246439Y0207023D02*
X0240000Y0207023D01*
X0240000Y0208621D02*
X0247021Y0208621D01*
X0247603Y0210220D02*
X0240000Y0210220D01*
X0241344Y0211818D02*
X0248185Y0211818D01*
X0248874Y0213417D02*
X0242942Y0213417D01*
X0244541Y0215015D02*
X0249677Y0215015D01*
X0250480Y0216614D02*
X0246139Y0216614D01*
X0247738Y0218212D02*
X0251283Y0218212D01*
X0252086Y0219811D02*
X0249336Y0219811D01*
X0250935Y0221409D02*
X0252888Y0221409D01*
X0252533Y0223008D02*
X0253739Y0223008D01*
X0254132Y0224606D02*
X0254791Y0224606D01*
X0255000Y0226205D02*
X0255842Y0226205D01*
X0255000Y0227803D02*
X0256893Y0227803D01*
X0257945Y0229402D02*
X0255000Y0229402D01*
X0255000Y0231001D02*
X0258996Y0231001D01*
X0260137Y0232599D02*
X0255000Y0232599D01*
X0255000Y0234198D02*
X0261478Y0234198D01*
X0262819Y0235796D02*
X0255000Y0235796D01*
X0255000Y0237395D02*
X0264346Y0237395D01*
X0266092Y0238993D02*
X0255000Y0238993D01*
X0255117Y0240592D02*
X0267838Y0240592D01*
X0269584Y0242190D02*
X0256716Y0242190D01*
X0258314Y0243789D02*
X0271330Y0243789D01*
X0273076Y0245387D02*
X0259913Y0245387D01*
X0261511Y0246986D02*
X0274822Y0246986D01*
X0276568Y0248584D02*
X0263394Y0248584D01*
X0265006Y0250183D02*
X0278314Y0250183D01*
X0280060Y0251781D02*
X0265381Y0251781D01*
X0265022Y0253380D02*
X0281806Y0253380D01*
X0283552Y0254978D02*
X0263485Y0254978D01*
X0261102Y0256577D02*
X0285298Y0256577D01*
X0287044Y0258175D02*
X0262701Y0258175D01*
X0264299Y0259774D02*
X0288790Y0259774D01*
X0290536Y0261372D02*
X0265898Y0261372D01*
X0267496Y0262971D02*
X0292282Y0262971D01*
X0294028Y0264569D02*
X0269095Y0264569D01*
X0270693Y0266168D02*
X0295775Y0266168D01*
X0297521Y0267766D02*
X0272292Y0267766D01*
X0273890Y0269365D02*
X0299267Y0269365D01*
X0301013Y0270963D02*
X0275489Y0270963D01*
X0277087Y0272562D02*
X0302759Y0272562D01*
X0304505Y0274160D02*
X0296186Y0274160D01*
X0297784Y0275759D02*
X0306251Y0275759D01*
X0307997Y0277357D02*
X0299383Y0277357D01*
X0302912Y0278956D02*
X0309743Y0278956D01*
X0311489Y0280554D02*
X0305550Y0280554D01*
X0307148Y0282153D02*
X0313235Y0282153D01*
X0314981Y0283751D02*
X0308747Y0283751D01*
X0310345Y0285350D02*
X0316727Y0285350D01*
X0318473Y0286948D02*
X0311631Y0286948D01*
X0312216Y0288547D02*
X0320219Y0288547D01*
X0321965Y0290145D02*
X0312216Y0290145D01*
X0311689Y0291744D02*
X0323711Y0291744D01*
X0325457Y0293342D02*
X0310485Y0293342D01*
X0304941Y0294941D02*
X0327203Y0294941D01*
X0328949Y0296539D02*
X0305145Y0296539D01*
X0304898Y0298138D02*
X0330695Y0298138D01*
X0331119Y0299737D02*
X0332441Y0299737D01*
X0339674Y0293342D02*
X0357523Y0293342D01*
X0357547Y0291744D02*
X0337928Y0291744D01*
X0336182Y0290145D02*
X0357571Y0290145D01*
X0357595Y0288547D02*
X0334436Y0288547D01*
X0332690Y0286948D02*
X0357619Y0286948D01*
X0357643Y0285350D02*
X0330944Y0285350D01*
X0329198Y0283751D02*
X0357666Y0283751D01*
X0357690Y0282153D02*
X0327452Y0282153D01*
X0325706Y0280554D02*
X0357714Y0280554D01*
X0357738Y0278956D02*
X0323960Y0278956D01*
X0322214Y0277357D02*
X0357762Y0277357D01*
X0357786Y0275759D02*
X0320467Y0275759D01*
X0318721Y0274160D02*
X0357810Y0274160D01*
X0357833Y0272562D02*
X0316975Y0272562D01*
X0315229Y0270963D02*
X0357857Y0270963D01*
X0357881Y0269365D02*
X0313483Y0269365D01*
X0311737Y0267766D02*
X0357905Y0267766D01*
X0357929Y0266168D02*
X0309991Y0266168D01*
X0308245Y0264569D02*
X0357953Y0264569D01*
X0357977Y0262971D02*
X0306499Y0262971D01*
X0304753Y0261372D02*
X0358000Y0261372D01*
X0358024Y0259774D02*
X0303007Y0259774D01*
X0301261Y0258175D02*
X0358048Y0258175D01*
X0358072Y0256577D02*
X0299515Y0256577D01*
X0297769Y0254978D02*
X0358096Y0254978D01*
X0358120Y0253380D02*
X0296023Y0253380D01*
X0294277Y0251781D02*
X0358144Y0251781D01*
X0358167Y0250183D02*
X0292531Y0250183D01*
X0290785Y0248584D02*
X0358191Y0248584D01*
X0358215Y0246986D02*
X0289039Y0246986D01*
X0287293Y0245387D02*
X0358239Y0245387D01*
X0358263Y0243789D02*
X0285547Y0243789D01*
X0283801Y0242190D02*
X0358287Y0242190D01*
X0358311Y0240592D02*
X0282055Y0240592D01*
X0280309Y0238993D02*
X0358334Y0238993D01*
X0358358Y0237395D02*
X0278563Y0237395D01*
X0276817Y0235796D02*
X0358382Y0235796D01*
X0358406Y0234198D02*
X0275070Y0234198D01*
X0273324Y0232599D02*
X0358430Y0232599D01*
X0358454Y0231001D02*
X0271578Y0231001D01*
X0270537Y0230047D02*
X0344378Y0297649D01*
X0344480Y0297691D01*
X0345080Y0298292D01*
X0345706Y0298865D01*
X0345752Y0298964D01*
X0347227Y0300439D01*
X0350346Y0305402D01*
X0350346Y0305403D01*
X0352282Y0310936D01*
X0352938Y0316761D01*
X0352282Y0322586D01*
X0350346Y0328119D01*
X0347227Y0333082D01*
X0345155Y0335155D01*
X0345155Y0335155D01*
X0345155Y0335155D01*
X0343092Y0337223D01*
X0343092Y0337223D01*
X0338138Y0340345D01*
X0333997Y0341800D01*
X0356800Y0341800D01*
X0361800Y0006800D01*
X0332921Y0006399D01*
X0338126Y0008220D01*
X0338126Y0008220D01*
X0343084Y0011336D01*
X0345155Y0013406D01*
X0345157Y0013408D01*
X0347226Y0015471D01*
X0350351Y0020431D01*
X0352294Y0025961D01*
X0352958Y0031785D01*
X0352958Y0031785D01*
X0352309Y0037611D01*
X0350381Y0043147D01*
X0347268Y0048114D01*
X0345793Y0049594D01*
X0345745Y0049697D01*
X0345121Y0050267D01*
X0344524Y0050866D01*
X0344420Y0050909D01*
X0270537Y0118514D01*
X0267556Y0122284D01*
X0261992Y0130744D01*
X0257447Y0139792D01*
X0253984Y0149307D01*
X0251649Y0159160D01*
X0250473Y0169217D01*
X0250473Y0179343D01*
X0251649Y0189400D01*
X0253984Y0199253D01*
X0257447Y0208768D01*
X0261992Y0217817D01*
X0267556Y0226277D01*
X0270537Y0230047D01*
X0270027Y0229402D02*
X0358478Y0229402D01*
X0358501Y0227803D02*
X0268763Y0227803D01*
X0267509Y0226205D02*
X0358525Y0226205D01*
X0358549Y0224606D02*
X0266457Y0224606D01*
X0265406Y0223008D02*
X0358573Y0223008D01*
X0358597Y0221409D02*
X0264355Y0221409D01*
X0263303Y0219811D02*
X0358621Y0219811D01*
X0358645Y0218212D02*
X0262252Y0218212D01*
X0261388Y0216614D02*
X0358668Y0216614D01*
X0358692Y0215015D02*
X0260585Y0215015D01*
X0259782Y0213417D02*
X0358716Y0213417D01*
X0358740Y0211818D02*
X0258979Y0211818D01*
X0258176Y0210220D02*
X0358764Y0210220D01*
X0358788Y0208621D02*
X0257394Y0208621D01*
X0256812Y0207023D02*
X0358812Y0207023D01*
X0358835Y0205424D02*
X0256230Y0205424D01*
X0255648Y0203826D02*
X0358859Y0203826D01*
X0358883Y0202227D02*
X0255067Y0202227D01*
X0254485Y0200629D02*
X0358907Y0200629D01*
X0358931Y0199030D02*
X0253931Y0199030D01*
X0253552Y0197432D02*
X0358955Y0197432D01*
X0358979Y0195833D02*
X0253174Y0195833D01*
X0252795Y0194235D02*
X0359002Y0194235D01*
X0359026Y0192636D02*
X0252416Y0192636D01*
X0252037Y0191038D02*
X0359050Y0191038D01*
X0359074Y0189439D02*
X0251658Y0189439D01*
X0251467Y0187841D02*
X0359098Y0187841D01*
X0359122Y0186242D02*
X0251280Y0186242D01*
X0251093Y0184644D02*
X0359146Y0184644D01*
X0359169Y0183045D02*
X0250906Y0183045D01*
X0250719Y0181447D02*
X0359193Y0181447D01*
X0359217Y0179848D02*
X0250532Y0179848D01*
X0250473Y0178250D02*
X0359241Y0178250D01*
X0359265Y0176651D02*
X0250473Y0176651D01*
X0250473Y0175053D02*
X0359289Y0175053D01*
X0359313Y0173454D02*
X0250473Y0173454D01*
X0250473Y0171856D02*
X0359336Y0171856D01*
X0359360Y0170257D02*
X0250473Y0170257D01*
X0250539Y0168659D02*
X0359384Y0168659D01*
X0359408Y0167060D02*
X0250726Y0167060D01*
X0250912Y0165462D02*
X0359432Y0165462D01*
X0359456Y0163863D02*
X0251099Y0163863D01*
X0251286Y0162265D02*
X0359480Y0162265D01*
X0359503Y0160666D02*
X0251473Y0160666D01*
X0251671Y0159068D02*
X0359527Y0159068D01*
X0359551Y0157469D02*
X0252050Y0157469D01*
X0252429Y0155870D02*
X0359575Y0155870D01*
X0359599Y0154272D02*
X0252808Y0154272D01*
X0253186Y0152673D02*
X0359623Y0152673D01*
X0359647Y0151075D02*
X0253565Y0151075D01*
X0253944Y0149476D02*
X0359670Y0149476D01*
X0359694Y0147878D02*
X0254504Y0147878D01*
X0255086Y0146279D02*
X0359718Y0146279D01*
X0359742Y0144681D02*
X0255668Y0144681D01*
X0256250Y0143082D02*
X0359766Y0143082D01*
X0359790Y0141484D02*
X0256832Y0141484D01*
X0257413Y0139885D02*
X0359814Y0139885D01*
X0359837Y0138287D02*
X0258203Y0138287D01*
X0259006Y0136688D02*
X0359861Y0136688D01*
X0359885Y0135090D02*
X0259809Y0135090D01*
X0260612Y0133491D02*
X0359909Y0133491D01*
X0359933Y0131893D02*
X0261415Y0131893D01*
X0262287Y0130294D02*
X0359957Y0130294D01*
X0359981Y0128696D02*
X0263339Y0128696D01*
X0264390Y0127097D02*
X0360005Y0127097D01*
X0360028Y0125499D02*
X0265441Y0125499D01*
X0266493Y0123900D02*
X0360052Y0123900D01*
X0360076Y0122302D02*
X0267544Y0122302D01*
X0268806Y0120703D02*
X0360100Y0120703D01*
X0360124Y0119105D02*
X0270070Y0119105D01*
X0271638Y0117506D02*
X0360148Y0117506D01*
X0360172Y0115908D02*
X0273385Y0115908D01*
X0275132Y0114309D02*
X0360195Y0114309D01*
X0360219Y0112711D02*
X0276879Y0112711D01*
X0278626Y0111112D02*
X0360243Y0111112D01*
X0360267Y0109514D02*
X0280373Y0109514D01*
X0282120Y0107915D02*
X0360291Y0107915D01*
X0360315Y0106317D02*
X0283867Y0106317D01*
X0285614Y0104718D02*
X0360339Y0104718D01*
X0360362Y0103120D02*
X0287361Y0103120D01*
X0289108Y0101521D02*
X0360386Y0101521D01*
X0360410Y0099923D02*
X0290855Y0099923D01*
X0292602Y0098324D02*
X0360434Y0098324D01*
X0360458Y0096726D02*
X0294348Y0096726D01*
X0296095Y0095127D02*
X0360482Y0095127D01*
X0360506Y0093529D02*
X0297842Y0093529D01*
X0299589Y0091930D02*
X0360529Y0091930D01*
X0360553Y0090332D02*
X0301336Y0090332D01*
X0303083Y0088733D02*
X0360577Y0088733D01*
X0360601Y0087134D02*
X0304830Y0087134D01*
X0306577Y0085536D02*
X0360625Y0085536D01*
X0360649Y0083937D02*
X0308324Y0083937D01*
X0310071Y0082339D02*
X0360673Y0082339D01*
X0360696Y0080740D02*
X0311818Y0080740D01*
X0313565Y0079142D02*
X0360720Y0079142D01*
X0360744Y0077543D02*
X0315312Y0077543D01*
X0317059Y0075945D02*
X0360768Y0075945D01*
X0360792Y0074346D02*
X0318806Y0074346D01*
X0320553Y0072748D02*
X0360816Y0072748D01*
X0360840Y0071149D02*
X0322300Y0071149D01*
X0324047Y0069551D02*
X0360863Y0069551D01*
X0360887Y0067952D02*
X0325794Y0067952D01*
X0327541Y0066354D02*
X0360911Y0066354D01*
X0360935Y0064755D02*
X0329288Y0064755D01*
X0331035Y0063157D02*
X0360959Y0063157D01*
X0360983Y0061558D02*
X0332782Y0061558D01*
X0334528Y0059960D02*
X0361007Y0059960D01*
X0361030Y0058361D02*
X0336275Y0058361D01*
X0338022Y0056763D02*
X0361054Y0056763D01*
X0361078Y0055164D02*
X0339769Y0055164D01*
X0341516Y0053566D02*
X0361102Y0053566D01*
X0361126Y0051967D02*
X0343263Y0051967D01*
X0345020Y0050369D02*
X0361150Y0050369D01*
X0361174Y0048770D02*
X0346614Y0048770D01*
X0347268Y0048114D02*
X0347268Y0048114D01*
X0347859Y0047172D02*
X0361197Y0047172D01*
X0361221Y0045573D02*
X0348860Y0045573D01*
X0349862Y0043975D02*
X0361245Y0043975D01*
X0361269Y0042376D02*
X0350649Y0042376D01*
X0350381Y0043147D02*
X0350381Y0043147D01*
X0351206Y0040778D02*
X0361293Y0040778D01*
X0361317Y0039179D02*
X0351763Y0039179D01*
X0352309Y0037611D02*
X0352309Y0037611D01*
X0352313Y0037581D02*
X0361341Y0037581D01*
X0361364Y0035982D02*
X0352491Y0035982D01*
X0352669Y0034384D02*
X0361388Y0034384D01*
X0361412Y0032785D02*
X0352847Y0032785D01*
X0352890Y0031187D02*
X0361436Y0031187D01*
X0361460Y0029588D02*
X0352708Y0029588D01*
X0352525Y0027990D02*
X0361484Y0027990D01*
X0361508Y0026391D02*
X0352343Y0026391D01*
X0351884Y0024793D02*
X0361531Y0024793D01*
X0361555Y0023194D02*
X0351322Y0023194D01*
X0350760Y0021596D02*
X0361579Y0021596D01*
X0361603Y0019997D02*
X0350078Y0019997D01*
X0349070Y0018399D02*
X0361627Y0018399D01*
X0361651Y0016800D02*
X0348063Y0016800D01*
X0347226Y0015471D02*
X0347226Y0015471D01*
X0346955Y0015201D02*
X0361675Y0015201D01*
X0361698Y0013603D02*
X0345352Y0013603D01*
X0343753Y0012004D02*
X0361722Y0012004D01*
X0361746Y0010406D02*
X0341605Y0010406D01*
X0343084Y0011336D02*
X0343084Y0011336D01*
X0339061Y0008807D02*
X0361770Y0008807D01*
X0361794Y0007209D02*
X0335236Y0007209D01*
X0310028Y0026391D02*
X0309620Y0026391D01*
X0309600Y0027990D02*
X0308180Y0027990D01*
X0309200Y0029588D02*
X0306740Y0029588D01*
X0305300Y0031187D02*
X0309200Y0031187D01*
X0309200Y0032785D02*
X0303860Y0032785D01*
X0302420Y0034384D02*
X0309271Y0034384D01*
X0309700Y0035982D02*
X0300980Y0035982D01*
X0299540Y0037581D02*
X0310128Y0037581D01*
X0310738Y0039179D02*
X0298100Y0039179D01*
X0296660Y0040778D02*
X0311661Y0040778D01*
X0312583Y0042376D02*
X0295220Y0042376D01*
X0293780Y0043975D02*
X0314085Y0043975D01*
X0315683Y0045573D02*
X0292340Y0045573D01*
X0290900Y0047172D02*
X0297924Y0047172D01*
X0295692Y0048770D02*
X0289460Y0048770D01*
X0288020Y0050369D02*
X0294094Y0050369D01*
X0292495Y0051967D02*
X0286580Y0051967D01*
X0285140Y0053566D02*
X0290897Y0053566D01*
X0289779Y0055164D02*
X0283700Y0055164D01*
X0282260Y0056763D02*
X0289313Y0056763D01*
X0289313Y0058361D02*
X0280820Y0058361D01*
X0279380Y0059960D02*
X0289959Y0059960D01*
X0291330Y0061558D02*
X0277940Y0061558D01*
X0276500Y0063157D02*
X0296469Y0063157D01*
X0296384Y0064755D02*
X0275060Y0064755D01*
X0273620Y0066354D02*
X0295221Y0066354D01*
X0293622Y0067952D02*
X0272180Y0067952D01*
X0270740Y0069551D02*
X0292024Y0069551D01*
X0290425Y0071149D02*
X0269300Y0071149D01*
X0267860Y0072748D02*
X0288827Y0072748D01*
X0287228Y0074346D02*
X0266420Y0074346D01*
X0264980Y0075945D02*
X0285630Y0075945D01*
X0284031Y0077543D02*
X0263540Y0077543D01*
X0262100Y0079142D02*
X0282433Y0079142D01*
X0280834Y0080740D02*
X0260660Y0080740D01*
X0259220Y0082339D02*
X0279236Y0082339D01*
X0277637Y0083937D02*
X0257780Y0083937D01*
X0256340Y0085536D02*
X0276039Y0085536D01*
X0274440Y0087134D02*
X0254900Y0087134D01*
X0253460Y0088733D02*
X0272841Y0088733D01*
X0271243Y0090332D02*
X0252020Y0090332D01*
X0250580Y0091930D02*
X0269644Y0091930D01*
X0268046Y0093529D02*
X0263260Y0093529D01*
X0264983Y0095127D02*
X0266447Y0095127D01*
X0272301Y0098324D02*
X0278381Y0098324D01*
X0280128Y0096726D02*
X0273900Y0096726D01*
X0275498Y0095127D02*
X0281875Y0095127D01*
X0283622Y0093529D02*
X0277097Y0093529D01*
X0278695Y0091930D02*
X0285369Y0091930D01*
X0287115Y0090332D02*
X0280294Y0090332D01*
X0281892Y0088733D02*
X0288862Y0088733D01*
X0290609Y0087134D02*
X0283491Y0087134D01*
X0285089Y0085536D02*
X0292356Y0085536D01*
X0294103Y0083937D02*
X0286688Y0083937D01*
X0288287Y0082339D02*
X0295850Y0082339D01*
X0297597Y0080740D02*
X0289885Y0080740D01*
X0291484Y0079142D02*
X0299344Y0079142D01*
X0301091Y0077543D02*
X0293082Y0077543D01*
X0294681Y0075945D02*
X0302838Y0075945D01*
X0304585Y0074346D02*
X0296279Y0074346D01*
X0297878Y0072748D02*
X0306332Y0072748D01*
X0308079Y0071149D02*
X0299476Y0071149D01*
X0303137Y0069551D02*
X0309826Y0069551D01*
X0311573Y0067952D02*
X0305643Y0067952D01*
X0307241Y0066354D02*
X0313320Y0066354D01*
X0315067Y0064755D02*
X0308840Y0064755D01*
X0310438Y0063157D02*
X0316814Y0063157D01*
X0318561Y0061558D02*
X0311669Y0061558D01*
X0312216Y0059960D02*
X0320308Y0059960D01*
X0322055Y0058361D02*
X0312216Y0058361D01*
X0311650Y0056763D02*
X0323802Y0056763D01*
X0325549Y0055164D02*
X0310392Y0055164D01*
X0304980Y0053566D02*
X0327296Y0053566D01*
X0329042Y0051967D02*
X0305145Y0051967D01*
X0304860Y0050369D02*
X0330789Y0050369D01*
X0331467Y0048770D02*
X0332536Y0048770D01*
X0322133Y0048770D02*
X0303998Y0048770D01*
X0301766Y0047172D02*
X0318225Y0047172D01*
X0276151Y0005610D02*
X0001800Y0005610D01*
X0001800Y0004012D02*
X0161058Y0004012D01*
X0094956Y0066354D02*
X0071850Y0066354D01*
X0072216Y0065471D02*
X0071409Y0067418D01*
X0070427Y0068401D01*
X0103600Y0101575D01*
X0103600Y0098432D01*
X0103219Y0097512D01*
X0103219Y0096088D01*
X0103764Y0094771D01*
X0104771Y0093764D01*
X0106088Y0093219D01*
X0107512Y0093219D01*
X0108829Y0093764D01*
X0109836Y0094771D01*
X0110381Y0096088D01*
X0110381Y0097512D01*
X0110000Y0098432D01*
X0110000Y0100543D01*
X0126843Y0118682D01*
X0126500Y0117854D01*
X0126500Y0115746D01*
X0127307Y0113798D01*
X0128798Y0112307D01*
X0130746Y0111500D01*
X0132854Y0111500D01*
X0133656Y0111832D01*
X0138087Y0107402D01*
X0135862Y0106284D01*
X0135862Y0106284D01*
X0126453Y0100096D01*
X0122608Y0096869D01*
X0122297Y0096721D01*
X0121883Y0096261D01*
X0121408Y0095863D01*
X0121249Y0095558D01*
X0058400Y0025751D01*
X0059400Y0029483D01*
X0059400Y0034117D01*
X0058201Y0038593D01*
X0055883Y0042607D01*
X0052607Y0045883D01*
X0048593Y0048201D01*
X0044117Y0049400D01*
X0039483Y0049400D01*
X0035617Y0048364D01*
X0103337Y0110362D01*
X0061587Y0068613D01*
X0061100Y0067437D01*
X0061100Y0066095D01*
X0057191Y0062186D01*
X0056384Y0060238D01*
X0056384Y0058129D01*
X0057191Y0056181D01*
X0058681Y0054691D01*
X0060629Y0053884D01*
X0062738Y0053884D01*
X0063962Y0054391D01*
X0063455Y0053167D01*
X0063455Y0051058D01*
X0064262Y0049110D01*
X0065753Y0047620D01*
X0067701Y0046813D01*
X0069809Y0046813D01*
X0071757Y0047620D01*
X0078480Y0054343D01*
X0079287Y0056291D01*
X0079287Y0058399D01*
X0078480Y0060347D01*
X0076990Y0061838D01*
X0075042Y0062645D01*
X0072933Y0062645D01*
X0071709Y0062138D01*
X0072216Y0063362D01*
X0072216Y0065471D01*
X0072216Y0064755D02*
X0093517Y0064755D01*
X0092078Y0063157D02*
X0072131Y0063157D01*
X0070876Y0067952D02*
X0096395Y0067952D01*
X0097834Y0069551D02*
X0071576Y0069551D01*
X0073175Y0071149D02*
X0099274Y0071149D01*
X0100713Y0072748D02*
X0074773Y0072748D01*
X0076372Y0074346D02*
X0102152Y0074346D01*
X0103591Y0075945D02*
X0077970Y0075945D01*
X0079569Y0077543D02*
X0105030Y0077543D01*
X0106470Y0079142D02*
X0081167Y0079142D01*
X0082766Y0080740D02*
X0107909Y0080740D01*
X0109348Y0082339D02*
X0084364Y0082339D01*
X0085963Y0083937D02*
X0110787Y0083937D01*
X0112226Y0085536D02*
X0087561Y0085536D01*
X0089160Y0087134D02*
X0113666Y0087134D01*
X0115105Y0088733D02*
X0090758Y0088733D01*
X0092357Y0090332D02*
X0116544Y0090332D01*
X0117983Y0091930D02*
X0093955Y0091930D01*
X0095554Y0093529D02*
X0105340Y0093529D01*
X0103617Y0095127D02*
X0097153Y0095127D01*
X0098751Y0096726D02*
X0103219Y0096726D01*
X0103555Y0098324D02*
X0100350Y0098324D01*
X0101948Y0099923D02*
X0103600Y0099923D01*
X0103547Y0101521D02*
X0103600Y0101521D01*
X0099291Y0106317D02*
X0098918Y0106317D01*
X0097693Y0104718D02*
X0097172Y0104718D01*
X0096094Y0103120D02*
X0095426Y0103120D01*
X0094496Y0101521D02*
X0093680Y0101521D01*
X0092897Y0099923D02*
X0091934Y0099923D01*
X0091299Y0098324D02*
X0090188Y0098324D01*
X0089700Y0096726D02*
X0088442Y0096726D01*
X0088102Y0095127D02*
X0086696Y0095127D01*
X0086503Y0093529D02*
X0084949Y0093529D01*
X0084905Y0091930D02*
X0083203Y0091930D01*
X0083306Y0090332D02*
X0081457Y0090332D01*
X0081708Y0088733D02*
X0079711Y0088733D01*
X0080109Y0087134D02*
X0077965Y0087134D01*
X0078511Y0085536D02*
X0076219Y0085536D01*
X0076912Y0083937D02*
X0074473Y0083937D01*
X0075313Y0082339D02*
X0072727Y0082339D01*
X0073715Y0080740D02*
X0070981Y0080740D01*
X0072116Y0079142D02*
X0069235Y0079142D01*
X0070518Y0077543D02*
X0067489Y0077543D01*
X0068919Y0075945D02*
X0065743Y0075945D01*
X0067321Y0074346D02*
X0063997Y0074346D01*
X0065722Y0072748D02*
X0062251Y0072748D01*
X0060505Y0071149D02*
X0064124Y0071149D01*
X0062525Y0069551D02*
X0058759Y0069551D01*
X0057013Y0067952D02*
X0061314Y0067952D01*
X0061100Y0066354D02*
X0055267Y0066354D01*
X0053521Y0064755D02*
X0059760Y0064755D01*
X0058162Y0063157D02*
X0051775Y0063157D01*
X0050029Y0061558D02*
X0056931Y0061558D01*
X0056384Y0059960D02*
X0048283Y0059960D01*
X0046537Y0058361D02*
X0056384Y0058361D01*
X0056950Y0056763D02*
X0044791Y0056763D01*
X0043045Y0055164D02*
X0058208Y0055164D01*
X0063620Y0053566D02*
X0041299Y0053566D01*
X0039552Y0051967D02*
X0063455Y0051967D01*
X0063740Y0050369D02*
X0037806Y0050369D01*
X0037133Y0048770D02*
X0036060Y0048770D01*
X0028828Y0055164D02*
X0001800Y0055164D01*
X0001800Y0053566D02*
X0027082Y0053566D01*
X0025336Y0051967D02*
X0001800Y0051967D01*
X0001800Y0050369D02*
X0023581Y0050369D01*
X0021982Y0048770D02*
X0001800Y0048770D01*
X0001800Y0047172D02*
X0020737Y0047172D01*
X0019732Y0045573D02*
X0001800Y0045573D01*
X0001800Y0043975D02*
X0018728Y0043975D01*
X0018215Y0043158D02*
X0018215Y0043158D01*
X0017941Y0042376D02*
X0001800Y0042376D01*
X0001800Y0040778D02*
X0017382Y0040778D01*
X0016822Y0039179D02*
X0001800Y0039179D01*
X0001800Y0037581D02*
X0016274Y0037581D01*
X0016279Y0037625D02*
X0016279Y0037625D01*
X0016093Y0035982D02*
X0001800Y0035982D01*
X0001800Y0034384D02*
X0015913Y0034384D01*
X0015733Y0032785D02*
X0001800Y0032785D01*
X0001800Y0031187D02*
X0015691Y0031187D01*
X0015622Y0031800D02*
X0015622Y0031800D01*
X0015871Y0029588D02*
X0001800Y0029588D01*
X0001800Y0027990D02*
X0016052Y0027990D01*
X0016232Y0026391D02*
X0001800Y0026391D01*
X0001800Y0024793D02*
X0016692Y0024793D01*
X0016279Y0025975D02*
X0016279Y0025975D01*
X0017252Y0023194D02*
X0001800Y0023194D01*
X0001800Y0021596D02*
X0017811Y0021596D01*
X0018215Y0020442D02*
X0018215Y0020442D01*
X0018494Y0019997D02*
X0001800Y0019997D01*
X0001800Y0018399D02*
X0019499Y0018399D01*
X0020503Y0016800D02*
X0001800Y0016800D01*
X0001800Y0015201D02*
X0021610Y0015201D01*
X0023209Y0013603D02*
X0001800Y0013603D01*
X0001800Y0012004D02*
X0024807Y0012004D01*
X0025478Y0011333D02*
X0025478Y0011333D01*
X0026954Y0010406D02*
X0001800Y0010406D01*
X0001800Y0008807D02*
X0029498Y0008807D01*
X0033316Y0007209D02*
X0001800Y0007209D01*
X0046467Y0048770D02*
X0064602Y0048770D01*
X0066834Y0047172D02*
X0050375Y0047172D01*
X0052917Y0045573D02*
X0076247Y0045573D01*
X0077686Y0047172D02*
X0070676Y0047172D01*
X0072908Y0048770D02*
X0079125Y0048770D01*
X0080564Y0050369D02*
X0074506Y0050369D01*
X0076105Y0051967D02*
X0082003Y0051967D01*
X0083443Y0053566D02*
X0077703Y0053566D01*
X0078821Y0055164D02*
X0084882Y0055164D01*
X0086321Y0056763D02*
X0079287Y0056763D01*
X0079287Y0058361D02*
X0087760Y0058361D01*
X0089199Y0059960D02*
X0078641Y0059960D01*
X0077270Y0061558D02*
X0090639Y0061558D01*
X0074807Y0043975D02*
X0054515Y0043975D01*
X0056017Y0042376D02*
X0073368Y0042376D01*
X0071929Y0040778D02*
X0056939Y0040778D01*
X0057862Y0039179D02*
X0070490Y0039179D01*
X0069051Y0037581D02*
X0058472Y0037581D01*
X0058900Y0035982D02*
X0067612Y0035982D01*
X0066172Y0034384D02*
X0059329Y0034384D01*
X0059400Y0032785D02*
X0064733Y0032785D01*
X0063294Y0031187D02*
X0059400Y0031187D01*
X0059400Y0029588D02*
X0061855Y0029588D01*
X0060416Y0027990D02*
X0059000Y0027990D01*
X0058976Y0026391D02*
X0058572Y0026391D01*
X0030574Y0056763D02*
X0001800Y0056763D01*
X0001800Y0058361D02*
X0032320Y0058361D01*
X0034066Y0059960D02*
X0001800Y0059960D01*
X0001800Y0061558D02*
X0035812Y0061558D01*
X0037558Y0063157D02*
X0001800Y0063157D01*
X0001800Y0064755D02*
X0039304Y0064755D01*
X0041050Y0066354D02*
X0001800Y0066354D01*
X0001800Y0067952D02*
X0042796Y0067952D01*
X0044542Y0069551D02*
X0001800Y0069551D01*
X0001800Y0071149D02*
X0046288Y0071149D01*
X0048034Y0072748D02*
X0001800Y0072748D01*
X0001800Y0074346D02*
X0049780Y0074346D01*
X0051526Y0075945D02*
X0001800Y0075945D01*
X0001800Y0077543D02*
X0053272Y0077543D01*
X0055018Y0079142D02*
X0001800Y0079142D01*
X0001800Y0080740D02*
X0056764Y0080740D01*
X0058510Y0082339D02*
X0001800Y0082339D01*
X0001800Y0083937D02*
X0060257Y0083937D01*
X0062003Y0085536D02*
X0001800Y0085536D01*
X0001800Y0087134D02*
X0063749Y0087134D01*
X0065495Y0088733D02*
X0001800Y0088733D01*
X0001800Y0090332D02*
X0067241Y0090332D01*
X0068987Y0091930D02*
X0001800Y0091930D01*
X0001800Y0093529D02*
X0070733Y0093529D01*
X0072479Y0095127D02*
X0001800Y0095127D01*
X0001800Y0096726D02*
X0074225Y0096726D01*
X0075971Y0098324D02*
X0001800Y0098324D01*
X0001800Y0099923D02*
X0077717Y0099923D01*
X0079463Y0101521D02*
X0001800Y0101521D01*
X0001800Y0103120D02*
X0081209Y0103120D01*
X0082955Y0104718D02*
X0001800Y0104718D01*
X0001800Y0106317D02*
X0084701Y0106317D01*
X0086447Y0107915D02*
X0001800Y0107915D01*
X0001800Y0109514D02*
X0088193Y0109514D01*
X0089939Y0111112D02*
X0001800Y0111112D01*
X0001800Y0112711D02*
X0091685Y0112711D01*
X0093431Y0114309D02*
X0001800Y0114309D01*
X0001800Y0115908D02*
X0095177Y0115908D01*
X0096923Y0117506D02*
X0001800Y0117506D01*
X0001800Y0119105D02*
X0098491Y0119105D01*
X0099755Y0120703D02*
X0001800Y0120703D01*
X0001800Y0122302D02*
X0101017Y0122302D01*
X0102068Y0123900D02*
X0001800Y0123900D01*
X0001800Y0125499D02*
X0103119Y0125499D01*
X0104171Y0127097D02*
X0001800Y0127097D01*
X0001800Y0128696D02*
X0105222Y0128696D01*
X0106273Y0130294D02*
X0001800Y0130294D01*
X0001800Y0131893D02*
X0107146Y0131893D01*
X0107949Y0133491D02*
X0001800Y0133491D01*
X0001800Y0135090D02*
X0108752Y0135090D01*
X0109554Y0136688D02*
X0001800Y0136688D01*
X0001800Y0138287D02*
X0110357Y0138287D01*
X0111147Y0139885D02*
X0001800Y0139885D01*
X0001800Y0141484D02*
X0111729Y0141484D01*
X0112311Y0143082D02*
X0001800Y0143082D01*
X0001800Y0144681D02*
X0112893Y0144681D01*
X0113474Y0146279D02*
X0001800Y0146279D01*
X0001800Y0147878D02*
X0114056Y0147878D01*
X0114617Y0149476D02*
X0001800Y0149476D01*
X0001800Y0151075D02*
X0114995Y0151075D01*
X0115374Y0152673D02*
X0001800Y0152673D01*
X0001800Y0154272D02*
X0115753Y0154272D01*
X0116132Y0155870D02*
X0001800Y0155870D01*
X0001800Y0157469D02*
X0116511Y0157469D01*
X0116890Y0159068D02*
X0001800Y0159068D01*
X0001800Y0160666D02*
X0117088Y0160666D01*
X0117274Y0162265D02*
X0001800Y0162265D01*
X0001800Y0163863D02*
X0117461Y0163863D01*
X0117648Y0165462D02*
X0001800Y0165462D01*
X0001800Y0167060D02*
X0117835Y0167060D01*
X0118022Y0168659D02*
X0001800Y0168659D01*
X0001800Y0170257D02*
X0118087Y0170257D01*
X0118087Y0171856D02*
X0001800Y0171856D01*
X0001800Y0173454D02*
X0118087Y0173454D01*
X0118087Y0175053D02*
X0001800Y0175053D01*
X0001800Y0176651D02*
X0118087Y0176651D01*
X0118087Y0178250D02*
X0001800Y0178250D01*
X0001800Y0179848D02*
X0118028Y0179848D01*
X0117841Y0181447D02*
X0001800Y0181447D01*
X0001800Y0183045D02*
X0117654Y0183045D01*
X0117468Y0184644D02*
X0001800Y0184644D01*
X0001800Y0186242D02*
X0117281Y0186242D01*
X0117094Y0187841D02*
X0001800Y0187841D01*
X0001800Y0189439D02*
X0116902Y0189439D01*
X0116524Y0191038D02*
X0001800Y0191038D01*
X0001800Y0192636D02*
X0116145Y0192636D01*
X0115766Y0194235D02*
X0001800Y0194235D01*
X0001800Y0195833D02*
X0115387Y0195833D01*
X0115008Y0197432D02*
X0001800Y0197432D01*
X0001800Y0199030D02*
X0114629Y0199030D01*
X0114076Y0200629D02*
X0001800Y0200629D01*
X0001800Y0202227D02*
X0113494Y0202227D01*
X0112912Y0203826D02*
X0001800Y0203826D01*
X0001800Y0205424D02*
X0112330Y0205424D01*
X0111749Y0207023D02*
X0001800Y0207023D01*
X0001800Y0208621D02*
X0111167Y0208621D01*
X0110384Y0210220D02*
X0001800Y0210220D01*
X0001800Y0211818D02*
X0109581Y0211818D01*
X0108779Y0213417D02*
X0001800Y0213417D01*
X0001800Y0215015D02*
X0107976Y0215015D01*
X0107173Y0216614D02*
X0001800Y0216614D01*
X0001800Y0218212D02*
X0106309Y0218212D01*
X0105257Y0219811D02*
X0001800Y0219811D01*
X0001800Y0221409D02*
X0104206Y0221409D01*
X0103155Y0223008D02*
X0001800Y0223008D01*
X0001800Y0224606D02*
X0102103Y0224606D01*
X0101052Y0226205D02*
X0001800Y0226205D01*
X0001800Y0227803D02*
X0099798Y0227803D01*
X0098534Y0229402D02*
X0001800Y0229402D01*
X0001800Y0231001D02*
X0096983Y0231001D01*
X0095238Y0232599D02*
X0001800Y0232599D01*
X0001800Y0234198D02*
X0093493Y0234198D01*
X0091748Y0235796D02*
X0001800Y0235796D01*
X0001800Y0237395D02*
X0090003Y0237395D01*
X0088258Y0238993D02*
X0001800Y0238993D01*
X0001800Y0240592D02*
X0086513Y0240592D01*
X0084768Y0242190D02*
X0001800Y0242190D01*
X0001800Y0243789D02*
X0083023Y0243789D01*
X0081278Y0245387D02*
X0001800Y0245387D01*
X0001800Y0246986D02*
X0079533Y0246986D01*
X0077788Y0248584D02*
X0001800Y0248584D01*
X0001800Y0250183D02*
X0076043Y0250183D01*
X0074298Y0251781D02*
X0001800Y0251781D01*
X0001800Y0253380D02*
X0072552Y0253380D01*
X0070807Y0254978D02*
X0001800Y0254978D01*
X0001800Y0256577D02*
X0069062Y0256577D01*
X0067317Y0258175D02*
X0001800Y0258175D01*
X0001800Y0259774D02*
X0065572Y0259774D01*
X0063827Y0261372D02*
X0001800Y0261372D01*
X0001800Y0262971D02*
X0062082Y0262971D01*
X0060337Y0264569D02*
X0001800Y0264569D01*
X0001800Y0266168D02*
X0058592Y0266168D01*
X0056847Y0267766D02*
X0001800Y0267766D01*
X0001800Y0269365D02*
X0055102Y0269365D01*
X0053357Y0270963D02*
X0001800Y0270963D01*
X0001800Y0272562D02*
X0051612Y0272562D01*
X0049867Y0274160D02*
X0001800Y0274160D01*
X0001800Y0275759D02*
X0048122Y0275759D01*
X0046377Y0277357D02*
X0001800Y0277357D01*
X0001800Y0278956D02*
X0044632Y0278956D01*
X0042887Y0280554D02*
X0001800Y0280554D01*
X0001800Y0282153D02*
X0041142Y0282153D01*
X0039397Y0283751D02*
X0001800Y0283751D01*
X0001800Y0285350D02*
X0037652Y0285350D01*
X0035907Y0286948D02*
X0001800Y0286948D01*
X0001800Y0288547D02*
X0034162Y0288547D01*
X0032417Y0290145D02*
X0001800Y0290145D01*
X0001800Y0291744D02*
X0030672Y0291744D01*
X0028927Y0293342D02*
X0001800Y0293342D01*
X0001800Y0294941D02*
X0027182Y0294941D01*
X0025437Y0296539D02*
X0001800Y0296539D01*
X0001800Y0298138D02*
X0023674Y0298138D01*
X0022075Y0299737D02*
X0001800Y0299737D01*
X0001800Y0301335D02*
X0020796Y0301335D01*
X0021336Y0300476D02*
X0021336Y0300476D01*
X0019792Y0302934D02*
X0001800Y0302934D01*
X0001800Y0304532D02*
X0018787Y0304532D01*
X0018220Y0305434D02*
X0018220Y0305434D01*
X0017977Y0306131D02*
X0001800Y0306131D01*
X0001800Y0307729D02*
X0017417Y0307729D01*
X0016858Y0309328D02*
X0001800Y0309328D01*
X0001800Y0310926D02*
X0016299Y0310926D01*
X0016286Y0310961D02*
X0016286Y0310961D01*
X0016110Y0312525D02*
X0001800Y0312525D01*
X0001800Y0314123D02*
X0015930Y0314123D01*
X0015750Y0315722D02*
X0001800Y0315722D01*
X0001800Y0317320D02*
X0015691Y0317320D01*
X0015631Y0316780D02*
X0015631Y0316780D01*
X0015871Y0318919D02*
X0001800Y0318919D01*
X0001800Y0320517D02*
X0016052Y0320517D01*
X0016232Y0322116D02*
X0001800Y0322116D01*
X0001800Y0323714D02*
X0016676Y0323714D01*
X0016286Y0322599D02*
X0016286Y0322599D01*
X0017236Y0325313D02*
X0001800Y0325313D01*
X0001800Y0326911D02*
X0017795Y0326911D01*
X0018220Y0328126D02*
X0018220Y0328126D01*
X0018461Y0328510D02*
X0001800Y0328510D01*
X0001800Y0330108D02*
X0019466Y0330108D01*
X0020470Y0331707D02*
X0001800Y0331707D01*
X0001800Y0333305D02*
X0021556Y0333305D01*
X0021336Y0333084D02*
X0021336Y0333084D01*
X0023155Y0334904D02*
X0001800Y0334904D01*
X0001800Y0336502D02*
X0024753Y0336502D01*
X0025481Y0337229D02*
X0025481Y0337229D01*
X0026867Y0338101D02*
X0001800Y0338101D01*
X0001800Y0339699D02*
X0029411Y0339699D01*
X0030449Y0340352D02*
X0030449Y0340352D01*
X0033154Y0341298D02*
X0001800Y0341298D01*
X0036159Y0299737D02*
X0037481Y0299737D01*
X0037904Y0298138D02*
X0063702Y0298138D01*
X0063455Y0297542D02*
X0063455Y0295433D01*
X0063962Y0294209D01*
X0062738Y0294716D01*
X0060629Y0294716D01*
X0058681Y0293909D01*
X0057191Y0292418D01*
X0056384Y0290471D01*
X0056384Y0288362D01*
X0057191Y0286414D01*
X0063914Y0279691D01*
X0065862Y0278884D01*
X0067971Y0278884D01*
X0069918Y0279691D01*
X0071409Y0281181D01*
X0072216Y0283129D01*
X0072216Y0285238D01*
X0071709Y0286462D01*
X0072933Y0285955D01*
X0075042Y0285955D01*
X0076990Y0286762D01*
X0078480Y0288253D01*
X0079287Y0290201D01*
X0079287Y0292309D01*
X0078480Y0294257D01*
X0071757Y0300980D01*
X0069809Y0301787D01*
X0067701Y0301787D01*
X0065753Y0300980D01*
X0064262Y0299490D01*
X0063455Y0297542D01*
X0063455Y0296539D02*
X0039649Y0296539D01*
X0041394Y0294941D02*
X0063659Y0294941D01*
X0064509Y0299737D02*
X0046119Y0299737D01*
X0050214Y0301335D02*
X0066609Y0301335D01*
X0070901Y0301335D02*
X0078172Y0301335D01*
X0076710Y0302934D02*
X0052824Y0302934D01*
X0054422Y0304532D02*
X0075247Y0304532D01*
X0073784Y0306131D02*
X0055963Y0306131D01*
X0056886Y0307729D02*
X0072322Y0307729D01*
X0070859Y0309328D02*
X0057809Y0309328D01*
X0058447Y0310926D02*
X0069397Y0310926D01*
X0067934Y0312525D02*
X0058875Y0312525D01*
X0059304Y0314123D02*
X0066471Y0314123D01*
X0065009Y0315722D02*
X0059400Y0315722D01*
X0059400Y0317320D02*
X0063546Y0317320D01*
X0062083Y0318919D02*
X0059400Y0318919D01*
X0059025Y0320517D02*
X0060621Y0320517D01*
X0059158Y0322116D02*
X0058597Y0322116D01*
X0066320Y0328510D02*
X0302280Y0328510D01*
X0303743Y0330108D02*
X0064857Y0330108D01*
X0063395Y0331707D02*
X0305207Y0331707D01*
X0306670Y0333305D02*
X0061932Y0333305D01*
X0060951Y0334378D02*
X0060909Y0334480D01*
X0060309Y0335080D01*
X0059736Y0335705D01*
X0059636Y0335752D01*
X0058159Y0337229D01*
X0058159Y0337229D01*
X0053190Y0340352D01*
X0049051Y0341800D01*
X0319535Y0341800D01*
X0315446Y0340375D01*
X0315446Y0340375D01*
X0310483Y0337266D01*
X0309007Y0335793D01*
X0308904Y0335746D01*
X0308333Y0335122D01*
X0307734Y0334524D01*
X0307691Y0334420D01*
X0240047Y0260537D01*
X0236277Y0257556D01*
X0227817Y0251992D01*
X0218768Y0247447D01*
X0209253Y0243984D01*
X0199400Y0241649D01*
X0189343Y0240473D01*
X0179217Y0240473D01*
X0169160Y0241649D01*
X0159307Y0243984D01*
X0149792Y0247447D01*
X0140744Y0251992D01*
X0132284Y0257556D01*
X0128514Y0260537D01*
X0060951Y0334378D01*
X0060484Y0334904D02*
X0308115Y0334904D01*
X0309717Y0336502D02*
X0058886Y0336502D01*
X0056772Y0338101D02*
X0311816Y0338101D01*
X0310483Y0337266D02*
X0310483Y0337266D01*
X0314367Y0339699D02*
X0054228Y0339699D01*
X0053190Y0340352D02*
X0053190Y0340352D01*
X0050486Y0341298D02*
X0318094Y0341298D01*
X0335427Y0341298D02*
X0356807Y0341298D01*
X0356831Y0339699D02*
X0339163Y0339699D01*
X0341699Y0338101D02*
X0356855Y0338101D01*
X0356879Y0336502D02*
X0343811Y0336502D01*
X0345406Y0334904D02*
X0356903Y0334904D01*
X0356927Y0333305D02*
X0347004Y0333305D01*
X0347227Y0333082D02*
X0347227Y0333082D01*
X0348092Y0331707D02*
X0356951Y0331707D01*
X0356974Y0330108D02*
X0349096Y0330108D01*
X0350100Y0328510D02*
X0356998Y0328510D01*
X0357022Y0326911D02*
X0350769Y0326911D01*
X0350346Y0328119D02*
X0350346Y0328119D01*
X0351328Y0325313D02*
X0357046Y0325313D01*
X0357070Y0323714D02*
X0351887Y0323714D01*
X0352282Y0322586D02*
X0352282Y0322586D01*
X0352335Y0322116D02*
X0357094Y0322116D01*
X0357118Y0320517D02*
X0352515Y0320517D01*
X0352695Y0318919D02*
X0357142Y0318919D01*
X0357165Y0317320D02*
X0352875Y0317320D01*
X0352938Y0316761D02*
X0352938Y0316761D01*
X0352821Y0315722D02*
X0357189Y0315722D01*
X0357213Y0314123D02*
X0352641Y0314123D01*
X0352461Y0312525D02*
X0357237Y0312525D01*
X0357261Y0310926D02*
X0352279Y0310926D01*
X0352282Y0310936D02*
X0352282Y0310936D01*
X0351719Y0309328D02*
X0357285Y0309328D01*
X0357309Y0307729D02*
X0351160Y0307729D01*
X0350601Y0306131D02*
X0357332Y0306131D01*
X0357356Y0304532D02*
X0349799Y0304532D01*
X0348795Y0302934D02*
X0357380Y0302934D01*
X0357404Y0301335D02*
X0347790Y0301335D01*
X0347227Y0300439D02*
X0347227Y0300439D01*
X0346525Y0299737D02*
X0357428Y0299737D01*
X0357452Y0298138D02*
X0344926Y0298138D01*
X0343166Y0296539D02*
X0357476Y0296539D01*
X0357499Y0294941D02*
X0341420Y0294941D01*
X0322481Y0299737D02*
X0304091Y0299737D01*
X0301991Y0301335D02*
X0318386Y0301335D01*
X0315776Y0302934D02*
X0291879Y0302934D01*
X0293343Y0304532D02*
X0314178Y0304532D01*
X0312637Y0306131D02*
X0294806Y0306131D01*
X0296270Y0307729D02*
X0311714Y0307729D01*
X0310791Y0309328D02*
X0297733Y0309328D01*
X0299197Y0310926D02*
X0310153Y0310926D01*
X0309725Y0312525D02*
X0300660Y0312525D01*
X0302124Y0314123D02*
X0309296Y0314123D01*
X0309200Y0315722D02*
X0303587Y0315722D01*
X0305051Y0317320D02*
X0309200Y0317320D01*
X0309200Y0318919D02*
X0306514Y0318919D01*
X0307978Y0320517D02*
X0309575Y0320517D01*
X0309441Y0322116D02*
X0310003Y0322116D01*
X0300816Y0326911D02*
X0067783Y0326911D01*
X0069245Y0325313D02*
X0299353Y0325313D01*
X0297889Y0323714D02*
X0070708Y0323714D01*
X0072170Y0322116D02*
X0296426Y0322116D01*
X0294962Y0320517D02*
X0073633Y0320517D01*
X0075096Y0318919D02*
X0293499Y0318919D01*
X0292035Y0317320D02*
X0076558Y0317320D01*
X0078021Y0315722D02*
X0290571Y0315722D01*
X0289108Y0314123D02*
X0079483Y0314123D01*
X0080946Y0312525D02*
X0287644Y0312525D01*
X0286181Y0310926D02*
X0082409Y0310926D01*
X0083871Y0309328D02*
X0284717Y0309328D01*
X0283254Y0307729D02*
X0085334Y0307729D01*
X0086796Y0306131D02*
X0281790Y0306131D01*
X0280327Y0304532D02*
X0088259Y0304532D01*
X0089722Y0302934D02*
X0278863Y0302934D01*
X0277400Y0301335D02*
X0091184Y0301335D01*
X0092647Y0299737D02*
X0275936Y0299737D01*
X0274473Y0298138D02*
X0094109Y0298138D01*
X0095572Y0296539D02*
X0273009Y0296539D01*
X0271546Y0294941D02*
X0097035Y0294941D01*
X0098497Y0293342D02*
X0270082Y0293342D01*
X0268619Y0291744D02*
X0099960Y0291744D01*
X0101423Y0290145D02*
X0267155Y0290145D01*
X0265692Y0288547D02*
X0102885Y0288547D01*
X0104348Y0286948D02*
X0264228Y0286948D01*
X0262765Y0285350D02*
X0105810Y0285350D01*
X0107273Y0283751D02*
X0261301Y0283751D01*
X0259838Y0282153D02*
X0108736Y0282153D01*
X0110198Y0280554D02*
X0258374Y0280554D01*
X0256911Y0278956D02*
X0111661Y0278956D01*
X0113123Y0277357D02*
X0255447Y0277357D01*
X0253983Y0275759D02*
X0114586Y0275759D01*
X0116049Y0274160D02*
X0252520Y0274160D01*
X0251056Y0272562D02*
X0117511Y0272562D01*
X0118974Y0270963D02*
X0249593Y0270963D01*
X0248129Y0269365D02*
X0120436Y0269365D01*
X0121899Y0267766D02*
X0246666Y0267766D01*
X0245202Y0266168D02*
X0123362Y0266168D01*
X0124824Y0264569D02*
X0243739Y0264569D01*
X0242275Y0262971D02*
X0126287Y0262971D01*
X0127749Y0261372D02*
X0240812Y0261372D01*
X0239082Y0259774D02*
X0129479Y0259774D01*
X0131500Y0258175D02*
X0237060Y0258175D01*
X0234788Y0256577D02*
X0133773Y0256577D01*
X0136203Y0254978D02*
X0232358Y0254978D01*
X0229927Y0253380D02*
X0138633Y0253380D01*
X0141163Y0251781D02*
X0227398Y0251781D01*
X0224215Y0250183D02*
X0144346Y0250183D01*
X0147529Y0248584D02*
X0221032Y0248584D01*
X0217500Y0246986D02*
X0151061Y0246986D01*
X0155453Y0245387D02*
X0213108Y0245387D01*
X0208428Y0243789D02*
X0160132Y0243789D01*
X0166877Y0242190D02*
X0201684Y0242190D01*
X0210227Y0234198D02*
X0219672Y0234198D01*
X0221271Y0235796D02*
X0215256Y0235796D01*
X0212054Y0234631D02*
X0222636Y0238482D01*
X0225289Y0239815D01*
X0214987Y0229513D01*
X0214087Y0228613D01*
X0213600Y0227437D01*
X0213600Y0221163D01*
X0214087Y0219987D01*
X0215883Y0218192D01*
X0216264Y0217271D01*
X0217271Y0216264D01*
X0218588Y0215719D01*
X0220012Y0215719D01*
X0221329Y0216264D01*
X0222336Y0217271D01*
X0222881Y0218588D01*
X0222881Y0220012D01*
X0222336Y0221329D01*
X0221329Y0222336D01*
X0220408Y0222717D01*
X0220000Y0223125D01*
X0220000Y0225475D01*
X0226929Y0232403D01*
X0226929Y0230317D01*
X0227736Y0228369D01*
X0229227Y0226878D01*
X0231175Y0226071D01*
X0233283Y0226071D01*
X0234507Y0226578D01*
X0234000Y0225354D01*
X0234000Y0223525D01*
X0220475Y0210000D01*
X0198125Y0210000D01*
X0193613Y0214513D01*
X0192437Y0215000D01*
X0148125Y0215000D01*
X0130217Y0232908D01*
X0129836Y0233829D01*
X0128829Y0234836D01*
X0127908Y0235217D01*
X0120000Y0243125D01*
X0120000Y0255621D01*
X0121259Y0254245D01*
X0121408Y0253957D01*
X0121897Y0253547D01*
X0122328Y0253076D01*
X0122623Y0252938D01*
X0126453Y0249724D01*
X0126453Y0249724D01*
X0135862Y0243536D01*
X0145925Y0238482D01*
X0156507Y0234631D01*
X0167465Y0232034D01*
X0172185Y0231482D01*
X0171823Y0230607D01*
X0171823Y0227993D01*
X0172823Y0225577D01*
X0174672Y0223729D01*
X0177087Y0222728D01*
X0179702Y0222728D01*
X0182117Y0223729D01*
X0183966Y0225577D01*
X0184300Y0226385D01*
X0184634Y0225577D01*
X0186483Y0223729D01*
X0188898Y0222728D01*
X0191513Y0222728D01*
X0193928Y0223729D01*
X0195777Y0225577D01*
X0196777Y0227993D01*
X0196777Y0230607D01*
X0196413Y0231486D01*
X0201096Y0232034D01*
X0212054Y0234631D01*
X0212054Y0234631D01*
X0216475Y0231001D02*
X0196614Y0231001D01*
X0196777Y0229402D02*
X0214877Y0229402D01*
X0213752Y0227803D02*
X0196699Y0227803D01*
X0196037Y0226205D02*
X0213600Y0226205D01*
X0213600Y0224606D02*
X0194806Y0224606D01*
X0192188Y0223008D02*
X0213600Y0223008D01*
X0213600Y0221409D02*
X0141716Y0221409D01*
X0143315Y0219811D02*
X0214264Y0219811D01*
X0215862Y0218212D02*
X0144913Y0218212D01*
X0146512Y0216614D02*
X0216922Y0216614D01*
X0221678Y0216614D02*
X0227088Y0216614D01*
X0225490Y0215015D02*
X0148110Y0215015D01*
X0143855Y0210220D02*
X0136491Y0210220D01*
X0134893Y0211818D02*
X0142256Y0211818D01*
X0140658Y0213417D02*
X0133294Y0213417D01*
X0131696Y0215015D02*
X0139059Y0215015D01*
X0137461Y0216614D02*
X0130097Y0216614D01*
X0128499Y0218212D02*
X0135862Y0218212D01*
X0134264Y0219811D02*
X0126900Y0219811D01*
X0125302Y0221409D02*
X0132665Y0221409D01*
X0131067Y0223008D02*
X0123703Y0223008D01*
X0122105Y0224606D02*
X0129468Y0224606D01*
X0127870Y0226205D02*
X0120506Y0226205D01*
X0118908Y0227803D02*
X0126271Y0227803D01*
X0124134Y0229402D02*
X0117309Y0229402D01*
X0115711Y0231001D02*
X0123074Y0231001D01*
X0121475Y0232599D02*
X0114112Y0232599D01*
X0112514Y0234198D02*
X0119877Y0234198D01*
X0118278Y0235796D02*
X0110915Y0235796D01*
X0109317Y0237395D02*
X0116680Y0237395D01*
X0115081Y0238993D02*
X0109000Y0238993D01*
X0109000Y0240592D02*
X0113837Y0240592D01*
X0113600Y0242190D02*
X0109000Y0242190D01*
X0109000Y0243789D02*
X0113600Y0243789D01*
X0113600Y0245387D02*
X0109000Y0245387D01*
X0109000Y0246986D02*
X0113600Y0246986D01*
X0113600Y0248584D02*
X0109000Y0248584D01*
X0109000Y0250183D02*
X0113600Y0250183D01*
X0113600Y0251781D02*
X0107430Y0251781D01*
X0105832Y0253380D02*
X0113600Y0253380D01*
X0113600Y0254978D02*
X0104233Y0254978D01*
X0102635Y0256577D02*
X0112498Y0256577D01*
X0110899Y0258175D02*
X0101967Y0258175D01*
X0099935Y0259774D02*
X0109301Y0259774D01*
X0107702Y0261372D02*
X0078040Y0261372D01*
X0079785Y0259774D02*
X0098665Y0259774D01*
X0096633Y0258175D02*
X0081530Y0258175D01*
X0083275Y0256577D02*
X0096309Y0256577D01*
X0096893Y0254978D02*
X0085020Y0254978D01*
X0086765Y0253380D02*
X0099609Y0253380D01*
X0101208Y0251781D02*
X0088510Y0251781D01*
X0090255Y0250183D02*
X0102806Y0250183D01*
X0104405Y0248584D02*
X0092000Y0248584D01*
X0093745Y0246986D02*
X0104600Y0246986D01*
X0104600Y0245387D02*
X0095490Y0245387D01*
X0097235Y0243789D02*
X0104600Y0243789D01*
X0104600Y0242190D02*
X0098980Y0242190D01*
X0100725Y0240592D02*
X0104600Y0240592D01*
X0104600Y0238993D02*
X0102470Y0238993D01*
X0104215Y0237395D02*
X0104600Y0237395D01*
X0109711Y0230778D02*
X0144600Y0195889D01*
X0145889Y0194600D01*
X0160745Y0194600D01*
X0160106Y0194335D01*
X0159771Y0194000D01*
X0137100Y0194000D01*
X0137100Y0196163D01*
X0136163Y0197100D01*
X0127437Y0197100D01*
X0126500Y0196163D01*
X0126500Y0191210D01*
X0123930Y0202054D01*
X0120079Y0212636D01*
X0115025Y0222699D01*
X0109711Y0230778D01*
X0110616Y0229402D02*
X0111087Y0229402D01*
X0111667Y0227803D02*
X0112685Y0227803D01*
X0112719Y0226205D02*
X0114284Y0226205D01*
X0113770Y0224606D02*
X0115882Y0224606D01*
X0114821Y0223008D02*
X0117481Y0223008D01*
X0119079Y0221409D02*
X0115672Y0221409D01*
X0115025Y0222699D02*
X0115025Y0222699D01*
X0116475Y0219811D02*
X0120678Y0219811D01*
X0122276Y0218212D02*
X0117278Y0218212D01*
X0118081Y0216614D02*
X0123875Y0216614D01*
X0125473Y0215015D02*
X0118883Y0215015D01*
X0119686Y0213417D02*
X0127072Y0213417D01*
X0128670Y0211818D02*
X0120376Y0211818D01*
X0120079Y0212636D02*
X0120079Y0212636D01*
X0120958Y0210220D02*
X0130269Y0210220D01*
X0131867Y0208621D02*
X0121540Y0208621D01*
X0122121Y0207023D02*
X0133466Y0207023D01*
X0135064Y0205424D02*
X0122703Y0205424D01*
X0123285Y0203826D02*
X0136663Y0203826D01*
X0138261Y0202227D02*
X0123867Y0202227D01*
X0123930Y0202054D02*
X0123930Y0202054D01*
X0124268Y0200629D02*
X0139860Y0200629D01*
X0141458Y0199030D02*
X0124647Y0199030D01*
X0125025Y0197432D02*
X0143057Y0197432D01*
X0144655Y0195833D02*
X0137100Y0195833D01*
X0137100Y0194235D02*
X0160005Y0194235D01*
X0159771Y0189600D02*
X0160106Y0189265D01*
X0161205Y0188809D01*
X0162395Y0188809D01*
X0163494Y0189265D01*
X0164335Y0190106D01*
X0164600Y0190745D01*
X0164600Y0172711D01*
X0162975Y0171087D01*
X0162416Y0171087D01*
X0162416Y0171912D01*
X0161504Y0172824D01*
X0162416Y0173736D01*
X0162416Y0179786D01*
X0161504Y0180698D01*
X0162416Y0181610D01*
X0162416Y0187660D01*
X0161478Y0188597D01*
X0148342Y0188597D01*
X0147580Y0187835D01*
X0137100Y0187835D01*
X0137100Y0189600D01*
X0159771Y0189600D01*
X0159931Y0189439D02*
X0137100Y0189439D01*
X0137100Y0187841D02*
X0147586Y0187841D01*
X0147580Y0181435D02*
X0148317Y0180698D01*
X0147580Y0179961D01*
X0136775Y0179961D01*
X0137100Y0180746D01*
X0137100Y0181435D01*
X0147580Y0181435D01*
X0147580Y0173561D02*
X0148317Y0172824D01*
X0147405Y0171912D01*
X0147405Y0165862D01*
X0148317Y0164950D01*
X0147580Y0164213D01*
X0145376Y0164213D01*
X0144200Y0163725D01*
X0143300Y0162825D01*
X0136587Y0156113D01*
X0136117Y0154978D01*
X0134802Y0156293D01*
X0133578Y0156800D01*
X0134802Y0157307D01*
X0136293Y0158798D01*
X0137100Y0160746D01*
X0137100Y0162854D01*
X0136293Y0164802D01*
X0134802Y0166293D01*
X0133578Y0166800D01*
X0134802Y0167307D01*
X0136293Y0168798D01*
X0137100Y0170746D01*
X0137100Y0172575D01*
X0138086Y0173561D01*
X0147580Y0173561D01*
X0147686Y0173454D02*
X0137980Y0173454D01*
X0137100Y0171856D02*
X0147405Y0171856D01*
X0147405Y0170257D02*
X0136898Y0170257D01*
X0136154Y0168659D02*
X0147405Y0168659D01*
X0147405Y0167060D02*
X0134206Y0167060D01*
X0135634Y0165462D02*
X0147805Y0165462D01*
X0144532Y0163863D02*
X0136682Y0163863D01*
X0137100Y0162265D02*
X0142739Y0162265D01*
X0141141Y0160666D02*
X0137067Y0160666D01*
X0136405Y0159068D02*
X0139542Y0159068D01*
X0137944Y0157469D02*
X0134964Y0157469D01*
X0135225Y0155870D02*
X0136487Y0155870D01*
X0136100Y0148605D02*
X0136100Y0144995D01*
X0134802Y0146293D01*
X0133578Y0146800D01*
X0134802Y0147307D01*
X0136100Y0148605D01*
X0136100Y0147878D02*
X0135373Y0147878D01*
X0134816Y0146279D02*
X0136100Y0146279D01*
X0130022Y0146800D02*
X0128798Y0146293D01*
X0127500Y0144995D01*
X0127500Y0148605D01*
X0128798Y0147307D01*
X0130022Y0146800D01*
X0128784Y0146279D02*
X0127500Y0146279D01*
X0127500Y0147878D02*
X0128227Y0147878D01*
X0127500Y0138605D02*
X0127500Y0128795D01*
X0136100Y0138057D01*
X0136100Y0138605D01*
X0134802Y0137307D01*
X0132854Y0136500D01*
X0130746Y0136500D01*
X0128798Y0137307D01*
X0127500Y0138605D01*
X0127500Y0138287D02*
X0127818Y0138287D01*
X0127500Y0136688D02*
X0130291Y0136688D01*
X0133309Y0136688D02*
X0134829Y0136688D01*
X0135782Y0138287D02*
X0136100Y0138287D01*
X0133345Y0135090D02*
X0127500Y0135090D01*
X0127500Y0133491D02*
X0131861Y0133491D01*
X0130377Y0131893D02*
X0127500Y0131893D01*
X0127500Y0130294D02*
X0128892Y0130294D01*
X0133173Y0125499D02*
X0140973Y0125499D01*
X0141100Y0125625D02*
X0139987Y0124513D01*
X0139087Y0123613D01*
X0138600Y0122437D01*
X0138600Y0121095D01*
X0137307Y0119802D01*
X0136800Y0118578D01*
X0136293Y0119802D01*
X0134802Y0121293D01*
X0132854Y0122100D01*
X0130746Y0122100D01*
X0129561Y0121609D01*
X0141100Y0134036D01*
X0141100Y0125625D01*
X0141100Y0127097D02*
X0134657Y0127097D01*
X0136141Y0128696D02*
X0141100Y0128696D01*
X0141100Y0130294D02*
X0137626Y0130294D01*
X0139110Y0131893D02*
X0141100Y0131893D01*
X0141100Y0133491D02*
X0140594Y0133491D01*
X0147500Y0133491D02*
X0148279Y0133491D01*
X0148317Y0133454D02*
X0147500Y0134270D01*
X0147500Y0132637D01*
X0148317Y0133454D01*
X0147500Y0140511D02*
X0147500Y0142144D01*
X0148317Y0141328D01*
X0147500Y0140511D01*
X0147500Y0141484D02*
X0148160Y0141484D01*
X0147500Y0148385D02*
X0147500Y0149939D01*
X0147580Y0149939D01*
X0148317Y0149202D01*
X0147500Y0148385D01*
X0147500Y0149476D02*
X0148042Y0149476D01*
X0147580Y0156339D02*
X0145864Y0156339D01*
X0147338Y0157813D01*
X0147580Y0157813D01*
X0148317Y0157076D01*
X0147580Y0156339D01*
X0147923Y0157469D02*
X0146994Y0157469D01*
X0161897Y0157469D02*
X0169600Y0157469D01*
X0169600Y0155870D02*
X0162416Y0155870D01*
X0162416Y0154272D02*
X0169600Y0154272D01*
X0168925Y0152673D02*
X0162416Y0152673D01*
X0162416Y0151075D02*
X0167964Y0151075D01*
X0166365Y0149476D02*
X0161779Y0149476D01*
X0162416Y0147878D02*
X0164767Y0147878D01*
X0167792Y0144681D02*
X0180808Y0144681D01*
X0179209Y0146279D02*
X0169391Y0146279D01*
X0170989Y0147878D02*
X0177611Y0147878D01*
X0176012Y0149476D02*
X0173706Y0149476D01*
X0174600Y0152855D02*
X0174335Y0153494D01*
X0174000Y0153829D01*
X0174000Y0155745D01*
X0174265Y0155106D01*
X0174600Y0154771D01*
X0174600Y0152855D01*
X0174600Y0154272D02*
X0174000Y0154272D01*
X0169600Y0159068D02*
X0162416Y0159068D01*
X0162416Y0160666D02*
X0169600Y0160666D01*
X0169600Y0162265D02*
X0162416Y0162265D01*
X0162416Y0163863D02*
X0169600Y0163863D01*
X0169600Y0165462D02*
X0162016Y0165462D01*
X0165171Y0167060D02*
X0169600Y0167060D01*
X0169600Y0168659D02*
X0166770Y0168659D01*
X0168368Y0170257D02*
X0169600Y0170257D01*
X0169600Y0171856D02*
X0169000Y0171856D01*
X0169000Y0173454D02*
X0169600Y0173454D01*
X0169600Y0175053D02*
X0169000Y0175053D01*
X0169000Y0176651D02*
X0169600Y0176651D01*
X0169600Y0178250D02*
X0169000Y0178250D01*
X0169000Y0179848D02*
X0169600Y0179848D01*
X0169600Y0181447D02*
X0169000Y0181447D01*
X0169000Y0183045D02*
X0169934Y0183045D01*
X0169000Y0184644D02*
X0171532Y0184644D01*
X0173131Y0186242D02*
X0169000Y0186242D01*
X0164600Y0186242D02*
X0162416Y0186242D01*
X0162416Y0184644D02*
X0164600Y0184644D01*
X0164600Y0183045D02*
X0162416Y0183045D01*
X0162253Y0181447D02*
X0164600Y0181447D01*
X0164600Y0179848D02*
X0162353Y0179848D01*
X0162416Y0178250D02*
X0164600Y0178250D01*
X0164600Y0176651D02*
X0162416Y0176651D01*
X0162416Y0175053D02*
X0164600Y0175053D01*
X0164600Y0173454D02*
X0162134Y0173454D01*
X0162416Y0171856D02*
X0163744Y0171856D01*
X0164600Y0187841D02*
X0162235Y0187841D01*
X0163669Y0189439D02*
X0164600Y0189439D01*
X0169000Y0191038D02*
X0176809Y0191038D01*
X0174944Y0192636D02*
X0169000Y0192636D01*
X0167477Y0194235D02*
X0173079Y0194235D01*
X0171214Y0195833D02*
X0165878Y0195833D01*
X0164279Y0197432D02*
X0169349Y0197432D01*
X0167484Y0199030D02*
X0147681Y0199030D01*
X0146082Y0200629D02*
X0165619Y0200629D01*
X0163754Y0202227D02*
X0144484Y0202227D01*
X0142885Y0203826D02*
X0156166Y0203826D01*
X0157434Y0203826D02*
X0161889Y0203826D01*
X0164920Y0207023D02*
X0192052Y0207023D01*
X0193650Y0205424D02*
X0166785Y0205424D01*
X0168650Y0203826D02*
X0195618Y0203826D01*
X0197906Y0210220D02*
X0220694Y0210220D01*
X0222293Y0211818D02*
X0196307Y0211818D01*
X0194709Y0213417D02*
X0223891Y0213417D01*
X0222726Y0218212D02*
X0228687Y0218212D01*
X0230285Y0219811D02*
X0222881Y0219811D01*
X0222255Y0221409D02*
X0231884Y0221409D01*
X0233482Y0223008D02*
X0220118Y0223008D01*
X0220000Y0224606D02*
X0234000Y0224606D01*
X0234352Y0226205D02*
X0233606Y0226205D01*
X0230851Y0226205D02*
X0220730Y0226205D01*
X0222329Y0227803D02*
X0228301Y0227803D01*
X0227308Y0229402D02*
X0223927Y0229402D01*
X0225526Y0231001D02*
X0226929Y0231001D01*
X0222869Y0237395D02*
X0219648Y0237395D01*
X0222636Y0238482D02*
X0222636Y0238482D01*
X0223653Y0238993D02*
X0224468Y0238993D01*
X0231920Y0237395D02*
X0248600Y0237395D01*
X0248600Y0238993D02*
X0243385Y0238993D01*
X0245117Y0240592D02*
X0248600Y0240592D01*
X0248600Y0242190D02*
X0246716Y0242190D01*
X0248314Y0243789D02*
X0249263Y0243789D01*
X0249913Y0245387D02*
X0250862Y0245387D01*
X0251511Y0246986D02*
X0252460Y0246986D01*
X0253110Y0248584D02*
X0254059Y0248584D01*
X0254708Y0250183D02*
X0255657Y0250183D01*
X0256307Y0251781D02*
X0257256Y0251781D01*
X0257905Y0253380D02*
X0258578Y0253380D01*
X0259504Y0254978D02*
X0260115Y0254978D01*
X0255248Y0259774D02*
X0252364Y0259774D01*
X0253650Y0258175D02*
X0250901Y0258175D01*
X0252051Y0256577D02*
X0249437Y0256577D01*
X0250453Y0254978D02*
X0247974Y0254978D01*
X0248854Y0253380D02*
X0246510Y0253380D01*
X0247256Y0251781D02*
X0244559Y0251781D01*
X0245657Y0250183D02*
X0242654Y0250183D01*
X0244059Y0248584D02*
X0240374Y0248584D01*
X0242460Y0246986D02*
X0237944Y0246986D01*
X0235513Y0245387D02*
X0240862Y0245387D01*
X0235299Y0235796D02*
X0248600Y0235796D01*
X0248600Y0234198D02*
X0236795Y0234198D01*
X0237457Y0232599D02*
X0248600Y0232599D01*
X0248600Y0231001D02*
X0237529Y0231001D01*
X0237768Y0229402D02*
X0237150Y0229402D01*
X0240832Y0229402D02*
X0248600Y0229402D01*
X0248278Y0227803D02*
X0243292Y0227803D01*
X0244248Y0226205D02*
X0246680Y0226205D01*
X0245081Y0224606D02*
X0244600Y0224606D01*
X0238687Y0218212D02*
X0237738Y0218212D01*
X0237088Y0216614D02*
X0236139Y0216614D01*
X0235490Y0215015D02*
X0234541Y0215015D01*
X0234987Y0214513D02*
X0234987Y0214513D01*
X0234006Y0213417D02*
X0232942Y0213417D01*
X0233600Y0211818D02*
X0231344Y0211818D01*
X0229745Y0210220D02*
X0233600Y0210220D01*
X0233600Y0208621D02*
X0228147Y0208621D01*
X0226548Y0207023D02*
X0233600Y0207023D01*
X0233600Y0205424D02*
X0224950Y0205424D01*
X0222982Y0203826D02*
X0233600Y0203826D01*
X0233600Y0202227D02*
X0170515Y0202227D01*
X0172380Y0200629D02*
X0233600Y0200629D01*
X0233600Y0199030D02*
X0174245Y0199030D01*
X0176110Y0197432D02*
X0233600Y0197432D01*
X0233600Y0195833D02*
X0177975Y0195833D01*
X0179840Y0194235D02*
X0225005Y0194235D01*
X0228595Y0194235D02*
X0233600Y0194235D01*
X0233600Y0192636D02*
X0229691Y0192636D01*
X0230674Y0191038D02*
X0233600Y0191038D01*
X0233600Y0189439D02*
X0232272Y0189439D01*
X0212153Y0187841D02*
X0193871Y0187841D01*
X0195469Y0186242D02*
X0202013Y0186242D01*
X0201309Y0184644D02*
X0197068Y0184644D01*
X0198666Y0183045D02*
X0201583Y0183045D01*
X0200265Y0181447D02*
X0203374Y0181447D01*
X0205226Y0181447D02*
X0212135Y0181447D01*
X0212034Y0179848D02*
X0201863Y0179848D01*
X0203462Y0178250D02*
X0211972Y0178250D01*
X0211972Y0176651D02*
X0205060Y0176651D01*
X0206659Y0175053D02*
X0211972Y0175053D01*
X0212253Y0173454D02*
X0209352Y0173454D01*
X0209856Y0171856D02*
X0211972Y0171856D01*
X0211972Y0166687D02*
X0208802Y0166687D01*
X0207513Y0167975D01*
X0207513Y0167975D01*
X0206679Y0168809D01*
X0206205Y0168809D01*
X0205106Y0169265D01*
X0204265Y0170106D01*
X0203809Y0171205D01*
X0203809Y0171679D01*
X0189642Y0185847D01*
X0189335Y0185106D01*
X0189000Y0184771D01*
X0189000Y0162711D01*
X0190211Y0161500D01*
X0197271Y0161500D01*
X0197606Y0161835D01*
X0198705Y0162291D01*
X0199895Y0162291D01*
X0200994Y0161835D01*
X0201835Y0160994D01*
X0202291Y0159895D01*
X0202291Y0158705D01*
X0201835Y0157606D01*
X0200994Y0156765D01*
X0199895Y0156309D01*
X0198705Y0156309D01*
X0197606Y0156765D01*
X0197271Y0157100D01*
X0188389Y0157100D01*
X0185889Y0159600D01*
X0184600Y0160889D01*
X0184600Y0184771D01*
X0184300Y0185071D01*
X0184000Y0184771D01*
X0184000Y0157711D01*
X0186921Y0154791D01*
X0187395Y0154791D01*
X0188494Y0154335D01*
X0189335Y0153494D01*
X0189791Y0152395D01*
X0189791Y0151921D01*
X0192711Y0149000D01*
X0210211Y0149000D01*
X0211500Y0147711D01*
X0211747Y0147465D01*
X0211972Y0147465D01*
X0211972Y0148290D01*
X0212884Y0149202D01*
X0211972Y0150114D01*
X0211972Y0156164D01*
X0212884Y0157076D01*
X0211972Y0157988D01*
X0211972Y0164038D01*
X0212884Y0164950D01*
X0211972Y0165862D01*
X0211972Y0166687D01*
X0212372Y0165462D02*
X0189000Y0165462D01*
X0189000Y0167060D02*
X0208429Y0167060D01*
X0206830Y0168659D02*
X0189000Y0168659D01*
X0189000Y0170257D02*
X0204202Y0170257D01*
X0203633Y0171856D02*
X0189000Y0171856D01*
X0189000Y0173454D02*
X0202035Y0173454D01*
X0200436Y0175053D02*
X0189000Y0175053D01*
X0189000Y0176651D02*
X0198838Y0176651D01*
X0197239Y0178250D02*
X0189000Y0178250D01*
X0189000Y0179848D02*
X0195641Y0179848D01*
X0194042Y0181447D02*
X0189000Y0181447D01*
X0189000Y0183045D02*
X0192444Y0183045D01*
X0190845Y0184644D02*
X0189000Y0184644D01*
X0184600Y0184644D02*
X0184000Y0184644D01*
X0184000Y0183045D02*
X0184600Y0183045D01*
X0184600Y0181447D02*
X0184000Y0181447D01*
X0184000Y0179848D02*
X0184600Y0179848D01*
X0184600Y0178250D02*
X0184000Y0178250D01*
X0184000Y0176651D02*
X0184600Y0176651D01*
X0184600Y0175053D02*
X0184000Y0175053D01*
X0184000Y0173454D02*
X0184600Y0173454D01*
X0184600Y0171856D02*
X0184000Y0171856D01*
X0184000Y0170257D02*
X0184600Y0170257D01*
X0184600Y0168659D02*
X0184000Y0168659D01*
X0184000Y0167060D02*
X0184600Y0167060D01*
X0184600Y0165462D02*
X0184000Y0165462D01*
X0184000Y0163863D02*
X0184600Y0163863D01*
X0184600Y0162265D02*
X0184000Y0162265D01*
X0184000Y0160666D02*
X0184823Y0160666D01*
X0184000Y0159068D02*
X0186421Y0159068D01*
X0188020Y0157469D02*
X0184242Y0157469D01*
X0185841Y0155870D02*
X0211972Y0155870D01*
X0211972Y0154272D02*
X0188557Y0154272D01*
X0189675Y0152673D02*
X0211972Y0152673D01*
X0211972Y0151075D02*
X0190636Y0151075D01*
X0192235Y0149476D02*
X0212609Y0149476D01*
X0211972Y0147878D02*
X0211333Y0147878D01*
X0212490Y0157469D02*
X0201698Y0157469D01*
X0202291Y0159068D02*
X0211972Y0159068D01*
X0211972Y0160666D02*
X0201971Y0160666D01*
X0199958Y0162265D02*
X0211972Y0162265D01*
X0211972Y0163863D02*
X0189000Y0163863D01*
X0189447Y0162265D02*
X0198642Y0162265D01*
X0226345Y0149476D02*
X0243927Y0149476D01*
X0244306Y0147878D02*
X0226983Y0147878D01*
X0226983Y0146279D02*
X0244713Y0146279D01*
X0245295Y0144681D02*
X0233984Y0144681D01*
X0235145Y0143082D02*
X0245877Y0143082D01*
X0246459Y0141484D02*
X0236642Y0141484D01*
X0238240Y0139885D02*
X0247041Y0139885D01*
X0247622Y0138287D02*
X0239648Y0138287D01*
X0240000Y0136688D02*
X0248204Y0136688D01*
X0248902Y0135090D02*
X0240000Y0135090D01*
X0240000Y0133491D02*
X0249704Y0133491D01*
X0250507Y0131893D02*
X0240000Y0131893D01*
X0240331Y0130294D02*
X0251310Y0130294D01*
X0252113Y0128696D02*
X0241930Y0128696D01*
X0243528Y0127097D02*
X0252916Y0127097D01*
X0253775Y0125499D02*
X0245127Y0125499D01*
X0246725Y0123900D02*
X0254826Y0123900D01*
X0255877Y0122302D02*
X0248324Y0122302D01*
X0249922Y0120703D02*
X0256929Y0120703D01*
X0257980Y0119105D02*
X0251521Y0119105D01*
X0253119Y0117506D02*
X0259032Y0117506D01*
X0260182Y0115908D02*
X0254718Y0115908D01*
X0256316Y0114309D02*
X0261523Y0114309D01*
X0262864Y0112711D02*
X0257915Y0112711D01*
X0259513Y0111112D02*
X0264405Y0111112D01*
X0266152Y0109514D02*
X0261112Y0109514D01*
X0262710Y0107915D02*
X0267899Y0107915D01*
X0269646Y0106317D02*
X0264309Y0106317D01*
X0265907Y0104718D02*
X0271393Y0104718D01*
X0273140Y0103120D02*
X0267506Y0103120D01*
X0269104Y0101521D02*
X0274887Y0101521D01*
X0276634Y0099923D02*
X0270703Y0099923D01*
X0260340Y0093529D02*
X0249140Y0093529D01*
X0247700Y0095127D02*
X0258617Y0095127D01*
X0257349Y0096726D02*
X0246255Y0096726D01*
X0244220Y0098324D02*
X0255750Y0098324D01*
X0254152Y0099923D02*
X0242315Y0099923D01*
X0239941Y0101521D02*
X0252553Y0101521D01*
X0250955Y0103120D02*
X0237511Y0103120D01*
X0235080Y0104718D02*
X0249356Y0104718D01*
X0247758Y0106317D02*
X0232635Y0106317D01*
X0229452Y0107915D02*
X0246159Y0107915D01*
X0244561Y0109514D02*
X0226269Y0109514D01*
X0223086Y0111112D02*
X0242962Y0111112D01*
X0241364Y0112711D02*
X0218865Y0112711D01*
X0214473Y0114309D02*
X0239765Y0114309D01*
X0238167Y0115908D02*
X0209660Y0115908D01*
X0209660Y0117506D02*
X0236568Y0117506D01*
X0234970Y0119105D02*
X0209660Y0119105D01*
X0209660Y0120703D02*
X0233371Y0120703D01*
X0231773Y0122302D02*
X0209660Y0122302D01*
X0209660Y0123900D02*
X0230174Y0123900D01*
X0228875Y0125499D02*
X0209660Y0125499D01*
X0209660Y0127097D02*
X0211972Y0127097D01*
X0211972Y0131893D02*
X0209818Y0131893D01*
X0208220Y0133491D02*
X0212846Y0133491D01*
X0202614Y0128696D02*
X0200907Y0128696D01*
X0194740Y0128696D02*
X0193033Y0128696D01*
X0178992Y0128696D02*
X0177285Y0128696D01*
X0171118Y0128696D02*
X0169411Y0128696D01*
X0159536Y0115908D02*
X0154019Y0115908D01*
X0154087Y0114309D02*
X0152420Y0114309D01*
X0149395Y0117506D02*
X0147100Y0117506D01*
X0147100Y0117854D02*
X0146293Y0119802D01*
X0145310Y0120785D01*
X0147013Y0122487D01*
X0147500Y0123663D01*
X0147500Y0126396D01*
X0148342Y0125554D01*
X0152710Y0125554D01*
X0152710Y0120822D01*
X0146722Y0114833D01*
X0147100Y0115746D01*
X0147100Y0117854D01*
X0146582Y0119105D02*
X0150993Y0119105D01*
X0152592Y0120703D02*
X0145392Y0120703D01*
X0146827Y0122302D02*
X0152710Y0122302D01*
X0152710Y0123900D02*
X0147500Y0123900D01*
X0147500Y0125499D02*
X0152710Y0125499D01*
X0147796Y0115908D02*
X0147100Y0115908D01*
X0143767Y0111878D02*
X0143389Y0111500D01*
X0140211Y0111500D01*
X0139833Y0111878D01*
X0140746Y0111500D01*
X0142854Y0111500D01*
X0143767Y0111878D01*
X0137574Y0107915D02*
X0116845Y0107915D01*
X0115361Y0106317D02*
X0135926Y0106317D01*
X0133480Y0104718D02*
X0113877Y0104718D01*
X0112392Y0103120D02*
X0131050Y0103120D01*
X0128619Y0101521D02*
X0110908Y0101521D01*
X0110000Y0099923D02*
X0126246Y0099923D01*
X0126453Y0100096D02*
X0126453Y0100096D01*
X0124341Y0098324D02*
X0110045Y0098324D01*
X0110381Y0096726D02*
X0122306Y0096726D01*
X0120862Y0095127D02*
X0109983Y0095127D01*
X0108260Y0093529D02*
X0119422Y0093529D01*
X0118330Y0109514D02*
X0135975Y0109514D01*
X0134377Y0111112D02*
X0119814Y0111112D01*
X0121298Y0112711D02*
X0128394Y0112711D01*
X0127095Y0114309D02*
X0122783Y0114309D01*
X0124267Y0115908D02*
X0126500Y0115908D01*
X0126500Y0117506D02*
X0125751Y0117506D01*
X0130204Y0122302D02*
X0138600Y0122302D01*
X0138208Y0120703D02*
X0135392Y0120703D01*
X0136582Y0119105D02*
X0137018Y0119105D01*
X0136800Y0115022D02*
X0136768Y0114944D01*
X0136878Y0114833D01*
X0136800Y0115022D01*
X0139375Y0123900D02*
X0131688Y0123900D01*
X0121100Y0128125D02*
X0105753Y0112779D01*
X0108836Y0116453D01*
X0115025Y0125862D01*
X0120079Y0135925D01*
X0121100Y0138731D01*
X0121100Y0128125D01*
X0121100Y0128696D02*
X0116448Y0128696D01*
X0117251Y0130294D02*
X0121100Y0130294D01*
X0121100Y0131893D02*
X0118053Y0131893D01*
X0118856Y0133491D02*
X0121100Y0133491D01*
X0121100Y0135090D02*
X0119659Y0135090D01*
X0120079Y0135925D02*
X0120079Y0135925D01*
X0120356Y0136688D02*
X0121100Y0136688D01*
X0121100Y0138287D02*
X0120938Y0138287D01*
X0120072Y0127097D02*
X0115645Y0127097D01*
X0115025Y0125862D02*
X0115025Y0125862D01*
X0114786Y0125499D02*
X0118473Y0125499D01*
X0116875Y0123900D02*
X0113734Y0123900D01*
X0112683Y0122302D02*
X0115276Y0122302D01*
X0113678Y0120703D02*
X0111632Y0120703D01*
X0112079Y0119105D02*
X0110580Y0119105D01*
X0110481Y0117506D02*
X0109529Y0117506D01*
X0108836Y0116453D02*
X0108836Y0116453D01*
X0108882Y0115908D02*
X0108379Y0115908D01*
X0107284Y0114309D02*
X0107037Y0114309D01*
X0102488Y0109514D02*
X0102410Y0109514D01*
X0100890Y0107915D02*
X0100664Y0107915D01*
X0156507Y0115190D02*
X0156507Y0115190D01*
X0127395Y0164890D02*
X0127795Y0168310D01*
X0128798Y0167307D01*
X0130022Y0166800D01*
X0128798Y0166293D01*
X0127395Y0164890D01*
X0127462Y0165462D02*
X0127966Y0165462D01*
X0127649Y0167060D02*
X0129394Y0167060D01*
X0127834Y0175330D02*
X0127834Y0178270D01*
X0128798Y0177307D01*
X0130022Y0176800D01*
X0128798Y0176293D01*
X0127834Y0175330D01*
X0127834Y0176651D02*
X0129662Y0176651D01*
X0127855Y0178250D02*
X0127834Y0178250D01*
X0127272Y0184719D02*
X0127015Y0186922D01*
X0127437Y0186500D01*
X0129297Y0186500D01*
X0128798Y0186293D01*
X0127307Y0184802D01*
X0127272Y0184719D01*
X0127094Y0186242D02*
X0128747Y0186242D01*
X0126500Y0192636D02*
X0126162Y0192636D01*
X0126500Y0194235D02*
X0125783Y0194235D01*
X0125404Y0195833D02*
X0126500Y0195833D01*
X0138090Y0208621D02*
X0146112Y0208621D01*
X0141287Y0205424D02*
X0154133Y0205424D01*
X0153809Y0207023D02*
X0139688Y0207023D01*
X0140118Y0223008D02*
X0176412Y0223008D01*
X0173794Y0224606D02*
X0138519Y0224606D01*
X0136920Y0226205D02*
X0172563Y0226205D01*
X0171901Y0227803D02*
X0135322Y0227803D01*
X0133723Y0229402D02*
X0171823Y0229402D01*
X0171986Y0231001D02*
X0132125Y0231001D01*
X0130526Y0232599D02*
X0165079Y0232599D01*
X0167465Y0232034D02*
X0167465Y0232034D01*
X0158334Y0234198D02*
X0129467Y0234198D01*
X0127329Y0235796D02*
X0153305Y0235796D01*
X0156507Y0234631D02*
X0156507Y0234631D01*
X0148913Y0237395D02*
X0125731Y0237395D01*
X0124132Y0238993D02*
X0144908Y0238993D01*
X0145925Y0238482D02*
X0145925Y0238482D01*
X0141725Y0240592D02*
X0122534Y0240592D01*
X0120935Y0242190D02*
X0138542Y0242190D01*
X0135862Y0243536D02*
X0135862Y0243536D01*
X0135478Y0243789D02*
X0120000Y0243789D01*
X0120000Y0245387D02*
X0133047Y0245387D01*
X0130617Y0246986D02*
X0120000Y0246986D01*
X0120000Y0248584D02*
X0128186Y0248584D01*
X0125907Y0250183D02*
X0120000Y0250183D01*
X0120000Y0251781D02*
X0124002Y0251781D01*
X0122050Y0253380D02*
X0120000Y0253380D01*
X0120000Y0254978D02*
X0120588Y0254978D01*
X0106104Y0262971D02*
X0076295Y0262971D01*
X0074550Y0264569D02*
X0104505Y0264569D01*
X0102907Y0266168D02*
X0072804Y0266168D01*
X0071059Y0267766D02*
X0101308Y0267766D01*
X0099171Y0269365D02*
X0069314Y0269365D01*
X0067569Y0270963D02*
X0098270Y0270963D01*
X0098239Y0272562D02*
X0065824Y0272562D01*
X0064079Y0274160D02*
X0099096Y0274160D01*
X0101574Y0275759D02*
X0062334Y0275759D01*
X0060589Y0277357D02*
X0100111Y0277357D01*
X0098649Y0278956D02*
X0068145Y0278956D01*
X0065688Y0278956D02*
X0058844Y0278956D01*
X0057099Y0280554D02*
X0063050Y0280554D01*
X0061452Y0282153D02*
X0055354Y0282153D01*
X0053609Y0283751D02*
X0059853Y0283751D01*
X0058255Y0285350D02*
X0051864Y0285350D01*
X0050119Y0286948D02*
X0056969Y0286948D01*
X0056384Y0288547D02*
X0048374Y0288547D01*
X0046629Y0290145D02*
X0056384Y0290145D01*
X0056911Y0291744D02*
X0044884Y0291744D01*
X0043139Y0293342D02*
X0058115Y0293342D01*
X0072170Y0285350D02*
X0092798Y0285350D01*
X0091336Y0286948D02*
X0077176Y0286948D01*
X0078602Y0288547D02*
X0089873Y0288547D01*
X0088410Y0290145D02*
X0079265Y0290145D01*
X0079287Y0291744D02*
X0086948Y0291744D01*
X0085485Y0293342D02*
X0078859Y0293342D01*
X0077796Y0294941D02*
X0084023Y0294941D01*
X0082560Y0296539D02*
X0076198Y0296539D01*
X0074599Y0298138D02*
X0081097Y0298138D01*
X0079635Y0299737D02*
X0073001Y0299737D01*
X0072216Y0283751D02*
X0094261Y0283751D01*
X0095723Y0282153D02*
X0071812Y0282153D01*
X0070782Y0280554D02*
X0097186Y0280554D01*
X0178207Y0240592D02*
X0190354Y0240592D01*
X0201096Y0232034D02*
X0201096Y0232034D01*
X0203482Y0232599D02*
X0218074Y0232599D01*
X0188223Y0223008D02*
X0180377Y0223008D01*
X0182995Y0224606D02*
X0185605Y0224606D01*
X0184374Y0226205D02*
X0184226Y0226205D01*
X0253828Y0261372D02*
X0256847Y0261372D01*
X0255291Y0262971D02*
X0258445Y0262971D01*
X0260044Y0264569D02*
X0256755Y0264569D01*
X0258218Y0266168D02*
X0261642Y0266168D01*
X0263241Y0267766D02*
X0259682Y0267766D01*
X0261145Y0269365D02*
X0264839Y0269365D01*
X0266438Y0270963D02*
X0262609Y0270963D01*
X0264072Y0272562D02*
X0268036Y0272562D01*
X0269635Y0274160D02*
X0265536Y0274160D01*
X0266999Y0275759D02*
X0271233Y0275759D01*
X0272832Y0277357D02*
X0268463Y0277357D01*
X0269926Y0278956D02*
X0274430Y0278956D01*
X0271390Y0280554D02*
X0293529Y0280554D01*
X0295127Y0282153D02*
X0272853Y0282153D01*
X0274317Y0283751D02*
X0296384Y0283751D01*
X0296430Y0285350D02*
X0275780Y0285350D01*
X0277244Y0286948D02*
X0291424Y0286948D01*
X0289998Y0288547D02*
X0278707Y0288547D01*
X0280171Y0290145D02*
X0289335Y0290145D01*
X0289313Y0291744D02*
X0281634Y0291744D01*
X0283098Y0293342D02*
X0289741Y0293342D01*
X0290804Y0294941D02*
X0284562Y0294941D01*
X0286025Y0296539D02*
X0292402Y0296539D01*
X0294001Y0298138D02*
X0287489Y0298138D01*
X0288952Y0299737D02*
X0295599Y0299737D01*
X0297699Y0301335D02*
X0290416Y0301335D01*
X0229616Y0144681D02*
X0226983Y0144681D01*
X0226983Y0143082D02*
X0228455Y0143082D01*
X0228219Y0141484D02*
X0226227Y0141484D01*
X0228240Y0139885D02*
X0228717Y0139885D01*
X0229839Y0138287D02*
X0230788Y0138287D01*
X0231437Y0136688D02*
X0232386Y0136688D01*
X0233036Y0135090D02*
X0233600Y0135090D01*
X0228600Y0130294D02*
X0226983Y0130294D01*
X0226983Y0128696D02*
X0228600Y0128696D01*
X0228600Y0127097D02*
X0226983Y0127097D01*
X0226983Y0131893D02*
X0227182Y0131893D01*
M02*
