G75*
%MOIN*%
%OFA0B0*%
%FSLAX25Y25*%
%IPPOS*%
%LPD*%
%AMOC8*
5,1,8,0,0,1.08239X$1,22.5*
%
%ADD10R,0.02756X0.03543*%
%ADD11R,0.03937X0.05512*%
%ADD12R,0.01900X0.01900*%
%ADD13C,0.01000*%
%ADD14R,0.02165X0.04724*%
%ADD15R,0.06299X0.05512*%
%ADD16R,0.02756X0.05906*%
%ADD17R,0.03937X0.02362*%
%ADD18R,0.03937X0.03150*%
D10*
G36*
X0094716Y0087213D02*
X0092767Y0085264D01*
X0090264Y0087767D01*
X0092213Y0089716D01*
X0094716Y0087213D01*
G37*
G36*
X0098336Y0090833D02*
X0096387Y0088884D01*
X0093884Y0091387D01*
X0095833Y0093336D01*
X0098336Y0090833D01*
G37*
G36*
X0098884Y0086387D02*
X0100833Y0088336D01*
X0103336Y0085833D01*
X0101387Y0083884D01*
X0098884Y0086387D01*
G37*
G36*
X0095264Y0082767D02*
X0097213Y0084716D01*
X0099716Y0082213D01*
X0097767Y0080264D01*
X0095264Y0082767D01*
G37*
G36*
X0174716Y0129713D02*
X0172767Y0127764D01*
X0170264Y0130267D01*
X0172213Y0132216D01*
X0174716Y0129713D01*
G37*
G36*
X0178336Y0133333D02*
X0176387Y0131384D01*
X0173884Y0133887D01*
X0175833Y0135836D01*
X0178336Y0133333D01*
G37*
G36*
X0187216Y0129713D02*
X0185267Y0127764D01*
X0182764Y0130267D01*
X0184713Y0132216D01*
X0187216Y0129713D01*
G37*
G36*
X0190836Y0133333D02*
X0188887Y0131384D01*
X0186384Y0133887D01*
X0188333Y0135836D01*
X0190836Y0133333D01*
G37*
G36*
X0195264Y0130267D02*
X0197213Y0132216D01*
X0199716Y0129713D01*
X0197767Y0127764D01*
X0195264Y0130267D01*
G37*
G36*
X0198884Y0133887D02*
X0200833Y0135836D01*
X0203336Y0133333D01*
X0201387Y0131384D01*
X0198884Y0133887D01*
G37*
G36*
X0197764Y0145267D02*
X0199713Y0147216D01*
X0202216Y0144713D01*
X0200267Y0142764D01*
X0197764Y0145267D01*
G37*
G36*
X0201384Y0148887D02*
X0203333Y0150836D01*
X0205836Y0148333D01*
X0203887Y0146384D01*
X0201384Y0148887D01*
G37*
G36*
X0193336Y0148333D02*
X0191387Y0146384D01*
X0188884Y0148887D01*
X0190833Y0150836D01*
X0193336Y0148333D01*
G37*
G36*
X0189716Y0144713D02*
X0187767Y0142764D01*
X0185264Y0145267D01*
X0187213Y0147216D01*
X0189716Y0144713D01*
G37*
G36*
X0180836Y0148333D02*
X0178887Y0146384D01*
X0176384Y0148887D01*
X0178333Y0150836D01*
X0180836Y0148333D01*
G37*
G36*
X0177216Y0144713D02*
X0175267Y0142764D01*
X0172764Y0145267D01*
X0174713Y0147216D01*
X0177216Y0144713D01*
G37*
G36*
X0127764Y0225267D02*
X0129713Y0227216D01*
X0132216Y0224713D01*
X0130267Y0222764D01*
X0127764Y0225267D01*
G37*
G36*
X0131384Y0228887D02*
X0133333Y0230836D01*
X0135836Y0228333D01*
X0133887Y0226384D01*
X0131384Y0228887D01*
G37*
G36*
X0098887Y0267216D02*
X0100836Y0265267D01*
X0098333Y0262764D01*
X0096384Y0264713D01*
X0098887Y0267216D01*
G37*
G36*
X0095267Y0270836D02*
X0097216Y0268887D01*
X0094713Y0266384D01*
X0092764Y0268333D01*
X0095267Y0270836D01*
G37*
G36*
X0090267Y0265836D02*
X0092216Y0263887D01*
X0089713Y0261384D01*
X0087764Y0263333D01*
X0090267Y0265836D01*
G37*
G36*
X0093887Y0262216D02*
X0095836Y0260267D01*
X0093333Y0257764D01*
X0091384Y0259713D01*
X0093887Y0262216D01*
G37*
G36*
X0269716Y0262213D02*
X0267767Y0260264D01*
X0265264Y0262767D01*
X0267213Y0264716D01*
X0269716Y0262213D01*
G37*
G36*
X0273336Y0265833D02*
X0271387Y0263884D01*
X0268884Y0266387D01*
X0270833Y0268336D01*
X0273336Y0265833D01*
G37*
G36*
X0273884Y0261387D02*
X0275833Y0263336D01*
X0278336Y0260833D01*
X0276387Y0258884D01*
X0273884Y0261387D01*
G37*
G36*
X0270264Y0257767D02*
X0272213Y0259716D01*
X0274716Y0257213D01*
X0272767Y0255264D01*
X0270264Y0257767D01*
G37*
G36*
X0272213Y0088884D02*
X0270264Y0090833D01*
X0272767Y0093336D01*
X0274716Y0091387D01*
X0272213Y0088884D01*
G37*
G36*
X0275833Y0085264D02*
X0273884Y0087213D01*
X0276387Y0089716D01*
X0278336Y0087767D01*
X0275833Y0085264D01*
G37*
G36*
X0271387Y0084716D02*
X0273336Y0082767D01*
X0270833Y0080264D01*
X0268884Y0082213D01*
X0271387Y0084716D01*
G37*
G36*
X0267767Y0088336D02*
X0269716Y0086387D01*
X0267213Y0083884D01*
X0265264Y0085833D01*
X0267767Y0088336D01*
G37*
D11*
G36*
X0079295Y0072078D02*
X0082078Y0069295D01*
X0078181Y0065398D01*
X0075398Y0068181D01*
X0079295Y0072078D01*
G37*
G36*
X0082775Y0080847D02*
X0085558Y0078064D01*
X0081661Y0074167D01*
X0078878Y0076950D01*
X0082775Y0080847D01*
G37*
G36*
X0088064Y0075558D02*
X0090847Y0072775D01*
X0086950Y0068878D01*
X0084167Y0071661D01*
X0088064Y0075558D01*
G37*
G36*
X0277753Y0072775D02*
X0280536Y0075558D01*
X0284433Y0071661D01*
X0281650Y0068878D01*
X0277753Y0072775D01*
G37*
G36*
X0283042Y0078064D02*
X0285825Y0080847D01*
X0289722Y0076950D01*
X0286939Y0074167D01*
X0283042Y0078064D01*
G37*
G36*
X0286522Y0069295D02*
X0289305Y0072078D01*
X0293202Y0068181D01*
X0290419Y0065398D01*
X0286522Y0069295D01*
G37*
G36*
X0285825Y0267753D02*
X0283042Y0270536D01*
X0286939Y0274433D01*
X0289722Y0271650D01*
X0285825Y0267753D01*
G37*
G36*
X0280536Y0273042D02*
X0277753Y0275825D01*
X0281650Y0279722D01*
X0284433Y0276939D01*
X0280536Y0273042D01*
G37*
G36*
X0289305Y0276522D02*
X0286522Y0279305D01*
X0290419Y0283202D01*
X0293202Y0280419D01*
X0289305Y0276522D01*
G37*
G36*
X0090847Y0275825D02*
X0088064Y0273042D01*
X0084167Y0276939D01*
X0086950Y0279722D01*
X0090847Y0275825D01*
G37*
G36*
X0085558Y0270536D02*
X0082775Y0267753D01*
X0078878Y0271650D01*
X0081661Y0274433D01*
X0085558Y0270536D01*
G37*
G36*
X0082078Y0279305D02*
X0079295Y0276522D01*
X0075398Y0280419D01*
X0078181Y0283202D01*
X0082078Y0279305D01*
G37*
D12*
X0184450Y0174050D03*
X0184500Y0169300D03*
X0189300Y0169300D03*
X0189450Y0174050D03*
D13*
X0193513Y0174751D02*
X0196513Y0174751D01*
X0196513Y0172774D02*
X0193513Y0172774D01*
X0193513Y0170668D02*
X0196513Y0170668D01*
X0196513Y0168681D02*
X0193513Y0168681D01*
X0193513Y0166695D02*
X0196513Y0166695D01*
X0191866Y0164947D02*
X0191866Y0161947D01*
X0189869Y0161947D02*
X0189869Y0164947D01*
X0187893Y0164947D02*
X0187893Y0161947D01*
X0185786Y0161947D02*
X0185786Y0164947D01*
X0183800Y0164947D02*
X0183800Y0161947D01*
X0181813Y0161947D02*
X0181813Y0164947D01*
X0180165Y0166695D02*
X0177165Y0166695D01*
X0177165Y0168681D02*
X0180165Y0168681D01*
X0180165Y0170668D02*
X0177165Y0170668D01*
X0177165Y0172774D02*
X0180165Y0172774D01*
X0180165Y0174751D02*
X0177165Y0174751D01*
X0177165Y0176748D02*
X0180165Y0176748D01*
X0181813Y0178495D02*
X0181813Y0181495D01*
X0183800Y0181495D02*
X0183800Y0178495D01*
X0185786Y0178495D02*
X0185786Y0181495D01*
X0187893Y0181495D02*
X0187893Y0178495D01*
X0189869Y0178495D02*
X0189869Y0181495D01*
X0191866Y0181495D02*
X0191866Y0178495D01*
X0193513Y0176748D02*
X0196513Y0176748D01*
D14*
G36*
X0145629Y0216730D02*
X0147159Y0218260D01*
X0150499Y0214920D01*
X0148969Y0213390D01*
X0145629Y0216730D01*
G37*
G36*
X0140340Y0211441D02*
X0141870Y0212971D01*
X0145210Y0209631D01*
X0143680Y0208101D01*
X0140340Y0211441D01*
G37*
G36*
X0133101Y0218680D02*
X0134631Y0220210D01*
X0137971Y0216870D01*
X0136441Y0215340D01*
X0133101Y0218680D01*
G37*
G36*
X0135746Y0221324D02*
X0137276Y0222854D01*
X0140616Y0219514D01*
X0139086Y0217984D01*
X0135746Y0221324D01*
G37*
G36*
X0138390Y0223969D02*
X0139920Y0225499D01*
X0143260Y0222159D01*
X0141730Y0220629D01*
X0138390Y0223969D01*
G37*
D15*
G36*
X0116522Y0237626D02*
X0120974Y0242078D01*
X0124872Y0238180D01*
X0120420Y0233728D01*
X0116522Y0237626D01*
G37*
G36*
X0108728Y0245420D02*
X0113180Y0249872D01*
X0117078Y0245974D01*
X0112626Y0241522D01*
X0108728Y0245420D01*
G37*
D16*
X0175442Y0222410D03*
X0181347Y0222410D03*
X0193158Y0222410D03*
D17*
X0198670Y0233237D03*
X0169930Y0233237D03*
D18*
X0169930Y0224969D03*
X0198670Y0224969D03*
M02*
