G75*
%MOIN*%
%OFA0B0*%
%FSLAX25Y25*%
%IPPOS*%
%LPD*%
%AMOC8*
5,1,8,0,0,1.08239X$1,22.5*
%
%ADD10C,0.00600*%
%ADD11C,0.00500*%
%ADD12C,0.02400*%
%ADD13C,0.00400*%
D10*
X0204600Y0177803D02*
X0208870Y0177803D01*
D11*
X0162391Y0123217D02*
X0155698Y0123217D01*
X0209635Y0123217D02*
X0218690Y0123217D01*
X0218690Y0188965D02*
X0218690Y0217706D01*
X0155698Y0217706D01*
X0155698Y0188965D01*
D12*
X0180501Y0192902D02*
X0206091Y0192902D01*
X0206091Y0195265D01*
X0206091Y0195658D02*
X0206091Y0214950D01*
X0202548Y0214950D01*
X0202548Y0200383D01*
X0198611Y0200383D01*
X0198611Y0214556D01*
X0193887Y0214556D01*
X0193887Y0200383D01*
X0189162Y0200383D01*
X0189162Y0214556D01*
X0184831Y0214556D01*
X0184831Y0200776D01*
X0180501Y0200776D01*
X0180501Y0214556D01*
X0164753Y0214556D01*
D13*
X0165083Y0179015D02*
X0168553Y0179015D01*
X0168553Y0173811D01*
X0165083Y0173811D01*
X0166818Y0176413D02*
X0168553Y0176413D01*
X0170239Y0177281D02*
X0170239Y0178148D01*
X0171107Y0179015D01*
X0172842Y0179015D01*
X0173709Y0178148D01*
X0177131Y0179015D02*
X0177131Y0173811D01*
X0178865Y0173811D02*
X0175396Y0173811D01*
X0173709Y0173811D02*
X0170239Y0177281D01*
X0170239Y0173811D02*
X0173709Y0173811D01*
X0178865Y0177281D02*
X0177131Y0179015D01*
X0185709Y0176413D02*
X0189178Y0176413D01*
X0196021Y0176413D02*
X0196889Y0175546D01*
X0199491Y0175546D01*
X0201178Y0175546D02*
X0201178Y0174678D01*
X0202045Y0173811D01*
X0203780Y0173811D01*
X0204647Y0174678D01*
X0206334Y0173811D02*
X0209804Y0173811D01*
X0209804Y0179015D01*
X0206334Y0179015D01*
X0204647Y0178148D02*
X0203780Y0179015D01*
X0202045Y0179015D01*
X0201178Y0178148D01*
X0199491Y0179015D02*
X0199491Y0173811D01*
X0201178Y0175546D02*
X0202045Y0176413D01*
X0203780Y0176413D01*
X0204647Y0177281D01*
X0204647Y0178148D01*
X0208069Y0176413D02*
X0209804Y0176413D01*
X0199491Y0179015D02*
X0196889Y0179015D01*
X0196021Y0178148D01*
X0196021Y0176413D01*
M02*
