G75*
%MOIN*%
%OFA0B0*%
%FSLAX25Y25*%
%IPPOS*%
%LPD*%
%AMOC8*
5,1,8,0,0,1.08239X$1,22.5*
%
%ADD10C,0.00600*%
%ADD11C,0.01600*%
%ADD12R,0.01181X0.02362*%
%ADD13C,0.00100*%
%ADD14C,0.00200*%
%ADD15C,0.00500*%
%ADD16C,0.00800*%
%ADD17R,0.02000X0.02000*%
%ADD18C,0.00300*%
%ADD19R,0.01800X0.02300*%
%ADD20R,0.01600X0.02800*%
%ADD21C,0.00394*%
%ADD22R,0.01969X0.02559*%
%ADD23C,0.01000*%
%ADD24R,0.02000X0.02000*%
D10*
X0076002Y0073921D02*
X0083921Y0066002D01*
X0087598Y0069679D01*
X0079679Y0077598D01*
X0076002Y0073921D01*
X0092994Y0089242D02*
X0094358Y0090606D01*
X0095606Y0089358D02*
X0094242Y0087994D01*
X0097994Y0084242D02*
X0099358Y0085606D01*
X0100606Y0084358D02*
X0099242Y0082994D01*
X0172994Y0131742D02*
X0174358Y0133106D01*
X0175606Y0131858D02*
X0174242Y0130494D01*
X0185494Y0131742D02*
X0186858Y0133106D01*
X0188106Y0131858D02*
X0186742Y0130494D01*
X0197994Y0131742D02*
X0199358Y0133106D01*
X0200606Y0131858D02*
X0199242Y0130494D01*
X0201742Y0145494D02*
X0203106Y0146858D01*
X0201858Y0148106D02*
X0200494Y0146742D01*
X0190606Y0146858D02*
X0189242Y0145494D01*
X0187994Y0146742D02*
X0189358Y0148106D01*
X0178106Y0146858D02*
X0176742Y0145494D01*
X0175494Y0146742D02*
X0176858Y0148106D01*
X0180388Y0194965D02*
X0181456Y0194965D01*
X0182524Y0196032D01*
X0182524Y0201370D01*
X0184699Y0201370D02*
X0185766Y0201370D01*
X0185766Y0197100D01*
X0184699Y0197100D02*
X0186834Y0197100D01*
X0188996Y0197100D02*
X0188996Y0201370D01*
X0192198Y0201370D01*
X0193266Y0200303D01*
X0193266Y0197100D01*
X0195441Y0198168D02*
X0196509Y0197100D01*
X0199712Y0197100D01*
X0199712Y0196032D02*
X0199712Y0201370D01*
X0196509Y0201370D01*
X0195441Y0200303D01*
X0195441Y0198168D01*
X0197576Y0194965D02*
X0198644Y0194965D01*
X0199712Y0196032D01*
X0201887Y0198168D02*
X0202954Y0197100D01*
X0205089Y0197100D01*
X0206157Y0198168D01*
X0206157Y0200303D01*
X0205089Y0201370D01*
X0204022Y0201370D01*
X0201887Y0200303D01*
X0201887Y0203505D01*
X0206157Y0203505D01*
X0208332Y0198168D02*
X0209400Y0198168D01*
X0209400Y0197100D01*
X0208332Y0197100D01*
X0208332Y0198168D01*
X0211555Y0198168D02*
X0211555Y0200303D01*
X0212623Y0201370D01*
X0215825Y0201370D01*
X0218000Y0200303D02*
X0218000Y0198168D01*
X0219068Y0197100D01*
X0221203Y0197100D01*
X0222271Y0198168D01*
X0222271Y0200303D01*
X0221203Y0201370D01*
X0219068Y0201370D01*
X0218000Y0200303D01*
X0215825Y0197100D02*
X0212623Y0197100D01*
X0211555Y0198168D01*
X0224446Y0197100D02*
X0224446Y0201370D01*
X0225514Y0201370D01*
X0226581Y0200303D01*
X0227649Y0201370D01*
X0228716Y0200303D01*
X0228716Y0197100D01*
X0226581Y0197100D02*
X0226581Y0200303D01*
X0185766Y0203505D02*
X0185766Y0204573D01*
X0182524Y0197100D02*
X0179321Y0197100D01*
X0178253Y0198168D01*
X0178253Y0201370D01*
X0175024Y0203505D02*
X0175024Y0197100D01*
X0176091Y0197100D02*
X0173956Y0197100D01*
X0170727Y0197100D02*
X0170727Y0202438D01*
X0171794Y0203505D01*
X0173956Y0203505D02*
X0175024Y0203505D01*
X0171794Y0200303D02*
X0169659Y0200303D01*
X0167504Y0198168D02*
X0166436Y0198168D01*
X0166436Y0197100D01*
X0167504Y0197100D01*
X0167504Y0198168D01*
X0164261Y0198168D02*
X0164261Y0201370D01*
X0164261Y0198168D02*
X0163194Y0197100D01*
X0162126Y0198168D01*
X0161059Y0197100D01*
X0159991Y0198168D01*
X0159991Y0201370D01*
X0157816Y0201370D02*
X0157816Y0198168D01*
X0156748Y0197100D01*
X0155681Y0198168D01*
X0154613Y0197100D01*
X0153545Y0198168D01*
X0153545Y0201370D01*
X0151370Y0201370D02*
X0151370Y0198168D01*
X0150303Y0197100D01*
X0149235Y0198168D01*
X0148168Y0197100D01*
X0147100Y0198168D01*
X0147100Y0201370D01*
X0140130Y0210675D02*
X0135675Y0215130D01*
X0143470Y0222925D01*
X0147925Y0218470D01*
X0140130Y0210675D01*
X0131742Y0225494D02*
X0133106Y0226858D01*
X0131858Y0228106D02*
X0130494Y0226742D01*
X0091858Y0260494D02*
X0090494Y0261858D01*
X0091742Y0263106D02*
X0093106Y0261742D01*
X0096858Y0265494D02*
X0095494Y0266858D01*
X0096742Y0268106D02*
X0098106Y0266742D01*
X0087598Y0278921D02*
X0079679Y0271002D01*
X0076002Y0274679D01*
X0083921Y0282598D01*
X0087598Y0278921D01*
X0267994Y0264242D02*
X0269358Y0265606D01*
X0270606Y0264358D02*
X0269242Y0262994D01*
X0272994Y0259242D02*
X0274358Y0260606D01*
X0275606Y0259358D02*
X0274242Y0257994D01*
X0288921Y0271002D02*
X0281002Y0278921D01*
X0284679Y0282598D01*
X0292598Y0274679D01*
X0288921Y0271002D01*
X0274242Y0090606D02*
X0275606Y0089242D01*
X0274358Y0087994D02*
X0272994Y0089358D01*
X0269242Y0085606D02*
X0270606Y0084242D01*
X0269358Y0082994D02*
X0267994Y0084358D01*
X0281002Y0069679D02*
X0288921Y0077598D01*
X0292598Y0073921D01*
X0284679Y0066002D01*
X0281002Y0069679D01*
D11*
X0201885Y0146715D02*
X0201715Y0146885D01*
X0199215Y0131885D02*
X0199385Y0131715D01*
X0186885Y0131715D02*
X0186715Y0131885D01*
X0131885Y0226715D02*
X0131715Y0226885D01*
D12*
G36*
X0131659Y0228355D02*
X0132494Y0229190D01*
X0134163Y0227521D01*
X0133328Y0226686D01*
X0131659Y0228355D01*
G37*
G36*
X0129396Y0226092D02*
X0130231Y0226927D01*
X0131900Y0225258D01*
X0131065Y0224423D01*
X0129396Y0226092D01*
G37*
G36*
X0093355Y0261941D02*
X0094190Y0261106D01*
X0092521Y0259437D01*
X0091686Y0260272D01*
X0093355Y0261941D01*
G37*
G36*
X0091092Y0264204D02*
X0091927Y0263369D01*
X0090258Y0261700D01*
X0089423Y0262535D01*
X0091092Y0264204D01*
G37*
G36*
X0096092Y0269204D02*
X0096927Y0268369D01*
X0095258Y0266700D01*
X0094423Y0267535D01*
X0096092Y0269204D01*
G37*
G36*
X0098355Y0266941D02*
X0099190Y0266106D01*
X0097521Y0264437D01*
X0096686Y0265272D01*
X0098355Y0266941D01*
G37*
G36*
X0179204Y0147508D02*
X0178369Y0146673D01*
X0176700Y0148342D01*
X0177535Y0149177D01*
X0179204Y0147508D01*
G37*
G36*
X0176941Y0145245D02*
X0176106Y0144410D01*
X0174437Y0146079D01*
X0175272Y0146914D01*
X0176941Y0145245D01*
G37*
G36*
X0189441Y0145245D02*
X0188606Y0144410D01*
X0186937Y0146079D01*
X0187772Y0146914D01*
X0189441Y0145245D01*
G37*
G36*
X0191704Y0147508D02*
X0190869Y0146673D01*
X0189200Y0148342D01*
X0190035Y0149177D01*
X0191704Y0147508D01*
G37*
G36*
X0199396Y0146092D02*
X0200231Y0146927D01*
X0201900Y0145258D01*
X0201065Y0144423D01*
X0199396Y0146092D01*
G37*
G36*
X0201659Y0148355D02*
X0202494Y0149190D01*
X0204163Y0147521D01*
X0203328Y0146686D01*
X0201659Y0148355D01*
G37*
G36*
X0199159Y0133355D02*
X0199994Y0134190D01*
X0201663Y0132521D01*
X0200828Y0131686D01*
X0199159Y0133355D01*
G37*
G36*
X0196896Y0131092D02*
X0197731Y0131927D01*
X0199400Y0130258D01*
X0198565Y0129423D01*
X0196896Y0131092D01*
G37*
G36*
X0189204Y0132508D02*
X0188369Y0131673D01*
X0186700Y0133342D01*
X0187535Y0134177D01*
X0189204Y0132508D01*
G37*
G36*
X0186941Y0130245D02*
X0186106Y0129410D01*
X0184437Y0131079D01*
X0185272Y0131914D01*
X0186941Y0130245D01*
G37*
G36*
X0176704Y0132508D02*
X0175869Y0131673D01*
X0174200Y0133342D01*
X0175035Y0134177D01*
X0176704Y0132508D01*
G37*
G36*
X0174441Y0130245D02*
X0173606Y0129410D01*
X0171937Y0131079D01*
X0172772Y0131914D01*
X0174441Y0130245D01*
G37*
G36*
X0099159Y0085855D02*
X0099994Y0086690D01*
X0101663Y0085021D01*
X0100828Y0084186D01*
X0099159Y0085855D01*
G37*
G36*
X0096896Y0083592D02*
X0097731Y0084427D01*
X0099400Y0082758D01*
X0098565Y0081923D01*
X0096896Y0083592D01*
G37*
G36*
X0094441Y0087745D02*
X0093606Y0086910D01*
X0091937Y0088579D01*
X0092772Y0089414D01*
X0094441Y0087745D01*
G37*
G36*
X0096704Y0090008D02*
X0095869Y0089173D01*
X0094200Y0090842D01*
X0095035Y0091677D01*
X0096704Y0090008D01*
G37*
G36*
X0268592Y0086704D02*
X0269427Y0085869D01*
X0267758Y0084200D01*
X0266923Y0085035D01*
X0268592Y0086704D01*
G37*
G36*
X0270855Y0084441D02*
X0271690Y0083606D01*
X0270021Y0081937D01*
X0269186Y0082772D01*
X0270855Y0084441D01*
G37*
G36*
X0275008Y0086896D02*
X0274173Y0087731D01*
X0275842Y0089400D01*
X0276677Y0088565D01*
X0275008Y0086896D01*
G37*
G36*
X0272745Y0089159D02*
X0271910Y0089994D01*
X0273579Y0091663D01*
X0274414Y0090828D01*
X0272745Y0089159D01*
G37*
G36*
X0271896Y0258592D02*
X0272731Y0259427D01*
X0274400Y0257758D01*
X0273565Y0256923D01*
X0271896Y0258592D01*
G37*
G36*
X0274159Y0260855D02*
X0274994Y0261690D01*
X0276663Y0260021D01*
X0275828Y0259186D01*
X0274159Y0260855D01*
G37*
G36*
X0271704Y0265008D02*
X0270869Y0264173D01*
X0269200Y0265842D01*
X0270035Y0266677D01*
X0271704Y0265008D01*
G37*
G36*
X0269441Y0262745D02*
X0268606Y0261910D01*
X0266937Y0263579D01*
X0267772Y0264414D01*
X0269441Y0262745D01*
G37*
D13*
X0264340Y0258613D02*
X0264340Y0258259D01*
X0263986Y0257905D01*
X0263632Y0257905D01*
X0263475Y0257394D02*
X0262767Y0256686D01*
X0262433Y0256352D02*
X0261726Y0256352D01*
X0261902Y0256529D02*
X0261372Y0255998D01*
X0261726Y0255644D02*
X0260664Y0256706D01*
X0261195Y0257237D01*
X0261549Y0257237D01*
X0261902Y0256883D01*
X0261902Y0256529D01*
X0262060Y0257394D02*
X0262060Y0258102D01*
X0263121Y0257040D01*
X0262924Y0258613D02*
X0262924Y0258966D01*
X0263278Y0259320D01*
X0263632Y0259320D01*
X0263809Y0259143D01*
X0263809Y0258789D01*
X0264163Y0258789D01*
X0264340Y0258613D01*
X0263809Y0258789D02*
X0263632Y0258613D01*
X0268278Y0254320D02*
X0268278Y0253259D01*
X0268986Y0253966D01*
X0269340Y0253259D02*
X0268278Y0254320D01*
X0267060Y0253102D02*
X0268121Y0252040D01*
X0267767Y0251686D02*
X0268475Y0252394D01*
X0267060Y0252394D02*
X0267060Y0253102D01*
X0266549Y0252237D02*
X0266902Y0251883D01*
X0266902Y0251529D01*
X0266372Y0250998D01*
X0266726Y0250644D02*
X0265664Y0251706D01*
X0266195Y0252237D01*
X0266549Y0252237D01*
X0266726Y0251352D02*
X0267433Y0251352D01*
X0289592Y0273018D02*
X0289592Y0273372D01*
X0289592Y0273018D02*
X0289946Y0272664D01*
X0290300Y0272664D01*
X0290654Y0273018D01*
X0290654Y0273372D01*
X0290477Y0273549D01*
X0289946Y0273726D01*
X0290477Y0274256D01*
X0291184Y0273549D01*
X0291342Y0273038D02*
X0291695Y0273038D01*
X0292049Y0272684D01*
X0292049Y0272330D01*
X0290634Y0272330D01*
X0290634Y0271976D01*
X0290988Y0271622D01*
X0291342Y0271622D01*
X0292049Y0272330D01*
X0292383Y0271996D02*
X0292737Y0271996D01*
X0293091Y0271642D01*
X0293091Y0271288D01*
X0292914Y0271111D01*
X0291499Y0271111D01*
X0292206Y0270404D01*
X0290634Y0272330D02*
X0291342Y0273038D01*
X0289966Y0274413D02*
X0289966Y0274767D01*
X0289612Y0275121D01*
X0289258Y0275121D01*
X0289966Y0274413D02*
X0289789Y0274237D01*
X0288373Y0274237D01*
X0289081Y0273529D01*
X0288039Y0274571D02*
X0287332Y0275278D01*
X0288393Y0276340D01*
X0288059Y0276674D02*
X0286998Y0275612D01*
X0286290Y0276320D02*
X0287351Y0277382D01*
X0287351Y0276674D01*
X0288059Y0276674D01*
X0285956Y0276654D02*
X0285248Y0277362D01*
X0286310Y0278423D01*
X0285799Y0278580D02*
X0285445Y0278227D01*
X0285091Y0278227D01*
X0284560Y0278757D01*
X0284206Y0278404D02*
X0285268Y0279465D01*
X0285799Y0278934D01*
X0285799Y0278580D01*
X0284914Y0278404D02*
X0284914Y0277696D01*
X0283866Y0278744D02*
X0283512Y0279098D01*
X0283689Y0278921D02*
X0284750Y0279983D01*
X0284573Y0280160D02*
X0284927Y0279806D01*
X0185088Y0176688D02*
X0185088Y0176538D01*
X0184788Y0176237D01*
X0184788Y0175787D01*
X0184788Y0176237D02*
X0184488Y0176538D01*
X0184488Y0176688D01*
X0186456Y0170389D02*
X0187057Y0170389D01*
X0187057Y0170238D01*
X0186456Y0169638D01*
X0186456Y0169488D01*
X0187057Y0169488D01*
X0191181Y0173425D02*
X0191781Y0174326D01*
X0191181Y0174326D02*
X0191781Y0173425D01*
X0195172Y0141820D02*
X0195172Y0140759D01*
X0195879Y0141466D01*
X0196233Y0140759D02*
X0195172Y0141820D01*
X0193953Y0140602D02*
X0195015Y0139540D01*
X0195368Y0139894D02*
X0194661Y0139186D01*
X0194150Y0139029D02*
X0194150Y0138675D01*
X0193796Y0138321D01*
X0193442Y0138321D01*
X0192734Y0139029D01*
X0192734Y0139383D01*
X0193088Y0139737D01*
X0193442Y0139737D01*
X0193953Y0139894D02*
X0193953Y0140602D01*
X0184340Y0140759D02*
X0183278Y0141820D01*
X0183278Y0140759D01*
X0183986Y0141466D01*
X0182944Y0140425D02*
X0182944Y0140071D01*
X0182413Y0139540D01*
X0182767Y0139186D02*
X0181706Y0140248D01*
X0182236Y0140778D01*
X0182590Y0140778D01*
X0182944Y0140425D01*
X0182767Y0139894D02*
X0183475Y0139894D01*
X0171840Y0140759D02*
X0171486Y0140405D01*
X0171132Y0140405D01*
X0170778Y0140759D02*
X0170247Y0141289D01*
X0170955Y0141997D01*
X0171132Y0141466D02*
X0171486Y0141466D01*
X0171840Y0141113D01*
X0171840Y0140759D01*
X0171132Y0141466D02*
X0170955Y0141289D01*
X0170778Y0140759D01*
X0170444Y0140425D02*
X0170444Y0140071D01*
X0169913Y0139540D01*
X0170267Y0139186D02*
X0169206Y0140248D01*
X0169736Y0140778D01*
X0170090Y0140778D01*
X0170444Y0140425D01*
X0170267Y0139894D02*
X0170975Y0139894D01*
X0168101Y0126643D02*
X0169163Y0125582D01*
X0168809Y0125228D02*
X0169517Y0125936D01*
X0168101Y0125936D02*
X0168101Y0126643D01*
X0167590Y0125779D02*
X0167944Y0125425D01*
X0167944Y0125071D01*
X0167413Y0124540D01*
X0167767Y0124186D02*
X0166706Y0125248D01*
X0167237Y0125779D01*
X0167590Y0125779D01*
X0167767Y0124894D02*
X0168475Y0124894D01*
X0178776Y0125071D02*
X0179484Y0124363D01*
X0179838Y0124363D01*
X0180191Y0124717D01*
X0180191Y0125071D01*
X0180525Y0125405D02*
X0180879Y0125405D01*
X0181233Y0125759D01*
X0181233Y0126113D01*
X0181056Y0126289D01*
X0180702Y0126289D01*
X0180172Y0125759D01*
X0180525Y0125405D01*
X0180172Y0125759D02*
X0180172Y0126466D01*
X0180349Y0126997D01*
X0179484Y0125779D02*
X0179130Y0125779D01*
X0178776Y0125425D01*
X0178776Y0125071D01*
X0190234Y0124383D02*
X0190234Y0124029D01*
X0190942Y0123321D01*
X0191296Y0123321D01*
X0191650Y0123675D01*
X0191650Y0124029D01*
X0192161Y0124186D02*
X0192868Y0124894D01*
X0192515Y0124540D02*
X0191453Y0125602D01*
X0191453Y0124894D01*
X0190942Y0124737D02*
X0190588Y0124737D01*
X0190234Y0124383D01*
X0192318Y0126113D02*
X0192318Y0126466D01*
X0192672Y0126820D01*
X0193025Y0126820D01*
X0193025Y0125405D01*
X0193379Y0125405D01*
X0193733Y0125759D01*
X0193733Y0126113D01*
X0193025Y0126820D01*
X0192318Y0126113D02*
X0193025Y0125405D01*
X0260644Y0091874D02*
X0261706Y0092936D01*
X0262237Y0092405D01*
X0262237Y0092051D01*
X0261883Y0091698D01*
X0261529Y0091698D01*
X0260998Y0092228D01*
X0261352Y0091874D02*
X0261352Y0091167D01*
X0261686Y0090833D02*
X0262394Y0090125D01*
X0262728Y0089791D02*
X0264143Y0089791D01*
X0264320Y0089968D01*
X0264320Y0090322D01*
X0263966Y0090676D01*
X0263613Y0090676D01*
X0263102Y0091540D02*
X0262040Y0090479D01*
X0262728Y0089791D02*
X0263436Y0089083D01*
X0263102Y0091540D02*
X0262394Y0091540D01*
X0266686Y0095833D02*
X0267394Y0095125D01*
X0267728Y0094791D02*
X0268436Y0094083D01*
X0268082Y0094437D02*
X0269143Y0095499D01*
X0268436Y0095499D01*
X0268102Y0096540D02*
X0267040Y0095479D01*
X0266352Y0096167D02*
X0266352Y0096874D01*
X0266529Y0096698D02*
X0265998Y0097228D01*
X0265644Y0096874D02*
X0266706Y0097936D01*
X0267237Y0097405D01*
X0267237Y0097051D01*
X0266883Y0096698D01*
X0266529Y0096698D01*
X0267394Y0096540D02*
X0268102Y0096540D01*
X0288657Y0074649D02*
X0288303Y0074295D01*
X0288303Y0073941D01*
X0287969Y0073607D02*
X0287969Y0072191D01*
X0288323Y0072191D01*
X0288677Y0072545D01*
X0288677Y0072899D01*
X0287969Y0073607D01*
X0287615Y0073607D01*
X0287261Y0073253D01*
X0287261Y0072899D01*
X0287969Y0072191D01*
X0287635Y0071857D02*
X0287281Y0072211D01*
X0286927Y0072211D01*
X0286750Y0072034D01*
X0286573Y0071504D01*
X0286043Y0072034D01*
X0286750Y0072742D01*
X0287635Y0071857D02*
X0287635Y0071504D01*
X0287281Y0071150D01*
X0286927Y0071150D01*
X0286770Y0070639D02*
X0286062Y0069931D01*
X0286062Y0071346D01*
X0285885Y0071523D01*
X0285532Y0071523D01*
X0285178Y0071170D01*
X0285178Y0070816D01*
X0285728Y0069597D02*
X0285021Y0068889D01*
X0283959Y0069951D01*
X0283625Y0069617D02*
X0284687Y0068555D01*
X0283979Y0067848D02*
X0282917Y0068909D01*
X0283625Y0068909D01*
X0283625Y0069617D01*
X0283645Y0067514D02*
X0282937Y0066806D01*
X0281876Y0067867D01*
X0281719Y0067356D02*
X0282072Y0067003D01*
X0282072Y0066649D01*
X0281542Y0066118D01*
X0281895Y0066472D02*
X0282603Y0066472D01*
X0281895Y0065764D02*
X0280834Y0066826D01*
X0281365Y0067356D01*
X0281719Y0067356D01*
X0280493Y0066485D02*
X0280139Y0066131D01*
X0280316Y0066308D02*
X0281378Y0065246D01*
X0281201Y0065070D02*
X0281555Y0065423D01*
X0289188Y0073056D02*
X0289188Y0074472D01*
X0289011Y0074649D01*
X0288657Y0074649D01*
X0289895Y0073764D02*
X0289188Y0073056D01*
X0150375Y0211162D02*
X0150375Y0212577D01*
X0150198Y0212754D01*
X0149844Y0212754D01*
X0149490Y0212401D01*
X0149490Y0212047D01*
X0148979Y0211890D02*
X0149864Y0211005D01*
X0149864Y0210651D01*
X0149510Y0210297D01*
X0149156Y0210297D01*
X0148272Y0211182D01*
X0150375Y0211162D02*
X0151083Y0211870D01*
X0144542Y0218410D02*
X0144188Y0218056D01*
X0143834Y0218056D01*
X0143500Y0217722D02*
X0143500Y0217369D01*
X0143146Y0217015D01*
X0142792Y0217015D01*
X0142792Y0218430D01*
X0143500Y0217722D01*
X0143480Y0218410D02*
X0143657Y0218941D01*
X0143834Y0219118D01*
X0144188Y0219118D01*
X0144542Y0218764D01*
X0144542Y0218410D01*
X0143480Y0218410D02*
X0142949Y0218941D01*
X0143657Y0219649D01*
X0142792Y0218430D02*
X0142438Y0218430D01*
X0142084Y0218076D01*
X0142085Y0217722D01*
X0142792Y0217015D01*
X0142635Y0216504D02*
X0141927Y0215796D01*
X0141927Y0217211D01*
X0141750Y0217388D01*
X0141397Y0217388D01*
X0141043Y0217035D01*
X0141043Y0216681D01*
X0140532Y0216524D02*
X0139824Y0215816D01*
X0140355Y0215285D01*
X0140532Y0215816D01*
X0140709Y0215993D01*
X0141063Y0215993D01*
X0141416Y0215639D01*
X0141416Y0215285D01*
X0141063Y0214931D01*
X0140709Y0214931D01*
X0140375Y0214597D02*
X0140375Y0214243D01*
X0140021Y0213889D01*
X0139667Y0213889D01*
X0138959Y0214597D01*
X0138959Y0214951D01*
X0139313Y0215305D01*
X0139667Y0215305D01*
X0138442Y0214433D02*
X0138088Y0214080D01*
X0138265Y0214257D02*
X0139326Y0213195D01*
X0139149Y0213018D02*
X0139503Y0213372D01*
X0138815Y0212684D02*
X0137754Y0213746D01*
X0137754Y0213038D01*
X0137046Y0213038D01*
X0138108Y0211976D01*
X0135444Y0224363D02*
X0135798Y0224717D01*
X0135798Y0225071D01*
X0136309Y0225228D02*
X0136309Y0226643D01*
X0136132Y0226820D01*
X0135778Y0226820D01*
X0135424Y0226466D01*
X0135424Y0226113D01*
X0135090Y0225778D02*
X0134736Y0225778D01*
X0134383Y0225425D01*
X0134383Y0225071D01*
X0135090Y0224363D01*
X0135444Y0224363D01*
X0136309Y0225228D02*
X0137017Y0225936D01*
X0131713Y0230885D02*
X0130651Y0231946D01*
X0131359Y0232654D01*
X0131536Y0231769D02*
X0131182Y0231416D01*
X0130671Y0231258D02*
X0131379Y0230551D01*
X0130848Y0230020D01*
X0130494Y0230020D01*
X0129963Y0230551D01*
X0128922Y0230217D02*
X0129983Y0229155D01*
X0129629Y0228801D02*
X0130337Y0229509D01*
X0128922Y0229509D02*
X0128922Y0230217D01*
X0129108Y0228634D02*
X0129285Y0228457D01*
X0129108Y0228280D01*
X0128932Y0228457D01*
X0129108Y0228634D01*
X0128597Y0228123D02*
X0128597Y0227769D01*
X0128244Y0227416D01*
X0127890Y0227416D01*
X0127890Y0228831D01*
X0128597Y0228123D01*
X0127890Y0227416D02*
X0127182Y0228123D01*
X0127182Y0228477D01*
X0127536Y0228831D01*
X0127890Y0228831D01*
X0117894Y0248466D02*
X0117186Y0249174D01*
X0117540Y0248820D02*
X0118601Y0249882D01*
X0117894Y0249882D01*
X0117737Y0250393D02*
X0117737Y0250746D01*
X0117383Y0251100D01*
X0117029Y0251100D01*
X0116321Y0250393D01*
X0116321Y0250039D01*
X0116675Y0249685D01*
X0117029Y0249685D01*
X0103974Y0260355D02*
X0103798Y0260178D01*
X0103444Y0260178D01*
X0103090Y0260532D01*
X0103090Y0260885D01*
X0103267Y0261062D01*
X0103621Y0261062D01*
X0103974Y0260708D01*
X0103974Y0260355D01*
X0103444Y0260178D02*
X0103444Y0259824D01*
X0103267Y0259647D01*
X0102913Y0259647D01*
X0102559Y0260001D01*
X0102559Y0260355D01*
X0102736Y0260532D01*
X0103090Y0260532D01*
X0102579Y0261042D02*
X0102225Y0261042D01*
X0101694Y0261573D01*
X0101340Y0261219D02*
X0102402Y0262281D01*
X0102933Y0261750D01*
X0102933Y0261396D01*
X0102579Y0261042D01*
X0102048Y0261219D02*
X0102048Y0260512D01*
X0098444Y0256239D02*
X0099151Y0255532D01*
X0098974Y0255355D01*
X0097559Y0255355D01*
X0097382Y0255178D01*
X0097048Y0255512D02*
X0097048Y0256219D01*
X0097225Y0256042D02*
X0096694Y0256573D01*
X0096340Y0256219D02*
X0097402Y0257281D01*
X0097933Y0256750D01*
X0097933Y0256396D01*
X0097579Y0256042D01*
X0097225Y0256042D01*
X0079679Y0273689D02*
X0078617Y0274750D01*
X0078440Y0274573D02*
X0078794Y0274927D01*
X0079135Y0275268D02*
X0079666Y0275799D01*
X0080019Y0275799D01*
X0080373Y0275445D01*
X0080373Y0275091D01*
X0079843Y0274560D01*
X0080196Y0274206D02*
X0079135Y0275268D01*
X0080196Y0274914D02*
X0080904Y0274914D01*
X0081238Y0275248D02*
X0081946Y0275956D01*
X0082280Y0276290D02*
X0081218Y0277351D01*
X0081926Y0277351D01*
X0081926Y0278059D01*
X0082988Y0276998D01*
X0083322Y0277332D02*
X0084029Y0278039D01*
X0084363Y0278373D02*
X0084363Y0279789D01*
X0084186Y0279966D01*
X0083833Y0279966D01*
X0083479Y0279612D01*
X0083479Y0279258D01*
X0084363Y0278373D02*
X0085071Y0279081D01*
X0085228Y0279592D02*
X0085582Y0279592D01*
X0085936Y0279946D01*
X0085936Y0280300D01*
X0085582Y0280654D01*
X0085228Y0280654D01*
X0085051Y0280477D01*
X0084874Y0279946D01*
X0084344Y0280477D01*
X0085051Y0281184D01*
X0085562Y0281342D02*
X0085562Y0281695D01*
X0085916Y0282049D01*
X0086270Y0282049D01*
X0086270Y0280634D01*
X0086624Y0280634D01*
X0086978Y0280988D01*
X0086978Y0281342D01*
X0086270Y0282049D01*
X0086604Y0282383D02*
X0086604Y0282737D01*
X0086958Y0283091D01*
X0087312Y0283091D01*
X0087489Y0282914D01*
X0087489Y0281499D01*
X0088196Y0282206D01*
X0086270Y0280634D02*
X0085562Y0281342D01*
X0082260Y0278393D02*
X0083322Y0277332D01*
X0081238Y0275248D02*
X0080177Y0276310D01*
X0079856Y0273866D02*
X0079502Y0273512D01*
X0101433Y0097516D02*
X0101787Y0097516D01*
X0101787Y0096101D01*
X0102141Y0096101D01*
X0102495Y0096455D01*
X0102495Y0096808D01*
X0101787Y0097516D01*
X0101433Y0097516D02*
X0101079Y0097162D01*
X0101079Y0096808D01*
X0101787Y0096101D01*
X0101630Y0095590D02*
X0100922Y0094882D01*
X0100588Y0094548D02*
X0099881Y0094548D01*
X0100058Y0094725D02*
X0099527Y0094194D01*
X0099881Y0093840D02*
X0098819Y0094902D01*
X0099350Y0095433D01*
X0099704Y0095433D01*
X0100058Y0095079D01*
X0100058Y0094725D01*
X0100215Y0095590D02*
X0100215Y0096298D01*
X0101276Y0095236D01*
X0105038Y0091121D02*
X0105038Y0090767D01*
X0105215Y0090590D01*
X0105568Y0090590D01*
X0106099Y0091121D01*
X0105745Y0091474D02*
X0105392Y0091474D01*
X0105038Y0091121D01*
X0104704Y0090433D02*
X0105058Y0090079D01*
X0105058Y0089725D01*
X0104527Y0089194D01*
X0104881Y0088840D02*
X0103819Y0089902D01*
X0104350Y0090433D01*
X0104704Y0090433D01*
X0104881Y0089548D02*
X0105588Y0089548D01*
X0105745Y0090059D02*
X0106099Y0090059D01*
X0106453Y0090413D01*
X0106453Y0090767D01*
X0105745Y0091474D01*
X0084295Y0070297D02*
X0083941Y0070297D01*
X0084295Y0070297D02*
X0084649Y0069943D01*
X0084649Y0069589D01*
X0084472Y0069412D01*
X0083056Y0069412D01*
X0083764Y0068705D01*
X0082899Y0069923D02*
X0082545Y0069923D01*
X0082191Y0070277D01*
X0082191Y0070631D01*
X0083607Y0070631D01*
X0082899Y0069923D01*
X0082191Y0070631D02*
X0082899Y0071339D01*
X0083253Y0071339D01*
X0083607Y0070985D01*
X0083607Y0070631D01*
X0082742Y0071850D02*
X0082034Y0072557D01*
X0081504Y0072027D01*
X0082034Y0071850D01*
X0082211Y0071673D01*
X0082211Y0071319D01*
X0081857Y0070965D01*
X0081504Y0070965D01*
X0081150Y0071319D01*
X0081150Y0071673D01*
X0080639Y0071830D02*
X0079931Y0072537D01*
X0081346Y0072537D01*
X0081523Y0072714D01*
X0081523Y0073068D01*
X0081170Y0073422D01*
X0080816Y0073422D01*
X0079597Y0072872D02*
X0078889Y0073579D01*
X0079951Y0074641D01*
X0079617Y0074975D02*
X0078555Y0073913D01*
X0077848Y0074621D02*
X0078909Y0075683D01*
X0078909Y0074975D01*
X0079617Y0074975D01*
X0077514Y0074955D02*
X0076806Y0075663D01*
X0077867Y0076724D01*
X0077356Y0076881D02*
X0077003Y0076528D01*
X0076649Y0076528D01*
X0076118Y0077058D01*
X0076472Y0076705D02*
X0076472Y0075997D01*
X0075764Y0076705D02*
X0076826Y0077766D01*
X0077356Y0077235D01*
X0077356Y0076881D01*
X0076485Y0078107D02*
X0076131Y0078461D01*
X0076308Y0078284D02*
X0075246Y0077222D01*
X0075070Y0077399D02*
X0075423Y0077045D01*
D14*
X0069829Y0074587D02*
X0068272Y0076144D01*
X0069310Y0076144D01*
X0069310Y0077182D01*
X0070867Y0075625D01*
X0071132Y0076409D02*
X0071651Y0076409D01*
X0072170Y0076928D01*
X0072170Y0077447D01*
X0071132Y0078485D01*
X0070613Y0078485D01*
X0070094Y0077966D01*
X0070094Y0077447D01*
X0071132Y0076409D01*
X0071397Y0079269D02*
X0072435Y0080307D01*
X0071916Y0079788D02*
X0073473Y0078231D01*
X0074257Y0079534D02*
X0074776Y0079534D01*
X0075295Y0080053D01*
X0075295Y0080572D01*
X0074257Y0081610D01*
X0073738Y0081610D01*
X0073219Y0081091D01*
X0073219Y0080572D01*
X0074257Y0079534D01*
X0075560Y0081356D02*
X0076339Y0082135D01*
X0076339Y0082654D01*
X0075820Y0083173D01*
X0075301Y0083173D01*
X0074522Y0082394D01*
X0076079Y0080837D01*
X0076079Y0081875D02*
X0077117Y0081875D01*
X0077642Y0082400D02*
X0077642Y0084476D01*
X0077382Y0084735D01*
X0076863Y0084735D01*
X0076345Y0084216D01*
X0076345Y0083697D01*
X0077642Y0082400D02*
X0078680Y0083438D01*
X0090094Y0090282D02*
X0090094Y0091320D01*
X0091651Y0089763D01*
X0091132Y0089244D02*
X0092170Y0090282D01*
X0092435Y0091066D02*
X0092435Y0093142D01*
X0093473Y0092104D01*
X0093473Y0091585D01*
X0092954Y0091066D01*
X0092435Y0091066D01*
X0091398Y0092104D01*
X0091398Y0092623D01*
X0091917Y0093142D01*
X0092435Y0093142D01*
X0092701Y0093926D02*
X0094258Y0092369D01*
X0093739Y0092888D02*
X0093739Y0094964D01*
X0093739Y0093407D02*
X0095296Y0093407D01*
X0103739Y0084964D02*
X0103739Y0082888D01*
X0103739Y0083407D02*
X0105296Y0083407D01*
X0104258Y0082369D02*
X0102701Y0083926D01*
X0101657Y0082882D02*
X0101657Y0081844D01*
X0101657Y0082882D02*
X0103214Y0081325D01*
X0102695Y0080806D02*
X0103733Y0081844D01*
X0168439Y0131792D02*
X0168439Y0132830D01*
X0169996Y0131273D01*
X0169477Y0130754D02*
X0170515Y0131792D01*
X0171039Y0132317D02*
X0169482Y0133874D01*
X0170520Y0133355D02*
X0172077Y0133355D01*
X0170520Y0132836D02*
X0170520Y0134912D01*
X0179947Y0131838D02*
X0180466Y0132357D01*
X0180985Y0132357D01*
X0180985Y0130281D01*
X0181504Y0130281D01*
X0182023Y0130800D01*
X0182023Y0131319D01*
X0180985Y0132357D01*
X0179947Y0131838D02*
X0179947Y0131319D01*
X0180985Y0130281D01*
X0182548Y0131844D02*
X0182807Y0132104D01*
X0183067Y0131844D01*
X0182807Y0131585D01*
X0182548Y0131844D01*
X0183588Y0132366D02*
X0184626Y0133404D01*
X0184107Y0132885D02*
X0182550Y0134442D01*
X0182550Y0133404D01*
X0184113Y0134966D02*
X0184892Y0134188D01*
X0185411Y0134188D01*
X0186189Y0134966D01*
X0185151Y0136004D01*
X0185935Y0136270D02*
X0186454Y0136789D01*
X0185157Y0137048D02*
X0186195Y0138086D01*
X0185157Y0137048D02*
X0186714Y0135491D01*
X0192447Y0131838D02*
X0192447Y0131319D01*
X0192447Y0131838D02*
X0192966Y0132357D01*
X0193485Y0132357D01*
X0193745Y0132098D01*
X0193745Y0130022D01*
X0194783Y0131060D01*
X0195307Y0131585D02*
X0195567Y0131844D01*
X0195307Y0132104D01*
X0195048Y0131844D01*
X0195307Y0131585D01*
X0196088Y0132366D02*
X0196088Y0134442D01*
X0195829Y0134701D01*
X0195310Y0134701D01*
X0194791Y0134182D01*
X0194791Y0133663D01*
X0196088Y0132366D02*
X0197126Y0133404D01*
X0197651Y0133928D02*
X0196613Y0134966D01*
X0197392Y0135745D01*
X0197911Y0135745D01*
X0198689Y0134966D01*
X0199214Y0135491D02*
X0197657Y0137048D01*
X0198695Y0138086D01*
X0198954Y0136789D02*
X0198435Y0136270D01*
X0196245Y0145022D02*
X0197283Y0146060D01*
X0196764Y0145541D02*
X0195207Y0147098D01*
X0195207Y0146060D01*
X0196510Y0147882D02*
X0196510Y0148401D01*
X0197029Y0148920D01*
X0197548Y0148920D01*
X0197548Y0146844D01*
X0198067Y0146844D01*
X0198586Y0147363D01*
X0198586Y0147882D01*
X0197548Y0148920D01*
X0198332Y0149185D02*
X0199110Y0149964D01*
X0199629Y0149964D01*
X0200408Y0149185D01*
X0200932Y0149710D02*
X0199375Y0151267D01*
X0200413Y0152305D01*
X0200673Y0151007D02*
X0200154Y0150488D01*
X0198332Y0149185D02*
X0199370Y0148147D01*
X0197548Y0146844D02*
X0196510Y0147882D01*
X0188640Y0149917D02*
X0187083Y0149917D01*
X0187083Y0149398D02*
X0187083Y0151474D01*
X0186045Y0150436D02*
X0187602Y0148879D01*
X0186818Y0148614D02*
X0186818Y0148095D01*
X0186299Y0147576D01*
X0185780Y0147576D01*
X0185780Y0149652D01*
X0186818Y0148614D01*
X0185780Y0147576D02*
X0184742Y0148614D01*
X0184742Y0149133D01*
X0185261Y0149652D01*
X0185780Y0149652D01*
X0185515Y0146792D02*
X0184477Y0145754D01*
X0184996Y0146273D02*
X0183439Y0147830D01*
X0183439Y0146792D01*
X0176140Y0149917D02*
X0174583Y0149917D01*
X0174583Y0149398D02*
X0174583Y0151474D01*
X0173545Y0150436D02*
X0175102Y0148879D01*
X0174318Y0148614D02*
X0174318Y0148095D01*
X0173799Y0147576D01*
X0173280Y0147576D01*
X0173280Y0149652D01*
X0174318Y0148614D01*
X0173280Y0147576D02*
X0172242Y0148614D01*
X0172242Y0149133D01*
X0172761Y0149652D01*
X0173280Y0149652D01*
X0173015Y0146792D02*
X0171977Y0145754D01*
X0172496Y0146273D02*
X0170939Y0147830D01*
X0170939Y0146792D01*
X0179767Y0231900D02*
X0179400Y0232267D01*
X0179767Y0231900D02*
X0180501Y0231900D01*
X0180868Y0232267D01*
X0180868Y0232634D01*
X0180501Y0233001D01*
X0179767Y0233001D01*
X0179400Y0233368D01*
X0179400Y0233735D01*
X0179767Y0234102D01*
X0180501Y0234102D01*
X0180868Y0233735D01*
X0181610Y0233368D02*
X0182344Y0234102D01*
X0182344Y0231900D01*
X0181610Y0231900D02*
X0183078Y0231900D01*
X0106474Y0264017D02*
X0104398Y0264017D01*
X0104917Y0264017D02*
X0104917Y0262460D01*
X0103879Y0263498D02*
X0105436Y0265055D01*
X0104652Y0265320D02*
X0102576Y0265320D01*
X0102576Y0264801D01*
X0103095Y0264282D01*
X0103614Y0264282D01*
X0104652Y0265320D01*
X0104652Y0265839D01*
X0104133Y0266358D01*
X0103614Y0266358D01*
X0102576Y0265320D01*
X0101792Y0265585D02*
X0100754Y0266623D01*
X0101273Y0266104D02*
X0102830Y0267661D01*
X0101792Y0267661D01*
X0092830Y0257661D02*
X0091273Y0256104D01*
X0090754Y0256623D02*
X0091792Y0255585D01*
X0092317Y0255061D02*
X0093874Y0256618D01*
X0093355Y0255580D02*
X0093355Y0254023D01*
X0092836Y0255580D02*
X0094912Y0255580D01*
X0092830Y0257661D02*
X0091792Y0257661D01*
X0097074Y0278657D02*
X0096036Y0279694D01*
X0096555Y0279175D02*
X0098112Y0280732D01*
X0097074Y0280732D01*
X0096290Y0280998D02*
X0095771Y0280998D01*
X0094992Y0281776D01*
X0094473Y0281257D02*
X0096030Y0282814D01*
X0096809Y0282036D01*
X0096809Y0281517D01*
X0096290Y0280998D01*
X0095511Y0281257D02*
X0095511Y0280219D01*
X0094208Y0282041D02*
X0095246Y0283079D01*
X0095246Y0283598D01*
X0094727Y0284117D01*
X0094208Y0284117D01*
X0093170Y0283079D01*
X0093170Y0282560D01*
X0093689Y0282041D01*
X0094208Y0282041D01*
X0093943Y0284901D02*
X0092905Y0285939D01*
X0093424Y0285420D02*
X0091867Y0283863D01*
X0091083Y0285166D02*
X0092121Y0286204D01*
X0092121Y0286723D01*
X0091602Y0287242D01*
X0091083Y0287242D01*
X0090045Y0286204D01*
X0090045Y0285685D01*
X0090564Y0285166D01*
X0091083Y0285166D01*
X0089261Y0286470D02*
X0090818Y0288027D01*
X0089780Y0288027D01*
X0089780Y0289065D01*
X0088223Y0287508D01*
X0263439Y0265330D02*
X0264996Y0263773D01*
X0264477Y0263254D02*
X0265515Y0264292D01*
X0266039Y0264817D02*
X0264482Y0266374D01*
X0265520Y0265855D02*
X0267077Y0265855D01*
X0265520Y0265336D02*
X0265520Y0267412D01*
X0263439Y0265330D02*
X0263439Y0264292D01*
X0273439Y0255330D02*
X0274996Y0253773D01*
X0274477Y0253254D02*
X0275515Y0254292D01*
X0275780Y0255076D02*
X0275780Y0257152D01*
X0276818Y0256114D01*
X0276818Y0255595D01*
X0276299Y0255076D01*
X0275780Y0255076D01*
X0274742Y0256114D01*
X0274742Y0256633D01*
X0275261Y0257152D01*
X0275780Y0257152D01*
X0276045Y0257936D02*
X0277602Y0256379D01*
X0277083Y0256898D02*
X0277083Y0258974D01*
X0277083Y0257417D02*
X0278640Y0257417D01*
X0273439Y0255330D02*
X0273439Y0254292D01*
X0274829Y0279587D02*
X0273272Y0281144D01*
X0274310Y0281144D01*
X0274310Y0282182D01*
X0275867Y0280625D01*
X0276132Y0281409D02*
X0276651Y0281409D01*
X0277170Y0281928D01*
X0277170Y0282447D01*
X0276132Y0283485D01*
X0275613Y0283485D01*
X0275094Y0282966D01*
X0275094Y0282447D01*
X0276132Y0281409D01*
X0276397Y0284269D02*
X0277435Y0285307D01*
X0276916Y0284788D02*
X0278473Y0283231D01*
X0279257Y0284534D02*
X0279776Y0284534D01*
X0280295Y0285053D01*
X0280295Y0285572D01*
X0279257Y0286610D01*
X0278738Y0286610D01*
X0278219Y0286091D01*
X0278219Y0285572D01*
X0279257Y0284534D01*
X0281079Y0285837D02*
X0279522Y0287394D01*
X0280301Y0288173D01*
X0280820Y0288173D01*
X0281339Y0287654D01*
X0281339Y0287135D01*
X0280560Y0286356D01*
X0281079Y0286875D02*
X0282117Y0286875D01*
X0281863Y0288178D02*
X0282901Y0289216D01*
X0281863Y0289735D02*
X0281863Y0288178D01*
X0283420Y0288178D02*
X0281863Y0289735D01*
X0275330Y0095161D02*
X0273773Y0093604D01*
X0273254Y0094123D02*
X0274292Y0093085D01*
X0274817Y0092561D02*
X0276374Y0094118D01*
X0275855Y0093080D02*
X0275855Y0091523D01*
X0275336Y0093080D02*
X0277412Y0093080D01*
X0275330Y0095161D02*
X0274292Y0095161D01*
X0265330Y0085161D02*
X0263773Y0083604D01*
X0263254Y0084123D02*
X0264292Y0083085D01*
X0265076Y0082820D02*
X0267152Y0082820D01*
X0266114Y0081782D01*
X0265595Y0081782D01*
X0265076Y0082301D01*
X0265076Y0082820D01*
X0266114Y0083858D01*
X0266633Y0083858D01*
X0267152Y0083339D01*
X0267152Y0082820D01*
X0267936Y0082555D02*
X0266379Y0080998D01*
X0266898Y0081517D02*
X0268974Y0081517D01*
X0267417Y0081517D02*
X0267417Y0079960D01*
X0265330Y0085161D02*
X0264292Y0085161D01*
X0293223Y0082508D02*
X0294780Y0084065D01*
X0294780Y0083027D01*
X0295818Y0083027D01*
X0294261Y0081470D01*
X0295045Y0081204D02*
X0295045Y0080685D01*
X0295564Y0080167D01*
X0296083Y0080167D01*
X0297121Y0081204D01*
X0297121Y0081723D01*
X0296602Y0082242D01*
X0296083Y0082242D01*
X0295045Y0081204D01*
X0297905Y0080939D02*
X0298943Y0079901D01*
X0298424Y0080420D02*
X0296867Y0078863D01*
X0298170Y0078079D02*
X0299208Y0079117D01*
X0299727Y0079117D01*
X0300246Y0078598D01*
X0300246Y0078079D01*
X0299208Y0077041D01*
X0298689Y0077041D01*
X0298170Y0077560D01*
X0298170Y0078079D01*
X0299473Y0076257D02*
X0301030Y0077814D01*
X0301809Y0077036D01*
X0301809Y0076517D01*
X0301290Y0075998D01*
X0300771Y0075998D01*
X0299992Y0076776D01*
X0300511Y0076257D02*
X0300511Y0075219D01*
X0301296Y0074954D02*
X0301296Y0074435D01*
X0301815Y0073916D01*
X0302334Y0073916D01*
X0302593Y0074176D01*
X0302593Y0074695D01*
X0302334Y0074954D01*
X0302593Y0074695D02*
X0303112Y0074695D01*
X0303371Y0074954D01*
X0303371Y0075473D01*
X0302853Y0075992D01*
X0302334Y0075992D01*
D15*
X0195068Y0163532D02*
X0195068Y0164713D01*
X0194674Y0163926D02*
X0178926Y0163926D01*
X0178926Y0179674D01*
X0194674Y0179674D01*
X0194674Y0163926D01*
X0195068Y0163532D02*
X0193887Y0163532D01*
X0179713Y0163532D02*
X0178532Y0163532D01*
X0178532Y0164713D01*
X0179543Y0178808D02*
X0179545Y0178839D01*
X0179551Y0178870D01*
X0179560Y0178900D01*
X0179574Y0178928D01*
X0179591Y0178954D01*
X0179610Y0178978D01*
X0179633Y0179000D01*
X0179659Y0179018D01*
X0179686Y0179033D01*
X0179715Y0179045D01*
X0179745Y0179053D01*
X0179776Y0179057D01*
X0179808Y0179057D01*
X0179839Y0179053D01*
X0179869Y0179045D01*
X0179898Y0179033D01*
X0179925Y0179018D01*
X0179951Y0179000D01*
X0179974Y0178978D01*
X0179993Y0178954D01*
X0180010Y0178928D01*
X0180024Y0178900D01*
X0180033Y0178870D01*
X0180039Y0178839D01*
X0180041Y0178808D01*
X0180039Y0178777D01*
X0180033Y0178746D01*
X0180024Y0178716D01*
X0180010Y0178688D01*
X0179993Y0178662D01*
X0179974Y0178638D01*
X0179951Y0178616D01*
X0179925Y0178598D01*
X0179898Y0178583D01*
X0179869Y0178571D01*
X0179839Y0178563D01*
X0179808Y0178559D01*
X0179776Y0178559D01*
X0179745Y0178563D01*
X0179715Y0178571D01*
X0179686Y0178583D01*
X0179659Y0178598D01*
X0179633Y0178616D01*
X0179610Y0178638D01*
X0179591Y0178662D01*
X0179574Y0178688D01*
X0179560Y0178716D01*
X0179551Y0178746D01*
X0179545Y0178777D01*
X0179543Y0178808D01*
X0178532Y0178887D02*
X0179713Y0180068D01*
X0193887Y0180068D02*
X0195068Y0180068D01*
X0195068Y0178887D01*
X0197489Y0224182D02*
X0171111Y0224182D01*
X0171111Y0234418D01*
X0178788Y0234418D01*
X0178788Y0240324D01*
X0183906Y0240324D01*
X0183906Y0234418D01*
X0178788Y0234418D01*
X0183906Y0234418D02*
X0197489Y0234418D01*
X0197489Y0224182D01*
X0140750Y0194905D02*
X0139849Y0194004D01*
X0139849Y0194455D02*
X0139849Y0193103D01*
X0140750Y0193103D02*
X0138048Y0193103D01*
X0138048Y0194455D01*
X0138498Y0194905D01*
X0139399Y0194905D01*
X0139849Y0194455D01*
X0138048Y0191959D02*
X0138048Y0190157D01*
X0138048Y0191058D02*
X0140750Y0191058D01*
X0140300Y0189012D02*
X0138498Y0189012D01*
X0138048Y0188562D01*
X0138048Y0187210D01*
X0140750Y0187210D01*
X0140750Y0188562D01*
X0140300Y0189012D01*
X0140300Y0184905D02*
X0138498Y0184905D01*
X0138048Y0184455D01*
X0138048Y0183554D01*
X0138498Y0183103D01*
X0140300Y0183103D01*
X0140750Y0183554D01*
X0140750Y0184455D01*
X0140300Y0184905D01*
X0140750Y0181959D02*
X0138048Y0180157D01*
X0138048Y0179012D02*
X0138048Y0177210D01*
X0138048Y0178111D02*
X0140750Y0178111D01*
X0140750Y0180157D02*
X0138048Y0181959D01*
X0138048Y0174986D02*
X0138048Y0174086D01*
X0138048Y0174536D02*
X0140750Y0174536D01*
X0140750Y0174086D02*
X0140750Y0174986D01*
X0140750Y0172941D02*
X0138048Y0171139D01*
X0138498Y0169994D02*
X0138048Y0169544D01*
X0138048Y0168193D01*
X0140750Y0168193D01*
X0139849Y0168193D02*
X0139849Y0169544D01*
X0139399Y0169994D01*
X0138498Y0169994D01*
X0139849Y0169093D02*
X0140750Y0169994D01*
X0140750Y0171139D02*
X0138048Y0172941D01*
X0138498Y0164905D02*
X0138048Y0164455D01*
X0138048Y0163554D01*
X0138498Y0163103D01*
X0140300Y0163103D01*
X0140750Y0163554D01*
X0140750Y0164455D01*
X0140300Y0164905D01*
X0140300Y0161959D02*
X0140750Y0161508D01*
X0140750Y0160607D01*
X0140300Y0160157D01*
X0138498Y0160157D01*
X0138048Y0160607D01*
X0138048Y0161508D01*
X0138498Y0161959D01*
X0138048Y0159012D02*
X0139849Y0159012D01*
X0140750Y0158111D01*
X0139849Y0157210D01*
X0138048Y0157210D01*
X0138498Y0154905D02*
X0138048Y0154455D01*
X0138048Y0153554D01*
X0138498Y0153103D01*
X0138948Y0153103D01*
X0139399Y0153554D01*
X0139399Y0154455D01*
X0139849Y0154905D01*
X0140300Y0154905D01*
X0140750Y0154455D01*
X0140750Y0153554D01*
X0140300Y0153103D01*
X0140750Y0151058D02*
X0138048Y0151058D01*
X0138048Y0150157D02*
X0138048Y0151959D01*
X0138498Y0149012D02*
X0138048Y0148562D01*
X0138048Y0147661D01*
X0138498Y0147210D01*
X0140300Y0147210D01*
X0140750Y0147661D01*
X0140750Y0148562D01*
X0140300Y0149012D01*
X0140300Y0144905D02*
X0138498Y0144905D01*
X0138048Y0144455D01*
X0138048Y0143103D01*
X0140750Y0143103D01*
X0140750Y0144455D01*
X0140300Y0144905D01*
X0140750Y0141959D02*
X0138048Y0141959D01*
X0138048Y0140157D02*
X0140750Y0141959D01*
X0140750Y0140157D02*
X0138048Y0140157D01*
X0138498Y0139012D02*
X0138048Y0138562D01*
X0138048Y0137661D01*
X0138498Y0137210D01*
X0140300Y0137210D01*
X0140750Y0137661D01*
X0140750Y0138562D01*
X0140300Y0139012D01*
X0139399Y0139012D01*
X0139399Y0138111D01*
X0136800Y0136800D02*
X0126800Y0136800D01*
X0126800Y0196800D01*
X0136800Y0196800D01*
X0136800Y0136800D01*
X0112911Y0240032D02*
X0118568Y0245689D01*
D16*
X0117357Y0247925D02*
X0114295Y0250987D01*
X0112067Y0250987D01*
X0107613Y0246533D01*
X0107613Y0244305D01*
X0110675Y0241243D01*
X0116243Y0235675D02*
X0120419Y0231500D01*
X0127100Y0238181D01*
X0122925Y0242357D01*
X0144140Y0221531D02*
X0146531Y0219140D01*
X0144520Y0215574D02*
X0143026Y0214080D01*
X0139460Y0212069D02*
X0137069Y0214460D01*
X0137908Y0202404D02*
X0140710Y0198200D01*
X0140710Y0202404D01*
X0137908Y0202404D02*
X0137908Y0198200D01*
X0136106Y0198200D02*
X0134705Y0199601D01*
X0135406Y0199601D02*
X0133304Y0199601D01*
X0133304Y0198200D02*
X0133304Y0202404D01*
X0135406Y0202404D01*
X0136106Y0201703D01*
X0136106Y0200302D01*
X0135406Y0199601D01*
X0131502Y0198901D02*
X0131502Y0200302D01*
X0130101Y0200302D01*
X0128700Y0201703D02*
X0128700Y0198901D01*
X0129401Y0198200D01*
X0130802Y0198200D01*
X0131502Y0198901D01*
X0131502Y0201703D02*
X0130802Y0202404D01*
X0129401Y0202404D01*
X0128700Y0201703D01*
X0171111Y0228119D02*
X0171111Y0230481D01*
X0173670Y0234418D02*
X0194930Y0234418D01*
X0197489Y0230481D02*
X0197489Y0228119D01*
X0190206Y0224182D02*
X0184300Y0224182D01*
X0226926Y0229603D02*
X0226926Y0233139D01*
X0230461Y0236674D01*
X0233997Y0236674D01*
X0237532Y0233139D01*
X0237532Y0229603D01*
X0241068Y0229603D01*
X0244603Y0226068D01*
X0244603Y0222532D01*
X0241068Y0218997D01*
X0237532Y0218997D01*
X0233997Y0222532D01*
X0233997Y0226068D01*
X0230461Y0226068D01*
X0226926Y0229603D01*
X0140710Y0135404D02*
X0137908Y0132601D01*
X0138608Y0133302D02*
X0140710Y0131200D01*
X0137908Y0131200D02*
X0137908Y0135404D01*
X0136106Y0131200D02*
X0133304Y0131200D01*
X0133304Y0135404D01*
X0131502Y0134703D02*
X0131502Y0134002D01*
X0130802Y0133302D01*
X0128700Y0133302D01*
X0128700Y0131200D02*
X0128700Y0135404D01*
X0130802Y0135404D01*
X0131502Y0134703D01*
X0130802Y0133302D02*
X0131502Y0132601D01*
X0131502Y0131901D01*
X0130802Y0131200D01*
X0128700Y0131200D01*
X0129300Y0121800D02*
X0126800Y0119300D01*
X0126800Y0114300D01*
X0129300Y0111800D01*
X0134300Y0111800D01*
X0136800Y0114300D01*
X0139300Y0111800D01*
X0144300Y0111800D01*
X0146800Y0114300D01*
X0146800Y0119300D01*
X0144300Y0121800D01*
X0139300Y0121800D01*
X0136800Y0119300D01*
X0134300Y0121800D01*
X0129300Y0121800D01*
D17*
G36*
X0239300Y0225714D02*
X0240714Y0224300D01*
X0239300Y0222886D01*
X0237886Y0224300D01*
X0239300Y0225714D01*
G37*
G36*
X0232229Y0232785D02*
X0233643Y0231371D01*
X0232229Y0229957D01*
X0230815Y0231371D01*
X0232229Y0232785D01*
G37*
D18*
X0236753Y0237100D02*
X0237437Y0236416D01*
X0238121Y0236416D01*
X0239489Y0237784D01*
X0239489Y0238468D01*
X0238805Y0239153D01*
X0238121Y0239153D01*
X0236753Y0237784D01*
X0236753Y0237100D01*
X0236722Y0239184D02*
X0236037Y0239184D01*
X0235011Y0240210D01*
X0234327Y0239526D02*
X0236380Y0241578D01*
X0237406Y0240552D01*
X0237406Y0239868D01*
X0236722Y0239184D01*
X0240547Y0237411D02*
X0238494Y0235359D01*
X0239862Y0235359D01*
X0239862Y0233991D01*
X0241915Y0236043D01*
X0242630Y0235328D02*
X0240578Y0233275D01*
X0241946Y0231907D01*
X0242661Y0231192D02*
X0244714Y0233244D01*
X0245740Y0232218D01*
X0245740Y0231534D01*
X0245056Y0230850D01*
X0244372Y0230850D01*
X0243345Y0231876D01*
X0244029Y0231192D02*
X0244029Y0229824D01*
X0242288Y0233617D02*
X0241604Y0234301D01*
X0242630Y0235328D02*
X0243998Y0233959D01*
X0113742Y0234733D02*
X0112374Y0236101D01*
X0110322Y0234048D01*
X0109607Y0234764D02*
X0110975Y0236132D01*
X0111348Y0235075D02*
X0112032Y0234390D01*
X0109607Y0234764D02*
X0108580Y0235790D01*
X0108580Y0236474D01*
X0109607Y0237500D01*
X0109233Y0238557D02*
X0106497Y0238557D01*
X0106497Y0237873D01*
X0107181Y0237189D01*
X0107865Y0237189D01*
X0109233Y0238557D01*
X0109233Y0239242D01*
X0108549Y0239926D01*
X0107865Y0239926D01*
X0106497Y0238557D01*
X0105440Y0238931D02*
X0104071Y0240299D01*
X0104755Y0239615D02*
X0106808Y0241667D01*
X0105440Y0241667D01*
D19*
G36*
X0083426Y0271215D02*
X0082153Y0269942D01*
X0080528Y0271567D01*
X0081801Y0272840D01*
X0083426Y0271215D01*
G37*
G36*
X0088658Y0276447D02*
X0087385Y0275174D01*
X0085760Y0276799D01*
X0087033Y0278072D01*
X0088658Y0276447D01*
G37*
G36*
X0080456Y0279417D02*
X0079183Y0278144D01*
X0077558Y0279769D01*
X0078831Y0281042D01*
X0080456Y0279417D01*
G37*
G36*
X0281215Y0275174D02*
X0279942Y0276447D01*
X0281567Y0278072D01*
X0282840Y0276799D01*
X0281215Y0275174D01*
G37*
G36*
X0286447Y0269942D02*
X0285174Y0271215D01*
X0286799Y0272840D01*
X0288072Y0271567D01*
X0286447Y0269942D01*
G37*
G36*
X0289417Y0278144D02*
X0288144Y0279417D01*
X0289769Y0281042D01*
X0291042Y0279769D01*
X0289417Y0278144D01*
G37*
G36*
X0285174Y0077385D02*
X0286447Y0078658D01*
X0288072Y0077033D01*
X0286799Y0075760D01*
X0285174Y0077385D01*
G37*
G36*
X0279942Y0072153D02*
X0281215Y0073426D01*
X0282840Y0071801D01*
X0281567Y0070528D01*
X0279942Y0072153D01*
G37*
G36*
X0288144Y0069183D02*
X0289417Y0070456D01*
X0291042Y0068831D01*
X0289769Y0067558D01*
X0288144Y0069183D01*
G37*
G36*
X0087385Y0073426D02*
X0088658Y0072153D01*
X0087033Y0070528D01*
X0085760Y0071801D01*
X0087385Y0073426D01*
G37*
G36*
X0082153Y0078658D02*
X0083426Y0077385D01*
X0081801Y0075760D01*
X0080528Y0077033D01*
X0082153Y0078658D01*
G37*
G36*
X0079183Y0070456D02*
X0080456Y0069183D01*
X0078831Y0067558D01*
X0077558Y0068831D01*
X0079183Y0070456D01*
G37*
D20*
G36*
X0095855Y0088876D02*
X0094724Y0087745D01*
X0092745Y0089724D01*
X0093876Y0090855D01*
X0095855Y0088876D01*
G37*
G36*
X0097745Y0084724D02*
X0098876Y0085855D01*
X0100855Y0083876D01*
X0099724Y0082745D01*
X0097745Y0084724D01*
G37*
G36*
X0175855Y0131376D02*
X0174724Y0130245D01*
X0172745Y0132224D01*
X0173876Y0133355D01*
X0175855Y0131376D01*
G37*
G36*
X0178355Y0146376D02*
X0177224Y0145245D01*
X0175245Y0147224D01*
X0176376Y0148355D01*
X0178355Y0146376D01*
G37*
G36*
X0190855Y0146376D02*
X0189724Y0145245D01*
X0187745Y0147224D01*
X0188876Y0148355D01*
X0190855Y0146376D01*
G37*
G36*
X0269724Y0085855D02*
X0270855Y0084724D01*
X0268876Y0082745D01*
X0267745Y0083876D01*
X0269724Y0085855D01*
G37*
G36*
X0273876Y0087745D02*
X0272745Y0088876D01*
X0274724Y0090855D01*
X0275855Y0089724D01*
X0273876Y0087745D01*
G37*
G36*
X0272745Y0259724D02*
X0273876Y0260855D01*
X0275855Y0258876D01*
X0274724Y0257745D01*
X0272745Y0259724D01*
G37*
G36*
X0270855Y0263876D02*
X0269724Y0262745D01*
X0267745Y0264724D01*
X0268876Y0265855D01*
X0270855Y0263876D01*
G37*
G36*
X0097224Y0268355D02*
X0098355Y0267224D01*
X0096376Y0265245D01*
X0095245Y0266376D01*
X0097224Y0268355D01*
G37*
G36*
X0092224Y0263355D02*
X0093355Y0262224D01*
X0091376Y0260245D01*
X0090245Y0261376D01*
X0092224Y0263355D01*
G37*
D21*
X0186013Y0176524D02*
X0186800Y0177312D01*
X0187587Y0176524D01*
X0186800Y0177312D02*
X0186800Y0172587D01*
X0186013Y0171800D02*
X0186015Y0171856D01*
X0186021Y0171911D01*
X0186031Y0171965D01*
X0186044Y0172019D01*
X0186062Y0172072D01*
X0186083Y0172123D01*
X0186107Y0172173D01*
X0186135Y0172221D01*
X0186167Y0172267D01*
X0186201Y0172311D01*
X0186239Y0172352D01*
X0186279Y0172390D01*
X0186322Y0172425D01*
X0186367Y0172457D01*
X0186415Y0172486D01*
X0186464Y0172512D01*
X0186515Y0172534D01*
X0186567Y0172552D01*
X0186621Y0172566D01*
X0186676Y0172577D01*
X0186731Y0172584D01*
X0186786Y0172587D01*
X0186842Y0172586D01*
X0186897Y0172581D01*
X0186952Y0172572D01*
X0187006Y0172560D01*
X0187059Y0172543D01*
X0187111Y0172523D01*
X0187161Y0172499D01*
X0187209Y0172472D01*
X0187256Y0172442D01*
X0187300Y0172408D01*
X0187342Y0172371D01*
X0187380Y0172331D01*
X0187417Y0172289D01*
X0187450Y0172244D01*
X0187479Y0172198D01*
X0187506Y0172149D01*
X0187528Y0172098D01*
X0187548Y0172046D01*
X0187563Y0171992D01*
X0187575Y0171938D01*
X0187583Y0171883D01*
X0187587Y0171828D01*
X0187587Y0171772D01*
X0187583Y0171717D01*
X0187575Y0171662D01*
X0187563Y0171608D01*
X0187548Y0171554D01*
X0187528Y0171502D01*
X0187506Y0171451D01*
X0187479Y0171402D01*
X0187450Y0171356D01*
X0187417Y0171311D01*
X0187380Y0171269D01*
X0187342Y0171229D01*
X0187300Y0171192D01*
X0187256Y0171158D01*
X0187209Y0171128D01*
X0187161Y0171101D01*
X0187111Y0171077D01*
X0187059Y0171057D01*
X0187006Y0171040D01*
X0186952Y0171028D01*
X0186897Y0171019D01*
X0186842Y0171014D01*
X0186786Y0171013D01*
X0186731Y0171016D01*
X0186676Y0171023D01*
X0186621Y0171034D01*
X0186567Y0171048D01*
X0186515Y0171066D01*
X0186464Y0171088D01*
X0186415Y0171114D01*
X0186367Y0171143D01*
X0186322Y0171175D01*
X0186279Y0171210D01*
X0186239Y0171248D01*
X0186201Y0171289D01*
X0186167Y0171333D01*
X0186135Y0171379D01*
X0186107Y0171427D01*
X0186083Y0171477D01*
X0186062Y0171528D01*
X0186044Y0171581D01*
X0186031Y0171635D01*
X0186021Y0171689D01*
X0186015Y0171744D01*
X0186013Y0171800D01*
X0187587Y0171800D02*
X0192312Y0171800D01*
X0191524Y0171013D01*
X0192312Y0171800D02*
X0191524Y0172587D01*
X0189556Y0172981D02*
X0189623Y0172967D01*
X0189690Y0172950D01*
X0189755Y0172930D01*
X0189819Y0172905D01*
X0189882Y0172877D01*
X0189943Y0172845D01*
X0190002Y0172810D01*
X0190059Y0172771D01*
X0190113Y0172730D01*
X0190165Y0172685D01*
X0190215Y0172637D01*
X0190261Y0172587D01*
X0190305Y0172534D01*
X0190345Y0172478D01*
X0190383Y0172421D01*
X0190416Y0172361D01*
X0190447Y0172299D01*
X0190474Y0172236D01*
X0190497Y0172171D01*
X0190516Y0172106D01*
X0190532Y0172039D01*
X0190544Y0171971D01*
X0190552Y0171903D01*
X0190556Y0171834D01*
X0190556Y0171766D01*
X0190552Y0171697D01*
X0190544Y0171629D01*
X0190532Y0171561D01*
X0190516Y0171494D01*
X0190497Y0171429D01*
X0190474Y0171364D01*
X0190447Y0171301D01*
X0190416Y0171239D01*
X0190383Y0171179D01*
X0190345Y0171122D01*
X0190305Y0171066D01*
X0190261Y0171013D01*
X0190215Y0170963D01*
X0190165Y0170915D01*
X0190113Y0170870D01*
X0190059Y0170829D01*
X0190002Y0170790D01*
X0189943Y0170755D01*
X0189882Y0170723D01*
X0189819Y0170695D01*
X0189755Y0170670D01*
X0189690Y0170650D01*
X0189623Y0170633D01*
X0189556Y0170619D01*
X0189556Y0171013D01*
X0189556Y0170619D02*
X0189950Y0170225D01*
X0187981Y0174556D02*
X0187587Y0174556D01*
X0187981Y0174556D02*
X0188375Y0174950D01*
X0187981Y0174556D02*
X0187967Y0174623D01*
X0187950Y0174690D01*
X0187930Y0174755D01*
X0187905Y0174819D01*
X0187877Y0174882D01*
X0187845Y0174943D01*
X0187810Y0175002D01*
X0187771Y0175059D01*
X0187730Y0175113D01*
X0187685Y0175165D01*
X0187637Y0175215D01*
X0187587Y0175261D01*
X0187534Y0175305D01*
X0187478Y0175345D01*
X0187421Y0175383D01*
X0187361Y0175416D01*
X0187299Y0175447D01*
X0187236Y0175474D01*
X0187171Y0175497D01*
X0187106Y0175516D01*
X0187039Y0175532D01*
X0186971Y0175544D01*
X0186903Y0175552D01*
X0186834Y0175556D01*
X0186766Y0175556D01*
X0186697Y0175552D01*
X0186629Y0175544D01*
X0186561Y0175532D01*
X0186494Y0175516D01*
X0186429Y0175497D01*
X0186364Y0175474D01*
X0186301Y0175447D01*
X0186239Y0175416D01*
X0186179Y0175383D01*
X0186122Y0175345D01*
X0186066Y0175305D01*
X0186013Y0175261D01*
X0185963Y0175215D01*
X0185915Y0175165D01*
X0185870Y0175113D01*
X0185829Y0175059D01*
X0185790Y0175002D01*
X0185755Y0174943D01*
X0185723Y0174882D01*
X0185695Y0174819D01*
X0185670Y0174755D01*
X0185650Y0174690D01*
X0185633Y0174623D01*
X0185619Y0174556D01*
D22*
G36*
X0146116Y0216382D02*
X0147508Y0217774D01*
X0149316Y0215966D01*
X0147924Y0214574D01*
X0146116Y0216382D01*
G37*
G36*
X0140826Y0211092D02*
X0142218Y0212484D01*
X0144026Y0210676D01*
X0142634Y0209284D01*
X0140826Y0211092D01*
G37*
G36*
X0134284Y0217634D02*
X0135676Y0219026D01*
X0137484Y0217218D01*
X0136092Y0215826D01*
X0134284Y0217634D01*
G37*
G36*
X0136929Y0220279D02*
X0138321Y0221671D01*
X0140129Y0219863D01*
X0138737Y0218471D01*
X0136929Y0220279D01*
G37*
G36*
X0139574Y0222924D02*
X0140966Y0224316D01*
X0142774Y0222508D01*
X0141382Y0221116D01*
X0139574Y0222924D01*
G37*
D23*
X0143426Y0224083D03*
D24*
X0141800Y0116800D03*
X0131800Y0116800D03*
M02*
