%
M48
M72
T01C0.01181
T02C0.02362
T03C0.03543
T04C0.04000
T05C0.04400
T06C0.28000
%
T01
X166800Y136800
X181800Y136800
X194300Y139300
X186800Y151800
X176800Y156800
X171800Y151800
X199300Y159300
X206800Y171800
X204300Y184300
X186800Y186800
X181800Y186800
X176800Y184300
X161800Y191800
X156800Y206800
X99300Y256800
X226800Y191800
T02
X219300Y219300
X261800Y251800
X231800Y141800
X261800Y96800
X126800Y231800
X101800Y271800
X106800Y96800
T03
X178394Y229300
X190206Y229300
T04
X232229Y231371
X239300Y224300
X131800Y191800
X131800Y181800
X131800Y171800
X131800Y161800
X131800Y151800
X131800Y141800
X131800Y116800
X141800Y116800
T05
X71371Y54729
X64300Y61800
X297229Y54729
X304300Y61800
X304300Y286800
X297229Y293871
X71371Y293871
X64300Y286800
T06
X41800Y31800
X326800Y31800
X326800Y316800
X41800Y316800
M30
