G75*
%MOIN*%
%OFA0B0*%
%FSLAX25Y25*%
%IPPOS*%
%LPD*%
%AMOC8*
5,1,8,0,0,1.08239X$1,22.5*
%
%ADD10C,0.00000*%
%ADD11R,0.02756X0.03543*%
%ADD12R,0.07400X0.07400*%
%ADD13C,0.07400*%
%ADD14C,0.07400*%
%ADD15R,0.03937X0.05512*%
%ADD16C,0.01000*%
%ADD17R,0.10300X0.10300*%
%ADD18R,0.02165X0.04724*%
%ADD19R,0.06299X0.05512*%
%ADD20R,0.02756X0.05906*%
%ADD21R,0.03937X0.02362*%
%ADD22R,0.03937X0.03150*%
%ADD23C,0.03200*%
%ADD24C,0.01200*%
%ADD25C,0.03962*%
%ADD26C,0.02781*%
%ADD27C,0.32000*%
%ADD28C,0.01600*%
D10*
X0026800Y0016800D02*
X0026442Y0017167D01*
X0026093Y0017542D01*
X0025753Y0017926D01*
X0025422Y0018318D01*
X0025101Y0018718D01*
X0024790Y0019125D01*
X0024489Y0019540D01*
X0024198Y0019961D01*
X0023917Y0020390D01*
X0023646Y0020826D01*
X0023386Y0021268D01*
X0023137Y0021716D01*
X0022899Y0022169D01*
X0022672Y0022629D01*
X0022456Y0023094D01*
X0022251Y0023564D01*
X0022058Y0024039D01*
X0021876Y0024518D01*
X0021706Y0025002D01*
X0021548Y0025489D01*
X0021401Y0025980D01*
X0021266Y0026475D01*
X0021144Y0026973D01*
X0021033Y0027473D01*
X0020934Y0027976D01*
X0020848Y0028482D01*
X0020774Y0028989D01*
X0020712Y0029498D01*
X0020663Y0030008D01*
X0020626Y0030519D01*
X0020601Y0031031D01*
X0020589Y0031544D01*
X0020589Y0032056D01*
X0020601Y0032569D01*
X0020626Y0033081D01*
X0020663Y0033592D01*
X0020712Y0034102D01*
X0020774Y0034611D01*
X0020848Y0035118D01*
X0020934Y0035624D01*
X0021033Y0036127D01*
X0021144Y0036627D01*
X0021266Y0037125D01*
X0021401Y0037620D01*
X0021548Y0038111D01*
X0021706Y0038598D01*
X0021876Y0039082D01*
X0022058Y0039561D01*
X0022251Y0040036D01*
X0022456Y0040506D01*
X0022672Y0040971D01*
X0022899Y0041431D01*
X0023137Y0041884D01*
X0023386Y0042332D01*
X0023646Y0042774D01*
X0023917Y0043210D01*
X0024198Y0043639D01*
X0024489Y0044060D01*
X0024790Y0044475D01*
X0025101Y0044882D01*
X0025422Y0045282D01*
X0025753Y0045674D01*
X0026093Y0046058D01*
X0026442Y0046433D01*
X0026800Y0046800D01*
X0101540Y0115225D01*
X0125225Y0092800D02*
X0056800Y0016800D01*
X0056433Y0016442D01*
X0056058Y0016093D01*
X0055674Y0015753D01*
X0055282Y0015422D01*
X0054882Y0015101D01*
X0054475Y0014790D01*
X0054060Y0014489D01*
X0053639Y0014198D01*
X0053210Y0013917D01*
X0052774Y0013646D01*
X0052332Y0013386D01*
X0051884Y0013137D01*
X0051431Y0012899D01*
X0050971Y0012672D01*
X0050506Y0012456D01*
X0050036Y0012251D01*
X0049561Y0012058D01*
X0049082Y0011876D01*
X0048598Y0011706D01*
X0048111Y0011548D01*
X0047620Y0011401D01*
X0047125Y0011266D01*
X0046627Y0011144D01*
X0046127Y0011033D01*
X0045624Y0010934D01*
X0045118Y0010848D01*
X0044611Y0010774D01*
X0044102Y0010712D01*
X0043592Y0010663D01*
X0043081Y0010626D01*
X0042569Y0010601D01*
X0042056Y0010589D01*
X0041544Y0010589D01*
X0041031Y0010601D01*
X0040519Y0010626D01*
X0040008Y0010663D01*
X0039498Y0010712D01*
X0038989Y0010774D01*
X0038482Y0010848D01*
X0037976Y0010934D01*
X0037473Y0011033D01*
X0036973Y0011144D01*
X0036475Y0011266D01*
X0035980Y0011401D01*
X0035489Y0011548D01*
X0035002Y0011706D01*
X0034518Y0011876D01*
X0034039Y0012058D01*
X0033564Y0012251D01*
X0033094Y0012456D01*
X0032629Y0012672D01*
X0032169Y0012899D01*
X0031716Y0013137D01*
X0031268Y0013386D01*
X0030826Y0013646D01*
X0030390Y0013917D01*
X0029961Y0014198D01*
X0029540Y0014489D01*
X0029125Y0014790D01*
X0028718Y0015101D01*
X0028318Y0015422D01*
X0027926Y0015753D01*
X0027542Y0016093D01*
X0027167Y0016442D01*
X0026800Y0016800D01*
X0125225Y0092800D02*
X0126967Y0094225D01*
X0128743Y0095607D01*
X0130552Y0096946D01*
X0132393Y0098239D01*
X0134266Y0099487D01*
X0136169Y0100689D01*
X0138100Y0101844D01*
X0140059Y0102952D01*
X0142045Y0104011D01*
X0144056Y0105021D01*
X0146091Y0105981D01*
X0148149Y0106891D01*
X0150229Y0107751D01*
X0152329Y0108559D01*
X0154449Y0109316D01*
X0156586Y0110021D01*
X0158740Y0110673D01*
X0160909Y0111272D01*
X0163093Y0111818D01*
X0165289Y0112310D01*
X0167496Y0112748D01*
X0169713Y0113132D01*
X0171940Y0113461D01*
X0174173Y0113736D01*
X0176413Y0113957D01*
X0178657Y0114122D01*
X0180905Y0114232D01*
X0183155Y0114287D01*
X0185405Y0114287D01*
X0187655Y0114232D01*
X0189903Y0114122D01*
X0192147Y0113957D01*
X0194387Y0113736D01*
X0196620Y0113461D01*
X0198847Y0113132D01*
X0201064Y0112748D01*
X0203271Y0112310D01*
X0205467Y0111818D01*
X0207651Y0111272D01*
X0209820Y0110673D01*
X0211974Y0110021D01*
X0214111Y0109316D01*
X0216231Y0108559D01*
X0218331Y0107751D01*
X0220411Y0106891D01*
X0222469Y0105981D01*
X0224504Y0105021D01*
X0226515Y0104011D01*
X0228501Y0102952D01*
X0230460Y0101844D01*
X0232391Y0100689D01*
X0234294Y0099487D01*
X0236167Y0098239D01*
X0238008Y0096946D01*
X0239817Y0095607D01*
X0241593Y0094225D01*
X0243335Y0092800D01*
X0311800Y0016800D01*
X0312166Y0016442D01*
X0312541Y0016094D01*
X0312924Y0015754D01*
X0313316Y0015424D01*
X0313715Y0015104D01*
X0314122Y0014793D01*
X0314536Y0014492D01*
X0314957Y0014201D01*
X0315385Y0013920D01*
X0315820Y0013650D01*
X0316261Y0013391D01*
X0316709Y0013142D01*
X0317162Y0012904D01*
X0317621Y0012677D01*
X0318085Y0012461D01*
X0318555Y0012257D01*
X0319029Y0012064D01*
X0319508Y0011882D01*
X0319991Y0011712D01*
X0320477Y0011554D01*
X0320968Y0011408D01*
X0321462Y0011273D01*
X0321959Y0011151D01*
X0322459Y0011040D01*
X0322961Y0010942D01*
X0323466Y0010856D01*
X0323973Y0010782D01*
X0324481Y0010720D01*
X0324990Y0010671D01*
X0325501Y0010634D01*
X0326012Y0010609D01*
X0326524Y0010597D01*
X0327036Y0010597D01*
X0327548Y0010609D01*
X0328059Y0010634D01*
X0328570Y0010671D01*
X0329079Y0010720D01*
X0329587Y0010782D01*
X0330094Y0010856D01*
X0330599Y0010942D01*
X0331101Y0011040D01*
X0331601Y0011151D01*
X0332098Y0011273D01*
X0332592Y0011408D01*
X0333083Y0011554D01*
X0333569Y0011712D01*
X0334052Y0011882D01*
X0334531Y0012064D01*
X0335005Y0012257D01*
X0335475Y0012461D01*
X0335939Y0012677D01*
X0336398Y0012904D01*
X0336851Y0013142D01*
X0337299Y0013391D01*
X0337740Y0013650D01*
X0338175Y0013920D01*
X0338603Y0014201D01*
X0339024Y0014492D01*
X0339438Y0014793D01*
X0339845Y0015104D01*
X0340244Y0015424D01*
X0340636Y0015754D01*
X0341019Y0016094D01*
X0341394Y0016442D01*
X0341760Y0016800D01*
X0342119Y0017167D01*
X0342468Y0017542D01*
X0342809Y0017925D01*
X0343140Y0018316D01*
X0343461Y0018716D01*
X0343773Y0019123D01*
X0344075Y0019537D01*
X0344367Y0019958D01*
X0344648Y0020387D01*
X0344919Y0020822D01*
X0345180Y0021263D01*
X0345429Y0021711D01*
X0345668Y0022165D01*
X0345896Y0022624D01*
X0346113Y0023089D01*
X0346318Y0023558D01*
X0346512Y0024033D01*
X0346694Y0024512D01*
X0346865Y0024995D01*
X0347024Y0025482D01*
X0347171Y0025974D01*
X0347307Y0026468D01*
X0347430Y0026966D01*
X0347541Y0027466D01*
X0347640Y0027969D01*
X0347727Y0028474D01*
X0347802Y0028981D01*
X0347865Y0029490D01*
X0347915Y0030000D01*
X0347953Y0030511D01*
X0347978Y0031023D01*
X0347991Y0031536D01*
X0347992Y0032048D01*
X0347980Y0032561D01*
X0347956Y0033073D01*
X0347919Y0033584D01*
X0347871Y0034095D01*
X0347810Y0034604D01*
X0347736Y0035111D01*
X0347651Y0035616D01*
X0347553Y0036120D01*
X0347443Y0036620D01*
X0347321Y0037118D01*
X0347187Y0037613D01*
X0347041Y0038104D01*
X0346883Y0038592D01*
X0346713Y0039076D01*
X0346532Y0039555D01*
X0346340Y0040030D01*
X0346136Y0040501D01*
X0345920Y0040966D01*
X0345694Y0041426D01*
X0345456Y0041880D01*
X0345207Y0042328D01*
X0344948Y0042770D01*
X0344678Y0043206D01*
X0344398Y0043635D01*
X0344107Y0044058D01*
X0343806Y0044473D01*
X0343496Y0044881D01*
X0343175Y0045281D01*
X0342845Y0045673D01*
X0342506Y0046057D01*
X0342157Y0046433D01*
X0341800Y0046800D01*
X0267020Y0115225D01*
X0267021Y0115225D02*
X0265596Y0116967D01*
X0264214Y0118743D01*
X0262875Y0120552D01*
X0261582Y0122393D01*
X0260334Y0124266D01*
X0259132Y0126169D01*
X0257977Y0128100D01*
X0256869Y0130059D01*
X0255810Y0132045D01*
X0254800Y0134056D01*
X0253840Y0136091D01*
X0252930Y0138149D01*
X0252070Y0140229D01*
X0251262Y0142329D01*
X0250505Y0144449D01*
X0249800Y0146586D01*
X0249148Y0148740D01*
X0248549Y0150909D01*
X0248003Y0153093D01*
X0247511Y0155289D01*
X0247073Y0157496D01*
X0246689Y0159713D01*
X0246360Y0161940D01*
X0246085Y0164173D01*
X0245864Y0166413D01*
X0245699Y0168657D01*
X0245589Y0170905D01*
X0245534Y0173155D01*
X0245534Y0175405D01*
X0245589Y0177655D01*
X0245699Y0179903D01*
X0245864Y0182147D01*
X0246085Y0184387D01*
X0246360Y0186620D01*
X0246689Y0188847D01*
X0247073Y0191064D01*
X0247511Y0193271D01*
X0248003Y0195467D01*
X0248549Y0197651D01*
X0249148Y0199820D01*
X0249800Y0201974D01*
X0250505Y0204111D01*
X0251262Y0206231D01*
X0252070Y0208331D01*
X0252930Y0210411D01*
X0253840Y0212469D01*
X0254800Y0214504D01*
X0255810Y0216515D01*
X0256869Y0218501D01*
X0257977Y0220460D01*
X0259132Y0222391D01*
X0260334Y0224294D01*
X0261582Y0226167D01*
X0262875Y0228008D01*
X0264214Y0229817D01*
X0265596Y0231593D01*
X0267021Y0233335D01*
X0267020Y0233335D02*
X0341761Y0301761D01*
X0342119Y0302128D01*
X0342468Y0302503D01*
X0342808Y0302887D01*
X0343139Y0303279D01*
X0343460Y0303679D01*
X0343771Y0304086D01*
X0344072Y0304501D01*
X0344363Y0304922D01*
X0344644Y0305351D01*
X0344915Y0305787D01*
X0345175Y0306229D01*
X0345424Y0306677D01*
X0345662Y0307130D01*
X0345889Y0307590D01*
X0346105Y0308055D01*
X0346310Y0308525D01*
X0346503Y0309000D01*
X0346685Y0309479D01*
X0346855Y0309963D01*
X0347013Y0310450D01*
X0347160Y0310941D01*
X0347295Y0311436D01*
X0347417Y0311934D01*
X0347528Y0312434D01*
X0347627Y0312937D01*
X0347713Y0313443D01*
X0347787Y0313950D01*
X0347849Y0314459D01*
X0347898Y0314969D01*
X0347935Y0315480D01*
X0347960Y0315992D01*
X0347972Y0316505D01*
X0347972Y0317017D01*
X0347960Y0317530D01*
X0347935Y0318042D01*
X0347898Y0318553D01*
X0347849Y0319063D01*
X0347787Y0319572D01*
X0347713Y0320079D01*
X0347627Y0320585D01*
X0347528Y0321088D01*
X0347417Y0321588D01*
X0347295Y0322086D01*
X0347160Y0322581D01*
X0347013Y0323072D01*
X0346855Y0323559D01*
X0346685Y0324043D01*
X0346503Y0324522D01*
X0346310Y0324997D01*
X0346105Y0325467D01*
X0345889Y0325932D01*
X0345662Y0326392D01*
X0345424Y0326845D01*
X0345175Y0327293D01*
X0344915Y0327735D01*
X0344644Y0328171D01*
X0344363Y0328600D01*
X0344072Y0329021D01*
X0343771Y0329436D01*
X0343460Y0329843D01*
X0343139Y0330243D01*
X0342808Y0330635D01*
X0342468Y0331019D01*
X0342119Y0331394D01*
X0341761Y0331761D01*
X0341761Y0331760D02*
X0341395Y0332118D01*
X0341020Y0332468D01*
X0340638Y0332808D01*
X0340247Y0333138D01*
X0339848Y0333459D01*
X0339442Y0333771D01*
X0339028Y0334072D01*
X0338607Y0334363D01*
X0338179Y0334645D01*
X0337745Y0334915D01*
X0337304Y0335175D01*
X0336857Y0335425D01*
X0336404Y0335663D01*
X0335945Y0335891D01*
X0335481Y0336107D01*
X0335012Y0336312D01*
X0334538Y0336506D01*
X0334060Y0336688D01*
X0333577Y0336859D01*
X0333090Y0337017D01*
X0332600Y0337164D01*
X0332106Y0337300D01*
X0331609Y0337423D01*
X0331109Y0337534D01*
X0330607Y0337633D01*
X0330103Y0337720D01*
X0329596Y0337794D01*
X0329088Y0337857D01*
X0328578Y0337907D01*
X0328068Y0337945D01*
X0327557Y0337970D01*
X0327045Y0337983D01*
X0326533Y0337984D01*
X0326021Y0337972D01*
X0325510Y0337948D01*
X0324999Y0337912D01*
X0324489Y0337863D01*
X0323981Y0337802D01*
X0323474Y0337729D01*
X0322970Y0337643D01*
X0322467Y0337545D01*
X0321967Y0337435D01*
X0321470Y0337314D01*
X0320976Y0337180D01*
X0320485Y0337034D01*
X0319998Y0336876D01*
X0319515Y0336707D01*
X0319036Y0336526D01*
X0318561Y0336334D01*
X0318092Y0336130D01*
X0317627Y0335915D01*
X0317168Y0335689D01*
X0316714Y0335451D01*
X0316267Y0335203D01*
X0315825Y0334944D01*
X0315390Y0334675D01*
X0314961Y0334395D01*
X0314539Y0334104D01*
X0314125Y0333804D01*
X0313718Y0333494D01*
X0313318Y0333174D01*
X0312926Y0332844D01*
X0312543Y0332505D01*
X0312167Y0332157D01*
X0311801Y0331800D01*
X0311800Y0331800D02*
X0243335Y0257020D01*
X0188434Y0229300D02*
X0188436Y0229384D01*
X0188442Y0229467D01*
X0188452Y0229550D01*
X0188466Y0229633D01*
X0188483Y0229715D01*
X0188505Y0229796D01*
X0188530Y0229875D01*
X0188559Y0229954D01*
X0188592Y0230031D01*
X0188628Y0230106D01*
X0188668Y0230180D01*
X0188711Y0230252D01*
X0188758Y0230321D01*
X0188808Y0230388D01*
X0188861Y0230453D01*
X0188917Y0230515D01*
X0188975Y0230575D01*
X0189037Y0230632D01*
X0189101Y0230685D01*
X0189168Y0230736D01*
X0189237Y0230783D01*
X0189308Y0230828D01*
X0189381Y0230868D01*
X0189456Y0230905D01*
X0189533Y0230939D01*
X0189611Y0230969D01*
X0189690Y0230995D01*
X0189771Y0231018D01*
X0189853Y0231036D01*
X0189935Y0231051D01*
X0190018Y0231062D01*
X0190101Y0231069D01*
X0190185Y0231072D01*
X0190269Y0231071D01*
X0190352Y0231066D01*
X0190436Y0231057D01*
X0190518Y0231044D01*
X0190600Y0231028D01*
X0190681Y0231007D01*
X0190762Y0230983D01*
X0190840Y0230955D01*
X0190918Y0230923D01*
X0190994Y0230887D01*
X0191068Y0230848D01*
X0191140Y0230806D01*
X0191210Y0230760D01*
X0191278Y0230711D01*
X0191343Y0230659D01*
X0191406Y0230604D01*
X0191466Y0230546D01*
X0191524Y0230485D01*
X0191578Y0230421D01*
X0191630Y0230355D01*
X0191678Y0230287D01*
X0191723Y0230216D01*
X0191764Y0230143D01*
X0191803Y0230069D01*
X0191837Y0229993D01*
X0191868Y0229915D01*
X0191895Y0229836D01*
X0191919Y0229755D01*
X0191938Y0229674D01*
X0191954Y0229592D01*
X0191966Y0229509D01*
X0191974Y0229425D01*
X0191978Y0229342D01*
X0191978Y0229258D01*
X0191974Y0229175D01*
X0191966Y0229091D01*
X0191954Y0229008D01*
X0191938Y0228926D01*
X0191919Y0228845D01*
X0191895Y0228764D01*
X0191868Y0228685D01*
X0191837Y0228607D01*
X0191803Y0228531D01*
X0191764Y0228457D01*
X0191723Y0228384D01*
X0191678Y0228313D01*
X0191630Y0228245D01*
X0191578Y0228179D01*
X0191524Y0228115D01*
X0191466Y0228054D01*
X0191406Y0227996D01*
X0191343Y0227941D01*
X0191278Y0227889D01*
X0191210Y0227840D01*
X0191140Y0227794D01*
X0191068Y0227752D01*
X0190994Y0227713D01*
X0190918Y0227677D01*
X0190840Y0227645D01*
X0190762Y0227617D01*
X0190681Y0227593D01*
X0190600Y0227572D01*
X0190518Y0227556D01*
X0190436Y0227543D01*
X0190352Y0227534D01*
X0190269Y0227529D01*
X0190185Y0227528D01*
X0190101Y0227531D01*
X0190018Y0227538D01*
X0189935Y0227549D01*
X0189853Y0227564D01*
X0189771Y0227582D01*
X0189690Y0227605D01*
X0189611Y0227631D01*
X0189533Y0227661D01*
X0189456Y0227695D01*
X0189381Y0227732D01*
X0189308Y0227772D01*
X0189237Y0227817D01*
X0189168Y0227864D01*
X0189101Y0227915D01*
X0189037Y0227968D01*
X0188975Y0228025D01*
X0188917Y0228085D01*
X0188861Y0228147D01*
X0188808Y0228212D01*
X0188758Y0228279D01*
X0188711Y0228348D01*
X0188668Y0228420D01*
X0188628Y0228494D01*
X0188592Y0228569D01*
X0188559Y0228646D01*
X0188530Y0228725D01*
X0188505Y0228804D01*
X0188483Y0228885D01*
X0188466Y0228967D01*
X0188452Y0229050D01*
X0188442Y0229133D01*
X0188436Y0229216D01*
X0188434Y0229300D01*
X0176622Y0229300D02*
X0176624Y0229384D01*
X0176630Y0229467D01*
X0176640Y0229550D01*
X0176654Y0229633D01*
X0176671Y0229715D01*
X0176693Y0229796D01*
X0176718Y0229875D01*
X0176747Y0229954D01*
X0176780Y0230031D01*
X0176816Y0230106D01*
X0176856Y0230180D01*
X0176899Y0230252D01*
X0176946Y0230321D01*
X0176996Y0230388D01*
X0177049Y0230453D01*
X0177105Y0230515D01*
X0177163Y0230575D01*
X0177225Y0230632D01*
X0177289Y0230685D01*
X0177356Y0230736D01*
X0177425Y0230783D01*
X0177496Y0230828D01*
X0177569Y0230868D01*
X0177644Y0230905D01*
X0177721Y0230939D01*
X0177799Y0230969D01*
X0177878Y0230995D01*
X0177959Y0231018D01*
X0178041Y0231036D01*
X0178123Y0231051D01*
X0178206Y0231062D01*
X0178289Y0231069D01*
X0178373Y0231072D01*
X0178457Y0231071D01*
X0178540Y0231066D01*
X0178624Y0231057D01*
X0178706Y0231044D01*
X0178788Y0231028D01*
X0178869Y0231007D01*
X0178950Y0230983D01*
X0179028Y0230955D01*
X0179106Y0230923D01*
X0179182Y0230887D01*
X0179256Y0230848D01*
X0179328Y0230806D01*
X0179398Y0230760D01*
X0179466Y0230711D01*
X0179531Y0230659D01*
X0179594Y0230604D01*
X0179654Y0230546D01*
X0179712Y0230485D01*
X0179766Y0230421D01*
X0179818Y0230355D01*
X0179866Y0230287D01*
X0179911Y0230216D01*
X0179952Y0230143D01*
X0179991Y0230069D01*
X0180025Y0229993D01*
X0180056Y0229915D01*
X0180083Y0229836D01*
X0180107Y0229755D01*
X0180126Y0229674D01*
X0180142Y0229592D01*
X0180154Y0229509D01*
X0180162Y0229425D01*
X0180166Y0229342D01*
X0180166Y0229258D01*
X0180162Y0229175D01*
X0180154Y0229091D01*
X0180142Y0229008D01*
X0180126Y0228926D01*
X0180107Y0228845D01*
X0180083Y0228764D01*
X0180056Y0228685D01*
X0180025Y0228607D01*
X0179991Y0228531D01*
X0179952Y0228457D01*
X0179911Y0228384D01*
X0179866Y0228313D01*
X0179818Y0228245D01*
X0179766Y0228179D01*
X0179712Y0228115D01*
X0179654Y0228054D01*
X0179594Y0227996D01*
X0179531Y0227941D01*
X0179466Y0227889D01*
X0179398Y0227840D01*
X0179328Y0227794D01*
X0179256Y0227752D01*
X0179182Y0227713D01*
X0179106Y0227677D01*
X0179028Y0227645D01*
X0178950Y0227617D01*
X0178869Y0227593D01*
X0178788Y0227572D01*
X0178706Y0227556D01*
X0178624Y0227543D01*
X0178540Y0227534D01*
X0178457Y0227529D01*
X0178373Y0227528D01*
X0178289Y0227531D01*
X0178206Y0227538D01*
X0178123Y0227549D01*
X0178041Y0227564D01*
X0177959Y0227582D01*
X0177878Y0227605D01*
X0177799Y0227631D01*
X0177721Y0227661D01*
X0177644Y0227695D01*
X0177569Y0227732D01*
X0177496Y0227772D01*
X0177425Y0227817D01*
X0177356Y0227864D01*
X0177289Y0227915D01*
X0177225Y0227968D01*
X0177163Y0228025D01*
X0177105Y0228085D01*
X0177049Y0228147D01*
X0176996Y0228212D01*
X0176946Y0228279D01*
X0176899Y0228348D01*
X0176856Y0228420D01*
X0176816Y0228494D01*
X0176780Y0228569D01*
X0176747Y0228646D01*
X0176718Y0228725D01*
X0176693Y0228804D01*
X0176671Y0228885D01*
X0176654Y0228967D01*
X0176640Y0229050D01*
X0176630Y0229133D01*
X0176624Y0229216D01*
X0176622Y0229300D01*
X0125225Y0257020D02*
X0056839Y0331761D01*
X0056840Y0331761D02*
X0056472Y0332119D01*
X0056096Y0332469D01*
X0055712Y0332809D01*
X0055320Y0333140D01*
X0054920Y0333462D01*
X0054512Y0333773D01*
X0054097Y0334075D01*
X0053674Y0334367D01*
X0053245Y0334648D01*
X0052809Y0334919D01*
X0052366Y0335179D01*
X0051918Y0335428D01*
X0051463Y0335667D01*
X0051003Y0335894D01*
X0050538Y0336111D01*
X0050067Y0336316D01*
X0049592Y0336509D01*
X0049112Y0336691D01*
X0048627Y0336862D01*
X0048139Y0337020D01*
X0047647Y0337167D01*
X0047152Y0337302D01*
X0046654Y0337425D01*
X0046153Y0337535D01*
X0045649Y0337634D01*
X0045143Y0337720D01*
X0044635Y0337795D01*
X0044125Y0337857D01*
X0043614Y0337906D01*
X0043102Y0337943D01*
X0042590Y0337968D01*
X0042077Y0337980D01*
X0041563Y0337980D01*
X0041050Y0337968D01*
X0040538Y0337943D01*
X0040026Y0337906D01*
X0039515Y0337857D01*
X0039005Y0337795D01*
X0038497Y0337720D01*
X0037991Y0337634D01*
X0037487Y0337535D01*
X0036986Y0337425D01*
X0036488Y0337302D01*
X0035993Y0337167D01*
X0035501Y0337020D01*
X0035013Y0336862D01*
X0034528Y0336691D01*
X0034048Y0336509D01*
X0033573Y0336316D01*
X0033102Y0336111D01*
X0032637Y0335894D01*
X0032177Y0335667D01*
X0031722Y0335428D01*
X0031274Y0335179D01*
X0030831Y0334919D01*
X0030395Y0334648D01*
X0029966Y0334367D01*
X0029543Y0334075D01*
X0029128Y0333773D01*
X0028720Y0333462D01*
X0028320Y0333140D01*
X0027928Y0332809D01*
X0027544Y0332469D01*
X0027168Y0332119D01*
X0026800Y0331761D01*
X0026800Y0331760D02*
X0026442Y0331394D01*
X0026094Y0331019D01*
X0025754Y0330636D01*
X0025424Y0330244D01*
X0025104Y0329845D01*
X0024793Y0329438D01*
X0024492Y0329024D01*
X0024201Y0328603D01*
X0023920Y0328175D01*
X0023650Y0327740D01*
X0023391Y0327299D01*
X0023142Y0326851D01*
X0022904Y0326398D01*
X0022677Y0325939D01*
X0022461Y0325475D01*
X0022257Y0325005D01*
X0022064Y0324531D01*
X0021882Y0324052D01*
X0021712Y0323569D01*
X0021554Y0323083D01*
X0021408Y0322592D01*
X0021273Y0322098D01*
X0021151Y0321601D01*
X0021040Y0321101D01*
X0020942Y0320599D01*
X0020856Y0320094D01*
X0020782Y0319587D01*
X0020720Y0319079D01*
X0020671Y0318570D01*
X0020634Y0318059D01*
X0020609Y0317548D01*
X0020597Y0317036D01*
X0020597Y0316524D01*
X0020609Y0316012D01*
X0020634Y0315501D01*
X0020671Y0314990D01*
X0020720Y0314481D01*
X0020782Y0313973D01*
X0020856Y0313466D01*
X0020942Y0312961D01*
X0021040Y0312459D01*
X0021151Y0311959D01*
X0021273Y0311462D01*
X0021408Y0310968D01*
X0021554Y0310477D01*
X0021712Y0309991D01*
X0021882Y0309508D01*
X0022064Y0309029D01*
X0022257Y0308555D01*
X0022461Y0308085D01*
X0022677Y0307621D01*
X0022904Y0307162D01*
X0023142Y0306709D01*
X0023391Y0306261D01*
X0023650Y0305820D01*
X0023920Y0305385D01*
X0024201Y0304957D01*
X0024492Y0304536D01*
X0024793Y0304122D01*
X0025104Y0303715D01*
X0025424Y0303316D01*
X0025754Y0302924D01*
X0026094Y0302541D01*
X0026442Y0302166D01*
X0026800Y0301800D01*
X0101540Y0233335D01*
X0102965Y0231593D01*
X0104347Y0229817D01*
X0105686Y0228008D01*
X0106979Y0226167D01*
X0108227Y0224294D01*
X0109429Y0222391D01*
X0110584Y0220460D01*
X0111692Y0218501D01*
X0112751Y0216515D01*
X0113761Y0214504D01*
X0114721Y0212469D01*
X0115631Y0210411D01*
X0116491Y0208331D01*
X0117299Y0206231D01*
X0118056Y0204111D01*
X0118761Y0201974D01*
X0119413Y0199820D01*
X0120012Y0197651D01*
X0120558Y0195467D01*
X0121050Y0193271D01*
X0121488Y0191064D01*
X0121872Y0188847D01*
X0122201Y0186620D01*
X0122476Y0184387D01*
X0122697Y0182147D01*
X0122862Y0179903D01*
X0122972Y0177655D01*
X0123027Y0175405D01*
X0123027Y0173155D01*
X0122972Y0170905D01*
X0122862Y0168657D01*
X0122697Y0166413D01*
X0122476Y0164173D01*
X0122201Y0161940D01*
X0121872Y0159713D01*
X0121488Y0157496D01*
X0121050Y0155289D01*
X0120558Y0153093D01*
X0120012Y0150909D01*
X0119413Y0148740D01*
X0118761Y0146586D01*
X0118056Y0144449D01*
X0117299Y0142329D01*
X0116491Y0140229D01*
X0115631Y0138149D01*
X0114721Y0136091D01*
X0113761Y0134056D01*
X0112751Y0132045D01*
X0111692Y0130059D01*
X0110584Y0128100D01*
X0109429Y0126169D01*
X0108227Y0124266D01*
X0106979Y0122393D01*
X0105686Y0120552D01*
X0104347Y0118743D01*
X0102965Y0116967D01*
X0101540Y0115225D01*
X0125225Y0257021D02*
X0126967Y0255596D01*
X0128743Y0254214D01*
X0130552Y0252875D01*
X0132393Y0251582D01*
X0134266Y0250334D01*
X0136169Y0249132D01*
X0138100Y0247977D01*
X0140059Y0246869D01*
X0142045Y0245810D01*
X0144056Y0244800D01*
X0146091Y0243840D01*
X0148149Y0242930D01*
X0150229Y0242070D01*
X0152329Y0241262D01*
X0154449Y0240505D01*
X0156586Y0239800D01*
X0158740Y0239148D01*
X0160909Y0238549D01*
X0163093Y0238003D01*
X0165289Y0237511D01*
X0167496Y0237073D01*
X0169713Y0236689D01*
X0171940Y0236360D01*
X0174173Y0236085D01*
X0176413Y0235864D01*
X0178657Y0235699D01*
X0180905Y0235589D01*
X0183155Y0235534D01*
X0185405Y0235534D01*
X0187655Y0235589D01*
X0189903Y0235699D01*
X0192147Y0235864D01*
X0194387Y0236085D01*
X0196620Y0236360D01*
X0198847Y0236689D01*
X0201064Y0237073D01*
X0203271Y0237511D01*
X0205467Y0238003D01*
X0207651Y0238549D01*
X0209820Y0239148D01*
X0211974Y0239800D01*
X0214111Y0240505D01*
X0216231Y0241262D01*
X0218331Y0242070D01*
X0220411Y0242930D01*
X0222469Y0243840D01*
X0224504Y0244800D01*
X0226515Y0245810D01*
X0228501Y0246869D01*
X0230460Y0247977D01*
X0232391Y0249132D01*
X0234294Y0250334D01*
X0236167Y0251582D01*
X0238008Y0252875D01*
X0239817Y0254214D01*
X0241593Y0255596D01*
X0243335Y0257021D01*
D11*
G36*
X0269716Y0262213D02*
X0267767Y0260264D01*
X0265264Y0262767D01*
X0267213Y0264716D01*
X0269716Y0262213D01*
G37*
G36*
X0273336Y0265833D02*
X0271387Y0263884D01*
X0268884Y0266387D01*
X0270833Y0268336D01*
X0273336Y0265833D01*
G37*
G36*
X0273884Y0261387D02*
X0275833Y0263336D01*
X0278336Y0260833D01*
X0276387Y0258884D01*
X0273884Y0261387D01*
G37*
G36*
X0270264Y0257767D02*
X0272213Y0259716D01*
X0274716Y0257213D01*
X0272767Y0255264D01*
X0270264Y0257767D01*
G37*
G36*
X0201384Y0148887D02*
X0203333Y0150836D01*
X0205836Y0148333D01*
X0203887Y0146384D01*
X0201384Y0148887D01*
G37*
G36*
X0197764Y0145267D02*
X0199713Y0147216D01*
X0202216Y0144713D01*
X0200267Y0142764D01*
X0197764Y0145267D01*
G37*
G36*
X0193336Y0148333D02*
X0191387Y0146384D01*
X0188884Y0148887D01*
X0190833Y0150836D01*
X0193336Y0148333D01*
G37*
G36*
X0189716Y0144713D02*
X0187767Y0142764D01*
X0185264Y0145267D01*
X0187213Y0147216D01*
X0189716Y0144713D01*
G37*
G36*
X0180836Y0148333D02*
X0178887Y0146384D01*
X0176384Y0148887D01*
X0178333Y0150836D01*
X0180836Y0148333D01*
G37*
G36*
X0177216Y0144713D02*
X0175267Y0142764D01*
X0172764Y0145267D01*
X0174713Y0147216D01*
X0177216Y0144713D01*
G37*
G36*
X0178336Y0133333D02*
X0176387Y0131384D01*
X0173884Y0133887D01*
X0175833Y0135836D01*
X0178336Y0133333D01*
G37*
G36*
X0187216Y0129713D02*
X0185267Y0127764D01*
X0182764Y0130267D01*
X0184713Y0132216D01*
X0187216Y0129713D01*
G37*
G36*
X0190836Y0133333D02*
X0188887Y0131384D01*
X0186384Y0133887D01*
X0188333Y0135836D01*
X0190836Y0133333D01*
G37*
G36*
X0195264Y0130267D02*
X0197213Y0132216D01*
X0199716Y0129713D01*
X0197767Y0127764D01*
X0195264Y0130267D01*
G37*
G36*
X0198884Y0133887D02*
X0200833Y0135836D01*
X0203336Y0133333D01*
X0201387Y0131384D01*
X0198884Y0133887D01*
G37*
G36*
X0174716Y0129713D02*
X0172767Y0127764D01*
X0170264Y0130267D01*
X0172213Y0132216D01*
X0174716Y0129713D01*
G37*
G36*
X0098884Y0086387D02*
X0100833Y0088336D01*
X0103336Y0085833D01*
X0101387Y0083884D01*
X0098884Y0086387D01*
G37*
G36*
X0095264Y0082767D02*
X0097213Y0084716D01*
X0099716Y0082213D01*
X0097767Y0080264D01*
X0095264Y0082767D01*
G37*
G36*
X0094716Y0087213D02*
X0092767Y0085264D01*
X0090264Y0087767D01*
X0092213Y0089716D01*
X0094716Y0087213D01*
G37*
G36*
X0098336Y0090833D02*
X0096387Y0088884D01*
X0093884Y0091387D01*
X0095833Y0093336D01*
X0098336Y0090833D01*
G37*
G36*
X0127764Y0225267D02*
X0129713Y0227216D01*
X0132216Y0224713D01*
X0130267Y0222764D01*
X0127764Y0225267D01*
G37*
G36*
X0131384Y0228887D02*
X0133333Y0230836D01*
X0135836Y0228333D01*
X0133887Y0226384D01*
X0131384Y0228887D01*
G37*
G36*
X0098887Y0267216D02*
X0100836Y0265267D01*
X0098333Y0262764D01*
X0096384Y0264713D01*
X0098887Y0267216D01*
G37*
G36*
X0095267Y0270836D02*
X0097216Y0268887D01*
X0094713Y0266384D01*
X0092764Y0268333D01*
X0095267Y0270836D01*
G37*
G36*
X0090267Y0265836D02*
X0092216Y0263887D01*
X0089713Y0261384D01*
X0087764Y0263333D01*
X0090267Y0265836D01*
G37*
G36*
X0093887Y0262216D02*
X0095836Y0260267D01*
X0093333Y0257764D01*
X0091384Y0259713D01*
X0093887Y0262216D01*
G37*
G36*
X0272213Y0088884D02*
X0270264Y0090833D01*
X0272767Y0093336D01*
X0274716Y0091387D01*
X0272213Y0088884D01*
G37*
G36*
X0275833Y0085264D02*
X0273884Y0087213D01*
X0276387Y0089716D01*
X0278336Y0087767D01*
X0275833Y0085264D01*
G37*
G36*
X0271387Y0084716D02*
X0273336Y0082767D01*
X0270833Y0080264D01*
X0268884Y0082213D01*
X0271387Y0084716D01*
G37*
G36*
X0267767Y0088336D02*
X0269716Y0086387D01*
X0267213Y0083884D01*
X0265264Y0085833D01*
X0267767Y0088336D01*
G37*
D12*
X0131800Y0191800D03*
D13*
X0131800Y0181800D03*
X0131800Y0171800D03*
X0131800Y0161800D03*
X0131800Y0151800D03*
X0131800Y0141800D03*
X0131800Y0116800D03*
X0141800Y0116800D03*
X0239300Y0224300D03*
X0232229Y0231371D03*
D14*
X0294613Y0291255D02*
X0299845Y0296487D01*
X0306916Y0289416D02*
X0301684Y0284184D01*
X0073987Y0291255D02*
X0068755Y0296487D01*
X0061684Y0289416D02*
X0066916Y0284184D01*
X0066916Y0064416D02*
X0061684Y0059184D01*
X0068755Y0052113D02*
X0073987Y0057345D01*
X0294613Y0057345D02*
X0299845Y0052113D01*
X0306916Y0059184D02*
X0301684Y0064416D01*
D15*
G36*
X0286522Y0069295D02*
X0289305Y0072078D01*
X0293202Y0068181D01*
X0290419Y0065398D01*
X0286522Y0069295D01*
G37*
G36*
X0277753Y0072775D02*
X0280536Y0075558D01*
X0284433Y0071661D01*
X0281650Y0068878D01*
X0277753Y0072775D01*
G37*
G36*
X0283042Y0078064D02*
X0285825Y0080847D01*
X0289722Y0076950D01*
X0286939Y0074167D01*
X0283042Y0078064D01*
G37*
G36*
X0088064Y0075558D02*
X0090847Y0072775D01*
X0086950Y0068878D01*
X0084167Y0071661D01*
X0088064Y0075558D01*
G37*
G36*
X0082775Y0080847D02*
X0085558Y0078064D01*
X0081661Y0074167D01*
X0078878Y0076950D01*
X0082775Y0080847D01*
G37*
G36*
X0079295Y0072078D02*
X0082078Y0069295D01*
X0078181Y0065398D01*
X0075398Y0068181D01*
X0079295Y0072078D01*
G37*
G36*
X0085558Y0270536D02*
X0082775Y0267753D01*
X0078878Y0271650D01*
X0081661Y0274433D01*
X0085558Y0270536D01*
G37*
G36*
X0090847Y0275825D02*
X0088064Y0273042D01*
X0084167Y0276939D01*
X0086950Y0279722D01*
X0090847Y0275825D01*
G37*
G36*
X0082078Y0279305D02*
X0079295Y0276522D01*
X0075398Y0280419D01*
X0078181Y0283202D01*
X0082078Y0279305D01*
G37*
G36*
X0280536Y0273042D02*
X0277753Y0275825D01*
X0281650Y0279722D01*
X0284433Y0276939D01*
X0280536Y0273042D01*
G37*
G36*
X0285825Y0267753D02*
X0283042Y0270536D01*
X0286939Y0274433D01*
X0289722Y0271650D01*
X0285825Y0267753D01*
G37*
G36*
X0289305Y0276522D02*
X0286522Y0279305D01*
X0290419Y0283202D01*
X0293202Y0280419D01*
X0289305Y0276522D01*
G37*
D16*
X0191866Y0181495D02*
X0191866Y0178495D01*
X0189869Y0178495D02*
X0189869Y0181495D01*
X0187893Y0181495D02*
X0187893Y0178495D01*
X0185786Y0178495D02*
X0185786Y0181495D01*
X0183800Y0181495D02*
X0183800Y0178495D01*
X0181813Y0178495D02*
X0181813Y0181495D01*
X0180165Y0176748D02*
X0177165Y0176748D01*
X0177165Y0174751D02*
X0180165Y0174751D01*
X0180165Y0172774D02*
X0177165Y0172774D01*
X0177165Y0170668D02*
X0180165Y0170668D01*
X0180165Y0168681D02*
X0177165Y0168681D01*
X0177165Y0166695D02*
X0180165Y0166695D01*
X0181813Y0164947D02*
X0181813Y0161947D01*
X0183800Y0161947D02*
X0183800Y0164947D01*
X0185786Y0164947D02*
X0185786Y0161947D01*
X0187893Y0161947D02*
X0187893Y0164947D01*
X0189869Y0164947D02*
X0189869Y0161947D01*
X0191866Y0161947D02*
X0191866Y0164947D01*
X0193513Y0166695D02*
X0196513Y0166695D01*
X0196513Y0168681D02*
X0193513Y0168681D01*
X0193513Y0170668D02*
X0196513Y0170668D01*
X0196513Y0172774D02*
X0193513Y0172774D01*
X0193513Y0174751D02*
X0196513Y0174751D01*
X0196513Y0176748D02*
X0193513Y0176748D01*
D17*
X0186879Y0171761D03*
D18*
G36*
X0140340Y0211441D02*
X0141870Y0212971D01*
X0145210Y0209631D01*
X0143680Y0208101D01*
X0140340Y0211441D01*
G37*
G36*
X0133101Y0218680D02*
X0134631Y0220210D01*
X0137971Y0216870D01*
X0136441Y0215340D01*
X0133101Y0218680D01*
G37*
G36*
X0135746Y0221324D02*
X0137276Y0222854D01*
X0140616Y0219514D01*
X0139086Y0217984D01*
X0135746Y0221324D01*
G37*
G36*
X0138390Y0223969D02*
X0139920Y0225499D01*
X0143260Y0222159D01*
X0141730Y0220629D01*
X0138390Y0223969D01*
G37*
G36*
X0145629Y0216730D02*
X0147159Y0218260D01*
X0150499Y0214920D01*
X0148969Y0213390D01*
X0145629Y0216730D01*
G37*
D19*
G36*
X0116522Y0237626D02*
X0120974Y0242078D01*
X0124872Y0238180D01*
X0120420Y0233728D01*
X0116522Y0237626D01*
G37*
G36*
X0108728Y0245420D02*
X0113180Y0249872D01*
X0117078Y0245974D01*
X0112626Y0241522D01*
X0108728Y0245420D01*
G37*
D20*
X0175442Y0222410D03*
X0181347Y0222410D03*
X0193158Y0222410D03*
D21*
X0198670Y0233237D03*
X0169930Y0233237D03*
D22*
X0169930Y0224969D03*
X0198670Y0224969D03*
D23*
X0204300Y0214300D02*
X0184300Y0214300D01*
X0181347Y0217253D01*
X0181347Y0222410D01*
X0175442Y0222410D02*
X0175442Y0208158D01*
X0181800Y0201800D01*
X0211800Y0201800D01*
X0219300Y0194300D01*
X0221800Y0191800D01*
X0221800Y0151800D01*
X0231800Y0141800D01*
X0231800Y0124300D02*
X0239300Y0124300D01*
X0251800Y0111800D01*
X0251800Y0091800D01*
X0264300Y0079300D01*
X0269300Y0079300D01*
X0271110Y0081110D01*
X0271110Y0082490D01*
X0281093Y0072507D01*
X0281093Y0072218D01*
X0286093Y0077507D02*
X0276110Y0087490D01*
X0272490Y0091110D02*
X0267490Y0086110D01*
X0261800Y0091800D01*
X0261800Y0096800D01*
X0286093Y0077507D02*
X0286382Y0077507D01*
X0289862Y0068738D02*
X0289862Y0062096D01*
X0297229Y0054729D01*
X0239300Y0124300D02*
X0239300Y0224300D01*
X0241800Y0221800D01*
X0246800Y0221800D01*
X0279300Y0254300D01*
X0279300Y0259300D01*
X0276800Y0261800D01*
X0276110Y0261110D01*
X0276800Y0261800D02*
X0286093Y0271093D01*
X0286382Y0271093D01*
X0281093Y0276093D02*
X0271110Y0266110D01*
X0267490Y0262490D02*
X0272490Y0257490D01*
X0266800Y0251800D01*
X0261800Y0251800D01*
X0281093Y0276093D02*
X0281093Y0276382D01*
X0289862Y0279862D02*
X0289862Y0286504D01*
X0297229Y0293871D01*
X0232229Y0231371D02*
X0216371Y0231371D01*
X0211800Y0226800D01*
X0211800Y0221800D01*
X0204300Y0214300D01*
X0219300Y0219300D02*
X0219300Y0194300D01*
X0175442Y0222410D02*
X0172331Y0219300D01*
X0161800Y0219300D01*
X0149300Y0231800D01*
X0141800Y0231800D01*
X0116800Y0256800D01*
X0106800Y0256800D01*
X0099300Y0249300D01*
X0096800Y0249300D01*
X0135550Y0210550D01*
X0141800Y0204300D01*
X0141800Y0164300D01*
X0139300Y0161800D01*
X0131800Y0161800D01*
X0139300Y0124300D02*
X0141800Y0124300D01*
X0171800Y0124300D01*
X0181800Y0124300D01*
X0191800Y0124300D01*
X0231800Y0124300D01*
X0139300Y0124300D02*
X0131800Y0116800D01*
X0114300Y0116800D01*
X0089300Y0091800D01*
X0089300Y0089300D01*
X0091110Y0087490D01*
X0092490Y0087490D01*
X0082507Y0077507D01*
X0082218Y0077507D01*
X0087507Y0072507D02*
X0097490Y0082490D01*
X0101110Y0086110D02*
X0106800Y0091800D01*
X0106800Y0096800D01*
X0096110Y0091110D02*
X0101110Y0086110D01*
X0087507Y0072507D02*
X0087507Y0072218D01*
X0078738Y0068738D02*
X0078738Y0062096D01*
X0071371Y0054729D01*
X0126800Y0231800D02*
X0120697Y0237903D01*
X0126800Y0231800D02*
X0126800Y0231800D01*
X0096800Y0249300D02*
X0064300Y0281800D01*
X0064300Y0286800D01*
X0071371Y0293871D02*
X0078738Y0286504D01*
X0078738Y0279862D01*
X0082218Y0271093D02*
X0082507Y0271093D01*
X0089990Y0263610D01*
X0093610Y0259990D02*
X0098610Y0264990D01*
X0094990Y0268610D02*
X0098181Y0271800D01*
X0101800Y0271800D01*
X0094990Y0268610D02*
X0087507Y0276093D01*
X0087507Y0276382D01*
D24*
X0093610Y0259990D02*
X0096800Y0256800D01*
X0099300Y0256800D01*
X0112903Y0245697D02*
X0114005Y0246800D01*
X0119300Y0246800D01*
X0133610Y0232490D01*
X0133610Y0231800D01*
X0136800Y0231800D01*
X0146800Y0221800D01*
X0146800Y0217089D01*
X0148064Y0215825D01*
X0148064Y0215536D01*
X0156800Y0206800D01*
X0156800Y0146800D01*
X0161800Y0141800D01*
X0171800Y0141800D01*
X0174990Y0144990D01*
X0181240Y0138740D01*
X0187490Y0144990D01*
X0191110Y0148610D02*
X0187919Y0151800D01*
X0186800Y0151800D01*
X0181800Y0156800D02*
X0176800Y0156800D01*
X0175419Y0151800D02*
X0171800Y0151800D01*
X0175419Y0151800D02*
X0178610Y0148610D01*
X0181800Y0156800D02*
X0183800Y0158800D01*
X0183800Y0163447D01*
X0187893Y0163447D02*
X0187893Y0158207D01*
X0196800Y0149300D01*
X0196800Y0146800D01*
X0189300Y0139300D01*
X0189300Y0134300D01*
X0188610Y0133610D01*
X0189990Y0129990D02*
X0189990Y0124300D01*
X0191800Y0124300D01*
X0189990Y0129990D02*
X0194300Y0134300D01*
X0200419Y0134300D01*
X0201110Y0133610D01*
X0206800Y0139300D01*
X0206800Y0145419D01*
X0203610Y0148610D01*
X0192919Y0159300D01*
X0191800Y0159300D01*
X0189869Y0161231D01*
X0189869Y0163447D01*
X0195013Y0166695D02*
X0201695Y0166695D01*
X0206800Y0171800D01*
X0211852Y0176748D02*
X0216800Y0171800D01*
X0216800Y0146800D01*
X0231800Y0131800D01*
X0231800Y0124300D01*
X0209300Y0131800D02*
X0206800Y0129300D01*
X0199300Y0129300D01*
X0198610Y0129990D01*
X0197490Y0129990D01*
X0194300Y0139300D02*
X0199990Y0144990D01*
X0204300Y0154300D02*
X0199300Y0159300D01*
X0204300Y0154300D02*
X0206800Y0154300D01*
X0209300Y0151800D01*
X0209300Y0131800D01*
X0184990Y0129990D02*
X0181800Y0126800D01*
X0181800Y0124300D01*
X0176110Y0133610D02*
X0172919Y0136800D01*
X0166800Y0136800D01*
X0172490Y0129990D02*
X0172490Y0124990D01*
X0171800Y0124300D01*
X0181800Y0136800D02*
X0181800Y0138181D01*
X0181240Y0138740D01*
X0143610Y0129990D02*
X0143610Y0124300D01*
X0141800Y0124300D01*
X0143610Y0129990D02*
X0131800Y0141800D01*
X0171800Y0181800D02*
X0171800Y0186800D01*
X0176800Y0191800D01*
X0191800Y0191800D01*
X0196800Y0186800D01*
X0196800Y0176800D01*
X0195066Y0176800D01*
X0195013Y0176748D01*
X0211852Y0176748D01*
X0204300Y0184300D02*
X0191800Y0196800D01*
X0176800Y0196800D01*
X0171800Y0191800D01*
X0161800Y0191800D01*
X0171800Y0181800D02*
X0176852Y0176748D01*
X0178665Y0176748D01*
X0181813Y0179995D02*
X0181813Y0181787D01*
X0179300Y0184300D01*
X0176800Y0184300D01*
X0181800Y0186800D02*
X0183800Y0184800D01*
X0183800Y0179995D01*
X0189869Y0179995D02*
X0189869Y0183731D01*
X0186800Y0186800D01*
X0221800Y0191800D02*
X0226800Y0191800D01*
X0144300Y0219300D02*
X0139300Y0214300D01*
X0139011Y0214300D01*
X0139011Y0214011D01*
X0135550Y0210550D01*
X0139011Y0214300D02*
X0135536Y0217775D01*
X0138181Y0220419D02*
X0136800Y0221800D01*
X0133181Y0221800D01*
X0129990Y0224990D01*
X0126800Y0228181D01*
X0126800Y0231800D01*
X0133610Y0231800D02*
X0133610Y0228610D01*
X0136800Y0221800D02*
X0136800Y0221800D01*
X0140825Y0222775D02*
X0144300Y0219300D01*
X0140825Y0222775D02*
X0140825Y0223064D01*
X0120697Y0237903D02*
X0120697Y0237903D01*
D25*
X0126800Y0231800D03*
X0101800Y0271800D03*
X0219300Y0219300D03*
X0261800Y0251800D03*
X0231800Y0141800D03*
X0261800Y0096800D03*
X0106800Y0096800D03*
D26*
X0166800Y0136800D03*
X0181800Y0136800D03*
X0194300Y0139300D03*
X0186800Y0151800D03*
X0176800Y0156800D03*
X0171800Y0151800D03*
X0199300Y0159300D03*
X0206800Y0171800D03*
X0204300Y0184300D03*
X0186800Y0186800D03*
X0181800Y0186800D03*
X0176800Y0184300D03*
X0161800Y0191800D03*
X0156800Y0206800D03*
X0099300Y0256800D03*
X0226800Y0191800D03*
D27*
X0326800Y0316800D03*
X0041800Y0316800D03*
X0041800Y0031800D03*
X0326800Y0031800D03*
D28*
X0006800Y0006800D02*
X0001800Y0341800D01*
X0034589Y0341800D01*
X0030449Y0340352D01*
X0025481Y0337229D01*
X0023431Y0335179D01*
X0023406Y0335155D01*
X0021336Y0333084D01*
X0018220Y0328126D01*
X0016286Y0322599D01*
X0015631Y0316780D01*
X0016286Y0310961D01*
X0018220Y0305434D01*
X0021336Y0300476D01*
X0022808Y0299004D01*
X0022854Y0298905D01*
X0023480Y0298332D01*
X0024081Y0297731D01*
X0024182Y0297689D01*
X0098023Y0230048D01*
X0101005Y0226277D01*
X0106569Y0217817D01*
X0111113Y0208768D01*
X0114576Y0199253D01*
X0116912Y0189400D01*
X0118087Y0179343D01*
X0118087Y0169217D01*
X0116912Y0159160D01*
X0114576Y0149307D01*
X0111113Y0139792D01*
X0106569Y0130744D01*
X0101005Y0122284D01*
X0098024Y0118514D01*
X0024182Y0050911D01*
X0024081Y0050869D01*
X0023481Y0050269D01*
X0022855Y0049696D01*
X0022808Y0049596D01*
X0021333Y0048122D01*
X0021333Y0048122D01*
X0018215Y0043158D01*
X0016279Y0037625D01*
X0015622Y0031800D01*
X0016279Y0025975D01*
X0018215Y0020442D01*
X0021333Y0015478D01*
X0023406Y0013406D01*
X0023406Y0013406D01*
X0023422Y0013389D01*
X0025478Y0011333D01*
X0030442Y0008215D01*
X0034485Y0006800D01*
X0006800Y0006800D01*
X0006794Y0007209D02*
X0033316Y0007209D01*
X0029498Y0008807D02*
X0006770Y0008807D01*
X0006746Y0010406D02*
X0026954Y0010406D01*
X0025478Y0011333D02*
X0025478Y0011333D01*
X0024807Y0012004D02*
X0006722Y0012004D01*
X0006698Y0013603D02*
X0023209Y0013603D01*
X0021610Y0015201D02*
X0006675Y0015201D01*
X0006651Y0016800D02*
X0020503Y0016800D01*
X0019499Y0018399D02*
X0006627Y0018399D01*
X0006603Y0019997D02*
X0018494Y0019997D01*
X0018215Y0020442D02*
X0018215Y0020442D01*
X0017811Y0021596D02*
X0006579Y0021596D01*
X0006555Y0023194D02*
X0017252Y0023194D01*
X0016692Y0024793D02*
X0006531Y0024793D01*
X0006508Y0026391D02*
X0016232Y0026391D01*
X0016279Y0025975D02*
X0016279Y0025975D01*
X0016052Y0027990D02*
X0006484Y0027990D01*
X0006460Y0029588D02*
X0015871Y0029588D01*
X0015691Y0031187D02*
X0006436Y0031187D01*
X0006412Y0032785D02*
X0015733Y0032785D01*
X0015622Y0031800D02*
X0015622Y0031800D01*
X0015913Y0034384D02*
X0006388Y0034384D01*
X0006364Y0035982D02*
X0016093Y0035982D01*
X0016274Y0037581D02*
X0006341Y0037581D01*
X0006317Y0039179D02*
X0016822Y0039179D01*
X0016279Y0037625D02*
X0016279Y0037625D01*
X0017382Y0040778D02*
X0006293Y0040778D01*
X0006269Y0042376D02*
X0017941Y0042376D01*
X0018215Y0043158D02*
X0018215Y0043158D01*
X0018728Y0043975D02*
X0006245Y0043975D01*
X0006221Y0045573D02*
X0019732Y0045573D01*
X0020737Y0047172D02*
X0006197Y0047172D01*
X0006174Y0048770D02*
X0021982Y0048770D01*
X0023581Y0050369D02*
X0006150Y0050369D01*
X0006126Y0051967D02*
X0025336Y0051967D01*
X0027082Y0053566D02*
X0006102Y0053566D01*
X0006078Y0055164D02*
X0028828Y0055164D01*
X0030574Y0056763D02*
X0006054Y0056763D01*
X0006030Y0058361D02*
X0032320Y0058361D01*
X0034066Y0059960D02*
X0006007Y0059960D01*
X0005983Y0061558D02*
X0035812Y0061558D01*
X0037558Y0063157D02*
X0005959Y0063157D01*
X0005935Y0064755D02*
X0039304Y0064755D01*
X0041050Y0066354D02*
X0005911Y0066354D01*
X0005887Y0067952D02*
X0042796Y0067952D01*
X0044542Y0069551D02*
X0005863Y0069551D01*
X0005840Y0071149D02*
X0046288Y0071149D01*
X0048034Y0072748D02*
X0005816Y0072748D01*
X0005792Y0074346D02*
X0049780Y0074346D01*
X0051526Y0075945D02*
X0005768Y0075945D01*
X0005744Y0077543D02*
X0053272Y0077543D01*
X0055018Y0079142D02*
X0005720Y0079142D01*
X0005696Y0080740D02*
X0056764Y0080740D01*
X0058510Y0082339D02*
X0005673Y0082339D01*
X0005649Y0083937D02*
X0060257Y0083937D01*
X0062003Y0085536D02*
X0005625Y0085536D01*
X0005601Y0087134D02*
X0063749Y0087134D01*
X0065495Y0088733D02*
X0005577Y0088733D01*
X0005553Y0090332D02*
X0067241Y0090332D01*
X0068987Y0091930D02*
X0005529Y0091930D01*
X0005506Y0093529D02*
X0070733Y0093529D01*
X0072479Y0095127D02*
X0005482Y0095127D01*
X0005458Y0096726D02*
X0074225Y0096726D01*
X0075971Y0098324D02*
X0005434Y0098324D01*
X0005410Y0099923D02*
X0077717Y0099923D01*
X0079463Y0101521D02*
X0005386Y0101521D01*
X0005362Y0103120D02*
X0081209Y0103120D01*
X0082955Y0104718D02*
X0005339Y0104718D01*
X0005315Y0106317D02*
X0084701Y0106317D01*
X0086447Y0107915D02*
X0005291Y0107915D01*
X0005267Y0109514D02*
X0088193Y0109514D01*
X0089939Y0111112D02*
X0005243Y0111112D01*
X0005219Y0112711D02*
X0091685Y0112711D01*
X0093431Y0114309D02*
X0005195Y0114309D01*
X0005172Y0115908D02*
X0095177Y0115908D01*
X0096923Y0117506D02*
X0005148Y0117506D01*
X0005124Y0119105D02*
X0098491Y0119105D01*
X0099755Y0120703D02*
X0005100Y0120703D01*
X0005076Y0122302D02*
X0101017Y0122302D01*
X0102068Y0123900D02*
X0005052Y0123900D01*
X0005028Y0125499D02*
X0103119Y0125499D01*
X0104171Y0127097D02*
X0005005Y0127097D01*
X0004981Y0128696D02*
X0105222Y0128696D01*
X0106273Y0130294D02*
X0004957Y0130294D01*
X0004933Y0131893D02*
X0107146Y0131893D01*
X0107949Y0133491D02*
X0004909Y0133491D01*
X0004885Y0135090D02*
X0108752Y0135090D01*
X0109554Y0136688D02*
X0004861Y0136688D01*
X0004838Y0138287D02*
X0110357Y0138287D01*
X0111147Y0139885D02*
X0004814Y0139885D01*
X0004790Y0141484D02*
X0111729Y0141484D01*
X0112311Y0143082D02*
X0004766Y0143082D01*
X0004742Y0144681D02*
X0112893Y0144681D01*
X0113474Y0146279D02*
X0004718Y0146279D01*
X0004694Y0147878D02*
X0114056Y0147878D01*
X0114617Y0149476D02*
X0004671Y0149476D01*
X0004647Y0151075D02*
X0114995Y0151075D01*
X0115374Y0152673D02*
X0004623Y0152673D01*
X0004599Y0154272D02*
X0115753Y0154272D01*
X0116132Y0155870D02*
X0004575Y0155870D01*
X0004551Y0157469D02*
X0116511Y0157469D01*
X0116890Y0159068D02*
X0004527Y0159068D01*
X0004503Y0160666D02*
X0117088Y0160666D01*
X0117274Y0162265D02*
X0004480Y0162265D01*
X0004456Y0163863D02*
X0117461Y0163863D01*
X0117648Y0165462D02*
X0004432Y0165462D01*
X0004408Y0167060D02*
X0117835Y0167060D01*
X0118022Y0168659D02*
X0004384Y0168659D01*
X0004360Y0170257D02*
X0118087Y0170257D01*
X0118087Y0171856D02*
X0004336Y0171856D01*
X0004313Y0173454D02*
X0118087Y0173454D01*
X0118087Y0175053D02*
X0004289Y0175053D01*
X0004265Y0176651D02*
X0118087Y0176651D01*
X0118087Y0178250D02*
X0004241Y0178250D01*
X0004217Y0179848D02*
X0118028Y0179848D01*
X0117841Y0181447D02*
X0004193Y0181447D01*
X0004169Y0183045D02*
X0117654Y0183045D01*
X0117468Y0184644D02*
X0004146Y0184644D01*
X0004122Y0186242D02*
X0117281Y0186242D01*
X0117094Y0187841D02*
X0004098Y0187841D01*
X0004074Y0189439D02*
X0116902Y0189439D01*
X0116524Y0191038D02*
X0004050Y0191038D01*
X0004026Y0192636D02*
X0116145Y0192636D01*
X0115766Y0194235D02*
X0004002Y0194235D01*
X0003979Y0195833D02*
X0115387Y0195833D01*
X0115008Y0197432D02*
X0003955Y0197432D01*
X0003931Y0199030D02*
X0114629Y0199030D01*
X0114076Y0200629D02*
X0003907Y0200629D01*
X0003883Y0202227D02*
X0113494Y0202227D01*
X0112912Y0203826D02*
X0003859Y0203826D01*
X0003835Y0205424D02*
X0112330Y0205424D01*
X0111749Y0207023D02*
X0003812Y0207023D01*
X0003788Y0208621D02*
X0111167Y0208621D01*
X0110384Y0210220D02*
X0003764Y0210220D01*
X0003740Y0211818D02*
X0109581Y0211818D01*
X0108779Y0213417D02*
X0003716Y0213417D01*
X0003692Y0215015D02*
X0107976Y0215015D01*
X0107173Y0216614D02*
X0003668Y0216614D01*
X0003645Y0218212D02*
X0106309Y0218212D01*
X0105257Y0219811D02*
X0003621Y0219811D01*
X0003597Y0221409D02*
X0104206Y0221409D01*
X0103155Y0223008D02*
X0003573Y0223008D01*
X0003549Y0224606D02*
X0102103Y0224606D01*
X0101052Y0226205D02*
X0003525Y0226205D01*
X0003501Y0227803D02*
X0099798Y0227803D01*
X0098534Y0229402D02*
X0003478Y0229402D01*
X0003454Y0231001D02*
X0096983Y0231001D01*
X0095238Y0232599D02*
X0003430Y0232599D01*
X0003406Y0234198D02*
X0093493Y0234198D01*
X0091748Y0235796D02*
X0003382Y0235796D01*
X0003358Y0237395D02*
X0090003Y0237395D01*
X0088258Y0238993D02*
X0003334Y0238993D01*
X0003311Y0240592D02*
X0086513Y0240592D01*
X0084768Y0242190D02*
X0003287Y0242190D01*
X0003263Y0243789D02*
X0083023Y0243789D01*
X0081278Y0245387D02*
X0003239Y0245387D01*
X0003215Y0246986D02*
X0079533Y0246986D01*
X0077788Y0248584D02*
X0003191Y0248584D01*
X0003167Y0250183D02*
X0076043Y0250183D01*
X0074298Y0251781D02*
X0003144Y0251781D01*
X0003120Y0253380D02*
X0072552Y0253380D01*
X0070807Y0254978D02*
X0003096Y0254978D01*
X0003072Y0256577D02*
X0069062Y0256577D01*
X0067317Y0258175D02*
X0003048Y0258175D01*
X0003024Y0259774D02*
X0065572Y0259774D01*
X0063827Y0261372D02*
X0003000Y0261372D01*
X0002977Y0262971D02*
X0062082Y0262971D01*
X0060337Y0264569D02*
X0002953Y0264569D01*
X0002929Y0266168D02*
X0058592Y0266168D01*
X0056847Y0267766D02*
X0002905Y0267766D01*
X0002881Y0269365D02*
X0055102Y0269365D01*
X0053357Y0270963D02*
X0002857Y0270963D01*
X0002833Y0272562D02*
X0051612Y0272562D01*
X0049867Y0274160D02*
X0002810Y0274160D01*
X0002786Y0275759D02*
X0048122Y0275759D01*
X0046377Y0277357D02*
X0002762Y0277357D01*
X0002738Y0278956D02*
X0044632Y0278956D01*
X0042887Y0280554D02*
X0002714Y0280554D01*
X0002690Y0282153D02*
X0041142Y0282153D01*
X0039397Y0283751D02*
X0002666Y0283751D01*
X0002643Y0285350D02*
X0037652Y0285350D01*
X0035907Y0286948D02*
X0002619Y0286948D01*
X0002595Y0288547D02*
X0034162Y0288547D01*
X0032417Y0290145D02*
X0002571Y0290145D01*
X0002547Y0291744D02*
X0030672Y0291744D01*
X0028927Y0293342D02*
X0002523Y0293342D01*
X0002499Y0294941D02*
X0027182Y0294941D01*
X0025437Y0296539D02*
X0002476Y0296539D01*
X0002452Y0298138D02*
X0023674Y0298138D01*
X0022075Y0299737D02*
X0002428Y0299737D01*
X0002404Y0301335D02*
X0020796Y0301335D01*
X0021336Y0300476D02*
X0021336Y0300476D01*
X0019792Y0302934D02*
X0002380Y0302934D01*
X0002356Y0304532D02*
X0018787Y0304532D01*
X0018220Y0305434D02*
X0018220Y0305434D01*
X0017977Y0306131D02*
X0002332Y0306131D01*
X0002309Y0307729D02*
X0017417Y0307729D01*
X0016858Y0309328D02*
X0002285Y0309328D01*
X0002261Y0310926D02*
X0016299Y0310926D01*
X0016286Y0310961D02*
X0016286Y0310961D01*
X0016110Y0312525D02*
X0002237Y0312525D01*
X0002213Y0314123D02*
X0015930Y0314123D01*
X0015750Y0315722D02*
X0002189Y0315722D01*
X0002165Y0317320D02*
X0015691Y0317320D01*
X0015631Y0316780D02*
X0015631Y0316780D01*
X0015871Y0318919D02*
X0002142Y0318919D01*
X0002118Y0320517D02*
X0016052Y0320517D01*
X0016232Y0322116D02*
X0002094Y0322116D01*
X0002070Y0323714D02*
X0016676Y0323714D01*
X0016286Y0322599D02*
X0016286Y0322599D01*
X0017236Y0325313D02*
X0002046Y0325313D01*
X0002022Y0326911D02*
X0017795Y0326911D01*
X0018220Y0328126D02*
X0018220Y0328126D01*
X0018461Y0328510D02*
X0001998Y0328510D01*
X0001975Y0330108D02*
X0019466Y0330108D01*
X0020470Y0331707D02*
X0001951Y0331707D01*
X0001927Y0333305D02*
X0021556Y0333305D01*
X0021336Y0333084D02*
X0021336Y0333084D01*
X0023155Y0334904D02*
X0001903Y0334904D01*
X0001879Y0336502D02*
X0024753Y0336502D01*
X0025481Y0337229D02*
X0025481Y0337229D01*
X0026867Y0338101D02*
X0001855Y0338101D01*
X0001831Y0339699D02*
X0029411Y0339699D01*
X0030449Y0340352D02*
X0030449Y0340352D01*
X0033154Y0341298D02*
X0001808Y0341298D01*
X0035612Y0300237D02*
X0039483Y0299200D01*
X0044117Y0299200D01*
X0048593Y0300399D01*
X0052607Y0302716D01*
X0055883Y0305993D01*
X0058201Y0310007D01*
X0059400Y0314483D01*
X0059400Y0319117D01*
X0058364Y0322984D01*
X0101920Y0275381D01*
X0101088Y0275381D01*
X0100168Y0275000D01*
X0097544Y0275000D01*
X0096368Y0274513D01*
X0095468Y0273613D01*
X0094990Y0273135D01*
X0092448Y0275678D01*
X0092448Y0276488D01*
X0087613Y0281323D01*
X0086287Y0281323D01*
X0083678Y0278714D01*
X0083678Y0279968D01*
X0081938Y0281709D01*
X0081938Y0287141D01*
X0081451Y0288317D01*
X0080550Y0289217D01*
X0079287Y0290480D01*
X0079287Y0292309D01*
X0078480Y0294257D01*
X0071757Y0300980D01*
X0069809Y0301787D01*
X0067701Y0301787D01*
X0065753Y0300980D01*
X0064262Y0299490D01*
X0063455Y0297542D01*
X0063455Y0295433D01*
X0063962Y0294209D01*
X0062738Y0294716D01*
X0060629Y0294716D01*
X0058681Y0293909D01*
X0057191Y0292418D01*
X0056384Y0290471D01*
X0056384Y0288362D01*
X0057191Y0286414D01*
X0061100Y0282505D01*
X0061100Y0281163D01*
X0061587Y0279987D01*
X0094087Y0247487D01*
X0094987Y0246587D01*
X0094987Y0246587D01*
X0103797Y0237778D01*
X0035612Y0300237D01*
X0036159Y0299737D02*
X0037481Y0299737D01*
X0037904Y0298138D02*
X0063702Y0298138D01*
X0063455Y0296539D02*
X0039649Y0296539D01*
X0041394Y0294941D02*
X0063659Y0294941D01*
X0064509Y0299737D02*
X0046119Y0299737D01*
X0050214Y0301335D02*
X0066609Y0301335D01*
X0070901Y0301335D02*
X0078172Y0301335D01*
X0076710Y0302934D02*
X0052824Y0302934D01*
X0054422Y0304532D02*
X0075247Y0304532D01*
X0073784Y0306131D02*
X0055963Y0306131D01*
X0056886Y0307729D02*
X0072322Y0307729D01*
X0070859Y0309328D02*
X0057809Y0309328D01*
X0058447Y0310926D02*
X0069397Y0310926D01*
X0067934Y0312525D02*
X0058875Y0312525D01*
X0059304Y0314123D02*
X0066471Y0314123D01*
X0065009Y0315722D02*
X0059400Y0315722D01*
X0059400Y0317320D02*
X0063546Y0317320D01*
X0062083Y0318919D02*
X0059400Y0318919D01*
X0059025Y0320517D02*
X0060621Y0320517D01*
X0059158Y0322116D02*
X0058597Y0322116D01*
X0066320Y0328510D02*
X0302280Y0328510D01*
X0303743Y0330108D02*
X0064857Y0330108D01*
X0063395Y0331707D02*
X0305207Y0331707D01*
X0306670Y0333305D02*
X0061932Y0333305D01*
X0060951Y0334378D02*
X0060909Y0334480D01*
X0060309Y0335080D01*
X0059736Y0335705D01*
X0059636Y0335752D01*
X0058159Y0337229D01*
X0058159Y0337229D01*
X0053190Y0340352D01*
X0049051Y0341800D01*
X0319535Y0341800D01*
X0315446Y0340375D01*
X0315446Y0340375D01*
X0310483Y0337266D01*
X0309007Y0335793D01*
X0308904Y0335746D01*
X0308333Y0335122D01*
X0307734Y0334524D01*
X0307691Y0334420D01*
X0240047Y0260537D01*
X0236277Y0257556D01*
X0227817Y0251992D01*
X0218768Y0247447D01*
X0209253Y0243984D01*
X0199400Y0241649D01*
X0189343Y0240473D01*
X0179217Y0240473D01*
X0169160Y0241649D01*
X0159307Y0243984D01*
X0149792Y0247447D01*
X0140744Y0251992D01*
X0132284Y0257556D01*
X0128514Y0260537D01*
X0060951Y0334378D01*
X0060484Y0334904D02*
X0308115Y0334904D01*
X0309717Y0336502D02*
X0058886Y0336502D01*
X0056772Y0338101D02*
X0311816Y0338101D01*
X0310483Y0337266D02*
X0310483Y0337266D01*
X0314367Y0339699D02*
X0054228Y0339699D01*
X0053190Y0340352D02*
X0053190Y0340352D01*
X0050486Y0341298D02*
X0318094Y0341298D01*
X0333997Y0341800D02*
X0351800Y0341800D01*
X0352078Y0323169D01*
X0350346Y0328119D01*
X0347227Y0333082D01*
X0345155Y0335155D01*
X0345155Y0335155D01*
X0345155Y0335155D01*
X0343092Y0337223D01*
X0343092Y0337223D01*
X0338138Y0340345D01*
X0333997Y0341800D01*
X0335427Y0341298D02*
X0351807Y0341298D01*
X0351831Y0339699D02*
X0339163Y0339699D01*
X0341699Y0338101D02*
X0351855Y0338101D01*
X0351879Y0336502D02*
X0343811Y0336502D01*
X0345406Y0334904D02*
X0351903Y0334904D01*
X0351927Y0333305D02*
X0347004Y0333305D01*
X0347227Y0333082D02*
X0347227Y0333082D01*
X0348092Y0331707D02*
X0351951Y0331707D01*
X0351974Y0330108D02*
X0349096Y0330108D01*
X0350100Y0328510D02*
X0351998Y0328510D01*
X0352022Y0326911D02*
X0350769Y0326911D01*
X0350346Y0328119D02*
X0350346Y0328119D01*
X0351328Y0325313D02*
X0352046Y0325313D01*
X0352070Y0323714D02*
X0351887Y0323714D01*
X0352262Y0310877D02*
X0356800Y0006800D01*
X0334068Y0006800D01*
X0338126Y0008220D01*
X0338126Y0008220D01*
X0343084Y0011336D01*
X0345155Y0013406D01*
X0345157Y0013408D01*
X0347226Y0015471D01*
X0350351Y0020431D01*
X0352294Y0025961D01*
X0352958Y0031785D01*
X0352958Y0031785D01*
X0352309Y0037611D01*
X0350381Y0043147D01*
X0347268Y0048114D01*
X0345793Y0049594D01*
X0345745Y0049697D01*
X0345121Y0050267D01*
X0344524Y0050866D01*
X0344420Y0050909D01*
X0270537Y0118514D01*
X0267556Y0122284D01*
X0261992Y0130744D01*
X0257447Y0139792D01*
X0253984Y0149307D01*
X0251649Y0159160D01*
X0250473Y0169217D01*
X0250473Y0179343D01*
X0251649Y0189400D01*
X0253984Y0199253D01*
X0257447Y0208768D01*
X0261992Y0217817D01*
X0267556Y0226277D01*
X0270537Y0230047D01*
X0344378Y0297649D01*
X0344480Y0297691D01*
X0345080Y0298292D01*
X0345706Y0298865D01*
X0345752Y0298964D01*
X0347227Y0300439D01*
X0350346Y0305402D01*
X0350346Y0305403D01*
X0352262Y0310877D01*
X0352285Y0309328D02*
X0351719Y0309328D01*
X0351160Y0307729D02*
X0352309Y0307729D01*
X0352332Y0306131D02*
X0350601Y0306131D01*
X0349799Y0304532D02*
X0352356Y0304532D01*
X0352380Y0302934D02*
X0348795Y0302934D01*
X0347790Y0301335D02*
X0352404Y0301335D01*
X0352428Y0299737D02*
X0346525Y0299737D01*
X0347227Y0300439D02*
X0347227Y0300439D01*
X0344926Y0298138D02*
X0352452Y0298138D01*
X0352476Y0296539D02*
X0343166Y0296539D01*
X0341420Y0294941D02*
X0352499Y0294941D01*
X0352523Y0293342D02*
X0339674Y0293342D01*
X0337928Y0291744D02*
X0352547Y0291744D01*
X0352571Y0290145D02*
X0336182Y0290145D01*
X0334436Y0288547D02*
X0352595Y0288547D01*
X0352619Y0286948D02*
X0332690Y0286948D01*
X0330944Y0285350D02*
X0352643Y0285350D01*
X0352666Y0283751D02*
X0329198Y0283751D01*
X0327452Y0282153D02*
X0352690Y0282153D01*
X0352714Y0280554D02*
X0325706Y0280554D01*
X0323960Y0278956D02*
X0352738Y0278956D01*
X0352762Y0277357D02*
X0322214Y0277357D01*
X0320467Y0275759D02*
X0352786Y0275759D01*
X0352810Y0274160D02*
X0318721Y0274160D01*
X0316975Y0272562D02*
X0352833Y0272562D01*
X0352857Y0270963D02*
X0315229Y0270963D01*
X0313483Y0269365D02*
X0352881Y0269365D01*
X0352905Y0267766D02*
X0311737Y0267766D01*
X0309991Y0266168D02*
X0352929Y0266168D01*
X0352953Y0264569D02*
X0308245Y0264569D01*
X0306499Y0262971D02*
X0352977Y0262971D01*
X0353000Y0261372D02*
X0304753Y0261372D01*
X0303007Y0259774D02*
X0353024Y0259774D01*
X0353048Y0258175D02*
X0301261Y0258175D01*
X0299515Y0256577D02*
X0353072Y0256577D01*
X0353096Y0254978D02*
X0297769Y0254978D01*
X0296023Y0253380D02*
X0353120Y0253380D01*
X0353144Y0251781D02*
X0294277Y0251781D01*
X0292531Y0250183D02*
X0353167Y0250183D01*
X0353191Y0248584D02*
X0290785Y0248584D01*
X0289039Y0246986D02*
X0353215Y0246986D01*
X0353239Y0245387D02*
X0287293Y0245387D01*
X0285547Y0243789D02*
X0353263Y0243789D01*
X0353287Y0242190D02*
X0283801Y0242190D01*
X0282055Y0240592D02*
X0353311Y0240592D01*
X0353334Y0238993D02*
X0280309Y0238993D01*
X0278563Y0237395D02*
X0353358Y0237395D01*
X0353382Y0235796D02*
X0276817Y0235796D01*
X0275070Y0234198D02*
X0353406Y0234198D01*
X0353430Y0232599D02*
X0273324Y0232599D01*
X0271578Y0231001D02*
X0353454Y0231001D01*
X0353478Y0229402D02*
X0270027Y0229402D01*
X0268763Y0227803D02*
X0353501Y0227803D01*
X0353525Y0226205D02*
X0267509Y0226205D01*
X0266457Y0224606D02*
X0353549Y0224606D01*
X0353573Y0223008D02*
X0265406Y0223008D01*
X0264355Y0221409D02*
X0353597Y0221409D01*
X0353621Y0219811D02*
X0263303Y0219811D01*
X0262252Y0218212D02*
X0353645Y0218212D01*
X0353668Y0216614D02*
X0261388Y0216614D01*
X0260585Y0215015D02*
X0353692Y0215015D01*
X0353716Y0213417D02*
X0259782Y0213417D01*
X0258979Y0211818D02*
X0353740Y0211818D01*
X0353764Y0210220D02*
X0258176Y0210220D01*
X0257394Y0208621D02*
X0353788Y0208621D01*
X0353812Y0207023D02*
X0256812Y0207023D01*
X0256230Y0205424D02*
X0353835Y0205424D01*
X0353859Y0203826D02*
X0255648Y0203826D01*
X0255067Y0202227D02*
X0353883Y0202227D01*
X0353907Y0200629D02*
X0254485Y0200629D01*
X0253931Y0199030D02*
X0353931Y0199030D01*
X0353955Y0197432D02*
X0253552Y0197432D01*
X0253174Y0195833D02*
X0353979Y0195833D01*
X0354002Y0194235D02*
X0252795Y0194235D01*
X0252416Y0192636D02*
X0354026Y0192636D01*
X0354050Y0191038D02*
X0252037Y0191038D01*
X0251658Y0189439D02*
X0354074Y0189439D01*
X0354098Y0187841D02*
X0251467Y0187841D01*
X0251280Y0186242D02*
X0354122Y0186242D01*
X0354146Y0184644D02*
X0251093Y0184644D01*
X0250906Y0183045D02*
X0354169Y0183045D01*
X0354193Y0181447D02*
X0250719Y0181447D01*
X0250532Y0179848D02*
X0354217Y0179848D01*
X0354241Y0178250D02*
X0250473Y0178250D01*
X0250473Y0176651D02*
X0354265Y0176651D01*
X0354289Y0175053D02*
X0250473Y0175053D01*
X0250473Y0173454D02*
X0354313Y0173454D01*
X0354336Y0171856D02*
X0250473Y0171856D01*
X0250473Y0170257D02*
X0354360Y0170257D01*
X0354384Y0168659D02*
X0250539Y0168659D01*
X0250726Y0167060D02*
X0354408Y0167060D01*
X0354432Y0165462D02*
X0250912Y0165462D01*
X0251099Y0163863D02*
X0354456Y0163863D01*
X0354480Y0162265D02*
X0251286Y0162265D01*
X0251473Y0160666D02*
X0354503Y0160666D01*
X0354527Y0159068D02*
X0251671Y0159068D01*
X0252050Y0157469D02*
X0354551Y0157469D01*
X0354575Y0155870D02*
X0252429Y0155870D01*
X0252808Y0154272D02*
X0354599Y0154272D01*
X0354623Y0152673D02*
X0253186Y0152673D01*
X0253565Y0151075D02*
X0354647Y0151075D01*
X0354670Y0149476D02*
X0253944Y0149476D01*
X0254504Y0147878D02*
X0354694Y0147878D01*
X0354718Y0146279D02*
X0255086Y0146279D01*
X0255668Y0144681D02*
X0354742Y0144681D01*
X0354766Y0143082D02*
X0256250Y0143082D01*
X0256832Y0141484D02*
X0354790Y0141484D01*
X0354814Y0139885D02*
X0257413Y0139885D01*
X0258203Y0138287D02*
X0354837Y0138287D01*
X0354861Y0136688D02*
X0259006Y0136688D01*
X0259809Y0135090D02*
X0354885Y0135090D01*
X0354909Y0133491D02*
X0260612Y0133491D01*
X0261415Y0131893D02*
X0354933Y0131893D01*
X0354957Y0130294D02*
X0262287Y0130294D01*
X0263339Y0128696D02*
X0354981Y0128696D01*
X0355005Y0127097D02*
X0264390Y0127097D01*
X0265441Y0125499D02*
X0355028Y0125499D01*
X0355052Y0123900D02*
X0266493Y0123900D01*
X0267544Y0122302D02*
X0355076Y0122302D01*
X0355100Y0120703D02*
X0268806Y0120703D01*
X0270070Y0119105D02*
X0355124Y0119105D01*
X0355148Y0117506D02*
X0271638Y0117506D01*
X0273385Y0115908D02*
X0355172Y0115908D01*
X0355195Y0114309D02*
X0275132Y0114309D01*
X0276879Y0112711D02*
X0355219Y0112711D01*
X0355243Y0111112D02*
X0278626Y0111112D01*
X0280373Y0109514D02*
X0355267Y0109514D01*
X0355291Y0107915D02*
X0282120Y0107915D01*
X0283867Y0106317D02*
X0355315Y0106317D01*
X0355339Y0104718D02*
X0285614Y0104718D01*
X0287361Y0103120D02*
X0355362Y0103120D01*
X0355386Y0101521D02*
X0289108Y0101521D01*
X0290855Y0099923D02*
X0355410Y0099923D01*
X0355434Y0098324D02*
X0292602Y0098324D01*
X0294348Y0096726D02*
X0355458Y0096726D01*
X0355482Y0095127D02*
X0296095Y0095127D01*
X0297842Y0093529D02*
X0355506Y0093529D01*
X0355529Y0091930D02*
X0299589Y0091930D01*
X0301336Y0090332D02*
X0355553Y0090332D01*
X0355577Y0088733D02*
X0303083Y0088733D01*
X0304830Y0087134D02*
X0355601Y0087134D01*
X0355625Y0085536D02*
X0306577Y0085536D01*
X0308324Y0083937D02*
X0355649Y0083937D01*
X0355673Y0082339D02*
X0310071Y0082339D01*
X0311818Y0080740D02*
X0355696Y0080740D01*
X0355720Y0079142D02*
X0313565Y0079142D01*
X0315312Y0077543D02*
X0355744Y0077543D01*
X0355768Y0075945D02*
X0317059Y0075945D01*
X0318806Y0074346D02*
X0355792Y0074346D01*
X0355816Y0072748D02*
X0320553Y0072748D01*
X0322300Y0071149D02*
X0355840Y0071149D01*
X0355863Y0069551D02*
X0324047Y0069551D01*
X0325794Y0067952D02*
X0355887Y0067952D01*
X0355911Y0066354D02*
X0327541Y0066354D01*
X0329288Y0064755D02*
X0355935Y0064755D01*
X0355959Y0063157D02*
X0331035Y0063157D01*
X0332782Y0061558D02*
X0355983Y0061558D01*
X0356007Y0059960D02*
X0334528Y0059960D01*
X0336275Y0058361D02*
X0356030Y0058361D01*
X0356054Y0056763D02*
X0338022Y0056763D01*
X0339769Y0055164D02*
X0356078Y0055164D01*
X0356102Y0053566D02*
X0341516Y0053566D01*
X0343263Y0051967D02*
X0356126Y0051967D01*
X0356150Y0050369D02*
X0345020Y0050369D01*
X0346614Y0048770D02*
X0356174Y0048770D01*
X0356197Y0047172D02*
X0347859Y0047172D01*
X0347268Y0048114D02*
X0347268Y0048114D01*
X0348860Y0045573D02*
X0356221Y0045573D01*
X0356245Y0043975D02*
X0349862Y0043975D01*
X0350381Y0043147D02*
X0350381Y0043147D01*
X0350649Y0042376D02*
X0356269Y0042376D01*
X0356293Y0040778D02*
X0351206Y0040778D01*
X0351763Y0039179D02*
X0356317Y0039179D01*
X0356341Y0037581D02*
X0352313Y0037581D01*
X0352309Y0037611D02*
X0352309Y0037611D01*
X0352491Y0035982D02*
X0356364Y0035982D01*
X0356388Y0034384D02*
X0352669Y0034384D01*
X0352847Y0032785D02*
X0356412Y0032785D01*
X0356436Y0031187D02*
X0352890Y0031187D01*
X0352708Y0029588D02*
X0356460Y0029588D01*
X0356484Y0027990D02*
X0352525Y0027990D01*
X0352343Y0026391D02*
X0356508Y0026391D01*
X0356531Y0024793D02*
X0351884Y0024793D01*
X0351322Y0023194D02*
X0356555Y0023194D01*
X0356579Y0021596D02*
X0350760Y0021596D01*
X0350078Y0019997D02*
X0356603Y0019997D01*
X0356627Y0018399D02*
X0349070Y0018399D01*
X0348063Y0016800D02*
X0356651Y0016800D01*
X0356675Y0015201D02*
X0346955Y0015201D01*
X0347226Y0015471D02*
X0347226Y0015471D01*
X0345352Y0013603D02*
X0356698Y0013603D01*
X0356722Y0012004D02*
X0343753Y0012004D01*
X0343084Y0011336D02*
X0343084Y0011336D01*
X0341605Y0010406D02*
X0356746Y0010406D01*
X0356770Y0008807D02*
X0339061Y0008807D01*
X0335236Y0007209D02*
X0356794Y0007209D01*
X0319493Y0006800D02*
X0049115Y0006800D01*
X0053158Y0008215D01*
X0058122Y0011333D01*
X0059611Y0012823D01*
X0059728Y0012879D01*
X0060283Y0013495D01*
X0060869Y0014081D01*
X0060919Y0014201D01*
X0128529Y0089296D01*
X0132284Y0092264D01*
X0140744Y0097829D01*
X0149792Y0102373D01*
X0159307Y0105836D01*
X0169160Y0108171D01*
X0179217Y0109347D01*
X0189343Y0109347D01*
X0199400Y0108171D01*
X0209253Y0105836D01*
X0218768Y0102373D01*
X0227817Y0097829D01*
X0236277Y0092264D01*
X0240032Y0089295D01*
X0307681Y0014201D01*
X0307731Y0014081D01*
X0308317Y0013494D01*
X0308873Y0012878D01*
X0308990Y0012822D01*
X0310476Y0011336D01*
X0315434Y0008220D01*
X0315434Y0008220D01*
X0319493Y0006800D01*
X0318324Y0007209D02*
X0050284Y0007209D01*
X0053158Y0008215D02*
X0053158Y0008215D01*
X0054102Y0008807D02*
X0314500Y0008807D01*
X0311956Y0010406D02*
X0056646Y0010406D01*
X0058122Y0011333D02*
X0058122Y0011333D01*
X0058793Y0012004D02*
X0309807Y0012004D01*
X0310476Y0011336D02*
X0310476Y0011336D01*
X0308209Y0013603D02*
X0060391Y0013603D01*
X0061820Y0015201D02*
X0306780Y0015201D01*
X0305340Y0016800D02*
X0063259Y0016800D01*
X0064698Y0018399D02*
X0303900Y0018399D01*
X0302459Y0019997D02*
X0066137Y0019997D01*
X0067576Y0021596D02*
X0301019Y0021596D01*
X0299579Y0023194D02*
X0069016Y0023194D01*
X0070455Y0024793D02*
X0298139Y0024793D01*
X0296699Y0026391D02*
X0071894Y0026391D01*
X0073333Y0027990D02*
X0295259Y0027990D01*
X0293819Y0029588D02*
X0074772Y0029588D01*
X0076211Y0031187D02*
X0292379Y0031187D01*
X0290939Y0032785D02*
X0077651Y0032785D01*
X0079090Y0034384D02*
X0289499Y0034384D01*
X0288059Y0035982D02*
X0080529Y0035982D01*
X0081968Y0037581D02*
X0286619Y0037581D01*
X0285179Y0039179D02*
X0083407Y0039179D01*
X0084847Y0040778D02*
X0283739Y0040778D01*
X0282299Y0042376D02*
X0086286Y0042376D01*
X0087725Y0043975D02*
X0280859Y0043975D01*
X0279419Y0045573D02*
X0089164Y0045573D01*
X0090603Y0047172D02*
X0277979Y0047172D01*
X0276539Y0048770D02*
X0092043Y0048770D01*
X0093482Y0050369D02*
X0275099Y0050369D01*
X0273659Y0051967D02*
X0094921Y0051967D01*
X0096360Y0053566D02*
X0272219Y0053566D01*
X0270779Y0055164D02*
X0097799Y0055164D01*
X0099239Y0056763D02*
X0269339Y0056763D01*
X0267899Y0058361D02*
X0100678Y0058361D01*
X0102117Y0059960D02*
X0266459Y0059960D01*
X0265019Y0061558D02*
X0103556Y0061558D01*
X0104995Y0063157D02*
X0263579Y0063157D01*
X0262139Y0064755D02*
X0106434Y0064755D01*
X0107874Y0066354D02*
X0260699Y0066354D01*
X0259259Y0067952D02*
X0109313Y0067952D01*
X0110752Y0069551D02*
X0257819Y0069551D01*
X0256379Y0071149D02*
X0112191Y0071149D01*
X0113630Y0072748D02*
X0254939Y0072748D01*
X0253499Y0074346D02*
X0115070Y0074346D01*
X0116509Y0075945D02*
X0252059Y0075945D01*
X0250619Y0077543D02*
X0117948Y0077543D01*
X0119387Y0079142D02*
X0249179Y0079142D01*
X0247739Y0080740D02*
X0120826Y0080740D01*
X0122266Y0082339D02*
X0246299Y0082339D01*
X0244859Y0083937D02*
X0123705Y0083937D01*
X0125144Y0085536D02*
X0243419Y0085536D01*
X0241979Y0087134D02*
X0126583Y0087134D01*
X0128022Y0088733D02*
X0240539Y0088733D01*
X0238722Y0090332D02*
X0129839Y0090332D01*
X0131861Y0091930D02*
X0236700Y0091930D01*
X0234355Y0093529D02*
X0134206Y0093529D01*
X0136636Y0095127D02*
X0231925Y0095127D01*
X0229494Y0096726D02*
X0139066Y0096726D01*
X0141730Y0098324D02*
X0226831Y0098324D01*
X0223648Y0099923D02*
X0144913Y0099923D01*
X0148096Y0101521D02*
X0220465Y0101521D01*
X0216717Y0103120D02*
X0151843Y0103120D01*
X0156235Y0104718D02*
X0212325Y0104718D01*
X0207227Y0106317D02*
X0161334Y0106317D01*
X0168079Y0107915D02*
X0200482Y0107915D01*
X0209025Y0115908D02*
X0243167Y0115908D01*
X0241568Y0117506D02*
X0202280Y0117506D01*
X0201096Y0117787D02*
X0201096Y0117787D01*
X0212054Y0115190D01*
X0212054Y0115190D01*
X0222636Y0111338D01*
X0222636Y0111338D01*
X0232699Y0106284D01*
X0232699Y0106284D01*
X0242108Y0100096D01*
X0242108Y0100096D01*
X0245953Y0096870D01*
X0246263Y0096722D01*
X0246677Y0096262D01*
X0247152Y0095863D01*
X0247311Y0095559D01*
X0248600Y0094127D01*
X0248600Y0110475D01*
X0237975Y0121100D01*
X0144995Y0121100D01*
X0146293Y0119802D01*
X0147100Y0117854D01*
X0147100Y0115746D01*
X0146293Y0113798D01*
X0144802Y0112307D01*
X0142854Y0111500D01*
X0140746Y0111500D01*
X0138798Y0112307D01*
X0137307Y0113798D01*
X0136800Y0115022D01*
X0136293Y0113798D01*
X0134802Y0112307D01*
X0132854Y0111500D01*
X0130746Y0111500D01*
X0128798Y0112307D01*
X0127505Y0113600D01*
X0115625Y0113600D01*
X0096728Y0094702D01*
X0097386Y0094044D01*
X0097922Y0093822D01*
X0101110Y0090635D01*
X0103600Y0093125D01*
X0103600Y0095168D01*
X0103219Y0096088D01*
X0103219Y0097512D01*
X0103764Y0098829D01*
X0104771Y0099836D01*
X0106088Y0100381D01*
X0107512Y0100381D01*
X0108829Y0099836D01*
X0109836Y0098829D01*
X0110381Y0097512D01*
X0110381Y0096088D01*
X0110000Y0095168D01*
X0110000Y0091163D01*
X0109513Y0089987D01*
X0108613Y0089087D01*
X0104937Y0085411D01*
X0104937Y0085168D01*
X0102051Y0082282D01*
X0101318Y0082282D01*
X0101318Y0081549D01*
X0098432Y0078663D01*
X0098189Y0078663D01*
X0092448Y0072922D01*
X0092448Y0072112D01*
X0087613Y0067277D01*
X0086287Y0067277D01*
X0083678Y0069886D01*
X0083678Y0068632D01*
X0081938Y0066891D01*
X0081938Y0061459D01*
X0081451Y0060283D01*
X0080550Y0059383D01*
X0079287Y0058120D01*
X0079287Y0056291D01*
X0078480Y0054343D01*
X0071757Y0047620D01*
X0069809Y0046813D01*
X0067701Y0046813D01*
X0065753Y0047620D01*
X0064262Y0049110D01*
X0063455Y0051058D01*
X0063455Y0053167D01*
X0063962Y0054391D01*
X0062738Y0053884D01*
X0060629Y0053884D01*
X0058681Y0054691D01*
X0057191Y0056181D01*
X0056384Y0058129D01*
X0056384Y0060238D01*
X0057191Y0062186D01*
X0063914Y0068909D01*
X0065862Y0069716D01*
X0067971Y0069716D01*
X0069918Y0068909D01*
X0071409Y0067418D01*
X0072216Y0065471D01*
X0072216Y0063362D01*
X0071709Y0062138D01*
X0072933Y0062645D01*
X0074762Y0062645D01*
X0075538Y0063421D01*
X0075538Y0065778D01*
X0073797Y0067518D01*
X0073797Y0068844D01*
X0078632Y0073678D01*
X0079886Y0073678D01*
X0077277Y0076287D01*
X0077277Y0077613D01*
X0082112Y0082448D01*
X0082922Y0082448D01*
X0087275Y0086800D01*
X0086587Y0087487D01*
X0086100Y0088663D01*
X0086100Y0092437D01*
X0086587Y0093613D01*
X0103337Y0110362D01*
X0035617Y0048364D01*
X0039483Y0049400D01*
X0044117Y0049400D01*
X0048593Y0048201D01*
X0052607Y0045883D01*
X0055883Y0042607D01*
X0058201Y0038593D01*
X0059400Y0034117D01*
X0059400Y0029483D01*
X0058400Y0025751D01*
X0121249Y0095558D01*
X0121408Y0095863D01*
X0121883Y0096261D01*
X0122297Y0096721D01*
X0122608Y0096869D01*
X0126453Y0100096D01*
X0126453Y0100096D01*
X0135862Y0106284D01*
X0135862Y0106284D01*
X0145925Y0111338D01*
X0145925Y0111338D01*
X0156507Y0115190D01*
X0156507Y0115190D01*
X0167465Y0117787D01*
X0167465Y0117787D01*
X0178650Y0119094D01*
X0189911Y0119094D01*
X0201096Y0117787D01*
X0195769Y0127500D02*
X0192190Y0127500D01*
X0192190Y0129079D01*
X0193663Y0130552D01*
X0193663Y0129606D01*
X0195769Y0127500D01*
X0194574Y0128696D02*
X0192190Y0128696D01*
X0193406Y0130294D02*
X0193663Y0130294D01*
X0191660Y0134771D02*
X0191500Y0134930D01*
X0191500Y0138245D01*
X0191765Y0137606D01*
X0192606Y0136765D01*
X0193347Y0136458D01*
X0192100Y0135211D01*
X0191660Y0134771D01*
X0191500Y0135090D02*
X0191979Y0135090D01*
X0191500Y0136688D02*
X0192790Y0136688D01*
X0195355Y0136500D02*
X0195994Y0136765D01*
X0196835Y0137606D01*
X0197291Y0138705D01*
X0197291Y0139179D01*
X0199440Y0141329D01*
X0199606Y0141163D01*
X0200932Y0141163D01*
X0203818Y0144049D01*
X0203818Y0144782D01*
X0204325Y0144782D01*
X0204600Y0144508D01*
X0204600Y0140211D01*
X0201660Y0137271D01*
X0201494Y0137437D01*
X0200168Y0137437D01*
X0199232Y0136500D01*
X0195355Y0136500D01*
X0195810Y0136688D02*
X0199420Y0136688D01*
X0197117Y0138287D02*
X0202676Y0138287D01*
X0204274Y0139885D02*
X0197997Y0139885D01*
X0201252Y0141484D02*
X0204600Y0141484D01*
X0204600Y0143082D02*
X0202851Y0143082D01*
X0203818Y0144681D02*
X0204427Y0144681D01*
X0207100Y0149330D02*
X0204330Y0152100D01*
X0205889Y0152100D01*
X0207100Y0150889D01*
X0207100Y0149330D01*
X0207100Y0149476D02*
X0206954Y0149476D01*
X0206914Y0151075D02*
X0205356Y0151075D01*
X0203052Y0152437D02*
X0199179Y0156309D01*
X0199021Y0156309D01*
X0202894Y0152437D01*
X0203052Y0152437D01*
X0202815Y0152673D02*
X0202657Y0152673D01*
X0201217Y0154272D02*
X0201058Y0154272D01*
X0199618Y0155870D02*
X0199460Y0155870D01*
X0196309Y0159021D02*
X0193966Y0161365D01*
X0193966Y0164595D01*
X0194002Y0164595D01*
X0194102Y0164495D01*
X0202606Y0164495D01*
X0206921Y0168809D01*
X0207395Y0168809D01*
X0208494Y0169265D01*
X0209335Y0170106D01*
X0209791Y0171205D01*
X0209791Y0172395D01*
X0209335Y0173494D01*
X0208494Y0174335D01*
X0207981Y0174548D01*
X0210941Y0174548D01*
X0214600Y0170889D01*
X0214600Y0145889D01*
X0229600Y0130889D01*
X0229600Y0127500D01*
X0208111Y0127500D01*
X0209000Y0128389D01*
X0211500Y0130889D01*
X0211500Y0152711D01*
X0210211Y0154000D01*
X0209000Y0155211D01*
X0207711Y0156500D01*
X0205211Y0156500D01*
X0202291Y0159421D01*
X0202291Y0159895D01*
X0201835Y0160994D01*
X0200994Y0161835D01*
X0199895Y0162291D01*
X0198705Y0162291D01*
X0197606Y0161835D01*
X0196765Y0160994D01*
X0196309Y0159895D01*
X0196309Y0159021D01*
X0196309Y0159068D02*
X0196263Y0159068D01*
X0196629Y0160666D02*
X0194664Y0160666D01*
X0193966Y0162265D02*
X0198642Y0162265D01*
X0199958Y0162265D02*
X0214600Y0162265D01*
X0214600Y0163863D02*
X0193966Y0163863D01*
X0198613Y0168895D02*
X0200784Y0168895D01*
X0203809Y0171921D01*
X0203809Y0172395D01*
X0204265Y0173494D01*
X0205106Y0174335D01*
X0205619Y0174548D01*
X0198613Y0174548D01*
X0198613Y0173881D01*
X0198495Y0173763D01*
X0198613Y0173644D01*
X0198613Y0171905D01*
X0198430Y0171721D01*
X0198613Y0171538D01*
X0198613Y0169798D01*
X0198490Y0169675D01*
X0198613Y0169551D01*
X0198613Y0168895D01*
X0198613Y0170257D02*
X0202146Y0170257D01*
X0203744Y0171856D02*
X0198564Y0171856D01*
X0198613Y0173454D02*
X0204248Y0173454D01*
X0209352Y0173454D02*
X0212035Y0173454D01*
X0213633Y0171856D02*
X0209791Y0171856D01*
X0209398Y0170257D02*
X0214600Y0170257D01*
X0214600Y0168659D02*
X0206770Y0168659D01*
X0205171Y0167060D02*
X0214600Y0167060D01*
X0214600Y0165462D02*
X0203573Y0165462D01*
X0201971Y0160666D02*
X0214600Y0160666D01*
X0214600Y0159068D02*
X0202644Y0159068D01*
X0204242Y0157469D02*
X0214600Y0157469D01*
X0214600Y0155870D02*
X0208341Y0155870D01*
X0209939Y0154272D02*
X0214600Y0154272D01*
X0214600Y0152673D02*
X0211500Y0152673D01*
X0211500Y0151075D02*
X0214600Y0151075D01*
X0214600Y0149476D02*
X0211500Y0149476D01*
X0211500Y0147878D02*
X0214600Y0147878D01*
X0214600Y0146279D02*
X0211500Y0146279D01*
X0211500Y0144681D02*
X0215808Y0144681D01*
X0217406Y0143082D02*
X0211500Y0143082D01*
X0211500Y0141484D02*
X0219005Y0141484D01*
X0220603Y0139885D02*
X0211500Y0139885D01*
X0211500Y0138287D02*
X0222202Y0138287D01*
X0223800Y0136688D02*
X0211500Y0136688D01*
X0211500Y0135090D02*
X0225399Y0135090D01*
X0226997Y0133491D02*
X0211500Y0133491D01*
X0211500Y0131893D02*
X0228596Y0131893D01*
X0229600Y0130294D02*
X0210906Y0130294D01*
X0209307Y0128696D02*
X0229600Y0128696D01*
X0234000Y0128696D02*
X0236100Y0128696D01*
X0236100Y0127500D02*
X0234000Y0127500D01*
X0234000Y0132711D01*
X0232711Y0134000D01*
X0219000Y0147711D01*
X0219000Y0150198D01*
X0219087Y0149987D01*
X0219987Y0149087D01*
X0228383Y0140692D01*
X0228764Y0139771D01*
X0229771Y0138764D01*
X0231088Y0138219D01*
X0232512Y0138219D01*
X0233829Y0138764D01*
X0234836Y0139771D01*
X0235381Y0141088D01*
X0235381Y0142512D01*
X0234836Y0143829D01*
X0233829Y0144836D01*
X0232908Y0145217D01*
X0225000Y0153125D01*
X0225000Y0189371D01*
X0225106Y0189265D01*
X0226205Y0188809D01*
X0227395Y0188809D01*
X0228494Y0189265D01*
X0229335Y0190106D01*
X0229791Y0191205D01*
X0229791Y0192395D01*
X0229335Y0193494D01*
X0228494Y0194335D01*
X0227395Y0194791D01*
X0226205Y0194791D01*
X0225106Y0194335D01*
X0224771Y0194000D01*
X0224125Y0194000D01*
X0222500Y0195625D01*
X0222500Y0217668D01*
X0222881Y0218588D01*
X0222881Y0220012D01*
X0222336Y0221329D01*
X0221329Y0222336D01*
X0220012Y0222881D01*
X0218588Y0222881D01*
X0217271Y0222336D01*
X0216264Y0221329D01*
X0215719Y0220012D01*
X0215719Y0218588D01*
X0216100Y0217668D01*
X0216100Y0202025D01*
X0214513Y0203613D01*
X0213613Y0204513D01*
X0212437Y0205000D01*
X0183125Y0205000D01*
X0178642Y0209484D01*
X0178642Y0215433D01*
X0182487Y0211587D01*
X0183663Y0211100D01*
X0204937Y0211100D01*
X0206113Y0211587D01*
X0207013Y0212487D01*
X0207013Y0212487D01*
X0214513Y0219987D01*
X0215000Y0221163D01*
X0215000Y0225475D01*
X0217697Y0228171D01*
X0227934Y0228171D01*
X0229227Y0226878D01*
X0231175Y0226071D01*
X0233283Y0226071D01*
X0234507Y0226578D01*
X0234000Y0225354D01*
X0234000Y0223246D01*
X0234807Y0221298D01*
X0236100Y0220005D01*
X0236100Y0127500D01*
X0236100Y0130294D02*
X0234000Y0130294D01*
X0234000Y0131893D02*
X0236100Y0131893D01*
X0236100Y0133491D02*
X0233220Y0133491D01*
X0231621Y0135090D02*
X0236100Y0135090D01*
X0236100Y0136688D02*
X0230023Y0136688D01*
X0230924Y0138287D02*
X0228424Y0138287D01*
X0228717Y0139885D02*
X0226826Y0139885D01*
X0227591Y0141484D02*
X0225227Y0141484D01*
X0225992Y0143082D02*
X0223629Y0143082D01*
X0224394Y0144681D02*
X0222030Y0144681D01*
X0222795Y0146279D02*
X0220432Y0146279D01*
X0221197Y0147878D02*
X0219000Y0147878D01*
X0219000Y0149476D02*
X0219598Y0149476D01*
X0225000Y0154272D02*
X0236100Y0154272D01*
X0236100Y0155870D02*
X0225000Y0155870D01*
X0225000Y0157469D02*
X0236100Y0157469D01*
X0236100Y0159068D02*
X0225000Y0159068D01*
X0225000Y0160666D02*
X0236100Y0160666D01*
X0236100Y0162265D02*
X0225000Y0162265D01*
X0225000Y0163863D02*
X0236100Y0163863D01*
X0236100Y0165462D02*
X0225000Y0165462D01*
X0225000Y0167060D02*
X0236100Y0167060D01*
X0236100Y0168659D02*
X0225000Y0168659D01*
X0225000Y0170257D02*
X0236100Y0170257D01*
X0236100Y0171856D02*
X0225000Y0171856D01*
X0225000Y0173454D02*
X0236100Y0173454D01*
X0236100Y0175053D02*
X0225000Y0175053D01*
X0225000Y0176651D02*
X0236100Y0176651D01*
X0236100Y0178250D02*
X0225000Y0178250D01*
X0225000Y0179848D02*
X0236100Y0179848D01*
X0236100Y0181447D02*
X0225000Y0181447D01*
X0225000Y0183045D02*
X0236100Y0183045D01*
X0236100Y0184644D02*
X0225000Y0184644D01*
X0225000Y0186242D02*
X0236100Y0186242D01*
X0236100Y0187841D02*
X0225000Y0187841D01*
X0228669Y0189439D02*
X0236100Y0189439D01*
X0236100Y0191038D02*
X0229721Y0191038D01*
X0229691Y0192636D02*
X0236100Y0192636D01*
X0236100Y0194235D02*
X0228595Y0194235D01*
X0225005Y0194235D02*
X0223891Y0194235D01*
X0222500Y0195833D02*
X0236100Y0195833D01*
X0236100Y0197432D02*
X0222500Y0197432D01*
X0222500Y0199030D02*
X0236100Y0199030D01*
X0236100Y0200629D02*
X0222500Y0200629D01*
X0222500Y0202227D02*
X0236100Y0202227D01*
X0236100Y0203826D02*
X0222500Y0203826D01*
X0222500Y0205424D02*
X0236100Y0205424D01*
X0236100Y0207023D02*
X0222500Y0207023D01*
X0222500Y0208621D02*
X0236100Y0208621D01*
X0236100Y0210220D02*
X0222500Y0210220D01*
X0222500Y0211818D02*
X0236100Y0211818D01*
X0236100Y0213417D02*
X0222500Y0213417D01*
X0222500Y0215015D02*
X0236100Y0215015D01*
X0236100Y0216614D02*
X0222500Y0216614D01*
X0222726Y0218212D02*
X0236100Y0218212D01*
X0236100Y0219811D02*
X0222881Y0219811D01*
X0222255Y0221409D02*
X0234761Y0221409D01*
X0234098Y0223008D02*
X0215000Y0223008D01*
X0215000Y0224606D02*
X0234000Y0224606D01*
X0234352Y0226205D02*
X0233606Y0226205D01*
X0230851Y0226205D02*
X0215730Y0226205D01*
X0217329Y0227803D02*
X0228301Y0227803D01*
X0227934Y0234571D02*
X0215735Y0234571D01*
X0214558Y0234084D01*
X0209087Y0228613D01*
X0208600Y0227437D01*
X0208600Y0223125D01*
X0202975Y0217500D01*
X0185625Y0217500D01*
X0184547Y0218578D01*
X0184547Y0223047D01*
X0184325Y0223583D01*
X0184325Y0226026D01*
X0184202Y0226149D01*
X0184300Y0226385D01*
X0184634Y0225577D01*
X0186483Y0223729D01*
X0188898Y0222728D01*
X0190180Y0222728D01*
X0190180Y0218795D01*
X0191118Y0217857D01*
X0195199Y0217857D01*
X0196136Y0218795D01*
X0196136Y0221794D01*
X0201301Y0221794D01*
X0202239Y0222732D01*
X0202239Y0227207D01*
X0201301Y0228144D01*
X0196777Y0228144D01*
X0196777Y0230456D01*
X0201301Y0230456D01*
X0202239Y0231393D01*
X0202239Y0232304D01*
X0212054Y0234631D01*
X0222636Y0238482D01*
X0232699Y0243536D01*
X0242108Y0249724D01*
X0245937Y0252938D01*
X0246231Y0253075D01*
X0246663Y0253546D01*
X0247152Y0253957D01*
X0247302Y0254244D01*
X0310236Y0322984D01*
X0309200Y0319117D01*
X0309200Y0314483D01*
X0310399Y0310007D01*
X0312716Y0305993D01*
X0315993Y0302716D01*
X0320007Y0300399D01*
X0324483Y0299200D01*
X0329117Y0299200D01*
X0332988Y0300237D01*
X0282500Y0254015D01*
X0282500Y0259937D01*
X0282013Y0261113D01*
X0281325Y0261800D01*
X0285678Y0266152D01*
X0286488Y0266152D01*
X0291323Y0270987D01*
X0291323Y0272313D01*
X0288714Y0274922D01*
X0289968Y0274922D01*
X0294803Y0279756D01*
X0294803Y0281082D01*
X0293062Y0282822D01*
X0293062Y0285179D01*
X0293838Y0285955D01*
X0295667Y0285955D01*
X0296891Y0286462D01*
X0296384Y0285238D01*
X0296384Y0283129D01*
X0297191Y0281181D01*
X0298681Y0279691D01*
X0300629Y0278884D01*
X0302738Y0278884D01*
X0304686Y0279691D01*
X0311409Y0286414D01*
X0312216Y0288362D01*
X0312216Y0290471D01*
X0311409Y0292418D01*
X0309918Y0293909D01*
X0307971Y0294716D01*
X0305862Y0294716D01*
X0304638Y0294209D01*
X0305145Y0295433D01*
X0305145Y0297542D01*
X0304338Y0299490D01*
X0302847Y0300980D01*
X0300899Y0301787D01*
X0298791Y0301787D01*
X0296843Y0300980D01*
X0290120Y0294257D01*
X0289313Y0292309D01*
X0289313Y0290480D01*
X0288050Y0289217D01*
X0287149Y0288317D01*
X0286662Y0287141D01*
X0286662Y0281709D01*
X0284922Y0279968D01*
X0284922Y0278714D01*
X0282313Y0281323D01*
X0280987Y0281323D01*
X0276152Y0276488D01*
X0276152Y0275678D01*
X0270411Y0269937D01*
X0270168Y0269937D01*
X0267282Y0267051D01*
X0267282Y0266318D01*
X0266549Y0266318D01*
X0263663Y0263432D01*
X0263663Y0262106D01*
X0264556Y0261214D01*
X0264778Y0260678D01*
X0267965Y0257490D01*
X0265475Y0255000D01*
X0263432Y0255000D01*
X0262512Y0255381D01*
X0261088Y0255381D01*
X0259771Y0254836D01*
X0258764Y0253829D01*
X0258219Y0252512D01*
X0258219Y0251088D01*
X0258764Y0249771D01*
X0259771Y0248764D01*
X0261088Y0248219D01*
X0262512Y0248219D01*
X0263432Y0248600D01*
X0267437Y0248600D01*
X0268613Y0249087D01*
X0269513Y0249987D01*
X0273189Y0253663D01*
X0273432Y0253663D01*
X0276100Y0256332D01*
X0276100Y0255625D01*
X0245475Y0225000D01*
X0244600Y0225000D01*
X0244600Y0225354D01*
X0243793Y0227302D01*
X0242302Y0228793D01*
X0240354Y0229600D01*
X0238246Y0229600D01*
X0237022Y0229093D01*
X0237529Y0230317D01*
X0237529Y0232425D01*
X0236722Y0234373D01*
X0235231Y0235864D01*
X0233283Y0236671D01*
X0231175Y0236671D01*
X0229227Y0235864D01*
X0227934Y0234571D01*
X0229159Y0235796D02*
X0215256Y0235796D01*
X0214833Y0234198D02*
X0210227Y0234198D01*
X0212054Y0234631D02*
X0212054Y0234631D01*
X0213074Y0232599D02*
X0203482Y0232599D01*
X0201846Y0231001D02*
X0211475Y0231001D01*
X0209877Y0229402D02*
X0196777Y0229402D01*
X0201642Y0227803D02*
X0208752Y0227803D01*
X0208600Y0226205D02*
X0202239Y0226205D01*
X0202239Y0224606D02*
X0208600Y0224606D01*
X0208482Y0223008D02*
X0202239Y0223008D01*
X0205285Y0219811D02*
X0196136Y0219811D01*
X0196136Y0221409D02*
X0206884Y0221409D01*
X0203687Y0218212D02*
X0195554Y0218212D01*
X0190763Y0218212D02*
X0184913Y0218212D01*
X0184547Y0219811D02*
X0190180Y0219811D01*
X0190180Y0221409D02*
X0184547Y0221409D01*
X0184547Y0223008D02*
X0188223Y0223008D01*
X0185605Y0224606D02*
X0184325Y0224606D01*
X0184374Y0226205D02*
X0184226Y0226205D01*
X0179059Y0215015D02*
X0178642Y0215015D01*
X0178642Y0213417D02*
X0180658Y0213417D01*
X0182256Y0211818D02*
X0178642Y0211818D01*
X0178642Y0210220D02*
X0216100Y0210220D01*
X0216100Y0211818D02*
X0206344Y0211818D01*
X0207942Y0213417D02*
X0216100Y0213417D01*
X0216100Y0215015D02*
X0209541Y0215015D01*
X0211139Y0216614D02*
X0216100Y0216614D01*
X0215874Y0218212D02*
X0212738Y0218212D01*
X0214336Y0219811D02*
X0215719Y0219811D01*
X0216345Y0221409D02*
X0215000Y0221409D01*
X0216100Y0208621D02*
X0179504Y0208621D01*
X0181103Y0207023D02*
X0216100Y0207023D01*
X0216100Y0205424D02*
X0182701Y0205424D01*
X0178446Y0200629D02*
X0159000Y0200629D01*
X0159000Y0202227D02*
X0176847Y0202227D01*
X0175249Y0203826D02*
X0159000Y0203826D01*
X0159000Y0204771D02*
X0159335Y0205106D01*
X0159791Y0206205D01*
X0159791Y0207395D01*
X0159335Y0208494D01*
X0158494Y0209335D01*
X0157395Y0209791D01*
X0156921Y0209791D01*
X0152100Y0214611D01*
X0152100Y0215583D01*
X0149000Y0218683D01*
X0149000Y0222711D01*
X0143111Y0228600D01*
X0147975Y0228600D01*
X0159087Y0217487D01*
X0159987Y0216587D01*
X0161163Y0216100D01*
X0172242Y0216100D01*
X0172242Y0207522D01*
X0172729Y0206346D01*
X0173629Y0205445D01*
X0179987Y0199087D01*
X0180198Y0199000D01*
X0175889Y0199000D01*
X0174600Y0197711D01*
X0170889Y0194000D01*
X0163829Y0194000D01*
X0163494Y0194335D01*
X0162395Y0194791D01*
X0161205Y0194791D01*
X0160106Y0194335D01*
X0159265Y0193494D01*
X0159000Y0192855D01*
X0159000Y0204771D01*
X0159467Y0205424D02*
X0173650Y0205424D01*
X0172448Y0207023D02*
X0159791Y0207023D01*
X0159208Y0208621D02*
X0172242Y0208621D01*
X0172242Y0210220D02*
X0156491Y0210220D01*
X0154893Y0211818D02*
X0172242Y0211818D01*
X0172242Y0213417D02*
X0153294Y0213417D01*
X0152100Y0215015D02*
X0172242Y0215015D01*
X0166593Y0222500D02*
X0163125Y0222500D01*
X0151113Y0234513D01*
X0149937Y0235000D01*
X0143125Y0235000D01*
X0132145Y0245981D01*
X0135862Y0243536D01*
X0145925Y0238482D01*
X0156507Y0234631D01*
X0166361Y0232295D01*
X0166361Y0231393D01*
X0167299Y0230456D01*
X0171823Y0230456D01*
X0171823Y0228144D01*
X0167299Y0228144D01*
X0166361Y0227207D01*
X0166361Y0222732D01*
X0166593Y0222500D01*
X0166361Y0223008D02*
X0162618Y0223008D01*
X0161019Y0224606D02*
X0166361Y0224606D01*
X0166361Y0226205D02*
X0159420Y0226205D01*
X0157822Y0227803D02*
X0166958Y0227803D01*
X0166754Y0231001D02*
X0154625Y0231001D01*
X0153026Y0232599D02*
X0165079Y0232599D01*
X0158334Y0234198D02*
X0151428Y0234198D01*
X0153305Y0235796D02*
X0142329Y0235796D01*
X0140731Y0237395D02*
X0148913Y0237395D01*
X0145925Y0238482D02*
X0145925Y0238482D01*
X0144908Y0238993D02*
X0139132Y0238993D01*
X0137534Y0240592D02*
X0141725Y0240592D01*
X0138542Y0242190D02*
X0135935Y0242190D01*
X0135862Y0243536D02*
X0135862Y0243536D01*
X0135478Y0243789D02*
X0134337Y0243789D01*
X0133047Y0245387D02*
X0132738Y0245387D01*
X0138633Y0253380D02*
X0229927Y0253380D01*
X0232358Y0254978D02*
X0136203Y0254978D01*
X0133773Y0256577D02*
X0234788Y0256577D01*
X0237060Y0258175D02*
X0131500Y0258175D01*
X0129479Y0259774D02*
X0239082Y0259774D01*
X0240812Y0261372D02*
X0127749Y0261372D01*
X0126287Y0262971D02*
X0242275Y0262971D01*
X0243739Y0264569D02*
X0124824Y0264569D01*
X0123362Y0266168D02*
X0245202Y0266168D01*
X0246666Y0267766D02*
X0121899Y0267766D01*
X0120436Y0269365D02*
X0248129Y0269365D01*
X0249593Y0270963D02*
X0118974Y0270963D01*
X0117511Y0272562D02*
X0251056Y0272562D01*
X0252520Y0274160D02*
X0116049Y0274160D01*
X0114586Y0275759D02*
X0253983Y0275759D01*
X0255447Y0277357D02*
X0113123Y0277357D01*
X0111661Y0278956D02*
X0256911Y0278956D01*
X0258374Y0280554D02*
X0110198Y0280554D01*
X0108736Y0282153D02*
X0259838Y0282153D01*
X0261301Y0283751D02*
X0107273Y0283751D01*
X0105810Y0285350D02*
X0262765Y0285350D01*
X0264228Y0286948D02*
X0104348Y0286948D01*
X0102885Y0288547D02*
X0265692Y0288547D01*
X0267155Y0290145D02*
X0101423Y0290145D01*
X0099960Y0291744D02*
X0268619Y0291744D01*
X0270082Y0293342D02*
X0098497Y0293342D01*
X0097035Y0294941D02*
X0271546Y0294941D01*
X0273009Y0296539D02*
X0095572Y0296539D01*
X0094109Y0298138D02*
X0274473Y0298138D01*
X0275936Y0299737D02*
X0092647Y0299737D01*
X0091184Y0301335D02*
X0277400Y0301335D01*
X0278863Y0302934D02*
X0089722Y0302934D01*
X0088259Y0304532D02*
X0280327Y0304532D01*
X0281790Y0306131D02*
X0086796Y0306131D01*
X0085334Y0307729D02*
X0283254Y0307729D01*
X0284717Y0309328D02*
X0083871Y0309328D01*
X0082409Y0310926D02*
X0286181Y0310926D01*
X0287644Y0312525D02*
X0080946Y0312525D01*
X0079483Y0314123D02*
X0289108Y0314123D01*
X0290571Y0315722D02*
X0078021Y0315722D01*
X0076558Y0317320D02*
X0292035Y0317320D01*
X0293499Y0318919D02*
X0075096Y0318919D01*
X0073633Y0320517D02*
X0294962Y0320517D01*
X0296426Y0322116D02*
X0072170Y0322116D01*
X0070708Y0323714D02*
X0297889Y0323714D01*
X0299353Y0325313D02*
X0069245Y0325313D01*
X0067783Y0326911D02*
X0300816Y0326911D01*
X0307978Y0320517D02*
X0309575Y0320517D01*
X0309441Y0322116D02*
X0310003Y0322116D01*
X0309200Y0318919D02*
X0306514Y0318919D01*
X0305051Y0317320D02*
X0309200Y0317320D01*
X0309200Y0315722D02*
X0303587Y0315722D01*
X0302124Y0314123D02*
X0309296Y0314123D01*
X0309725Y0312525D02*
X0300660Y0312525D01*
X0299197Y0310926D02*
X0310153Y0310926D01*
X0310791Y0309328D02*
X0297733Y0309328D01*
X0296270Y0307729D02*
X0311714Y0307729D01*
X0312637Y0306131D02*
X0294806Y0306131D01*
X0293343Y0304532D02*
X0314178Y0304532D01*
X0315776Y0302934D02*
X0291879Y0302934D01*
X0290416Y0301335D02*
X0297699Y0301335D01*
X0295599Y0299737D02*
X0288952Y0299737D01*
X0287489Y0298138D02*
X0294001Y0298138D01*
X0292402Y0296539D02*
X0286025Y0296539D01*
X0284562Y0294941D02*
X0290804Y0294941D01*
X0289741Y0293342D02*
X0283098Y0293342D01*
X0281634Y0291744D02*
X0289313Y0291744D01*
X0288978Y0290145D02*
X0280171Y0290145D01*
X0278707Y0288547D02*
X0287379Y0288547D01*
X0286662Y0286948D02*
X0277244Y0286948D01*
X0275780Y0285350D02*
X0286662Y0285350D01*
X0286662Y0283751D02*
X0274317Y0283751D01*
X0272853Y0282153D02*
X0286662Y0282153D01*
X0285508Y0280554D02*
X0283081Y0280554D01*
X0284680Y0278956D02*
X0284922Y0278956D01*
X0286034Y0277531D02*
X0287531Y0276034D01*
X0286276Y0276034D01*
X0281442Y0271199D01*
X0281442Y0270967D01*
X0275411Y0264937D01*
X0275168Y0264937D01*
X0272369Y0262137D01*
X0272137Y0262369D01*
X0274937Y0265168D01*
X0274937Y0265411D01*
X0280967Y0271442D01*
X0281199Y0271442D01*
X0286034Y0276276D01*
X0286034Y0277531D01*
X0286034Y0277357D02*
X0286207Y0277357D01*
X0286002Y0275759D02*
X0285516Y0275759D01*
X0284403Y0274160D02*
X0283918Y0274160D01*
X0282805Y0272562D02*
X0282319Y0272562D01*
X0281438Y0270963D02*
X0280489Y0270963D01*
X0279839Y0269365D02*
X0278890Y0269365D01*
X0278241Y0267766D02*
X0277292Y0267766D01*
X0276642Y0266168D02*
X0275693Y0266168D01*
X0274801Y0264569D02*
X0274337Y0264569D01*
X0273203Y0262971D02*
X0272739Y0262971D01*
X0267998Y0267766D02*
X0259682Y0267766D01*
X0261145Y0269365D02*
X0269597Y0269365D01*
X0271438Y0270963D02*
X0262609Y0270963D01*
X0264072Y0272562D02*
X0273036Y0272562D01*
X0274635Y0274160D02*
X0265536Y0274160D01*
X0266999Y0275759D02*
X0276152Y0275759D01*
X0277021Y0277357D02*
X0268463Y0277357D01*
X0269926Y0278956D02*
X0278620Y0278956D01*
X0280218Y0280554D02*
X0271390Y0280554D01*
X0266400Y0266168D02*
X0258218Y0266168D01*
X0256755Y0264569D02*
X0264801Y0264569D01*
X0263663Y0262971D02*
X0255291Y0262971D01*
X0253828Y0261372D02*
X0264397Y0261372D01*
X0265682Y0259774D02*
X0252364Y0259774D01*
X0250901Y0258175D02*
X0267280Y0258175D01*
X0267051Y0256577D02*
X0249437Y0256577D01*
X0247974Y0254978D02*
X0260115Y0254978D01*
X0258578Y0253380D02*
X0246510Y0253380D01*
X0244559Y0251781D02*
X0258219Y0251781D01*
X0258594Y0250183D02*
X0242654Y0250183D01*
X0242108Y0249724D02*
X0242108Y0249724D01*
X0240374Y0248584D02*
X0260206Y0248584D01*
X0263394Y0248584D02*
X0269059Y0248584D01*
X0269708Y0250183D02*
X0270657Y0250183D01*
X0271307Y0251781D02*
X0272256Y0251781D01*
X0272905Y0253380D02*
X0273854Y0253380D01*
X0274746Y0254978D02*
X0275453Y0254978D01*
X0282500Y0254978D02*
X0283552Y0254978D01*
X0282500Y0256577D02*
X0285298Y0256577D01*
X0287044Y0258175D02*
X0282500Y0258175D01*
X0282500Y0259774D02*
X0288790Y0259774D01*
X0290536Y0261372D02*
X0281753Y0261372D01*
X0282496Y0262971D02*
X0292282Y0262971D01*
X0294029Y0264569D02*
X0284095Y0264569D01*
X0286504Y0266168D02*
X0295775Y0266168D01*
X0297521Y0267766D02*
X0288102Y0267766D01*
X0289701Y0269365D02*
X0299267Y0269365D01*
X0301013Y0270963D02*
X0291299Y0270963D01*
X0291074Y0272562D02*
X0302759Y0272562D01*
X0304505Y0274160D02*
X0289475Y0274160D01*
X0290805Y0275759D02*
X0306251Y0275759D01*
X0307997Y0277357D02*
X0292404Y0277357D01*
X0294002Y0278956D02*
X0300455Y0278956D01*
X0302912Y0278956D02*
X0309743Y0278956D01*
X0311489Y0280554D02*
X0305550Y0280554D01*
X0307148Y0282153D02*
X0313235Y0282153D01*
X0314981Y0283751D02*
X0308747Y0283751D01*
X0310345Y0285350D02*
X0316727Y0285350D01*
X0318473Y0286948D02*
X0311631Y0286948D01*
X0312216Y0288547D02*
X0320219Y0288547D01*
X0321965Y0290145D02*
X0312216Y0290145D01*
X0311689Y0291744D02*
X0323711Y0291744D01*
X0325457Y0293342D02*
X0310485Y0293342D01*
X0304941Y0294941D02*
X0327203Y0294941D01*
X0328949Y0296539D02*
X0305145Y0296539D01*
X0304898Y0298138D02*
X0330695Y0298138D01*
X0331119Y0299737D02*
X0332441Y0299737D01*
X0322481Y0299737D02*
X0304091Y0299737D01*
X0301991Y0301335D02*
X0318386Y0301335D01*
X0296430Y0285350D02*
X0293233Y0285350D01*
X0293062Y0283751D02*
X0296384Y0283751D01*
X0296788Y0282153D02*
X0293732Y0282153D01*
X0294803Y0280554D02*
X0297818Y0280554D01*
X0267460Y0246986D02*
X0237944Y0246986D01*
X0235513Y0245387D02*
X0265862Y0245387D01*
X0264263Y0243789D02*
X0233083Y0243789D01*
X0232699Y0243536D02*
X0232699Y0243536D01*
X0230019Y0242190D02*
X0262665Y0242190D01*
X0261066Y0240592D02*
X0226836Y0240592D01*
X0223653Y0238993D02*
X0259468Y0238993D01*
X0257869Y0237395D02*
X0219648Y0237395D01*
X0222636Y0238482D02*
X0222636Y0238482D01*
X0217500Y0246986D02*
X0151061Y0246986D01*
X0147529Y0248584D02*
X0221032Y0248584D01*
X0224215Y0250183D02*
X0144346Y0250183D01*
X0141163Y0251781D02*
X0227398Y0251781D01*
X0213108Y0245387D02*
X0155453Y0245387D01*
X0160132Y0243789D02*
X0208428Y0243789D01*
X0201684Y0242190D02*
X0166877Y0242190D01*
X0156507Y0234631D02*
X0156507Y0234631D01*
X0156223Y0229402D02*
X0171823Y0229402D01*
X0178207Y0240592D02*
X0190354Y0240592D01*
X0159961Y0216614D02*
X0151069Y0216614D01*
X0149471Y0218212D02*
X0158362Y0218212D01*
X0156764Y0219811D02*
X0149000Y0219811D01*
X0149000Y0221409D02*
X0155165Y0221409D01*
X0153567Y0223008D02*
X0148703Y0223008D01*
X0147105Y0224606D02*
X0151968Y0224606D01*
X0150370Y0226205D02*
X0145506Y0226205D01*
X0143908Y0227803D02*
X0148771Y0227803D01*
X0138823Y0226665D02*
X0136789Y0224632D01*
X0136789Y0224455D01*
X0136613Y0224455D01*
X0136158Y0224000D01*
X0134092Y0224000D01*
X0133818Y0224275D01*
X0133818Y0224782D01*
X0134551Y0224782D01*
X0137437Y0227668D01*
X0137437Y0228052D01*
X0138823Y0226665D01*
X0138363Y0226205D02*
X0135973Y0226205D01*
X0136789Y0224606D02*
X0133818Y0224606D01*
X0130706Y0221163D02*
X0132014Y0219856D01*
X0131500Y0219342D01*
X0131500Y0219125D01*
X0102575Y0248050D01*
X0108125Y0253600D01*
X0115475Y0253600D01*
X0120075Y0249000D01*
X0116317Y0249000D01*
X0113844Y0251473D01*
X0112518Y0251473D01*
X0107127Y0246082D01*
X0107127Y0244756D01*
X0111961Y0239922D01*
X0113287Y0239922D01*
X0117965Y0244600D01*
X0118389Y0244600D01*
X0119812Y0243177D01*
X0114922Y0238287D01*
X0114922Y0236961D01*
X0119756Y0232127D01*
X0121082Y0232127D01*
X0121515Y0232560D01*
X0123383Y0230692D01*
X0123764Y0229771D01*
X0124600Y0228936D01*
X0124600Y0227270D01*
X0125889Y0225981D01*
X0126163Y0225706D01*
X0126163Y0224606D01*
X0129606Y0221163D01*
X0130706Y0221163D01*
X0130815Y0219811D02*
X0131969Y0219811D01*
X0129360Y0221409D02*
X0129216Y0221409D01*
X0127762Y0223008D02*
X0127618Y0223008D01*
X0126163Y0224606D02*
X0126019Y0224606D01*
X0125665Y0226205D02*
X0124420Y0226205D01*
X0124600Y0227803D02*
X0122822Y0227803D01*
X0124134Y0229402D02*
X0121223Y0229402D01*
X0119625Y0231001D02*
X0123074Y0231001D01*
X0119284Y0232599D02*
X0118026Y0232599D01*
X0117685Y0234198D02*
X0116428Y0234198D01*
X0116087Y0235796D02*
X0114829Y0235796D01*
X0114922Y0237395D02*
X0113231Y0237395D01*
X0111632Y0238993D02*
X0115628Y0238993D01*
X0117226Y0240592D02*
X0113957Y0240592D01*
X0115555Y0242190D02*
X0118825Y0242190D01*
X0119200Y0243789D02*
X0117154Y0243789D01*
X0118892Y0250183D02*
X0115134Y0250183D01*
X0117293Y0251781D02*
X0106307Y0251781D01*
X0107905Y0253380D02*
X0115695Y0253380D01*
X0111228Y0250183D02*
X0104708Y0250183D01*
X0103110Y0248584D02*
X0109629Y0248584D01*
X0108031Y0246986D02*
X0103640Y0246986D01*
X0105238Y0245387D02*
X0107127Y0245387D01*
X0106837Y0243789D02*
X0108094Y0243789D01*
X0108435Y0242190D02*
X0109693Y0242190D01*
X0110034Y0240592D02*
X0111291Y0240592D01*
X0105778Y0235796D02*
X0105741Y0235796D01*
X0105623Y0235937D02*
X0105611Y0235964D01*
X0133737Y0207837D01*
X0138600Y0202975D01*
X0138600Y0165625D01*
X0137975Y0165000D01*
X0136095Y0165000D01*
X0134802Y0166293D01*
X0133578Y0166800D01*
X0134802Y0167307D01*
X0136293Y0168798D01*
X0137100Y0170746D01*
X0137100Y0172854D01*
X0136293Y0174802D01*
X0134802Y0176293D01*
X0133578Y0176800D01*
X0134802Y0177307D01*
X0136293Y0178798D01*
X0137100Y0180746D01*
X0137100Y0182854D01*
X0136293Y0184802D01*
X0134802Y0186293D01*
X0134303Y0186500D01*
X0136163Y0186500D01*
X0137100Y0187437D01*
X0137100Y0196163D01*
X0136163Y0197100D01*
X0127437Y0197100D01*
X0126500Y0196163D01*
X0126500Y0191210D01*
X0123930Y0202054D01*
X0120079Y0212636D01*
X0115025Y0222699D01*
X0108836Y0232108D01*
X0105623Y0235937D01*
X0107083Y0234198D02*
X0107377Y0234198D01*
X0108424Y0232599D02*
X0108975Y0232599D01*
X0108836Y0232108D02*
X0108836Y0232108D01*
X0109565Y0231001D02*
X0110574Y0231001D01*
X0110616Y0229402D02*
X0112173Y0229402D01*
X0111667Y0227803D02*
X0113771Y0227803D01*
X0112719Y0226205D02*
X0115370Y0226205D01*
X0116968Y0224606D02*
X0113770Y0224606D01*
X0114821Y0223008D02*
X0118567Y0223008D01*
X0120165Y0221409D02*
X0115672Y0221409D01*
X0115025Y0222699D02*
X0115025Y0222699D01*
X0116475Y0219811D02*
X0121764Y0219811D01*
X0123362Y0218212D02*
X0117278Y0218212D01*
X0118081Y0216614D02*
X0124961Y0216614D01*
X0126559Y0215015D02*
X0118883Y0215015D01*
X0119686Y0213417D02*
X0128158Y0213417D01*
X0129756Y0211818D02*
X0120376Y0211818D01*
X0120079Y0212636D02*
X0120079Y0212636D01*
X0120958Y0210220D02*
X0131355Y0210220D01*
X0132953Y0208621D02*
X0121540Y0208621D01*
X0122121Y0207023D02*
X0134552Y0207023D01*
X0136150Y0205424D02*
X0122703Y0205424D01*
X0123285Y0203826D02*
X0137749Y0203826D01*
X0138600Y0202227D02*
X0123867Y0202227D01*
X0123930Y0202054D02*
X0123930Y0202054D01*
X0124268Y0200629D02*
X0138600Y0200629D01*
X0138600Y0199030D02*
X0124647Y0199030D01*
X0125025Y0197432D02*
X0138600Y0197432D01*
X0138600Y0195833D02*
X0137100Y0195833D01*
X0137100Y0194235D02*
X0138600Y0194235D01*
X0138600Y0192636D02*
X0137100Y0192636D01*
X0137100Y0191038D02*
X0138600Y0191038D01*
X0138600Y0189439D02*
X0137100Y0189439D01*
X0137100Y0187841D02*
X0138600Y0187841D01*
X0138600Y0186242D02*
X0134853Y0186242D01*
X0136359Y0184644D02*
X0138600Y0184644D01*
X0138600Y0183045D02*
X0137021Y0183045D01*
X0137100Y0181447D02*
X0138600Y0181447D01*
X0138600Y0179848D02*
X0136728Y0179848D01*
X0135745Y0178250D02*
X0138600Y0178250D01*
X0138600Y0176651D02*
X0133938Y0176651D01*
X0136043Y0175053D02*
X0138600Y0175053D01*
X0138600Y0173454D02*
X0136852Y0173454D01*
X0137100Y0171856D02*
X0138600Y0171856D01*
X0138600Y0170257D02*
X0136898Y0170257D01*
X0136154Y0168659D02*
X0138600Y0168659D01*
X0138600Y0167060D02*
X0134206Y0167060D01*
X0135634Y0165462D02*
X0138436Y0165462D01*
X0143613Y0161587D02*
X0144513Y0162487D01*
X0145000Y0163663D01*
X0145000Y0204937D01*
X0144513Y0206113D01*
X0144125Y0206500D01*
X0144342Y0206500D01*
X0146811Y0208968D01*
X0146811Y0210294D01*
X0142608Y0214497D01*
X0144103Y0215992D01*
X0148306Y0211789D01*
X0148699Y0211789D01*
X0153809Y0206679D01*
X0153809Y0206205D01*
X0154265Y0205106D01*
X0154600Y0204771D01*
X0154600Y0145889D01*
X0159600Y0140889D01*
X0160889Y0139600D01*
X0165745Y0139600D01*
X0165106Y0139335D01*
X0164265Y0138494D01*
X0163809Y0137395D01*
X0163809Y0136205D01*
X0164265Y0135106D01*
X0165106Y0134265D01*
X0166205Y0133809D01*
X0167395Y0133809D01*
X0168494Y0134265D01*
X0168829Y0134600D01*
X0172008Y0134600D01*
X0172282Y0134325D01*
X0172282Y0133818D01*
X0171549Y0133818D01*
X0168663Y0130932D01*
X0168663Y0129606D01*
X0170290Y0127979D01*
X0170290Y0127500D01*
X0145810Y0127500D01*
X0145810Y0130902D01*
X0136768Y0139944D01*
X0137100Y0140746D01*
X0137100Y0142854D01*
X0136293Y0144802D01*
X0134802Y0146293D01*
X0133578Y0146800D01*
X0134802Y0147307D01*
X0136293Y0148798D01*
X0137100Y0150746D01*
X0137100Y0152854D01*
X0136293Y0154802D01*
X0134802Y0156293D01*
X0133578Y0156800D01*
X0134802Y0157307D01*
X0136095Y0158600D01*
X0139937Y0158600D01*
X0141113Y0159087D01*
X0143613Y0161587D01*
X0144290Y0162265D02*
X0154600Y0162265D01*
X0154600Y0163863D02*
X0145000Y0163863D01*
X0145000Y0165462D02*
X0154600Y0165462D01*
X0154600Y0167060D02*
X0145000Y0167060D01*
X0145000Y0168659D02*
X0154600Y0168659D01*
X0154600Y0170257D02*
X0145000Y0170257D01*
X0145000Y0171856D02*
X0154600Y0171856D01*
X0154600Y0173454D02*
X0145000Y0173454D01*
X0145000Y0175053D02*
X0154600Y0175053D01*
X0154600Y0176651D02*
X0145000Y0176651D01*
X0145000Y0178250D02*
X0154600Y0178250D01*
X0154600Y0179848D02*
X0145000Y0179848D01*
X0145000Y0181447D02*
X0154600Y0181447D01*
X0154600Y0183045D02*
X0145000Y0183045D01*
X0145000Y0184644D02*
X0154600Y0184644D01*
X0154600Y0186242D02*
X0145000Y0186242D01*
X0145000Y0187841D02*
X0154600Y0187841D01*
X0154600Y0189439D02*
X0145000Y0189439D01*
X0145000Y0191038D02*
X0154600Y0191038D01*
X0154600Y0192636D02*
X0145000Y0192636D01*
X0145000Y0194235D02*
X0154600Y0194235D01*
X0154600Y0195833D02*
X0145000Y0195833D01*
X0145000Y0197432D02*
X0154600Y0197432D01*
X0154600Y0199030D02*
X0145000Y0199030D01*
X0145000Y0200629D02*
X0154600Y0200629D01*
X0154600Y0202227D02*
X0145000Y0202227D01*
X0145000Y0203826D02*
X0154600Y0203826D01*
X0154133Y0205424D02*
X0144798Y0205424D01*
X0144865Y0207023D02*
X0153466Y0207023D01*
X0151867Y0208621D02*
X0146463Y0208621D01*
X0146811Y0210220D02*
X0150269Y0210220D01*
X0148277Y0211818D02*
X0145286Y0211818D01*
X0146679Y0213417D02*
X0143688Y0213417D01*
X0143127Y0215015D02*
X0145080Y0215015D01*
X0137685Y0227803D02*
X0137437Y0227803D01*
X0131410Y0231178D02*
X0129782Y0229551D01*
X0129782Y0228818D01*
X0129275Y0228818D01*
X0129078Y0229014D01*
X0129836Y0229771D01*
X0130381Y0231088D01*
X0130381Y0232512D01*
X0130314Y0232675D01*
X0131410Y0231579D01*
X0131410Y0231178D01*
X0131232Y0231001D02*
X0130345Y0231001D01*
X0130345Y0232599D02*
X0130390Y0232599D01*
X0129782Y0229402D02*
X0129466Y0229402D01*
X0102581Y0238993D02*
X0102470Y0238993D01*
X0100983Y0240592D02*
X0100725Y0240592D01*
X0099384Y0242190D02*
X0098980Y0242190D01*
X0097786Y0243789D02*
X0097235Y0243789D01*
X0096187Y0245387D02*
X0095490Y0245387D01*
X0094589Y0246986D02*
X0093745Y0246986D01*
X0092990Y0248584D02*
X0092000Y0248584D01*
X0091392Y0250183D02*
X0090255Y0250183D01*
X0089793Y0251781D02*
X0088510Y0251781D01*
X0088195Y0253380D02*
X0086765Y0253380D01*
X0086596Y0254978D02*
X0085020Y0254978D01*
X0084998Y0256577D02*
X0083275Y0256577D01*
X0083399Y0258175D02*
X0081530Y0258175D01*
X0081801Y0259774D02*
X0079785Y0259774D01*
X0080202Y0261372D02*
X0078040Y0261372D01*
X0078604Y0262971D02*
X0076295Y0262971D01*
X0077005Y0264569D02*
X0074550Y0264569D01*
X0075407Y0266168D02*
X0072804Y0266168D01*
X0073808Y0267766D02*
X0071059Y0267766D01*
X0072210Y0269365D02*
X0069314Y0269365D01*
X0070611Y0270963D02*
X0067569Y0270963D01*
X0069013Y0272562D02*
X0065824Y0272562D01*
X0067414Y0274160D02*
X0064079Y0274160D01*
X0065816Y0275759D02*
X0062334Y0275759D01*
X0060589Y0277357D02*
X0064217Y0277357D01*
X0062619Y0278956D02*
X0058844Y0278956D01*
X0057099Y0280554D02*
X0061352Y0280554D01*
X0061100Y0282153D02*
X0055354Y0282153D01*
X0053609Y0283751D02*
X0059853Y0283751D01*
X0058255Y0285350D02*
X0051864Y0285350D01*
X0050119Y0286948D02*
X0056969Y0286948D01*
X0056384Y0288547D02*
X0048374Y0288547D01*
X0046629Y0290145D02*
X0056384Y0290145D01*
X0056911Y0291744D02*
X0044884Y0291744D01*
X0043139Y0293342D02*
X0058115Y0293342D01*
X0071709Y0286462D02*
X0072933Y0285955D01*
X0074762Y0285955D01*
X0075538Y0285179D01*
X0075538Y0282822D01*
X0073797Y0281082D01*
X0073797Y0279756D01*
X0078632Y0274922D01*
X0079886Y0274922D01*
X0077795Y0272831D01*
X0070427Y0280199D01*
X0071409Y0281181D01*
X0072216Y0283129D01*
X0072216Y0285238D01*
X0071709Y0286462D01*
X0072170Y0285350D02*
X0075367Y0285350D01*
X0075538Y0283751D02*
X0072216Y0283751D01*
X0071812Y0282153D02*
X0074868Y0282153D01*
X0073797Y0280554D02*
X0070782Y0280554D01*
X0071670Y0278956D02*
X0074597Y0278956D01*
X0073268Y0277357D02*
X0076196Y0277357D01*
X0074867Y0275759D02*
X0077795Y0275759D01*
X0076465Y0274160D02*
X0079125Y0274160D01*
X0081069Y0276034D02*
X0082566Y0277531D01*
X0082566Y0276276D01*
X0087401Y0271442D01*
X0087633Y0271442D01*
X0091163Y0267911D01*
X0091163Y0267668D01*
X0093963Y0264869D01*
X0093731Y0264637D01*
X0090932Y0267437D01*
X0090689Y0267437D01*
X0087158Y0270967D01*
X0087158Y0271199D01*
X0082324Y0276034D01*
X0081069Y0276034D01*
X0082598Y0275759D02*
X0083084Y0275759D01*
X0082566Y0277357D02*
X0082393Y0277357D01*
X0083678Y0278956D02*
X0083920Y0278956D01*
X0083092Y0280554D02*
X0085519Y0280554D01*
X0088382Y0280554D02*
X0097186Y0280554D01*
X0098649Y0278956D02*
X0089980Y0278956D01*
X0091579Y0277357D02*
X0100111Y0277357D01*
X0101574Y0275759D02*
X0092448Y0275759D01*
X0093965Y0274160D02*
X0096016Y0274160D01*
X0099768Y0268600D02*
X0100168Y0268600D01*
X0101088Y0268219D01*
X0102512Y0268219D01*
X0103829Y0268764D01*
X0104836Y0269771D01*
X0105381Y0271088D01*
X0105381Y0271598D01*
X0115993Y0260000D01*
X0106163Y0260000D01*
X0104987Y0259513D01*
X0104087Y0258613D01*
X0104087Y0258613D01*
X0102291Y0256816D01*
X0102291Y0257395D01*
X0101835Y0258494D01*
X0100994Y0259335D01*
X0099895Y0259791D01*
X0098705Y0259791D01*
X0097606Y0259335D01*
X0097491Y0259220D01*
X0097428Y0259283D01*
X0101322Y0263178D01*
X0101544Y0263714D01*
X0102437Y0264606D01*
X0102437Y0265932D01*
X0099768Y0268600D01*
X0100602Y0267766D02*
X0108887Y0267766D01*
X0110350Y0266168D02*
X0102200Y0266168D01*
X0102400Y0264569D02*
X0111812Y0264569D01*
X0113275Y0262971D02*
X0101115Y0262971D01*
X0099517Y0261372D02*
X0114737Y0261372D01*
X0105617Y0259774D02*
X0099935Y0259774D01*
X0098665Y0259774D02*
X0097918Y0259774D01*
X0097271Y0254600D02*
X0097606Y0254265D01*
X0098705Y0253809D01*
X0099284Y0253809D01*
X0098050Y0252575D01*
X0096025Y0254600D01*
X0097271Y0254600D01*
X0097246Y0253380D02*
X0098854Y0253380D01*
X0101967Y0258175D02*
X0103650Y0258175D01*
X0104429Y0269365D02*
X0107424Y0269365D01*
X0105962Y0270963D02*
X0105330Y0270963D01*
X0092664Y0266168D02*
X0092200Y0266168D01*
X0091163Y0267766D02*
X0090359Y0267766D01*
X0089710Y0269365D02*
X0088761Y0269365D01*
X0088111Y0270963D02*
X0087162Y0270963D01*
X0086281Y0272562D02*
X0085795Y0272562D01*
X0084682Y0274160D02*
X0084197Y0274160D01*
X0081938Y0282153D02*
X0095723Y0282153D01*
X0094261Y0283751D02*
X0081938Y0283751D01*
X0081938Y0285350D02*
X0092798Y0285350D01*
X0091336Y0286948D02*
X0081938Y0286948D01*
X0081221Y0288547D02*
X0089873Y0288547D01*
X0088410Y0290145D02*
X0079622Y0290145D01*
X0079287Y0291744D02*
X0086948Y0291744D01*
X0085485Y0293342D02*
X0078859Y0293342D01*
X0077796Y0294941D02*
X0084023Y0294941D01*
X0082560Y0296539D02*
X0076198Y0296539D01*
X0074599Y0298138D02*
X0081097Y0298138D01*
X0079635Y0299737D02*
X0073001Y0299737D01*
X0159000Y0199030D02*
X0180125Y0199030D01*
X0177711Y0194600D02*
X0190889Y0194600D01*
X0191489Y0194000D01*
X0190889Y0194000D01*
X0177111Y0194000D01*
X0177711Y0194600D01*
X0177346Y0194235D02*
X0191254Y0194235D01*
X0194279Y0197432D02*
X0211643Y0197432D01*
X0210475Y0198600D02*
X0216587Y0192487D01*
X0218600Y0190475D01*
X0218600Y0173111D01*
X0217711Y0174000D01*
X0212764Y0178948D01*
X0199000Y0178948D01*
X0199000Y0186489D01*
X0201309Y0184179D01*
X0201309Y0183705D01*
X0201765Y0182606D01*
X0202606Y0181765D01*
X0203705Y0181309D01*
X0204895Y0181309D01*
X0205994Y0181765D01*
X0206835Y0182606D01*
X0207291Y0183705D01*
X0207291Y0184895D01*
X0206835Y0185994D01*
X0205994Y0186835D01*
X0204895Y0187291D01*
X0204421Y0187291D01*
X0193111Y0198600D01*
X0210475Y0198600D01*
X0213241Y0195833D02*
X0195878Y0195833D01*
X0197477Y0194235D02*
X0214840Y0194235D01*
X0216438Y0192636D02*
X0199075Y0192636D01*
X0200674Y0191038D02*
X0218037Y0191038D01*
X0218600Y0189439D02*
X0202272Y0189439D01*
X0203871Y0187841D02*
X0218600Y0187841D01*
X0218600Y0186242D02*
X0206587Y0186242D01*
X0207291Y0184644D02*
X0218600Y0184644D01*
X0218600Y0183045D02*
X0207017Y0183045D01*
X0205226Y0181447D02*
X0218600Y0181447D01*
X0218600Y0179848D02*
X0199000Y0179848D01*
X0199000Y0181447D02*
X0203374Y0181447D01*
X0201583Y0183045D02*
X0199000Y0183045D01*
X0199000Y0184644D02*
X0200845Y0184644D01*
X0199247Y0186242D02*
X0199000Y0186242D01*
X0194600Y0185889D02*
X0194600Y0179000D01*
X0194154Y0179000D01*
X0194002Y0178848D01*
X0193966Y0178848D01*
X0193966Y0182365D01*
X0192736Y0183595D01*
X0192069Y0183595D01*
X0192069Y0184642D01*
X0190781Y0185931D01*
X0189791Y0186921D01*
X0189791Y0187395D01*
X0189335Y0188494D01*
X0188494Y0189335D01*
X0187855Y0189600D01*
X0190889Y0189600D01*
X0194600Y0185889D01*
X0194247Y0186242D02*
X0190469Y0186242D01*
X0189606Y0187841D02*
X0192648Y0187841D01*
X0191049Y0189439D02*
X0188243Y0189439D01*
X0185745Y0189600D02*
X0185106Y0189335D01*
X0184300Y0188529D01*
X0183494Y0189335D01*
X0182855Y0189600D01*
X0185745Y0189600D01*
X0185357Y0189439D02*
X0183243Y0189439D01*
X0180745Y0189600D02*
X0180106Y0189335D01*
X0179265Y0188494D01*
X0178809Y0187395D01*
X0178809Y0186520D01*
X0178494Y0186835D01*
X0177395Y0187291D01*
X0176205Y0187291D01*
X0175106Y0186835D01*
X0174265Y0185994D01*
X0174000Y0185355D01*
X0174000Y0185889D01*
X0177711Y0189600D01*
X0180745Y0189600D01*
X0180357Y0189439D02*
X0177550Y0189439D01*
X0178994Y0187841D02*
X0175952Y0187841D01*
X0174513Y0186242D02*
X0174353Y0186242D01*
X0174000Y0183245D02*
X0174265Y0182606D01*
X0175106Y0181765D01*
X0176205Y0181309D01*
X0177395Y0181309D01*
X0178494Y0181765D01*
X0178609Y0181880D01*
X0179613Y0180876D01*
X0179613Y0179084D01*
X0179713Y0178984D01*
X0179713Y0178848D01*
X0179677Y0178848D01*
X0179577Y0178948D01*
X0177764Y0178948D01*
X0174000Y0182711D01*
X0174000Y0183245D01*
X0174000Y0183045D02*
X0174083Y0183045D01*
X0175265Y0181447D02*
X0175874Y0181447D01*
X0177726Y0181447D02*
X0179042Y0181447D01*
X0179613Y0179848D02*
X0176863Y0179848D01*
X0173838Y0176651D02*
X0159000Y0176651D01*
X0159000Y0175053D02*
X0175065Y0175053D01*
X0175065Y0175423D02*
X0175065Y0173881D01*
X0175184Y0173763D01*
X0175065Y0173644D01*
X0175065Y0171905D01*
X0175249Y0171721D01*
X0175065Y0171538D01*
X0175065Y0169798D01*
X0175189Y0169675D01*
X0175065Y0169551D01*
X0175065Y0167812D01*
X0175189Y0167688D01*
X0175065Y0167565D01*
X0175065Y0165825D01*
X0176295Y0164595D01*
X0179713Y0164595D01*
X0179713Y0161077D01*
X0180943Y0159847D01*
X0181600Y0159847D01*
X0181600Y0159711D01*
X0180889Y0159000D01*
X0178829Y0159000D01*
X0178494Y0159335D01*
X0177395Y0159791D01*
X0176205Y0159791D01*
X0175106Y0159335D01*
X0174265Y0158494D01*
X0173809Y0157395D01*
X0173809Y0156205D01*
X0174265Y0155106D01*
X0175106Y0154265D01*
X0175745Y0154000D01*
X0173829Y0154000D01*
X0173494Y0154335D01*
X0172395Y0154791D01*
X0171205Y0154791D01*
X0170106Y0154335D01*
X0169265Y0153494D01*
X0168809Y0152395D01*
X0168809Y0151205D01*
X0169265Y0150106D01*
X0170106Y0149265D01*
X0171205Y0148809D01*
X0172395Y0148809D01*
X0173494Y0149265D01*
X0173829Y0149600D01*
X0174508Y0149600D01*
X0174782Y0149325D01*
X0174782Y0148818D01*
X0174049Y0148818D01*
X0171163Y0145932D01*
X0171163Y0144606D01*
X0171329Y0144440D01*
X0170889Y0144000D01*
X0162711Y0144000D01*
X0159000Y0147711D01*
X0159000Y0190745D01*
X0159265Y0190106D01*
X0160106Y0189265D01*
X0161205Y0188809D01*
X0162395Y0188809D01*
X0163494Y0189265D01*
X0163829Y0189600D01*
X0171489Y0189600D01*
X0169600Y0187711D01*
X0169600Y0180889D01*
X0170889Y0179600D01*
X0175065Y0175423D01*
X0175065Y0173454D02*
X0159000Y0173454D01*
X0159000Y0171856D02*
X0175114Y0171856D01*
X0175065Y0170257D02*
X0159000Y0170257D01*
X0159000Y0168659D02*
X0175065Y0168659D01*
X0175065Y0167060D02*
X0159000Y0167060D01*
X0159000Y0165462D02*
X0175429Y0165462D01*
X0179713Y0163863D02*
X0159000Y0163863D01*
X0159000Y0162265D02*
X0179713Y0162265D01*
X0180124Y0160666D02*
X0159000Y0160666D01*
X0159000Y0159068D02*
X0174838Y0159068D01*
X0173840Y0157469D02*
X0159000Y0157469D01*
X0159000Y0155870D02*
X0173948Y0155870D01*
X0173557Y0154272D02*
X0175099Y0154272D01*
X0176521Y0153809D02*
X0177395Y0153809D01*
X0178494Y0154265D01*
X0178829Y0154600D01*
X0182711Y0154600D01*
X0185693Y0157581D01*
X0185693Y0157296D01*
X0190552Y0152437D01*
X0190394Y0152437D01*
X0188830Y0154000D01*
X0188829Y0154000D01*
X0188494Y0154335D01*
X0187395Y0154791D01*
X0186205Y0154791D01*
X0185106Y0154335D01*
X0184265Y0153494D01*
X0183809Y0152395D01*
X0183809Y0151205D01*
X0184265Y0150106D01*
X0185106Y0149265D01*
X0186205Y0148809D01*
X0186541Y0148809D01*
X0183663Y0145932D01*
X0183663Y0144606D01*
X0183829Y0144440D01*
X0181240Y0141852D01*
X0178818Y0144275D01*
X0178818Y0144782D01*
X0179551Y0144782D01*
X0182437Y0147668D01*
X0182437Y0148994D01*
X0178994Y0152437D01*
X0177894Y0152437D01*
X0176521Y0153809D01*
X0177657Y0152673D02*
X0183925Y0152673D01*
X0183863Y0151075D02*
X0180356Y0151075D01*
X0181954Y0149476D02*
X0184894Y0149476D01*
X0185610Y0147878D02*
X0182437Y0147878D01*
X0181048Y0146279D02*
X0184011Y0146279D01*
X0183663Y0144681D02*
X0178818Y0144681D01*
X0180010Y0143082D02*
X0182471Y0143082D01*
X0185497Y0139885D02*
X0187100Y0139885D01*
X0187100Y0140211D02*
X0187100Y0136868D01*
X0184782Y0134551D01*
X0184782Y0133818D01*
X0184049Y0133818D01*
X0181163Y0130932D01*
X0181163Y0129606D01*
X0181329Y0129440D01*
X0180889Y0129000D01*
X0179600Y0127711D01*
X0179600Y0127500D01*
X0174768Y0127500D01*
X0176318Y0129049D01*
X0176318Y0129782D01*
X0177051Y0129782D01*
X0179937Y0132668D01*
X0179937Y0133994D01*
X0176494Y0137437D01*
X0175394Y0137437D01*
X0175119Y0137711D01*
X0173830Y0139000D01*
X0168829Y0139000D01*
X0168494Y0139335D01*
X0167855Y0139600D01*
X0172711Y0139600D01*
X0174440Y0141329D01*
X0174606Y0141163D01*
X0175706Y0141163D01*
X0179004Y0137865D01*
X0178809Y0137395D01*
X0178809Y0136205D01*
X0179265Y0135106D01*
X0180106Y0134265D01*
X0181205Y0133809D01*
X0182395Y0133809D01*
X0183494Y0134265D01*
X0184335Y0135106D01*
X0184791Y0136205D01*
X0184791Y0137395D01*
X0184335Y0138494D01*
X0184220Y0138609D01*
X0186940Y0141329D01*
X0187106Y0141163D01*
X0188052Y0141163D01*
X0187100Y0140211D01*
X0187100Y0138287D02*
X0184421Y0138287D01*
X0184791Y0136688D02*
X0186920Y0136688D01*
X0185322Y0135090D02*
X0184319Y0135090D01*
X0183723Y0133491D02*
X0179937Y0133491D01*
X0179281Y0135090D02*
X0178841Y0135090D01*
X0178809Y0136688D02*
X0177242Y0136688D01*
X0178583Y0138287D02*
X0174543Y0138287D01*
X0172997Y0139885D02*
X0176984Y0139885D01*
X0171163Y0144681D02*
X0162030Y0144681D01*
X0160432Y0146279D02*
X0171511Y0146279D01*
X0173110Y0147878D02*
X0159000Y0147878D01*
X0159000Y0149476D02*
X0169894Y0149476D01*
X0168863Y0151075D02*
X0159000Y0151075D01*
X0159000Y0152673D02*
X0168925Y0152673D01*
X0170043Y0154272D02*
X0159000Y0154272D01*
X0154600Y0154272D02*
X0136513Y0154272D01*
X0137100Y0152673D02*
X0154600Y0152673D01*
X0154600Y0151075D02*
X0137100Y0151075D01*
X0136574Y0149476D02*
X0154600Y0149476D01*
X0154600Y0147878D02*
X0135373Y0147878D01*
X0134816Y0146279D02*
X0154600Y0146279D01*
X0155808Y0144681D02*
X0136343Y0144681D01*
X0137005Y0143082D02*
X0157406Y0143082D01*
X0159005Y0141484D02*
X0137100Y0141484D01*
X0136826Y0139885D02*
X0160603Y0139885D01*
X0164179Y0138287D02*
X0138424Y0138287D01*
X0140023Y0136688D02*
X0163809Y0136688D01*
X0164281Y0135090D02*
X0141621Y0135090D01*
X0143220Y0133491D02*
X0171223Y0133491D01*
X0169625Y0131893D02*
X0144818Y0131893D01*
X0145810Y0130294D02*
X0168663Y0130294D01*
X0169574Y0128696D02*
X0145810Y0128696D01*
X0141410Y0128696D02*
X0116448Y0128696D01*
X0117251Y0130294D02*
X0140194Y0130294D01*
X0141410Y0129079D02*
X0141410Y0127500D01*
X0141163Y0127500D01*
X0138663Y0127500D01*
X0137487Y0127013D01*
X0136587Y0126113D01*
X0132575Y0122100D01*
X0130746Y0122100D01*
X0128798Y0121293D01*
X0127505Y0120000D01*
X0113663Y0120000D01*
X0112487Y0119513D01*
X0111587Y0118613D01*
X0105753Y0112779D01*
X0108836Y0116453D01*
X0115025Y0125862D01*
X0120079Y0135925D01*
X0123930Y0146507D01*
X0126527Y0157465D01*
X0126820Y0159973D01*
X0127307Y0158798D01*
X0128798Y0157307D01*
X0130022Y0156800D01*
X0128798Y0156293D01*
X0127307Y0154802D01*
X0126500Y0152854D01*
X0126500Y0150746D01*
X0127307Y0148798D01*
X0128798Y0147307D01*
X0130022Y0146800D01*
X0128798Y0146293D01*
X0127307Y0144802D01*
X0126500Y0142854D01*
X0126500Y0140746D01*
X0127307Y0138798D01*
X0128798Y0137307D01*
X0130746Y0136500D01*
X0132854Y0136500D01*
X0133656Y0136832D01*
X0141410Y0129079D01*
X0138596Y0131893D02*
X0118053Y0131893D01*
X0118856Y0133491D02*
X0136997Y0133491D01*
X0135399Y0135090D02*
X0119659Y0135090D01*
X0120079Y0135925D02*
X0120079Y0135925D01*
X0120356Y0136688D02*
X0130291Y0136688D01*
X0127818Y0138287D02*
X0120938Y0138287D01*
X0121520Y0139885D02*
X0126856Y0139885D01*
X0126500Y0141484D02*
X0122102Y0141484D01*
X0122684Y0143082D02*
X0126595Y0143082D01*
X0127257Y0144681D02*
X0123265Y0144681D01*
X0123847Y0146279D02*
X0128784Y0146279D01*
X0128227Y0147878D02*
X0124255Y0147878D01*
X0123930Y0146507D02*
X0123930Y0146507D01*
X0124634Y0149476D02*
X0127026Y0149476D01*
X0126500Y0151075D02*
X0125013Y0151075D01*
X0125392Y0152673D02*
X0126500Y0152673D01*
X0127087Y0154272D02*
X0125770Y0154272D01*
X0126149Y0155870D02*
X0128375Y0155870D01*
X0128636Y0157469D02*
X0126528Y0157469D01*
X0126527Y0157465D02*
X0126527Y0157465D01*
X0126714Y0159068D02*
X0127195Y0159068D01*
X0127395Y0164890D02*
X0127795Y0168310D01*
X0128798Y0167307D01*
X0130022Y0166800D01*
X0128798Y0166293D01*
X0127395Y0164890D01*
X0127462Y0165462D02*
X0127966Y0165462D01*
X0127649Y0167060D02*
X0129394Y0167060D01*
X0127834Y0175330D02*
X0127834Y0178270D01*
X0128798Y0177307D01*
X0130022Y0176800D01*
X0128798Y0176293D01*
X0127834Y0175330D01*
X0127834Y0176651D02*
X0129662Y0176651D01*
X0127855Y0178250D02*
X0127834Y0178250D01*
X0127272Y0184719D02*
X0127015Y0186922D01*
X0127437Y0186500D01*
X0129297Y0186500D01*
X0128798Y0186293D01*
X0127307Y0184802D01*
X0127272Y0184719D01*
X0127094Y0186242D02*
X0128747Y0186242D01*
X0126500Y0192636D02*
X0126162Y0192636D01*
X0126500Y0194235D02*
X0125783Y0194235D01*
X0125404Y0195833D02*
X0126500Y0195833D01*
X0159000Y0195833D02*
X0172722Y0195833D01*
X0171123Y0194235D02*
X0163595Y0194235D01*
X0160005Y0194235D02*
X0159000Y0194235D01*
X0159000Y0197432D02*
X0174321Y0197432D01*
X0171328Y0189439D02*
X0163669Y0189439D01*
X0159000Y0187841D02*
X0169729Y0187841D01*
X0169600Y0186242D02*
X0159000Y0186242D01*
X0159000Y0184644D02*
X0169600Y0184644D01*
X0169600Y0183045D02*
X0159000Y0183045D01*
X0159000Y0181447D02*
X0169600Y0181447D01*
X0170641Y0179848D02*
X0159000Y0179848D01*
X0159000Y0178250D02*
X0172239Y0178250D01*
X0186000Y0183595D02*
X0186000Y0183895D01*
X0186205Y0183809D01*
X0186679Y0183809D01*
X0186958Y0183531D01*
X0186839Y0183412D01*
X0186656Y0183595D01*
X0186000Y0183595D01*
X0192068Y0184644D02*
X0194600Y0184644D01*
X0194600Y0183045D02*
X0193286Y0183045D01*
X0193966Y0181447D02*
X0194600Y0181447D01*
X0194600Y0179848D02*
X0193966Y0179848D01*
X0213462Y0178250D02*
X0218600Y0178250D01*
X0218600Y0176651D02*
X0215060Y0176651D01*
X0216659Y0175053D02*
X0218600Y0175053D01*
X0218600Y0173454D02*
X0218257Y0173454D01*
X0216587Y0192487D02*
X0216587Y0192487D01*
X0216100Y0202227D02*
X0215898Y0202227D01*
X0216100Y0203826D02*
X0214300Y0203826D01*
X0237150Y0229402D02*
X0237768Y0229402D01*
X0237529Y0231001D02*
X0251475Y0231001D01*
X0253074Y0232599D02*
X0237457Y0232599D01*
X0236795Y0234198D02*
X0254672Y0234198D01*
X0256271Y0235796D02*
X0235299Y0235796D01*
X0240832Y0229402D02*
X0249877Y0229402D01*
X0248278Y0227803D02*
X0243292Y0227803D01*
X0244248Y0226205D02*
X0246680Y0226205D01*
X0249513Y0219987D02*
X0256056Y0226531D01*
X0253536Y0222699D01*
X0248482Y0212636D01*
X0248482Y0212636D01*
X0244631Y0202054D01*
X0244631Y0202054D01*
X0242500Y0193064D01*
X0242500Y0218600D01*
X0247437Y0218600D01*
X0248613Y0219087D01*
X0249513Y0219987D01*
X0249336Y0219811D02*
X0252086Y0219811D01*
X0252888Y0221409D02*
X0250935Y0221409D01*
X0252533Y0223008D02*
X0253739Y0223008D01*
X0253536Y0222699D02*
X0253536Y0222699D01*
X0254132Y0224606D02*
X0254791Y0224606D01*
X0255730Y0226205D02*
X0255842Y0226205D01*
X0251283Y0218212D02*
X0242500Y0218212D01*
X0242500Y0216614D02*
X0250480Y0216614D01*
X0249677Y0215015D02*
X0242500Y0215015D01*
X0242500Y0213417D02*
X0248874Y0213417D01*
X0248185Y0211818D02*
X0242500Y0211818D01*
X0242500Y0210220D02*
X0247603Y0210220D01*
X0247021Y0208621D02*
X0242500Y0208621D01*
X0242500Y0207023D02*
X0246439Y0207023D01*
X0245857Y0205424D02*
X0242500Y0205424D01*
X0242500Y0203826D02*
X0245276Y0203826D01*
X0244694Y0202227D02*
X0242500Y0202227D01*
X0242500Y0200629D02*
X0244293Y0200629D01*
X0243914Y0199030D02*
X0242500Y0199030D01*
X0242500Y0197432D02*
X0243535Y0197432D01*
X0243156Y0195833D02*
X0242500Y0195833D01*
X0242500Y0194235D02*
X0242777Y0194235D01*
X0242500Y0155497D02*
X0244631Y0146507D01*
X0248482Y0135925D01*
X0253536Y0125862D01*
X0253536Y0125862D01*
X0259724Y0116453D01*
X0262938Y0112623D01*
X0263076Y0112328D01*
X0263547Y0111897D01*
X0263957Y0111408D01*
X0264245Y0111259D01*
X0332979Y0048365D01*
X0329117Y0049400D01*
X0324483Y0049400D01*
X0320007Y0048201D01*
X0315993Y0045883D01*
X0312716Y0042607D01*
X0310399Y0038593D01*
X0309200Y0034117D01*
X0309200Y0029483D01*
X0310201Y0025746D01*
X0264840Y0076100D01*
X0269937Y0076100D01*
X0271113Y0076587D01*
X0271800Y0077275D01*
X0276152Y0072922D01*
X0276152Y0072112D01*
X0280987Y0067277D01*
X0282313Y0067277D01*
X0284922Y0069886D01*
X0284922Y0068632D01*
X0286662Y0066891D01*
X0286662Y0061459D01*
X0287149Y0060283D01*
X0288050Y0059383D01*
X0289313Y0058120D01*
X0289313Y0056291D01*
X0290120Y0054343D01*
X0296843Y0047620D01*
X0298791Y0046813D01*
X0300899Y0046813D01*
X0302847Y0047620D01*
X0304338Y0049110D01*
X0305145Y0051058D01*
X0305145Y0053167D01*
X0304638Y0054391D01*
X0305862Y0053884D01*
X0307971Y0053884D01*
X0309918Y0054691D01*
X0311409Y0056181D01*
X0312216Y0058129D01*
X0312216Y0060238D01*
X0311409Y0062186D01*
X0304686Y0068909D01*
X0302738Y0069716D01*
X0300629Y0069716D01*
X0298681Y0068909D01*
X0297191Y0067418D01*
X0296384Y0065471D01*
X0296384Y0063362D01*
X0296891Y0062138D01*
X0295667Y0062645D01*
X0293838Y0062645D01*
X0293062Y0063421D01*
X0293062Y0065778D01*
X0294803Y0067518D01*
X0294803Y0068844D01*
X0289968Y0073678D01*
X0288714Y0073678D01*
X0291323Y0076287D01*
X0291323Y0077613D01*
X0286488Y0082448D01*
X0285678Y0082448D01*
X0279937Y0088189D01*
X0279937Y0088432D01*
X0277051Y0091318D01*
X0276318Y0091318D01*
X0276318Y0092051D01*
X0273432Y0094937D01*
X0272106Y0094937D01*
X0271214Y0094044D01*
X0270678Y0093822D01*
X0267490Y0090635D01*
X0265000Y0093125D01*
X0265000Y0095168D01*
X0265381Y0096088D01*
X0265381Y0097512D01*
X0264836Y0098829D01*
X0263829Y0099836D01*
X0262512Y0100381D01*
X0261088Y0100381D01*
X0259771Y0099836D01*
X0258764Y0098829D01*
X0258219Y0097512D01*
X0258219Y0096088D01*
X0258600Y0095168D01*
X0258600Y0091163D01*
X0259087Y0089987D01*
X0259987Y0089087D01*
X0263663Y0085411D01*
X0263663Y0085168D01*
X0266332Y0082500D01*
X0265625Y0082500D01*
X0255000Y0093125D01*
X0255000Y0112437D01*
X0254513Y0113613D01*
X0242500Y0125625D01*
X0242500Y0155497D01*
X0242500Y0154272D02*
X0242790Y0154272D01*
X0242500Y0152673D02*
X0243169Y0152673D01*
X0243548Y0151075D02*
X0242500Y0151075D01*
X0242500Y0149476D02*
X0243927Y0149476D01*
X0244306Y0147878D02*
X0242500Y0147878D01*
X0242500Y0146279D02*
X0244713Y0146279D01*
X0244631Y0146507D02*
X0244631Y0146507D01*
X0245295Y0144681D02*
X0242500Y0144681D01*
X0242500Y0143082D02*
X0245877Y0143082D01*
X0246459Y0141484D02*
X0242500Y0141484D01*
X0242500Y0139885D02*
X0247041Y0139885D01*
X0247622Y0138287D02*
X0242500Y0138287D01*
X0242500Y0136688D02*
X0248204Y0136688D01*
X0248482Y0135925D02*
X0248482Y0135925D01*
X0248902Y0135090D02*
X0242500Y0135090D01*
X0242500Y0133491D02*
X0249704Y0133491D01*
X0250507Y0131893D02*
X0242500Y0131893D01*
X0242500Y0130294D02*
X0251310Y0130294D01*
X0252113Y0128696D02*
X0242500Y0128696D01*
X0242500Y0127097D02*
X0252916Y0127097D01*
X0253775Y0125499D02*
X0242627Y0125499D01*
X0244225Y0123900D02*
X0254826Y0123900D01*
X0255877Y0122302D02*
X0245824Y0122302D01*
X0247422Y0120703D02*
X0256929Y0120703D01*
X0257980Y0119105D02*
X0249021Y0119105D01*
X0250619Y0117506D02*
X0259032Y0117506D01*
X0259724Y0116453D02*
X0259724Y0116453D01*
X0260182Y0115908D02*
X0252218Y0115908D01*
X0253816Y0114309D02*
X0261523Y0114309D01*
X0262864Y0112711D02*
X0254886Y0112711D01*
X0255000Y0111112D02*
X0264405Y0111112D01*
X0266152Y0109514D02*
X0255000Y0109514D01*
X0255000Y0107915D02*
X0267899Y0107915D01*
X0269646Y0106317D02*
X0255000Y0106317D01*
X0255000Y0104718D02*
X0271393Y0104718D01*
X0273140Y0103120D02*
X0255000Y0103120D01*
X0255000Y0101521D02*
X0274887Y0101521D01*
X0276634Y0099923D02*
X0263619Y0099923D01*
X0265045Y0098324D02*
X0278381Y0098324D01*
X0280128Y0096726D02*
X0265381Y0096726D01*
X0265000Y0095127D02*
X0281875Y0095127D01*
X0283622Y0093529D02*
X0274840Y0093529D01*
X0276318Y0091930D02*
X0285369Y0091930D01*
X0287115Y0090332D02*
X0278037Y0090332D01*
X0279635Y0088733D02*
X0288862Y0088733D01*
X0290609Y0087134D02*
X0280991Y0087134D01*
X0282589Y0085536D02*
X0292356Y0085536D01*
X0294103Y0083937D02*
X0284188Y0083937D01*
X0286597Y0082339D02*
X0295850Y0082339D01*
X0297597Y0080740D02*
X0288196Y0080740D01*
X0289794Y0079142D02*
X0299344Y0079142D01*
X0301091Y0077543D02*
X0291323Y0077543D01*
X0290981Y0075945D02*
X0302838Y0075945D01*
X0304585Y0074346D02*
X0289382Y0074346D01*
X0290899Y0072748D02*
X0306332Y0072748D01*
X0308079Y0071149D02*
X0292497Y0071149D01*
X0294096Y0069551D02*
X0300230Y0069551D01*
X0303137Y0069551D02*
X0309826Y0069551D01*
X0311573Y0067952D02*
X0305643Y0067952D01*
X0307241Y0066354D02*
X0313320Y0066354D01*
X0315067Y0064755D02*
X0308840Y0064755D01*
X0310438Y0063157D02*
X0316814Y0063157D01*
X0318561Y0061558D02*
X0311669Y0061558D01*
X0312216Y0059960D02*
X0320308Y0059960D01*
X0322055Y0058361D02*
X0312216Y0058361D01*
X0311650Y0056763D02*
X0323802Y0056763D01*
X0325549Y0055164D02*
X0310392Y0055164D01*
X0304980Y0053566D02*
X0327296Y0053566D01*
X0329042Y0051967D02*
X0305145Y0051967D01*
X0304860Y0050369D02*
X0330789Y0050369D01*
X0331467Y0048770D02*
X0332536Y0048770D01*
X0322133Y0048770D02*
X0303998Y0048770D01*
X0301766Y0047172D02*
X0318225Y0047172D01*
X0315683Y0045573D02*
X0292340Y0045573D01*
X0293780Y0043975D02*
X0314085Y0043975D01*
X0312583Y0042376D02*
X0295220Y0042376D01*
X0296660Y0040778D02*
X0311661Y0040778D01*
X0310738Y0039179D02*
X0298100Y0039179D01*
X0299540Y0037581D02*
X0310128Y0037581D01*
X0309700Y0035982D02*
X0300980Y0035982D01*
X0302420Y0034384D02*
X0309271Y0034384D01*
X0309200Y0032785D02*
X0303860Y0032785D01*
X0305300Y0031187D02*
X0309200Y0031187D01*
X0309200Y0029588D02*
X0306740Y0029588D01*
X0308180Y0027990D02*
X0309600Y0027990D01*
X0309620Y0026391D02*
X0310028Y0026391D01*
X0297924Y0047172D02*
X0290900Y0047172D01*
X0289460Y0048770D02*
X0295692Y0048770D01*
X0294094Y0050369D02*
X0288020Y0050369D01*
X0286580Y0051967D02*
X0292495Y0051967D01*
X0290897Y0053566D02*
X0285140Y0053566D01*
X0283700Y0055164D02*
X0289779Y0055164D01*
X0289313Y0056763D02*
X0282260Y0056763D01*
X0280820Y0058361D02*
X0289071Y0058361D01*
X0287473Y0059960D02*
X0279380Y0059960D01*
X0277940Y0061558D02*
X0286662Y0061558D01*
X0286662Y0063157D02*
X0276500Y0063157D01*
X0275060Y0064755D02*
X0286662Y0064755D01*
X0286662Y0066354D02*
X0273620Y0066354D01*
X0272180Y0067952D02*
X0280312Y0067952D01*
X0278713Y0069551D02*
X0270740Y0069551D01*
X0269300Y0071149D02*
X0277115Y0071149D01*
X0276152Y0072748D02*
X0267860Y0072748D01*
X0266420Y0074346D02*
X0274728Y0074346D01*
X0273130Y0075945D02*
X0264980Y0075945D01*
X0264894Y0083937D02*
X0264188Y0083937D01*
X0263539Y0085536D02*
X0262589Y0085536D01*
X0261940Y0087134D02*
X0260991Y0087134D01*
X0260341Y0088733D02*
X0259392Y0088733D01*
X0258945Y0090332D02*
X0257794Y0090332D01*
X0258600Y0091930D02*
X0256195Y0091930D01*
X0255000Y0093529D02*
X0258600Y0093529D01*
X0258600Y0095127D02*
X0255000Y0095127D01*
X0255000Y0096726D02*
X0258219Y0096726D01*
X0258555Y0098324D02*
X0255000Y0098324D01*
X0255000Y0099923D02*
X0259981Y0099923D01*
X0265000Y0093529D02*
X0270384Y0093529D01*
X0268786Y0091930D02*
X0266195Y0091930D01*
X0272137Y0086231D02*
X0272369Y0086463D01*
X0275168Y0083663D01*
X0275411Y0083663D01*
X0281442Y0077633D01*
X0281442Y0077401D01*
X0286276Y0072566D01*
X0287531Y0072566D01*
X0286034Y0071069D01*
X0286034Y0072324D01*
X0281199Y0077158D01*
X0280967Y0077158D01*
X0274937Y0083189D01*
X0274937Y0083432D01*
X0272137Y0086231D01*
X0272832Y0085536D02*
X0273296Y0085536D01*
X0274431Y0083937D02*
X0274894Y0083937D01*
X0275786Y0082339D02*
X0276736Y0082339D01*
X0277385Y0080740D02*
X0278334Y0080740D01*
X0278984Y0079142D02*
X0279933Y0079142D01*
X0280582Y0077543D02*
X0281442Y0077543D01*
X0282412Y0075945D02*
X0282898Y0075945D01*
X0284011Y0074346D02*
X0284496Y0074346D01*
X0285609Y0072748D02*
X0286095Y0072748D01*
X0286114Y0071149D02*
X0286034Y0071149D01*
X0284922Y0069551D02*
X0284586Y0069551D01*
X0285601Y0067952D02*
X0282988Y0067952D01*
X0293062Y0064755D02*
X0296384Y0064755D01*
X0296469Y0063157D02*
X0293326Y0063157D01*
X0293639Y0066354D02*
X0296750Y0066354D01*
X0297724Y0067952D02*
X0294803Y0067952D01*
X0248600Y0095127D02*
X0247700Y0095127D01*
X0248600Y0096726D02*
X0246255Y0096726D01*
X0244220Y0098324D02*
X0248600Y0098324D01*
X0248600Y0099923D02*
X0242315Y0099923D01*
X0239941Y0101521D02*
X0248600Y0101521D01*
X0248600Y0103120D02*
X0237511Y0103120D01*
X0235080Y0104718D02*
X0248600Y0104718D01*
X0248600Y0106317D02*
X0232635Y0106317D01*
X0229452Y0107915D02*
X0248600Y0107915D01*
X0248600Y0109514D02*
X0226269Y0109514D01*
X0223086Y0111112D02*
X0247962Y0111112D01*
X0246364Y0112711D02*
X0218865Y0112711D01*
X0214473Y0114309D02*
X0244765Y0114309D01*
X0239970Y0119105D02*
X0146582Y0119105D01*
X0147100Y0117506D02*
X0166280Y0117506D01*
X0159536Y0115908D02*
X0147100Y0115908D01*
X0146505Y0114309D02*
X0154087Y0114309D01*
X0149695Y0112711D02*
X0145206Y0112711D01*
X0145475Y0111112D02*
X0113138Y0111112D01*
X0114736Y0112711D02*
X0128394Y0112711D01*
X0135206Y0112711D02*
X0138394Y0112711D01*
X0137095Y0114309D02*
X0136505Y0114309D01*
X0139109Y0107915D02*
X0109941Y0107915D01*
X0111539Y0109514D02*
X0142292Y0109514D01*
X0135926Y0106317D02*
X0108342Y0106317D01*
X0106744Y0104718D02*
X0133480Y0104718D01*
X0131050Y0103120D02*
X0105145Y0103120D01*
X0103547Y0101521D02*
X0128619Y0101521D01*
X0126246Y0099923D02*
X0108619Y0099923D01*
X0110045Y0098324D02*
X0124341Y0098324D01*
X0122306Y0096726D02*
X0110381Y0096726D01*
X0110000Y0095127D02*
X0120862Y0095127D01*
X0119422Y0093529D02*
X0110000Y0093529D01*
X0110000Y0091930D02*
X0117983Y0091930D01*
X0116544Y0090332D02*
X0109655Y0090332D01*
X0108258Y0088733D02*
X0115105Y0088733D01*
X0113666Y0087134D02*
X0106660Y0087134D01*
X0105061Y0085536D02*
X0112226Y0085536D01*
X0110787Y0083937D02*
X0103706Y0083937D01*
X0102107Y0082339D02*
X0109348Y0082339D01*
X0107909Y0080740D02*
X0100509Y0080740D01*
X0098910Y0079142D02*
X0106470Y0079142D01*
X0105030Y0077543D02*
X0097069Y0077543D01*
X0095470Y0075945D02*
X0103591Y0075945D01*
X0102152Y0074346D02*
X0093872Y0074346D01*
X0092448Y0072748D02*
X0100713Y0072748D01*
X0099274Y0071149D02*
X0091485Y0071149D01*
X0089887Y0069551D02*
X0097834Y0069551D01*
X0096395Y0067952D02*
X0088288Y0067952D01*
X0085612Y0067952D02*
X0082999Y0067952D01*
X0083678Y0069551D02*
X0084013Y0069551D01*
X0082566Y0071069D02*
X0081069Y0072566D01*
X0082324Y0072566D01*
X0087158Y0077401D01*
X0087158Y0077633D01*
X0093189Y0083663D01*
X0093432Y0083663D01*
X0096231Y0086463D01*
X0096463Y0086231D01*
X0093663Y0083432D01*
X0093663Y0083189D01*
X0087633Y0077158D01*
X0087401Y0077158D01*
X0082566Y0072324D01*
X0082566Y0071069D01*
X0082566Y0071149D02*
X0082486Y0071149D01*
X0082505Y0072748D02*
X0082991Y0072748D01*
X0084104Y0074346D02*
X0084589Y0074346D01*
X0085702Y0075945D02*
X0086188Y0075945D01*
X0087158Y0077543D02*
X0088018Y0077543D01*
X0088667Y0079142D02*
X0089616Y0079142D01*
X0090266Y0080740D02*
X0091215Y0080740D01*
X0091864Y0082339D02*
X0092813Y0082339D01*
X0093706Y0083937D02*
X0094169Y0083937D01*
X0095304Y0085536D02*
X0095768Y0085536D01*
X0099814Y0091930D02*
X0102405Y0091930D01*
X0103600Y0093529D02*
X0098216Y0093529D01*
X0097153Y0095127D02*
X0103600Y0095127D01*
X0103219Y0096726D02*
X0098751Y0096726D01*
X0100350Y0098324D02*
X0103555Y0098324D01*
X0104981Y0099923D02*
X0101948Y0099923D01*
X0099291Y0106317D02*
X0098918Y0106317D01*
X0097693Y0104718D02*
X0097172Y0104718D01*
X0096094Y0103120D02*
X0095426Y0103120D01*
X0094496Y0101521D02*
X0093680Y0101521D01*
X0092897Y0099923D02*
X0091934Y0099923D01*
X0091299Y0098324D02*
X0090188Y0098324D01*
X0089700Y0096726D02*
X0088442Y0096726D01*
X0088102Y0095127D02*
X0086696Y0095127D01*
X0086552Y0093529D02*
X0084949Y0093529D01*
X0086100Y0091930D02*
X0083203Y0091930D01*
X0081457Y0090332D02*
X0086100Y0090332D01*
X0086100Y0088733D02*
X0079711Y0088733D01*
X0077965Y0087134D02*
X0086940Y0087134D01*
X0086011Y0085536D02*
X0076219Y0085536D01*
X0074473Y0083937D02*
X0084412Y0083937D01*
X0082003Y0082339D02*
X0072727Y0082339D01*
X0070981Y0080740D02*
X0080404Y0080740D01*
X0078806Y0079142D02*
X0069235Y0079142D01*
X0067489Y0077543D02*
X0077277Y0077543D01*
X0077619Y0075945D02*
X0065743Y0075945D01*
X0063997Y0074346D02*
X0079218Y0074346D01*
X0077701Y0072748D02*
X0062251Y0072748D01*
X0060505Y0071149D02*
X0076103Y0071149D01*
X0074504Y0069551D02*
X0068370Y0069551D01*
X0065463Y0069551D02*
X0058759Y0069551D01*
X0057013Y0067952D02*
X0062957Y0067952D01*
X0061359Y0066354D02*
X0055267Y0066354D01*
X0053521Y0064755D02*
X0059760Y0064755D01*
X0058162Y0063157D02*
X0051775Y0063157D01*
X0050029Y0061558D02*
X0056931Y0061558D01*
X0056384Y0059960D02*
X0048283Y0059960D01*
X0046537Y0058361D02*
X0056384Y0058361D01*
X0056950Y0056763D02*
X0044791Y0056763D01*
X0043045Y0055164D02*
X0058208Y0055164D01*
X0063620Y0053566D02*
X0041299Y0053566D01*
X0039552Y0051967D02*
X0063455Y0051967D01*
X0063740Y0050369D02*
X0037806Y0050369D01*
X0037133Y0048770D02*
X0036060Y0048770D01*
X0046467Y0048770D02*
X0064602Y0048770D01*
X0066834Y0047172D02*
X0050375Y0047172D01*
X0052917Y0045573D02*
X0076247Y0045573D01*
X0077686Y0047172D02*
X0070676Y0047172D01*
X0072908Y0048770D02*
X0079125Y0048770D01*
X0080564Y0050369D02*
X0074506Y0050369D01*
X0076105Y0051967D02*
X0082003Y0051967D01*
X0083443Y0053566D02*
X0077703Y0053566D01*
X0078821Y0055164D02*
X0084882Y0055164D01*
X0086321Y0056763D02*
X0079287Y0056763D01*
X0079529Y0058361D02*
X0087760Y0058361D01*
X0089199Y0059960D02*
X0081127Y0059960D01*
X0081938Y0061558D02*
X0090639Y0061558D01*
X0092078Y0063157D02*
X0081938Y0063157D01*
X0081938Y0064755D02*
X0093517Y0064755D01*
X0094956Y0066354D02*
X0081938Y0066354D01*
X0075538Y0064755D02*
X0072216Y0064755D01*
X0072131Y0063157D02*
X0075273Y0063157D01*
X0074961Y0066354D02*
X0071850Y0066354D01*
X0070876Y0067952D02*
X0073797Y0067952D01*
X0074807Y0043975D02*
X0054515Y0043975D01*
X0056017Y0042376D02*
X0073368Y0042376D01*
X0071929Y0040778D02*
X0056939Y0040778D01*
X0057862Y0039179D02*
X0070490Y0039179D01*
X0069051Y0037581D02*
X0058472Y0037581D01*
X0058900Y0035982D02*
X0067612Y0035982D01*
X0066172Y0034384D02*
X0059329Y0034384D01*
X0059400Y0032785D02*
X0064733Y0032785D01*
X0063294Y0031187D02*
X0059400Y0031187D01*
X0059400Y0029588D02*
X0061855Y0029588D01*
X0060416Y0027990D02*
X0059000Y0027990D01*
X0058976Y0026391D02*
X0058572Y0026391D01*
X0100664Y0107915D02*
X0100890Y0107915D01*
X0102410Y0109514D02*
X0102488Y0109514D01*
X0107037Y0114309D02*
X0107284Y0114309D01*
X0108379Y0115908D02*
X0108882Y0115908D01*
X0108836Y0116453D02*
X0108836Y0116453D01*
X0109529Y0117506D02*
X0110481Y0117506D01*
X0110580Y0119105D02*
X0112079Y0119105D01*
X0111632Y0120703D02*
X0128208Y0120703D01*
X0132776Y0122302D02*
X0112683Y0122302D01*
X0113734Y0123900D02*
X0134375Y0123900D01*
X0135973Y0125499D02*
X0114786Y0125499D01*
X0115025Y0125862D02*
X0115025Y0125862D01*
X0115645Y0127097D02*
X0137691Y0127097D01*
X0145392Y0120703D02*
X0238371Y0120703D01*
X0236100Y0138287D02*
X0232676Y0138287D01*
X0234883Y0139885D02*
X0236100Y0139885D01*
X0236100Y0141484D02*
X0235381Y0141484D01*
X0235145Y0143082D02*
X0236100Y0143082D01*
X0236100Y0144681D02*
X0233984Y0144681D01*
X0236100Y0146279D02*
X0231846Y0146279D01*
X0230248Y0147878D02*
X0236100Y0147878D01*
X0236100Y0149476D02*
X0228649Y0149476D01*
X0227051Y0151075D02*
X0236100Y0151075D01*
X0236100Y0152673D02*
X0225452Y0152673D01*
X0207100Y0136489D02*
X0207100Y0132711D01*
X0205889Y0131500D01*
X0203768Y0131500D01*
X0204937Y0132668D01*
X0204937Y0133994D01*
X0204771Y0134160D01*
X0207100Y0136489D01*
X0207100Y0135090D02*
X0205701Y0135090D01*
X0204937Y0133491D02*
X0207100Y0133491D01*
X0206282Y0131893D02*
X0204161Y0131893D01*
X0191570Y0144681D02*
X0191318Y0144681D01*
X0191318Y0144782D02*
X0191318Y0144429D01*
X0191671Y0144782D01*
X0191318Y0144782D01*
X0190315Y0152673D02*
X0190157Y0152673D01*
X0188717Y0154272D02*
X0188557Y0154272D01*
X0187118Y0155870D02*
X0183982Y0155870D01*
X0185043Y0154272D02*
X0178501Y0154272D01*
X0174631Y0149476D02*
X0173706Y0149476D01*
X0178762Y0159068D02*
X0180956Y0159068D01*
X0185580Y0157469D02*
X0185693Y0157469D01*
X0199000Y0150108D02*
X0199782Y0149325D01*
X0199782Y0148818D01*
X0199049Y0148818D01*
X0199000Y0148768D01*
X0199000Y0150108D01*
X0199000Y0149476D02*
X0199631Y0149476D01*
X0182125Y0131893D02*
X0179161Y0131893D01*
X0177563Y0130294D02*
X0181163Y0130294D01*
X0180585Y0128696D02*
X0175964Y0128696D01*
X0187268Y0127500D02*
X0187790Y0127500D01*
X0187790Y0128022D01*
X0187268Y0127500D01*
X0154600Y0155870D02*
X0135225Y0155870D01*
X0134964Y0157469D02*
X0154600Y0157469D01*
X0154600Y0159068D02*
X0141065Y0159068D01*
X0142691Y0160666D02*
X0154600Y0160666D01*
X0133800Y0136688D02*
X0133309Y0136688D01*
X0159000Y0189439D02*
X0159931Y0189439D01*
M02*
