G75*
%MOIN*%
%OFA0B0*%
%FSLAX25Y25*%
%IPPOS*%
%LPD*%
%AMOC8*
5,1,8,0,0,1.08239X$1,22.5*
%
%ADD10R,0.08200X0.08200*%
%ADD11C,0.08200*%
%ADD12C,0.08200*%
%ADD13R,0.12611X0.05524*%
%ADD14R,0.05524X0.12611*%
%ADD15C,0.04343*%
%ADD16C,0.04762*%
%ADD17C,0.03581*%
%ADD18C,0.32800*%
D10*
X0131800Y0191800D03*
D11*
X0131800Y0181800D03*
X0131800Y0171800D03*
X0131800Y0161800D03*
X0131800Y0151800D03*
X0131800Y0141800D03*
X0131800Y0116800D03*
X0141800Y0116800D03*
X0239300Y0224300D03*
X0232229Y0231371D03*
D12*
X0294613Y0291255D02*
X0299845Y0296487D01*
X0306916Y0289416D02*
X0301684Y0284184D01*
X0073987Y0291255D02*
X0068755Y0296487D01*
X0061684Y0289416D02*
X0066916Y0284184D01*
X0066916Y0064416D02*
X0061684Y0059184D01*
X0068755Y0052113D02*
X0073987Y0057345D01*
X0294613Y0057345D02*
X0299845Y0052113D01*
X0306916Y0059184D02*
X0301684Y0064416D01*
D13*
X0219477Y0129517D03*
X0219477Y0137391D03*
X0219477Y0145265D03*
X0219477Y0153139D03*
X0219477Y0161013D03*
X0219477Y0168887D03*
X0219477Y0176761D03*
X0219477Y0184635D03*
X0154910Y0184635D03*
X0154910Y0176761D03*
X0154910Y0168887D03*
X0154910Y0161013D03*
X0154910Y0153139D03*
X0154910Y0145265D03*
X0154910Y0137391D03*
X0154910Y0129517D03*
D14*
X0166328Y0121249D03*
X0174202Y0121249D03*
X0182076Y0121249D03*
X0189950Y0121249D03*
X0197824Y0121249D03*
X0205698Y0121249D03*
D15*
X0190206Y0229300D03*
X0178394Y0229300D03*
D16*
X0219300Y0219300D03*
X0261800Y0251800D03*
X0231800Y0141800D03*
X0261800Y0096800D03*
X0126800Y0231800D03*
X0101800Y0271800D03*
X0106800Y0096800D03*
D17*
X0166800Y0136800D03*
X0181800Y0136800D03*
X0194300Y0139300D03*
X0186800Y0151800D03*
X0176800Y0156800D03*
X0171800Y0151800D03*
X0199300Y0159300D03*
X0206800Y0171800D03*
X0204300Y0184300D03*
X0186800Y0186800D03*
X0181800Y0186800D03*
X0176800Y0184300D03*
X0161800Y0191800D03*
X0156800Y0206800D03*
X0099300Y0256800D03*
X0226800Y0191800D03*
D18*
X0041800Y0031800D03*
X0326800Y0031800D03*
X0326800Y0316800D03*
X0041800Y0316800D03*
M02*
